<svg width="25" height="24" viewBox="0 0 25 24" fill="none" xmlns="http://www.w3.org/2000/svg">
<g id="vuesax/bulk/moneys">
<g id="moneys">
<path id="Vector" opacity="0.4" d="M19.6333 7.91998V13.07C19.6333 16.15 17.8733 17.47 15.2333 17.47H6.44333C5.99333 17.47 5.56333 17.43 5.16333 17.34C4.91333 17.3 4.67334 17.23 4.45334 17.15C2.95334 16.59 2.04333 15.29 2.04333 13.07V7.91998C2.04333 4.83998 3.80333 3.52002 6.44333 3.52002H15.2333C17.4733 3.52002 19.0833 4.47001 19.5133 6.64001C19.5833 7.04001 19.6333 7.44998 19.6333 7.91998Z" fill="#11A75C"/>
<path id="Vector_2" d="M22.6333 10.92V16.07C22.6333 19.15 20.8733 20.47 18.2333 20.47H9.44333C8.70333 20.47 8.03334 20.37 7.45334 20.15C6.26334 19.71 5.45333 18.8 5.16333 17.34C5.56333 17.43 5.99333 17.47 6.44333 17.47H15.2333C17.8733 17.47 19.6333 16.15 19.6333 13.07V7.91998C19.6333 7.44998 19.5933 7.03001 19.5133 6.64001C21.4133 7.04001 22.6333 8.37998 22.6333 10.92Z" fill="#11A75C"/>
<path id="Vector_3" d="M10.8334 13.14C12.2914 13.14 13.4734 11.958 13.4734 10.5C13.4734 9.04197 12.2914 7.85999 10.8334 7.85999C9.37534 7.85999 8.19336 9.04197 8.19336 10.5C8.19336 11.958 9.37534 13.14 10.8334 13.14Z" fill="#11A75C"/>
<path id="Vector_4" d="M5.1134 8.25C4.7034 8.25 4.3634 8.59 4.3634 9V12C4.3634 12.41 4.7034 12.75 5.1134 12.75C5.5234 12.75 5.8634 12.41 5.8634 12V9C5.8634 8.59 5.5334 8.25 5.1134 8.25Z" fill="#11A75C"/>
<path id="Vector_5" d="M16.5433 8.25C16.1333 8.25 15.7933 8.59 15.7933 9V12C15.7933 12.41 16.1333 12.75 16.5433 12.75C16.9533 12.75 17.2933 12.41 17.2933 12V9C17.2933 8.59 16.9633 8.25 16.5433 8.25Z" fill="#11A75C"/>
</g>
</g>
</svg>
