<svg width="25" height="24" viewBox="0 0 25 24" fill="none" xmlns="http://www.w3.org/2000/svg">
<g id="vuesax/bulk/bank">
<g id="bank">
<path id="Vector" d="M22.6667 19V22H2.66675V19C2.66675 18.45 3.11675 18 3.66675 18H21.6667C22.2167 18 22.6667 18.45 22.6667 19Z" fill="#11A75C" stroke="#11A75C" stroke-width="1.5" stroke-miterlimit="10" stroke-linecap="round" stroke-linejoin="round"/>
<path id="Vector_2" opacity="0.6" d="M8.66675 11H4.66675V18H8.66675V11Z" fill="#11A75C"/>
<path id="Vector_3" opacity="0.4" d="M12.6667 11H8.66675V18H12.6667V11Z" fill="#11A75C"/>
<path id="Vector_4" opacity="0.6" d="M16.6667 11H12.6667V18H16.6667V11Z" fill="#11A75C"/>
<path id="Vector_5" opacity="0.4" d="M20.6667 11H16.6667V18H20.6667V11Z" fill="#11A75C"/>
<path id="Vector_6" d="M23.6667 22.75H1.66675C1.25675 22.75 0.916748 22.41 0.916748 22C0.916748 21.59 1.25675 21.25 1.66675 21.25H23.6667C24.0767 21.25 24.4167 21.59 24.4167 22C24.4167 22.41 24.0767 22.75 23.6667 22.75Z" fill="#11A75C"/>
<path id="Vector_7" d="M22.0367 5.75L13.0367 2.15003C12.8367 2.07003 12.4968 2.07003 12.2968 2.15003L3.29675 5.75C2.94675 5.89 2.66675 6.29999 2.66675 6.68V10C2.66675 10.55 3.11675 11 3.66675 11H21.6667C22.2167 11 22.6667 10.55 22.6667 10V6.68C22.6667 6.29999 22.3867 5.89 22.0367 5.75ZM12.6667 8.5C11.8367 8.5 11.1667 7.83 11.1667 7C11.1667 6.17 11.8367 5.5 12.6667 5.5C13.4967 5.5 14.1667 6.17 14.1667 7C14.1667 7.83 13.4967 8.5 12.6667 8.5Z" fill="#11A75C"/>
</g>
</g>
</svg>
