<svg width="25" height="24" viewBox="0 0 25 24" fill="none" xmlns="http://www.w3.org/2000/svg">
<g id="vuesax/bulk/card-pos">
<g id="card-pos">
<path id="Vector" d="M21.5833 22H3.08333C2.67333 22 2.33333 21.66 2.33333 21.25C2.33333 20.84 2.67333 20.5 3.08333 20.5H21.5833C21.9933 20.5 22.3333 20.84 22.3333 21.25C22.3333 21.66 21.9933 22 21.5833 22Z" fill="#11A75C"/>
<path id="Vector_2" opacity="0.4" d="M20.9233 13.7L13.6933 20.93C12.2733 22.35 9.98333 22.35 8.57333 20.94L3.96333 16.33L16.3233 3.97L20.9333 8.58C22.3433 9.99 22.3433 12.28 20.9233 13.7Z" fill="#11A75C"/>
<path id="Vector_3" d="M16.3233 3.97001L3.95333 16.33L3.04333 15.42C1.63333 14.01 1.63333 11.72 3.05333 10.3L10.2833 3.07001C11.7033 1.65001 13.9933 1.65001 15.4033 3.06001L16.3233 3.97001Z" fill="#11A75C"/>
<path id="Vector_4" d="M13.2233 17.6L11.8733 18.95C11.5933 19.23 11.1433 19.23 10.8633 18.95C10.5833 18.67 10.5833 18.22 10.8633 17.94L12.2133 16.59C12.4933 16.31 12.9433 16.31 13.2233 16.59C13.5033 16.87 13.5033 17.32 13.2233 17.6Z" fill="#11A75C"/>
<path id="Vector_5" d="M17.6033 13.22L14.9133 15.91C14.6333 16.19 14.1833 16.19 13.9033 15.91C13.6233 15.63 13.6233 15.18 13.9033 14.9L16.5933 12.21C16.8733 11.93 17.3233 11.93 17.6033 12.21C17.8733 12.49 17.8733 12.94 17.6033 13.22Z" fill="#11A75C"/>
</g>
</g>
</svg>
