<svg width="25" height="24" viewBox="0 0 25 24" fill="none" xmlns="http://www.w3.org/2000/svg">
<g id="vuesax/bulk/money-send">
<g id="money-send">
<g id="Group">
<path id="Vector" opacity="0.4" d="M17.6667 7.75C17.4767 7.75 17.2867 7.68 17.1367 7.53C16.8467 7.24 16.8467 6.76 17.1367 6.47L19.1867 4.42C17.4267 2.92 15.1567 2 12.6667 2C7.14669 2 2.66669 6.48 2.66669 12C2.66669 17.52 7.14669 22 12.6667 22C18.1867 22 22.6667 17.52 22.6667 12C22.6667 9.51 21.7467 7.24 20.2467 5.48L18.1967 7.53C18.0467 7.68 17.8567 7.75 17.6667 7.75Z" fill="#11A75C"/>
</g>
<path id="Vector_2" d="M14.4167 11.82L13.4167 11.47V9.25H13.4967C14.0067 9.25 14.4167 9.7 14.4167 10.25C14.4167 10.66 14.7567 11 15.1667 11C15.5767 11 15.9167 10.66 15.9167 10.25C15.9167 8.87 14.8367 7.75 13.4967 7.75H13.4167V7.5C13.4167 7.09 13.0767 6.75 12.6667 6.75C12.2567 6.75 11.9167 7.09 11.9167 7.5V7.75H11.6167C10.4067 7.75 9.41669 8.77 9.41669 10.03C9.41669 11.49 10.2667 11.96 10.9167 12.19L11.9167 12.54V14.76H11.8367C11.3267 14.76 10.9167 14.31 10.9167 13.76C10.9167 13.35 10.5767 13.01 10.1667 13.01C9.75669 13.01 9.41669 13.35 9.41669 13.76C9.41669 15.14 10.4967 16.26 11.8367 16.26H11.9167V16.51C11.9167 16.92 12.2567 17.26 12.6667 17.26C13.0767 17.26 13.4167 16.92 13.4167 16.51V16.26H13.7167C14.9267 16.26 15.9167 15.24 15.9167 13.98C15.9167 12.51 15.0667 12.04 14.4167 11.82ZM11.4067 10.76C11.0667 10.64 10.9167 10.57 10.9167 10.02C10.9167 9.59 11.2367 9.24 11.6167 9.24H11.9167V10.93L11.4067 10.76ZM13.7167 14.75H13.4167V13.06L13.9267 13.24C14.2667 13.36 14.4167 13.43 14.4167 13.98C14.4167 14.4 14.0967 14.75 13.7167 14.75Z" fill="#11A75C"/>
<path id="Vector_3" d="M23.3567 1.70999C23.2767 1.52999 23.1367 1.38 22.9467 1.3C22.8567 1.26 22.7567 1.23999 22.6567 1.23999H18.6567C18.2467 1.23999 17.9067 1.57999 17.9067 1.98999C17.9067 2.39999 18.2467 2.73999 18.6567 2.73999H20.8467L19.1767 4.41C19.5567 4.74 19.9067 5.08999 20.2367 5.46999L21.9067 3.8V5.99999C21.9067 6.40999 22.2467 6.74999 22.6567 6.74999C23.0667 6.74999 23.4067 6.40999 23.4067 5.99999V1.99999C23.4167 1.89999 23.3967 1.80999 23.3567 1.70999Z" fill="#11A75C"/>
</g>
</g>
</svg>
