<svg width="160" height="145" viewBox="0 0 160 145" fill="none" xmlns="http://www.w3.org/2000/svg">
<path d="M12.5348 26.0332C12.5348 25.4089 12.0967 25.1557 11.5564 25.468L1.34893 31.3657C0.808625 31.6779 0.370605 32.4371 0.370605 33.0615V39.026L0.37068 42.822L1.50158 39.5031L11.5565 33.6936C12.0968 33.3814 12.5348 32.6222 12.5348 31.9978L12.5348 26.0332Z" fill="url(#paint0_linear_148_3587)"/>
<path d="M11.0646 27.8364L1.84082 33.1658V32.467L11.0646 27.1377V27.8364Z" fill="url(#paint1_linear_148_3587)"/>
<path d="M11.0646 29.0254L1.84082 34.3547V33.656L11.0646 28.3267V29.0254Z" fill="url(#paint2_linear_148_3587)"/>
<path d="M6.33091 32.9493L1.84082 35.5435V34.8447L6.33091 32.2505V32.9493Z" fill="url(#paint3_linear_148_3587)"/>
<path d="M11.0646 31.4031L1.84082 36.7324V36.0336L11.0646 30.7043V31.4031Z" fill="url(#paint4_linear_148_3587)"/>
<path d="M6.33095 35.3274L1.84094 37.9217V37.2229L6.33095 34.6287V35.3274Z" fill="url(#paint5_linear_148_3587)"/>
<path d="M12.9054 40.9811C12.9054 40.3187 12.4406 40.0502 11.8674 40.3813L1.03797 46.6384C0.464703 46.9696 0 47.7751 0 48.4375L7.72139e-05 53.4817V54.5534V54.7655L0.000154428 58.7928L1.19998 55.2716L11.8675 49.1081C12.4408 48.7769 12.9055 47.9714 12.9054 47.309V40.9811Z" fill="url(#paint6_linear_148_3587)"/>
<path d="M4.72994 48.6184C4.72994 49.2315 4.29989 49.9769 3.76933 50.2835C3.23876 50.59 2.80872 50.3415 2.80872 49.7285C2.80872 49.1155 3.23876 48.37 3.76933 48.0634C4.29981 47.7569 4.72986 48.0054 4.72994 48.6184Z" fill="url(#paint7_linear_148_3587)"/>
<path d="M7.58504 46.969C7.58504 47.5821 7.15499 48.3275 6.62443 48.634C6.09394 48.9406 5.6639 48.692 5.66382 48.079C5.66382 47.466 6.09387 46.7204 6.62443 46.414C7.15499 46.1075 7.58504 46.3559 7.58504 46.969Z" fill="url(#paint8_linear_148_3587)"/>
<path d="M10.4402 45.3194C10.4402 45.9325 10.0101 46.6779 9.47965 46.9844C8.94917 47.291 8.51904 47.0424 8.51904 46.4294C8.51904 45.8164 8.94909 45.0709 9.47957 44.7644C10.0101 44.4578 10.4402 44.7063 10.4402 45.3194Z" fill="url(#paint9_linear_148_3587)"/>
<path d="M6.45268 59.2833C3.10997 61.2146 0.400269 64.5568 0.400269 66.748V70.5216L1.14045 68.2229C2.16815 68.8596 4.16175 68.5424 6.45276 67.2187C9.79546 65.2874 12.5052 61.9453 12.5052 59.754C12.5052 57.5627 9.79538 57.352 6.45268 59.2833Z" fill="url(#paint10_linear_148_3587)"/>
<path d="M4.68891 64.112C4.68891 64.5441 4.38576 65.0696 4.01176 65.2857C3.63783 65.5018 3.33459 65.3266 3.33459 64.8945C3.33459 64.4623 3.63775 63.9368 4.01176 63.7207C4.38568 63.5046 4.68883 63.6798 4.68891 64.112Z" fill="url(#paint11_linear_148_3587)"/>
<path d="M7.29707 62.6051C7.29707 63.0373 6.99391 63.5627 6.61991 63.7789C6.24591 63.9949 5.94275 63.8198 5.94275 63.3876C5.94275 62.9555 6.24591 62.43 6.61991 62.2139C6.99391 61.9978 7.29707 62.173 7.29707 62.6051Z" fill="url(#paint12_linear_148_3587)"/>
<path d="M9.90534 61.0981C9.90534 61.5302 9.60218 62.0557 9.22818 62.2718C8.85426 62.4878 8.55103 62.3127 8.55103 61.8805C8.55103 61.4484 8.85418 60.9228 9.22818 60.7068C9.60218 60.4908 9.90534 60.6659 9.90534 61.0981Z" fill="url(#paint13_linear_148_3587)"/>
<path d="M0.196045 83.6632C0.196045 87.6563 2.99737 89.2749 6.45278 87.2783C9.90819 85.2818 12.7094 80.4263 12.7094 76.4332C12.7094 72.4401 9.90804 70.8215 6.45263 72.8181C2.99714 74.8145 0.195968 79.6701 0.196045 83.6632Z" fill="url(#paint14_linear_148_3587)"/>
<path d="M3.54354 82.3452C3.6242 82.4456 3.71989 82.5292 3.83083 82.5933L6.26575 84.0002C6.3254 84.0347 6.38788 84.0627 6.45267 84.0841C6.51753 83.988 6.58002 83.8878 6.63983 83.7841L9.07467 79.5635C9.18561 79.3713 9.2813 79.177 9.36195 78.9836C9.87488 77.7544 9.77897 76.5587 9.07467 76.1518C8.66693 75.9165 8.13284 75.9893 7.5986 76.298C7.19891 76.5289 6.79953 76.8916 6.45283 77.3554C6.10612 77.2923 5.70659 77.3912 5.3069 77.6221C4.77281 77.9306 4.23834 78.4752 3.83083 79.1816C3.12645 80.4025 3.03054 81.7088 3.54354 82.3452Z" fill="url(#paint15_linear_148_3587)"/>
<path d="M123.959 85.8556L104.683 75.5125C104.683 75.5125 106.081 81.1621 102.569 84.4061C99.3254 87.4024 94.5871 89.1682 93.4207 90.2726L93.3982 90.2341L93.0033 90.3016V91.1471L93.0067 91.1468C93.0269 91.7314 93.9494 92.0932 96.5361 93.5526C99.8902 95.4449 109.052 100.942 110.358 101.28C111.663 101.618 114.139 99.9054 115.94 98.8466C117.741 97.7878 122.728 95.1971 123.388 92.7942C124.049 90.3912 123.959 85.8556 123.959 85.8556Z" fill="url(#paint16_linear_148_3587)"/>
<path d="M104.1 74.4944C104.1 74.4944 106.081 80.3517 102.569 83.5957C99.0572 86.8397 93.7897 88.6421 93.2044 89.7233C92.6191 90.8047 93.1819 90.8497 96.5359 92.7421C99.8901 94.6345 109.052 100.131 110.357 100.469C111.663 100.807 114.139 99.095 115.94 98.0362C117.741 96.9773 121.898 94.9949 122.558 92.5919C123.219 90.1889 123.129 85.6533 123.129 85.6533L104.1 74.4944Z" fill="url(#paint17_linear_148_3587)"/>
<path d="M157.735 46.5538L77.7314 0.329481C77.0744 -0.0501037 76.4871 -0.0500291 76.0901 0.254436L74.249 1.28208L76.473 4.00892L76.4723 53.8701C76.4723 55.2516 77.4415 56.9315 78.6371 57.6223L153.254 100.735L157.267 105.655L159.189 104.564C159.624 104.358 159.899 103.859 159.899 103.126L159.899 50.306C159.899 48.9246 158.93 47.2446 157.735 46.5538Z" fill="url(#paint18_linear_148_3587)"/>
<path d="M155.769 105.488L75.766 59.2637C74.5704 58.573 73.6012 56.8929 73.6013 55.5114L73.6019 2.69095C73.6019 1.30942 74.5712 0.749365 75.7667 1.44017L155.77 47.6645C156.965 48.3552 157.935 50.0353 157.935 51.4169L157.934 104.237C157.934 105.619 156.965 106.179 155.769 105.488Z" fill="url(#paint19_linear_148_3587)"/>
<path d="M156.751 94.6408L75.8115 47.8756L75.8121 5.16211L156.751 51.9274L156.751 94.6408Z" fill="url(#paint20_linear_148_3587)"/>
<path d="M97.6986 130.364L97.7 130.364V128.962L94.0218 128.102L38.7846 96.1858C38.534 96.0409 38.1277 96.0409 37.8771 96.1858L14.7259 109.563L13.1892 109.204V110.583C13.1781 110.686 13.2377 110.79 13.3733 110.869L72.1023 144.803C72.3529 144.948 72.7592 144.948 73.0098 144.803L97.5136 130.644C97.647 130.567 97.7072 130.465 97.6986 130.364Z" fill="url(#paint21_linear_148_3587)"/>
<path d="M72.1023 143.368L13.3733 109.434C13.1226 109.289 13.1226 109.054 13.3733 108.909L37.8771 94.7507C38.1278 94.6059 38.534 94.6059 38.7847 94.7507L97.5136 128.685C97.7643 128.83 97.7643 129.064 97.5136 129.209L73.0098 143.368C72.7592 143.513 72.3529 143.513 72.1023 143.368Z" fill="url(#paint22_linear_148_3587)"/>
<path d="M42.1407 103.263L37.8148 100.764C37.7318 100.716 37.7318 100.638 37.8148 100.59L40.302 99.1532C40.385 99.1052 40.5195 99.1052 40.6024 99.1532L44.9283 101.653C45.0113 101.701 45.0113 101.778 44.9283 101.826L42.4412 103.263C42.3581 103.311 42.2236 103.311 42.1407 103.263Z" fill="#D3D3D3"/>
<path d="M45.727 105.336L42.963 103.739C42.88 103.691 42.88 103.613 42.963 103.565L45.4501 102.128C45.5331 102.08 45.6676 102.08 45.7507 102.128L48.5146 103.725C48.5976 103.773 48.5976 103.851 48.5146 103.899L46.0274 105.336C45.9445 105.384 45.81 105.384 45.727 105.336Z" fill="#D3D3D3"/>
<path d="M37.1445 104.345L34.3806 102.748C34.2976 102.7 34.2976 102.623 34.3806 102.575L36.8678 101.138C36.9508 101.09 37.0853 101.09 37.1682 101.138L39.9322 102.735C40.0152 102.782 40.0152 102.86 39.9322 102.908L37.445 104.345C37.3621 104.393 37.2276 104.393 37.1445 104.345Z" fill="#D3D3D3"/>
<path d="M35.4284 107.124L31.1184 104.633C31.0354 104.585 31.0354 104.508 31.1184 104.46L33.6056 103.023C33.6885 102.975 33.8231 102.975 33.906 103.023L38.216 105.513C38.299 105.561 38.299 105.639 38.216 105.687L35.7289 107.124C35.646 107.172 35.5114 107.172 35.4284 107.124Z" fill="#D3D3D3"/>
<path d="M40.4661 106.265L37.7021 104.667C37.6192 104.619 37.6192 104.542 37.7021 104.494L40.1892 103.057C40.2723 103.009 40.4068 103.009 40.4897 103.057L43.2536 104.654C43.3367 104.702 43.3367 104.779 43.2536 104.827L40.7665 106.265C40.6835 106.312 40.5491 106.312 40.4661 106.265Z" fill="#D3D3D3"/>
<path d="M43.8616 108.227L41.0977 106.63C41.0146 106.582 41.0146 106.504 41.0977 106.456L43.5848 105.019C43.6678 104.971 43.8023 104.971 43.8853 105.019L46.6493 106.616C46.7323 106.664 46.7323 106.742 46.6493 106.79L44.1621 108.227C44.0791 108.275 43.9445 108.275 43.8616 108.227Z" fill="#D3D3D3"/>
<path d="M47.3226 110.226L44.5586 108.629C44.4756 108.581 44.4756 108.504 44.5586 108.456L47.0457 107.019C47.1286 106.971 47.2632 106.971 47.3462 107.019L50.1101 108.616C50.1932 108.664 50.1932 108.741 50.1101 108.789L47.623 110.226C47.5401 110.274 47.4055 110.274 47.3226 110.226Z" fill="#D3D3D3"/>
<path d="M50.8062 112.239L48.0423 110.642C47.9592 110.594 47.9592 110.516 48.0423 110.468L50.5294 109.031C50.6123 108.983 50.7469 108.983 50.8299 109.031L53.5938 110.628C53.6768 110.676 53.6768 110.754 53.5938 110.802L51.1066 112.239C51.0237 112.287 50.8891 112.287 50.8062 112.239Z" fill="#D3D3D3"/>
<path d="M54.2661 114.238L51.5021 112.641C51.4191 112.593 51.4191 112.516 51.5021 112.468L53.9892 111.031C54.0723 110.983 54.2067 110.983 54.2897 111.031L57.0537 112.628C57.1367 112.676 57.1367 112.753 57.0537 112.801L54.5666 114.238C54.4836 114.286 54.349 114.286 54.2661 114.238Z" fill="#D3D3D3"/>
<path d="M57.714 116.231L54.95 114.633C54.8671 114.586 54.8671 114.508 54.95 114.46L57.4372 113.023C57.5202 112.975 57.6547 112.975 57.7376 113.023L60.5016 114.62C60.5847 114.668 60.5847 114.746 60.5016 114.793L58.0145 116.231C57.9315 116.278 57.797 116.278 57.714 116.231Z" fill="#D3D3D3"/>
<path d="M61.083 118.177L58.3191 116.58C58.2361 116.532 58.2361 116.455 58.3191 116.407L60.8062 114.97C60.8893 114.922 61.0238 114.922 61.1067 114.97L63.8707 116.567C63.9537 116.615 63.9537 116.692 63.8707 116.74L61.3836 118.177C61.3005 118.225 61.166 118.225 61.083 118.177Z" fill="#D3D3D3"/>
<path d="M64.5231 120.165L61.7592 118.568C61.6761 118.52 61.6761 118.442 61.7592 118.394L64.2463 116.957C64.3293 116.909 64.4638 116.909 64.5468 116.957L67.3107 118.554C67.3937 118.602 67.3937 118.68 67.3107 118.728L64.8236 120.165C64.7406 120.213 64.6061 120.213 64.5231 120.165Z" fill="#D3D3D3"/>
<path d="M67.8842 122.107L65.1202 120.51C65.0372 120.462 65.0372 120.384 65.1202 120.336L67.6073 118.899C67.6903 118.851 67.8248 118.851 67.9079 118.899L70.6718 120.496C70.7548 120.544 70.7548 120.622 70.6718 120.67L68.1847 122.107C68.1017 122.155 67.9671 122.155 67.8842 122.107Z" fill="#D3D3D3"/>
<path d="M71.3795 124.127L68.6156 122.53C68.5326 122.482 68.5326 122.404 68.6156 122.356L71.1027 120.919C71.1858 120.871 71.3203 120.871 71.4033 120.919L74.1672 122.516C74.2502 122.564 74.2502 122.642 74.1672 122.689L71.6801 124.127C71.5971 124.175 71.4625 124.175 71.3795 124.127Z" fill="#D3D3D3"/>
<path d="M74.8515 126.133L72.0875 124.536C72.0045 124.488 72.0045 124.41 72.0875 124.362L74.5747 122.925C74.6576 122.877 74.7922 122.877 74.8752 122.925L77.6391 124.522C77.7221 124.57 77.7221 124.648 77.6391 124.696L75.152 126.133C75.069 126.181 74.9344 126.181 74.8515 126.133Z" fill="#D3D3D3"/>
<path d="M78.2124 128.075L75.4484 126.478C75.3653 126.43 75.3653 126.352 75.4484 126.304L77.9355 124.867C78.0185 124.819 78.153 124.819 78.236 124.867L81 126.464C81.0829 126.512 81.0829 126.59 81 126.638L78.5128 128.075C78.4299 128.123 78.2953 128.123 78.2124 128.075Z" fill="#D3D3D3"/>
<path d="M39.0307 109.205L36.2667 107.608C36.1837 107.56 36.1837 107.482 36.2667 107.434L38.7539 105.997C38.8369 105.949 38.9714 105.949 39.0544 105.997L41.8183 107.594C41.9014 107.642 41.9014 107.72 41.8183 107.768L39.3312 109.205C39.2483 109.253 39.1137 109.253 39.0307 109.205Z" fill="#D3D3D3"/>
<path d="M42.4707 111.193L39.7067 109.596C39.6238 109.548 39.6238 109.47 39.7067 109.422L42.1939 107.985C42.2769 107.937 42.4114 107.937 42.4944 107.985L45.2584 109.582C45.3414 109.63 45.3414 109.708 45.2584 109.756L42.7713 111.193C42.6883 111.241 42.5538 111.241 42.4707 111.193Z" fill="#D3D3D3"/>
<path d="M45.8189 113.127L43.055 111.53C42.9719 111.482 42.9719 111.405 43.055 111.357L45.5421 109.92C45.625 109.872 45.7596 109.872 45.8426 109.92L48.6065 111.516C48.6895 111.564 48.6895 111.642 48.6065 111.69L46.1194 113.127C46.0364 113.175 45.9019 113.175 45.8189 113.127Z" fill="#D3D3D3"/>
<path d="M49.2858 115.13L46.5219 113.533C46.4388 113.485 46.4388 113.408 46.5219 113.36L49.009 111.923C49.092 111.875 49.2264 111.875 49.3095 111.923L52.0735 113.52C52.1564 113.568 52.1564 113.645 52.0735 113.693L49.5863 115.13C49.5034 115.178 49.3688 115.178 49.2858 115.13Z" fill="#D3D3D3"/>
<path d="M52.6923 117.099L49.9284 115.502C49.8453 115.454 49.8453 115.376 49.9284 115.328L52.4155 113.891C52.4985 113.843 52.633 113.843 52.716 113.891L55.48 115.488C55.563 115.536 55.563 115.614 55.48 115.662L52.9928 117.099C52.9099 117.147 52.7753 117.147 52.6923 117.099Z" fill="#D3D3D3"/>
<path d="M56.1521 119.113L53.3882 117.516C53.3052 117.468 53.3052 117.391 53.3882 117.343L55.8753 115.906C55.9583 115.858 56.0928 115.858 56.1758 115.906L58.9398 117.503C59.0228 117.551 59.0228 117.628 58.9398 117.676L56.4527 119.113C56.3696 119.161 56.2351 119.161 56.1521 119.113Z" fill="#D3D3D3"/>
<path d="M59.6416 121.114L56.8776 119.517C56.7947 119.469 56.7947 119.392 56.8776 119.344L59.3648 117.907C59.4477 117.859 59.5823 117.859 59.6653 117.907L62.4292 119.504C62.5122 119.552 62.5122 119.629 62.4292 119.677L59.942 121.114C59.8592 121.162 59.7246 121.162 59.6416 121.114Z" fill="#D3D3D3"/>
<path d="M62.9958 123.1L60.2318 121.503C60.1488 121.455 60.1488 121.377 60.2318 121.329L62.719 119.892C62.802 119.844 62.9365 119.844 63.0194 119.892L65.7833 121.489C65.8664 121.537 65.8664 121.615 65.7833 121.663L63.2962 123.1C63.2133 123.148 63.0788 123.148 62.9958 123.1Z" fill="#D3D3D3"/>
<path d="M66.528 125.093L63.7641 123.496C63.681 123.448 63.681 123.371 63.7641 123.323L66.2512 121.886C66.3342 121.838 66.4687 121.838 66.5517 121.886L69.3156 123.483C69.3986 123.531 69.3986 123.608 69.3156 123.656L66.8284 125.093C66.7454 125.141 66.6109 125.141 66.528 125.093Z" fill="#D3D3D3"/>
<path d="M69.8672 127.023L67.1033 125.426C67.0203 125.378 67.0203 125.3 67.1033 125.252L69.5904 123.815C69.6735 123.767 69.8079 123.767 69.8909 123.815L72.6549 125.412C72.7378 125.46 72.7378 125.538 72.6549 125.586L70.1677 127.023C70.0847 127.071 69.9502 127.071 69.8672 127.023Z" fill="#D3D3D3"/>
<path d="M73.325 129.021L70.5611 127.424C70.4782 127.376 70.4782 127.298 70.5611 127.25L73.0482 125.813C73.1312 125.765 73.2658 125.765 73.3487 125.813L76.1126 127.41C76.1957 127.458 76.1957 127.536 76.1126 127.584L73.6255 129.021C73.5426 129.069 73.4081 129.069 73.325 129.021Z" fill="#D3D3D3"/>
<path d="M76.8245 131.043L74.0606 129.446C73.9775 129.398 73.9775 129.32 74.0606 129.272L76.5477 127.835C76.6307 127.787 76.7652 127.787 76.8482 127.835L79.6122 129.432C79.6951 129.48 79.6951 129.558 79.6122 129.605L77.125 131.043C77.0421 131.091 76.9075 131.091 76.8245 131.043Z" fill="#D3D3D3"/>
<path d="M36.4762 111.654L33.7123 110.057C33.6293 110.009 33.6293 109.932 33.7123 109.884L36.1994 108.447C36.2825 108.399 36.4169 108.399 36.4999 108.447L39.2639 110.044C39.3469 110.092 39.3469 110.169 39.2639 110.217L36.7768 111.654C36.6938 111.702 36.5592 111.702 36.4762 111.654Z" fill="#D3D3D3"/>
<path d="M32.9927 109.641L27.7218 106.596C27.6388 106.548 27.6388 106.47 27.7218 106.422L30.2089 104.985C30.2919 104.937 30.4264 104.937 30.5094 104.985L35.7803 108.031C35.8632 108.079 35.8632 108.156 35.7803 108.204L33.2931 109.641C33.2102 109.689 33.0756 109.689 32.9927 109.641Z" fill="#D3D3D3"/>
<path d="M39.9164 113.642L37.1525 112.045C37.0695 111.997 37.0695 111.919 37.1525 111.871L39.6396 110.434C39.7226 110.386 39.8571 110.386 39.9401 110.434L42.7041 112.031C42.787 112.079 42.787 112.157 42.7041 112.205L40.2169 113.642C40.1339 113.69 39.9994 113.69 39.9164 113.642Z" fill="#D3D3D3"/>
<path d="M43.2647 115.577L40.5008 113.979C40.4177 113.932 40.4177 113.854 40.5008 113.806L42.9879 112.369C43.0709 112.321 43.2054 112.321 43.2884 112.369L46.0523 113.966C46.1354 114.014 46.1354 114.091 46.0523 114.139L43.5652 115.577C43.4822 115.624 43.3476 115.624 43.2647 115.577Z" fill="#D3D3D3"/>
<path d="M46.7313 117.58L43.9674 115.983C43.8844 115.935 43.8844 115.857 43.9674 115.809L46.4546 114.372C46.5375 114.324 46.6721 114.324 46.7551 114.372L49.519 115.969C49.6021 116.017 49.6021 116.095 49.519 116.143L47.0319 117.58C46.9489 117.628 46.8143 117.628 46.7313 117.58Z" fill="#D3D3D3"/>
<path d="M50.1379 119.548L47.3739 117.951C47.2909 117.903 47.2909 117.825 47.3739 117.777L49.8611 116.34C49.9441 116.292 50.0786 116.292 50.1616 116.34L52.9255 117.937C53.0086 117.985 53.0086 118.063 52.9255 118.111L50.4384 119.548C50.3554 119.596 50.2209 119.596 50.1379 119.548Z" fill="#D3D3D3"/>
<path d="M53.5978 121.563L50.8338 119.966C50.7509 119.918 50.7509 119.84 50.8338 119.792L53.321 118.355C53.4039 118.307 53.5385 118.307 53.6214 118.355L56.3854 119.952C56.4685 120 56.4685 120.078 56.3854 120.125L53.8983 121.563C53.8153 121.61 53.6808 121.61 53.5978 121.563Z" fill="#D3D3D3"/>
<path d="M57.0874 123.564L54.3235 121.967C54.2405 121.919 54.2405 121.841 54.3235 121.793L56.8106 120.356C56.8937 120.308 57.0282 120.308 57.1111 120.356L59.875 121.953C59.9581 122.001 59.9581 122.079 59.875 122.126L57.3879 123.564C57.305 123.611 57.1705 123.611 57.0874 123.564Z" fill="#D3D3D3"/>
<path d="M60.4414 125.55L57.6775 123.953C57.5945 123.905 57.5945 123.827 57.6775 123.779L60.1646 122.342C60.2476 122.294 60.3822 122.294 60.4651 122.342L63.2291 123.939C63.3121 123.987 63.3121 124.065 63.2291 124.113L60.7419 125.55C60.6589 125.598 60.5244 125.598 60.4414 125.55Z" fill="#D3D3D3"/>
<path d="M63.9734 127.542L61.2095 125.945C61.1265 125.897 61.1265 125.82 61.2095 125.772L63.6966 124.335C63.7796 124.287 63.9141 124.287 63.9971 124.335L66.7611 125.932C66.844 125.979 66.844 126.057 66.7611 126.105L64.274 127.542C64.191 127.59 64.0564 127.59 63.9734 127.542Z" fill="#D3D3D3"/>
<path d="M67.3128 129.472L64.5488 127.875C64.4658 127.827 64.4658 127.749 64.5488 127.701L67.036 126.264C67.1189 126.216 67.2535 126.216 67.3365 126.264L70.1004 127.861C70.1834 127.909 70.1834 127.987 70.1004 128.035L67.6132 129.472C67.5303 129.52 67.3957 129.52 67.3128 129.472Z" fill="#D3D3D3"/>
<path d="M70.7707 131.47L68.0067 129.873C67.9237 129.825 67.9237 129.747 68.0067 129.699L70.4939 128.262C70.5768 128.214 70.7114 128.214 70.7943 128.262L73.5583 129.859C73.6412 129.907 73.6412 129.985 73.5583 130.033L71.0711 131.47C70.9882 131.518 70.8537 131.518 70.7707 131.47Z" fill="#D3D3D3"/>
<path d="M31.4466 112.641L28.6826 111.044C28.5996 110.996 28.5996 110.919 28.6826 110.871L31.1698 109.434C31.2527 109.386 31.3873 109.386 31.4703 109.434L34.2342 111.031C34.3173 111.079 34.3173 111.156 34.2342 111.204L31.7471 112.641C31.6641 112.689 31.5296 112.689 31.4466 112.641Z" fill="#D3D3D3"/>
<path d="M27.9156 110.601L24.3529 108.542C24.2699 108.494 24.2699 108.417 24.3529 108.369L26.8401 106.932C26.9231 106.884 27.0576 106.884 27.1406 106.932L30.7033 108.99C30.7863 109.038 30.7863 109.116 30.7033 109.164L28.2161 110.601C28.1331 110.649 27.9986 110.649 27.9156 110.601Z" fill="#D3D3D3"/>
<path d="M34.8867 114.629L32.1228 113.032C32.0398 112.984 32.0398 112.906 32.1228 112.858L34.61 111.421C34.693 111.373 34.8275 111.373 34.9105 111.421L37.6745 113.018C37.7575 113.066 37.7575 113.144 37.6745 113.192L35.1874 114.629C35.1042 114.677 34.9698 114.677 34.8867 114.629Z" fill="#D3D3D3"/>
<path d="M38.235 116.564L35.471 114.967C35.3879 114.919 35.3879 114.841 35.471 114.793L37.9581 113.356C38.0411 113.308 38.1756 113.308 38.2586 113.356L41.0226 114.953C41.1055 115.001 41.1055 115.079 41.0226 115.126L38.5354 116.564C38.4525 116.612 38.3179 116.612 38.235 116.564Z" fill="#D3D3D3"/>
<path d="M41.7017 118.567L38.9377 116.97C38.8547 116.922 38.8547 116.844 38.9377 116.796L41.4248 115.359C41.5078 115.311 41.6424 115.311 41.7253 115.359L44.4892 116.956C44.5723 117.004 44.5723 117.082 44.4892 117.13L42.0021 118.567C41.9192 118.615 41.7847 118.615 41.7017 118.567Z" fill="#D3D3D3"/>
<path d="M23.7835 112.066L21.0196 110.469C20.9365 110.421 20.9365 110.343 21.0196 110.295L23.5067 108.858C23.5896 108.81 23.7242 108.81 23.8072 108.858L26.5711 110.455C26.6541 110.503 26.6541 110.58 26.5711 110.628L24.084 112.066C24.0011 112.113 23.8665 112.113 23.7835 112.066Z" fill="#D3D3D3"/>
<path d="M27.2237 114.053L24.4597 112.456C24.3767 112.408 24.3767 112.331 24.4597 112.283L26.9469 110.846C27.0299 110.798 27.1645 110.798 27.2474 110.846L30.0114 112.443C30.0944 112.491 30.0944 112.568 30.0114 112.616L27.5243 114.053C27.4412 114.101 27.3066 114.101 27.2237 114.053Z" fill="#D3D3D3"/>
<path d="M30.5717 115.988L27.8078 114.391C27.7249 114.343 27.7249 114.265 27.8078 114.217L30.295 112.78C30.3779 112.732 30.5125 112.732 30.5954 112.78L33.3594 114.377C33.4424 114.425 33.4424 114.503 33.3594 114.551L30.8722 115.988C30.7893 116.036 30.6548 116.036 30.5717 115.988Z" fill="#D3D3D3"/>
<path d="M34.8372 118.453L31.2746 116.394C31.1915 116.346 31.1915 116.268 31.2746 116.22L33.7617 114.783C33.8446 114.735 33.9792 114.735 34.0622 114.783L37.6249 116.842C37.7079 116.89 37.7079 116.968 37.6249 117.015L35.1378 118.453C35.0548 118.5 34.9203 118.5 34.8372 118.453Z" fill="#D3D3D3"/>
<path d="M52.12 128.439L35.6045 118.896C35.5215 118.848 35.5215 118.77 35.6045 118.722L38.0916 117.285C38.1747 117.237 38.3092 117.237 38.3921 117.285L54.9077 126.828C54.9907 126.876 54.9907 126.954 54.9077 127.001L52.4205 128.439C52.3375 128.487 52.2029 128.487 52.12 128.439Z" fill="#D3D3D3"/>
<path d="M63.9002 135.245L66.6642 136.842C66.7473 136.89 66.8817 136.89 66.9647 136.842L67.9157 136.293C67.9987 136.245 67.9987 136.167 67.9157 136.119L65.1517 134.522C65.0687 134.474 64.9341 134.474 64.8512 134.522L63.9002 135.072C63.8173 135.12 63.8173 135.198 63.9002 135.245Z" fill="#D3D3D3"/>
<path d="M65.4365 134.358L68.2005 135.955C68.2835 136.003 68.418 136.003 68.501 135.955L69.452 135.405C69.5349 135.357 69.5349 135.28 69.452 135.232L66.688 133.635C66.6049 133.587 66.4704 133.587 66.3875 133.635L65.4365 134.184C65.3535 134.232 65.3535 134.31 65.4365 134.358Z" fill="#D3D3D3"/>
<path d="M67.5205 137.337L70.2845 138.934C70.3674 138.982 70.502 138.982 70.5849 138.934L73.0721 137.497C73.1551 137.449 73.1551 137.371 73.0721 137.323L70.3081 135.726C70.2251 135.678 70.0906 135.678 70.0076 135.726L67.5205 137.163C67.4375 137.212 67.4375 137.289 67.5205 137.337Z" fill="#D3D3D3"/>
<path d="M60.4602 133.258L63.2241 134.855C63.3071 134.903 63.4416 134.903 63.5246 134.855L66.0117 133.418C66.0947 133.37 66.0947 133.292 66.0117 133.244L63.2477 131.647C63.1648 131.599 63.0302 131.599 62.9472 131.647L60.4601 133.084C60.3772 133.132 60.3772 133.21 60.4602 133.258Z" fill="#D3D3D3"/>
<path d="M57.112 131.323L59.876 132.92C59.959 132.968 60.0935 132.968 60.1766 132.92L62.6637 131.483C62.7467 131.435 62.7467 131.357 62.6637 131.309L59.8998 129.712C59.8167 129.664 59.6823 129.664 59.5992 129.712L57.1121 131.149C57.0291 131.197 57.0291 131.275 57.112 131.323Z" fill="#D3D3D3"/>
<path d="M52.8465 128.858L56.4092 130.917C56.4922 130.965 56.6267 130.965 56.7097 130.917L59.1968 129.48C59.2798 129.432 59.2798 129.354 59.1968 129.306L55.6341 127.248C55.5511 127.2 55.4166 127.2 55.3336 127.248L52.8465 128.685C52.7636 128.733 52.7636 128.81 52.8465 128.858Z" fill="#D3D3D3"/>
<path d="M45.1083 120.535L42.3443 118.938C42.2612 118.89 42.2612 118.812 42.3443 118.764L44.8314 117.327C44.9144 117.279 45.0489 117.279 45.1319 117.327L47.8958 118.924C47.9788 118.972 47.9788 119.05 47.8958 119.098L45.4086 120.535C45.3258 120.583 45.1912 120.583 45.1083 120.535Z" fill="#D3D3D3"/>
<path d="M48.5682 122.55L45.8042 120.953C45.7212 120.905 45.7212 120.827 45.8042 120.779L48.2913 119.342C48.3743 119.294 48.5088 119.294 48.5918 119.342L51.3558 120.939C51.4388 120.987 51.4388 121.065 51.3558 121.113L48.8686 122.55C48.7857 122.598 48.6511 122.598 48.5682 122.55Z" fill="#D3D3D3"/>
<path d="M52.0576 124.551L49.2937 122.954C49.2107 122.906 49.2107 122.828 49.2937 122.78L51.7808 121.343C51.8639 121.295 51.9984 121.295 52.0814 121.343L54.8454 122.94C54.9284 122.988 54.9284 123.066 54.8454 123.113L52.3583 124.551C52.2751 124.599 52.1407 124.599 52.0576 124.551Z" fill="#D3D3D3"/>
<path d="M55.4118 126.537L52.6478 124.94C52.5648 124.892 52.5648 124.814 52.6478 124.766L55.135 123.329C55.218 123.281 55.3525 123.281 55.4355 123.329L58.1994 124.926C58.2824 124.974 58.2824 125.052 58.1994 125.1L55.7123 126.537C55.6293 126.585 55.4948 126.585 55.4118 126.537Z" fill="#D3D3D3"/>
<path d="M58.9438 128.529L56.1798 126.932C56.0968 126.884 56.0968 126.807 56.1798 126.759L58.667 125.322C58.7499 125.274 58.8845 125.274 58.9674 125.322L61.7314 126.919C61.8145 126.967 61.8145 127.044 61.7314 127.092L59.2443 128.529C59.1613 128.577 59.0268 128.577 58.9438 128.529Z" fill="#D3D3D3"/>
<path d="M62.2831 130.459L59.5191 128.862C59.4362 128.814 59.4362 128.736 59.5191 128.688L62.0063 127.251C62.0892 127.203 62.2238 127.203 62.3067 127.251L65.0707 128.848C65.1538 128.896 65.1538 128.974 65.0707 129.022L62.5836 130.459C62.5007 130.507 62.3661 130.507 62.2831 130.459Z" fill="#D3D3D3"/>
<path d="M65.741 132.457L62.977 130.86C62.8941 130.812 62.8941 130.734 62.977 130.686L65.4641 129.249C65.5471 129.201 65.6817 129.201 65.7647 129.249L68.5286 130.846C68.6116 130.894 68.6116 130.972 68.5286 131.02L66.0415 132.457C65.9585 132.505 65.824 132.505 65.741 132.457Z" fill="#D3D3D3"/>
<path d="M74.2702 133.492L71.5062 131.895C71.4232 131.847 71.4232 131.769 71.5062 131.721L73.9933 130.284C74.0763 130.236 74.2108 130.236 74.2938 130.284L77.0577 131.881C77.1407 131.929 77.1407 132.007 77.0577 132.055L74.5706 133.492C74.4877 133.54 74.3531 133.54 74.2702 133.492Z" fill="#D3D3D3"/>
<path d="M83.171 131.662C83.254 131.614 83.254 131.536 83.171 131.488L80.407 129.891C80.324 129.843 80.1894 129.843 80.1065 129.891L77.6194 131.328C77.5364 131.376 77.5364 131.454 77.6194 131.502L78.1492 131.808L74.8613 133.708C74.7783 133.756 74.7783 133.834 74.8613 133.881L76.9452 135.086C77.0282 135.133 77.1627 135.133 77.2457 135.086L80.585 133.156C80.6025 133.146 80.6154 133.135 80.6254 133.122C80.6464 133.117 80.6664 133.109 80.6838 133.099L83.171 131.662Z" fill="#D3D3D3"/>
<path d="M83.6454 131.214L79.0902 128.582C79.0072 128.534 79.0072 128.456 79.0902 128.408L81.5774 126.971C81.6603 126.923 81.7949 126.923 81.8778 126.971L86.433 129.603C86.516 129.651 86.516 129.729 86.433 129.777L83.9459 131.214C83.8629 131.262 83.7284 131.262 83.6454 131.214Z" fill="#D3D3D3"/>
<path d="M73.6176 137.008L66.3737 132.822C66.2906 132.775 66.2906 132.697 66.3737 132.649L68.8608 131.212C68.9438 131.164 69.0783 131.164 69.1613 131.212L76.4053 135.397C76.4883 135.445 76.4883 135.523 76.4053 135.571L73.9182 137.008C73.8351 137.056 73.7007 137.056 73.6176 137.008Z" fill="#D3D3D3"/>
<path d="M49.2027 107.344L46.4387 105.747C46.3557 105.699 46.3557 105.621 46.4387 105.573L48.9258 104.136C49.0088 104.088 49.1433 104.088 49.2264 104.136L51.9903 105.733C52.0733 105.781 52.0733 105.859 51.9903 105.907L49.5031 107.344C49.4202 107.392 49.2856 107.392 49.2027 107.344Z" fill="#D3D3D3"/>
<path d="M52.6784 109.352L49.9144 107.755C49.8314 107.707 49.8314 107.63 49.9144 107.582L52.4017 106.145C52.4846 106.097 52.6192 106.097 52.7021 106.145L55.4661 107.742C55.5491 107.79 55.5491 107.867 55.4661 107.915L52.979 109.352C52.896 109.4 52.7614 109.4 52.6784 109.352Z" fill="#D3D3D3"/>
<path d="M56.1541 111.361L53.3902 109.764C53.3071 109.716 53.3071 109.638 53.3902 109.59L55.8773 108.153C55.9603 108.105 56.0948 108.105 56.1778 108.153L58.9418 109.75C59.0247 109.798 59.0247 109.876 58.9418 109.924L56.4546 111.361C56.3717 111.409 56.2371 111.409 56.1541 111.361Z" fill="#D3D3D3"/>
<path d="M59.4993 113.294L56.7354 111.697C56.6523 111.649 56.6523 111.571 56.7354 111.523L59.2225 110.086C59.3055 110.038 59.44 110.038 59.523 110.086L62.287 111.683C62.3699 111.731 62.3699 111.808 62.287 111.856L59.7998 113.293C59.7169 113.342 59.5823 113.342 59.4993 113.294Z" fill="#D3D3D3"/>
<path d="M62.9849 115.308L60.2209 113.711C60.138 113.663 60.138 113.585 60.2209 113.537L62.708 112.1C62.7911 112.052 62.9256 112.052 63.0086 112.1L65.7726 113.697C65.8555 113.745 65.8555 113.823 65.7726 113.871L63.2854 115.308C63.2024 115.356 63.0679 115.356 62.9849 115.308Z" fill="#D3D3D3"/>
<path d="M66.4249 117.295L63.661 115.698C63.578 115.65 63.578 115.573 63.661 115.525L66.1482 114.087C66.2312 114.04 66.3657 114.04 66.4487 114.087L69.2126 115.684C69.2957 115.732 69.2957 115.81 69.2126 115.858L66.7255 117.295C66.6425 117.343 66.5079 117.343 66.4249 117.295Z" fill="#D3D3D3"/>
<path d="M69.786 119.237L67.0221 117.64C66.9391 117.592 66.9391 117.515 67.0221 117.467L69.5092 116.03C69.5923 115.982 69.7268 115.982 69.8098 116.03L72.5737 117.627C72.6567 117.675 72.6567 117.752 72.5737 117.8L70.0866 119.237C70.0036 119.285 69.8691 119.285 69.786 119.237Z" fill="#D3D3D3"/>
<path d="M73.2716 121.251L70.5077 119.654C70.4247 119.606 70.4247 119.529 70.5077 119.481L72.9948 118.044C73.0779 117.996 73.2124 117.996 73.2953 118.044L76.0593 119.641C76.1423 119.688 76.1423 119.766 76.0593 119.814L73.5722 121.251C73.4891 121.299 73.3547 121.299 73.2716 121.251Z" fill="#D3D3D3"/>
<path d="M76.694 123.229L73.9301 121.632C73.847 121.584 73.847 121.506 73.9301 121.458L76.4172 120.021C76.5002 119.973 76.6347 119.973 76.7178 120.021L79.4817 121.618C79.5647 121.666 79.5647 121.744 79.4817 121.792L76.9946 123.229C76.9115 123.277 76.777 123.277 76.694 123.229Z" fill="#D3D3D3"/>
<path d="M80.1006 125.197L77.3366 123.6C77.2535 123.552 77.2535 123.474 77.3366 123.426L79.8237 121.989C79.9067 121.941 80.0412 121.941 80.1242 121.989L82.8882 123.586C82.9711 123.634 82.9711 123.712 82.8882 123.76L80.401 125.197C80.3181 125.245 80.1835 125.245 80.1006 125.197Z" fill="#D3D3D3"/>
<path d="M83.5387 127.184L80.7747 125.587C80.6918 125.539 80.6918 125.461 80.7747 125.413L83.2619 123.976C83.3448 123.928 83.4794 123.928 83.5624 123.976L86.3263 125.573C86.4094 125.621 86.4094 125.699 86.3263 125.747L83.8392 127.184C83.7562 127.232 83.6217 127.232 83.5387 127.184Z" fill="#D3D3D3"/>
<path d="M87.0796 129.23L84.3156 127.633C84.2327 127.585 84.2327 127.507 84.3156 127.459L86.8028 126.022C86.8857 125.974 87.0203 125.974 87.1032 126.022L89.8672 127.619C89.9502 127.667 89.9502 127.745 89.8672 127.793L87.3801 129.23C87.2971 129.278 87.1626 129.278 87.0796 129.23Z" fill="#D3D3D3"/>
<path d="M42.1407 103.043L37.8148 100.544C37.7318 100.496 37.7318 100.418 37.8148 100.37L40.302 98.9329C40.385 98.885 40.5195 98.885 40.6024 98.9329L44.9283 101.432C45.0113 101.48 45.0113 101.558 44.9283 101.606L42.4412 103.043C42.3581 103.091 42.2236 103.091 42.1407 103.043Z" fill="#F7F7F7"/>
<path d="M45.727 105.115L42.963 103.518C42.88 103.47 42.88 103.393 42.963 103.345L45.4501 101.908C45.5331 101.86 45.6676 101.86 45.7507 101.908L48.5146 103.505C48.5976 103.553 48.5976 103.63 48.5146 103.678L46.0274 105.115C45.9445 105.163 45.81 105.163 45.727 105.115Z" fill="#F7F7F7"/>
<path d="M37.1445 104.125L34.3806 102.528C34.2976 102.48 34.2976 102.402 34.3806 102.354L36.8678 100.917C36.9508 100.869 37.0853 100.869 37.1682 100.917L39.9322 102.514C40.0152 102.562 40.0152 102.64 39.9322 102.688L37.445 104.125C37.3621 104.173 37.2276 104.173 37.1445 104.125Z" fill="#F7F7F7"/>
<path d="M35.4284 106.903L31.1184 104.413C31.0354 104.365 31.0354 104.287 31.1184 104.239L33.6056 102.802C33.6885 102.754 33.8231 102.754 33.906 102.802L38.216 105.292C38.299 105.34 38.299 105.418 38.216 105.466L35.7289 106.903C35.646 106.951 35.5114 106.951 35.4284 106.903Z" fill="#F7F7F7"/>
<path d="M40.4661 106.044L37.7021 104.447C37.6192 104.399 37.6192 104.321 37.7021 104.273L40.1892 102.836C40.2723 102.788 40.4068 102.788 40.4897 102.836L43.2536 104.433C43.3367 104.481 43.3367 104.559 43.2536 104.607L40.7665 106.044C40.6835 106.092 40.5491 106.092 40.4661 106.044Z" fill="#F7F7F7"/>
<path d="M43.8616 108.006L41.0977 106.409C41.0146 106.361 41.0146 106.283 41.0977 106.235L43.5848 104.798C43.6678 104.75 43.8023 104.75 43.8853 104.798L46.6493 106.395C46.7323 106.443 46.7323 106.521 46.6493 106.569L44.1621 108.006C44.0791 108.054 43.9445 108.054 43.8616 108.006Z" fill="#F7F7F7"/>
<path d="M47.3226 110.006L44.5586 108.409C44.4756 108.361 44.4756 108.283 44.5586 108.235L47.0457 106.798C47.1286 106.75 47.2632 106.75 47.3462 106.798L50.1101 108.395C50.1932 108.443 50.1932 108.521 50.1101 108.569L47.623 110.006C47.5401 110.054 47.4055 110.054 47.3226 110.006Z" fill="#F7F7F7"/>
<path d="M50.8062 112.019L48.0423 110.422C47.9592 110.374 47.9592 110.296 48.0423 110.248L50.5294 108.811C50.6123 108.763 50.7469 108.763 50.8299 108.811L53.5938 110.408C53.6768 110.456 53.6768 110.534 53.5938 110.582L51.1066 112.019C51.0237 112.067 50.8891 112.067 50.8062 112.019Z" fill="#F7F7F7"/>
<path d="M54.2661 114.018L51.5021 112.421C51.4191 112.373 51.4191 112.295 51.5021 112.247L53.9892 110.81C54.0723 110.762 54.2067 110.762 54.2897 110.81L57.0537 112.407C57.1367 112.455 57.1367 112.533 57.0537 112.581L54.5666 114.018C54.4836 114.066 54.349 114.066 54.2661 114.018Z" fill="#F7F7F7"/>
<path d="M57.714 116.01L54.95 114.413C54.8671 114.365 54.8671 114.287 54.95 114.239L57.4372 112.802C57.5202 112.754 57.6547 112.754 57.7376 112.802L60.5016 114.399C60.5847 114.447 60.5847 114.525 60.5016 114.573L58.0145 116.01C57.9315 116.058 57.797 116.058 57.714 116.01Z" fill="#F7F7F7"/>
<path d="M61.083 117.957L58.3191 116.36C58.2361 116.312 58.2361 116.234 58.3191 116.186L60.8062 114.749C60.8893 114.701 61.0238 114.701 61.1067 114.749L63.8707 116.346C63.9537 116.394 63.9537 116.472 63.8707 116.52L61.3836 117.957C61.3005 118.005 61.166 118.005 61.083 117.957Z" fill="#F7F7F7"/>
<path d="M64.5231 119.945L61.7592 118.348C61.6761 118.3 61.6761 118.222 61.7592 118.174L64.2463 116.737C64.3293 116.689 64.4638 116.689 64.5468 116.737L67.3107 118.334C67.3937 118.382 67.3937 118.46 67.3107 118.508L64.8236 119.945C64.7406 119.993 64.6061 119.993 64.5231 119.945Z" fill="#F7F7F7"/>
<path d="M67.8842 121.886L65.1202 120.29C65.0372 120.242 65.0372 120.164 65.1202 120.116L67.6073 118.679C67.6903 118.631 67.8248 118.631 67.9079 118.679L70.6718 120.276C70.7548 120.324 70.7548 120.402 70.6718 120.449L68.1847 121.886C68.1017 121.934 67.9671 121.934 67.8842 121.886Z" fill="#F7F7F7"/>
<path d="M71.3795 123.906L68.6156 122.309C68.5326 122.261 68.5326 122.184 68.6156 122.136L71.1027 120.699C71.1858 120.651 71.3203 120.651 71.4033 120.699L74.1672 122.296C74.2502 122.344 74.2502 122.421 74.1672 122.469L71.6801 123.906C71.5971 123.954 71.4625 123.954 71.3795 123.906Z" fill="#F7F7F7"/>
<path d="M74.8515 125.912L72.0875 124.315C72.0045 124.267 72.0045 124.189 72.0875 124.142L74.5747 122.704C74.6576 122.656 74.7922 122.656 74.8752 122.704L77.6391 124.301C77.7221 124.349 77.7221 124.427 77.6391 124.475L75.152 125.912C75.069 125.96 74.9344 125.96 74.8515 125.912Z" fill="#F7F7F7"/>
<path d="M78.2124 127.854L75.4484 126.257C75.3653 126.209 75.3653 126.132 75.4484 126.084L77.9355 124.647C78.0185 124.599 78.153 124.599 78.236 124.647L81 126.244C81.0829 126.292 81.0829 126.369 81 126.417L78.5128 127.854C78.4299 127.902 78.2953 127.902 78.2124 127.854Z" fill="#F7F7F7"/>
<path d="M39.0307 108.985L36.2667 107.388C36.1837 107.34 36.1837 107.262 36.2667 107.214L38.7539 105.777C38.8369 105.729 38.9714 105.729 39.0544 105.777L41.8183 107.374C41.9014 107.422 41.9014 107.5 41.8183 107.548L39.3312 108.985C39.2483 109.033 39.1137 109.033 39.0307 108.985Z" fill="#F7F7F7"/>
<path d="M42.4707 110.972L39.7067 109.375C39.6238 109.327 39.6238 109.25 39.7067 109.202L42.1939 107.764C42.2769 107.717 42.4114 107.717 42.4944 107.764L45.2584 109.361C45.3414 109.409 45.3414 109.487 45.2584 109.535L42.7713 110.972C42.6883 111.02 42.5538 111.02 42.4707 110.972Z" fill="#F7F7F7"/>
<path d="M45.8189 112.907L43.055 111.31C42.9719 111.262 42.9719 111.184 43.055 111.136L45.5421 109.699C45.625 109.651 45.7596 109.651 45.8426 109.699L48.6065 111.296C48.6895 111.344 48.6895 111.422 48.6065 111.47L46.1194 112.907C46.0364 112.955 45.9019 112.955 45.8189 112.907Z" fill="#F7F7F7"/>
<path d="M49.2858 114.91L46.5219 113.313C46.4388 113.265 46.4388 113.187 46.5219 113.139L49.009 111.702C49.092 111.654 49.2264 111.654 49.3095 111.702L52.0735 113.299C52.1564 113.347 52.1564 113.425 52.0735 113.473L49.5863 114.91C49.5034 114.958 49.3688 114.958 49.2858 114.91Z" fill="#F7F7F7"/>
<path d="M52.6923 116.878L49.9284 115.281C49.8453 115.233 49.8453 115.156 49.9284 115.108L52.4155 113.671C52.4985 113.623 52.633 113.623 52.716 113.671L55.48 115.268C55.563 115.316 55.563 115.393 55.48 115.441L52.9928 116.878C52.9099 116.926 52.7753 116.926 52.6923 116.878Z" fill="#F7F7F7"/>
<path d="M56.1521 118.893L53.3882 117.296C53.3052 117.248 53.3052 117.17 53.3882 117.122L55.8753 115.685C55.9583 115.637 56.0928 115.637 56.1758 115.685L58.9398 117.282C59.0228 117.33 59.0228 117.408 58.9398 117.456L56.4527 118.893C56.3696 118.941 56.2351 118.941 56.1521 118.893Z" fill="#F7F7F7"/>
<path d="M59.6416 120.894L56.8776 119.297C56.7947 119.249 56.7947 119.171 56.8776 119.123L59.3648 117.686C59.4477 117.638 59.5823 117.638 59.6653 117.686L62.4292 119.283C62.5122 119.331 62.5122 119.409 62.4292 119.457L59.942 120.894C59.8592 120.942 59.7246 120.942 59.6416 120.894Z" fill="#F7F7F7"/>
<path d="M62.9958 122.88L60.2318 121.283C60.1488 121.235 60.1488 121.157 60.2318 121.109L62.719 119.672C62.802 119.624 62.9365 119.624 63.0194 119.672L65.7833 121.269C65.8664 121.317 65.8664 121.395 65.7833 121.443L63.2962 122.88C63.2133 122.928 63.0788 122.928 62.9958 122.88Z" fill="#F7F7F7"/>
<path d="M66.528 124.873L63.7641 123.276C63.681 123.228 63.681 123.15 63.7641 123.102L66.2512 121.665C66.3342 121.617 66.4687 121.617 66.5517 121.665L69.3156 123.262C69.3986 123.31 69.3986 123.388 69.3156 123.436L66.8284 124.873C66.7454 124.921 66.6109 124.921 66.528 124.873Z" fill="#F7F7F7"/>
<path d="M69.8672 126.802L67.1033 125.205C67.0203 125.157 67.0203 125.08 67.1033 125.032L69.5904 123.595C69.6735 123.547 69.8079 123.547 69.8909 123.595L72.6549 125.192C72.7378 125.24 72.7378 125.317 72.6549 125.365L70.1677 126.802C70.0847 126.85 69.9502 126.85 69.8672 126.802Z" fill="#F7F7F7"/>
<path d="M73.325 128.8L70.5611 127.203C70.4782 127.155 70.4782 127.078 70.5611 127.03L73.0482 125.593C73.1312 125.545 73.2658 125.545 73.3487 125.593L76.1126 127.19C76.1957 127.238 76.1957 127.315 76.1126 127.363L73.6255 128.8C73.5426 128.848 73.4081 128.848 73.325 128.8Z" fill="#F7F7F7"/>
<path d="M76.8245 130.822L74.0606 129.225C73.9775 129.177 73.9775 129.099 74.0606 129.051L76.5477 127.614C76.6307 127.566 76.7652 127.566 76.8482 127.614L79.6122 129.211C79.6951 129.259 79.6951 129.337 79.6122 129.385L77.125 130.822C77.0421 130.87 76.9075 130.87 76.8245 130.822Z" fill="#F7F7F7"/>
<path d="M36.4762 111.434L33.7123 109.837C33.6293 109.789 33.6293 109.711 33.7123 109.663L36.1994 108.226C36.2825 108.178 36.4169 108.178 36.4999 108.226L39.2639 109.823C39.3469 109.871 39.3469 109.949 39.2639 109.997L36.7768 111.434C36.6938 111.482 36.5592 111.482 36.4762 111.434Z" fill="#F7F7F7"/>
<path d="M32.9927 109.421L27.7218 106.375C27.6388 106.327 27.6388 106.25 27.7218 106.202L30.2089 104.765C30.2919 104.717 30.4264 104.717 30.5094 104.765L35.7803 107.81C35.8632 107.858 35.8632 107.936 35.7803 107.984L33.2931 109.421C33.2102 109.469 33.0756 109.469 32.9927 109.421Z" fill="#F7F7F7"/>
<path d="M39.9164 113.422L37.1525 111.825C37.0695 111.777 37.0695 111.699 37.1525 111.651L39.6396 110.214C39.7226 110.166 39.8571 110.166 39.9401 110.214L42.7041 111.811C42.787 111.859 42.787 111.937 42.7041 111.985L40.2169 113.422C40.1339 113.47 39.9994 113.47 39.9164 113.422Z" fill="#F7F7F7"/>
<path d="M43.2647 115.356L40.5008 113.759C40.4177 113.711 40.4177 113.634 40.5008 113.586L42.9879 112.149C43.0709 112.101 43.2054 112.101 43.2884 112.149L46.0523 113.746C46.1354 113.793 46.1354 113.871 46.0523 113.919L43.5652 115.356C43.4822 115.404 43.3476 115.404 43.2647 115.356Z" fill="#F7F7F7"/>
<path d="M46.7313 117.359L43.9674 115.762C43.8844 115.714 43.8844 115.636 43.9674 115.589L46.4546 114.151C46.5375 114.103 46.6721 114.103 46.7551 114.151L49.519 115.748C49.6021 115.796 49.6021 115.874 49.519 115.922L47.0319 117.359C46.9489 117.407 46.8143 117.407 46.7313 117.359Z" fill="#F7F7F7"/>
<path d="M50.1379 119.328L47.3739 117.731C47.2909 117.683 47.2909 117.605 47.3739 117.557L49.8611 116.12C49.9441 116.072 50.0786 116.072 50.1616 116.12L52.9255 117.717C53.0086 117.765 53.0086 117.843 52.9255 117.891L50.4384 119.328C50.3554 119.376 50.2209 119.376 50.1379 119.328Z" fill="#F7F7F7"/>
<path d="M53.5978 121.342L50.8338 119.745C50.7509 119.697 50.7509 119.619 50.8338 119.571L53.321 118.134C53.4039 118.086 53.5385 118.086 53.6214 118.134L56.3854 119.731C56.4685 119.779 56.4685 119.857 56.3854 119.905L53.8983 121.342C53.8153 121.39 53.6808 121.39 53.5978 121.342Z" fill="#F7F7F7"/>
<path d="M57.0874 123.343L54.3235 121.746C54.2405 121.698 54.2405 121.62 54.3235 121.572L56.8106 120.135C56.8937 120.087 57.0282 120.087 57.1111 120.135L59.875 121.732C59.9581 121.78 59.9581 121.858 59.875 121.906L57.3879 123.343C57.305 123.391 57.1705 123.391 57.0874 123.343Z" fill="#F7F7F7"/>
<path d="M60.4414 125.329L57.6775 123.732C57.5945 123.684 57.5945 123.606 57.6775 123.558L60.1646 122.121C60.2476 122.073 60.3822 122.073 60.4651 122.121L63.2291 123.718C63.3121 123.766 63.3121 123.844 63.2291 123.892L60.7419 125.329C60.6589 125.377 60.5244 125.377 60.4414 125.329Z" fill="#F7F7F7"/>
<path d="M63.9734 127.322L61.2095 125.725C61.1265 125.677 61.1265 125.599 61.2095 125.551L63.6966 124.114C63.7796 124.066 63.9141 124.066 63.9971 124.114L66.7611 125.711C66.844 125.759 66.844 125.837 66.7611 125.885L64.274 127.322C64.191 127.37 64.0564 127.37 63.9734 127.322Z" fill="#F7F7F7"/>
<path d="M67.3128 129.251L64.5488 127.654C64.4658 127.607 64.4658 127.529 64.5488 127.481L67.036 126.044C67.1189 125.996 67.2535 125.996 67.3365 126.044L70.1004 127.641C70.1834 127.689 70.1834 127.766 70.1004 127.814L67.6132 129.251C67.5303 129.299 67.3957 129.299 67.3128 129.251Z" fill="#F7F7F7"/>
<path d="M70.7707 131.25L68.0067 129.653C67.9237 129.605 67.9237 129.527 68.0067 129.479L70.4939 128.042C70.5768 127.994 70.7114 127.994 70.7943 128.042L73.5583 129.639C73.6412 129.687 73.6412 129.765 73.5583 129.813L71.0711 131.25C70.9882 131.298 70.8537 131.298 70.7707 131.25Z" fill="#F7F7F7"/>
<path d="M31.4466 112.421L28.6826 110.824C28.5996 110.776 28.5996 110.698 28.6826 110.65L31.1698 109.213C31.2527 109.165 31.3873 109.165 31.4703 109.213L34.2342 110.81C34.3173 110.858 34.3173 110.936 34.2342 110.984L31.7471 112.421C31.6641 112.469 31.5296 112.469 31.4466 112.421Z" fill="#F7F7F7"/>
<path d="M27.9156 110.381L24.3529 108.322C24.2699 108.274 24.2699 108.196 24.3529 108.148L26.8401 106.711C26.9231 106.663 27.0576 106.663 27.1406 106.711L30.7033 108.77C30.7863 108.818 30.7863 108.896 30.7033 108.943L28.2161 110.381C28.1331 110.429 27.9986 110.429 27.9156 110.381Z" fill="#F7F7F7"/>
<path d="M34.8867 114.409L32.1228 112.811C32.0398 112.764 32.0398 112.686 32.1228 112.638L34.61 111.201C34.693 111.153 34.8275 111.153 34.9105 111.201L37.6745 112.798C37.7575 112.846 37.7575 112.924 37.6745 112.971L35.1874 114.409C35.1042 114.456 34.9698 114.456 34.8867 114.409Z" fill="#F7F7F7"/>
<path d="M38.235 116.343L35.471 114.746C35.3879 114.698 35.3879 114.62 35.471 114.572L37.9581 113.135C38.0411 113.087 38.1756 113.087 38.2586 113.135L41.0226 114.732C41.1055 114.78 41.1055 114.858 41.0226 114.906L38.5354 116.343C38.4525 116.391 38.3179 116.391 38.235 116.343Z" fill="#F7F7F7"/>
<path d="M41.7017 118.346L38.9377 116.749C38.8547 116.701 38.8547 116.624 38.9377 116.576L41.4248 115.139C41.5078 115.091 41.6424 115.091 41.7253 115.139L44.4892 116.735C44.5723 116.783 44.5723 116.861 44.4892 116.909L42.0021 118.346C41.9192 118.394 41.7847 118.394 41.7017 118.346Z" fill="#F7F7F7"/>
<path d="M23.7835 111.845L21.0196 110.248C20.9365 110.2 20.9365 110.122 21.0196 110.074L23.5067 108.637C23.5896 108.589 23.7242 108.589 23.8072 108.637L26.5711 110.234C26.6541 110.282 26.6541 110.36 26.5711 110.408L24.084 111.845C24.0011 111.893 23.8665 111.893 23.7835 111.845Z" fill="#F7F7F7"/>
<path d="M27.2237 113.833L24.4597 112.236C24.3767 112.188 24.3767 112.11 24.4597 112.062L26.9469 110.625C27.0299 110.577 27.1645 110.577 27.2474 110.625L30.0114 112.222C30.0944 112.27 30.0944 112.348 30.0114 112.396L27.5243 113.833C27.4412 113.881 27.3066 113.881 27.2237 113.833Z" fill="#F7F7F7"/>
<path d="M30.5717 115.767L27.8078 114.17C27.7249 114.122 27.7249 114.045 27.8078 113.997L30.295 112.56C30.3779 112.512 30.5125 112.512 30.5954 112.56L33.3594 114.157C33.4424 114.205 33.4424 114.282 33.3594 114.33L30.8722 115.767C30.7893 115.815 30.6548 115.815 30.5717 115.767Z" fill="#F7F7F7"/>
<path d="M34.8372 118.232L31.2746 116.174C31.1915 116.126 31.1915 116.048 31.2746 116L33.7617 114.563C33.8446 114.515 33.9792 114.515 34.0622 114.563L37.6249 116.621C37.7079 116.669 37.7079 116.747 37.6249 116.795L35.1378 118.232C35.0548 118.28 34.9203 118.28 34.8372 118.232Z" fill="#F7F7F7"/>
<path d="M52.12 128.218L35.6045 118.676C35.5215 118.628 35.5215 118.55 35.6045 118.502L38.0916 117.065C38.1747 117.017 38.3092 117.017 38.3921 117.065L54.9077 126.608C54.9907 126.656 54.9907 126.733 54.9077 126.781L52.4205 128.218C52.3375 128.266 52.2029 128.266 52.12 128.218Z" fill="#F7F7F7"/>
<path d="M63.9002 135.025L66.6642 136.622C66.7473 136.67 66.8817 136.67 66.9647 136.622L67.9157 136.073C67.9987 136.025 67.9987 135.947 67.9157 135.899L65.1517 134.302C65.0687 134.254 64.9341 134.254 64.8512 134.302L63.9002 134.851C63.8173 134.899 63.8173 134.977 63.9002 135.025Z" fill="#F7F7F7"/>
<path d="M65.4365 134.138L68.2005 135.735C68.2835 135.783 68.418 135.783 68.501 135.735L69.452 135.185C69.5349 135.137 69.5349 135.059 69.452 135.011L66.688 133.414C66.6049 133.366 66.4704 133.366 66.3875 133.414L65.4365 133.964C65.3535 134.012 65.3535 134.09 65.4365 134.138Z" fill="#F7F7F7"/>
<path d="M67.5205 137.117L70.2845 138.714C70.3674 138.762 70.502 138.762 70.5849 138.714L73.0721 137.277C73.1551 137.229 73.1551 137.151 73.0721 137.103L70.3081 135.506C70.2251 135.458 70.0906 135.458 70.0076 135.506L67.5205 136.943C67.4375 136.991 67.4375 137.069 67.5205 137.117Z" fill="#F7F7F7"/>
<path d="M60.4602 133.037L63.2241 134.634C63.3071 134.682 63.4416 134.682 63.5246 134.634L66.0117 133.197C66.0947 133.149 66.0947 133.072 66.0117 133.024L63.2477 131.427C63.1648 131.379 63.0302 131.379 62.9472 131.427L60.4601 132.864C60.3772 132.912 60.3772 132.989 60.4602 133.037Z" fill="#F7F7F7"/>
<path d="M57.112 131.103L59.876 132.7C59.959 132.748 60.0935 132.748 60.1766 132.7L62.6637 131.263C62.7467 131.215 62.7467 131.137 62.6637 131.089L59.8998 129.492C59.8167 129.444 59.6823 129.444 59.5992 129.492L57.1121 130.929C57.0291 130.977 57.0291 131.055 57.112 131.103Z" fill="#F7F7F7"/>
<path d="M52.8465 128.638L56.4092 130.696C56.4922 130.744 56.6267 130.744 56.7097 130.696L59.1968 129.259C59.2798 129.211 59.2798 129.134 59.1968 129.086L55.6341 127.027C55.5511 126.979 55.4166 126.979 55.3336 127.027L52.8465 128.464C52.7636 128.512 52.7636 128.59 52.8465 128.638Z" fill="#F7F7F7"/>
<path d="M45.1083 120.315L42.3443 118.718C42.2612 118.67 42.2612 118.592 42.3443 118.544L44.8314 117.107C44.9144 117.059 45.0489 117.059 45.1319 117.107L47.8958 118.704C47.9788 118.752 47.9788 118.83 47.8958 118.878L45.4086 120.315C45.3258 120.363 45.1912 120.363 45.1083 120.315Z" fill="#F7F7F7"/>
<path d="M48.5682 122.329L45.8042 120.732C45.7212 120.684 45.7212 120.606 45.8042 120.558L48.2913 119.121C48.3743 119.073 48.5088 119.073 48.5918 119.121L51.3558 120.718C51.4388 120.766 51.4388 120.844 51.3558 120.892L48.8686 122.329C48.7857 122.377 48.6511 122.377 48.5682 122.329Z" fill="#F7F7F7"/>
<path d="M52.0576 124.33L49.2937 122.733C49.2107 122.685 49.2107 122.607 49.2937 122.559L51.7808 121.122C51.8639 121.074 51.9984 121.074 52.0814 121.122L54.8454 122.719C54.9284 122.767 54.9284 122.845 54.8454 122.893L52.3583 124.33C52.2751 124.378 52.1407 124.378 52.0576 124.33Z" fill="#F7F7F7"/>
<path d="M55.4118 126.316L52.6478 124.719C52.5648 124.671 52.5648 124.594 52.6478 124.546L55.135 123.108C55.218 123.061 55.3525 123.061 55.4355 123.108L58.1994 124.705C58.2824 124.753 58.2824 124.831 58.1994 124.879L55.7123 126.316C55.6293 126.364 55.4948 126.364 55.4118 126.316Z" fill="#F7F7F7"/>
<path d="M58.9438 128.309L56.1798 126.712C56.0968 126.664 56.0968 126.586 56.1798 126.538L58.667 125.101C58.7499 125.053 58.8845 125.053 58.9674 125.101L61.7314 126.698C61.8145 126.746 61.8145 126.824 61.7314 126.872L59.2443 128.309C59.1613 128.357 59.0268 128.357 58.9438 128.309Z" fill="#F7F7F7"/>
<path d="M62.2831 130.239L59.5191 128.642C59.4362 128.594 59.4362 128.516 59.5191 128.468L62.0063 127.031C62.0892 126.983 62.2238 126.983 62.3067 127.031L65.0707 128.628C65.1538 128.676 65.1538 128.754 65.0707 128.801L62.5836 130.239C62.5007 130.287 62.3661 130.287 62.2831 130.239Z" fill="#F7F7F7"/>
<path d="M65.741 132.236L62.977 130.639C62.8941 130.591 62.8941 130.514 62.977 130.466L65.4641 129.029C65.5471 128.981 65.6817 128.981 65.7647 129.029L68.5286 130.626C68.6116 130.674 68.6116 130.751 68.5286 130.799L66.0415 132.236C65.9585 132.284 65.824 132.284 65.741 132.236Z" fill="#F7F7F7"/>
<path d="M74.2702 133.272L71.5062 131.675C71.4232 131.627 71.4232 131.549 71.5062 131.501L73.9933 130.064C74.0763 130.016 74.2108 130.016 74.2938 130.064L77.0577 131.661C77.1407 131.709 77.1407 131.787 77.0577 131.835L74.5706 133.272C74.4877 133.32 74.3531 133.32 74.2702 133.272Z" fill="#F7F7F7"/>
<path d="M83.171 131.441C83.254 131.393 83.254 131.315 83.171 131.268L80.407 129.671C80.324 129.623 80.1894 129.623 80.1065 129.671L77.6194 131.108C77.5364 131.156 77.5364 131.233 77.6194 131.281L78.1492 131.587L74.8613 133.487C74.7783 133.535 74.7783 133.613 74.8613 133.661L76.9452 134.865C77.0282 134.913 77.1627 134.913 77.2457 134.865L80.585 132.936C80.6025 132.925 80.6154 132.914 80.6254 132.902C80.6464 132.896 80.6664 132.888 80.6838 132.878L83.171 131.441Z" fill="#F7F7F7"/>
<path d="M83.6454 130.994L79.0902 128.362C79.0072 128.314 79.0072 128.236 79.0902 128.188L81.5774 126.751C81.6603 126.703 81.7949 126.703 81.8778 126.751L86.433 129.383C86.516 129.431 86.516 129.509 86.433 129.557L83.9459 130.994C83.8629 131.042 83.7284 131.042 83.6454 130.994Z" fill="#F7F7F7"/>
<path d="M73.6176 136.788L66.3737 132.602C66.2906 132.554 66.2906 132.476 66.3737 132.428L68.8608 130.991C68.9438 130.943 69.0783 130.943 69.1613 130.991L76.4053 135.177C76.4883 135.225 76.4883 135.303 76.4053 135.351L73.9182 136.788C73.8351 136.836 73.7007 136.836 73.6176 136.788Z" fill="#F7F7F7"/>
<path d="M49.2027 107.124L46.4387 105.527C46.3557 105.479 46.3557 105.401 46.4387 105.353L48.9258 103.916C49.0088 103.868 49.1433 103.868 49.2264 103.916L51.9903 105.513C52.0733 105.561 52.0733 105.639 51.9903 105.686L49.5031 107.124C49.4202 107.172 49.2856 107.172 49.2027 107.124Z" fill="#F7F7F7"/>
<path d="M52.6784 109.132L49.9144 107.535C49.8314 107.487 49.8314 107.409 49.9144 107.361L52.4017 105.924C52.4846 105.876 52.6192 105.876 52.7021 105.924L55.4661 107.521C55.5491 107.569 55.5491 107.647 55.4661 107.695L52.979 109.132C52.896 109.18 52.7614 109.18 52.6784 109.132Z" fill="#F7F7F7"/>
<path d="M56.1541 111.14L53.3902 109.543C53.3071 109.495 53.3071 109.417 53.3902 109.37L55.8773 107.932C55.9603 107.884 56.0948 107.884 56.1778 107.932L58.9418 109.529C59.0247 109.577 59.0247 109.655 58.9418 109.703L56.4546 111.14C56.3717 111.188 56.2371 111.188 56.1541 111.14Z" fill="#F7F7F7"/>
<path d="M59.4993 113.073L56.7354 111.476C56.6523 111.428 56.6523 111.35 56.7354 111.302L59.2225 109.865C59.3055 109.817 59.44 109.817 59.523 109.865L62.287 111.462C62.3699 111.51 62.3699 111.588 62.287 111.636L59.7998 113.073C59.7169 113.121 59.5823 113.121 59.4993 113.073Z" fill="#F7F7F7"/>
<path d="M62.9849 115.087L60.2209 113.49C60.138 113.442 60.138 113.364 60.2209 113.316L62.708 111.879C62.7911 111.832 62.9256 111.832 63.0086 111.879L65.7726 113.476C65.8555 113.524 65.8555 113.602 65.7726 113.65L63.2854 115.087C63.2024 115.135 63.0679 115.135 62.9849 115.087Z" fill="#F7F7F7"/>
<path d="M66.4249 117.075L63.661 115.478C63.578 115.43 63.578 115.352 63.661 115.304L66.1482 113.867C66.2312 113.819 66.3657 113.819 66.4487 113.867L69.2126 115.464C69.2957 115.512 69.2957 115.59 69.2126 115.638L66.7255 117.075C66.6425 117.123 66.5079 117.123 66.4249 117.075Z" fill="#F7F7F7"/>
<path d="M69.786 119.017L67.0221 117.42C66.9391 117.372 66.9391 117.294 67.0221 117.246L69.5092 115.809C69.5923 115.761 69.7268 115.761 69.8098 115.809L72.5737 117.406C72.6567 117.454 72.6567 117.532 72.5737 117.58L70.0866 119.017C70.0036 119.065 69.8691 119.065 69.786 119.017Z" fill="#F7F7F7"/>
<path d="M73.2716 121.031L70.5077 119.434C70.4247 119.386 70.4247 119.308 70.5077 119.26L72.9948 117.823C73.0779 117.775 73.2124 117.775 73.2953 117.823L76.0593 119.42C76.1423 119.468 76.1423 119.546 76.0593 119.594L73.5722 121.031C73.4891 121.079 73.3547 121.079 73.2716 121.031Z" fill="#F7F7F7"/>
<path d="M76.694 123.008L73.9301 121.411C73.847 121.363 73.847 121.286 73.9301 121.238L76.4172 119.801C76.5002 119.753 76.6347 119.753 76.7178 119.801L79.4817 121.398C79.5647 121.446 79.5647 121.523 79.4817 121.571L76.9946 123.008C76.9115 123.056 76.777 123.056 76.694 123.008Z" fill="#F7F7F7"/>
<path d="M80.1006 124.977L77.3366 123.38C77.2535 123.332 77.2535 123.254 77.3366 123.206L79.8237 121.769C79.9067 121.721 80.0412 121.721 80.1242 121.769L82.8882 123.366C82.9711 123.414 82.9711 123.492 82.8882 123.54L80.401 124.977C80.3181 125.025 80.1835 125.025 80.1006 124.977Z" fill="#F7F7F7"/>
<path d="M83.5387 126.963L80.7747 125.366C80.6918 125.318 80.6918 125.24 80.7747 125.193L83.2619 123.755C83.3448 123.707 83.4794 123.707 83.5624 123.755L86.3263 125.352C86.4094 125.4 86.4094 125.478 86.3263 125.526L83.8392 126.963C83.7562 127.011 83.6217 127.011 83.5387 126.963Z" fill="#F7F7F7"/>
<path d="M87.0796 129.009L84.3156 127.412C84.2327 127.364 84.2327 127.287 84.3156 127.239L86.8028 125.802C86.8857 125.754 87.0203 125.754 87.1032 125.802L89.8672 127.399C89.9502 127.447 89.9502 127.524 89.8672 127.572L87.3801 129.009C87.2971 129.057 87.1626 129.057 87.0796 129.009Z" fill="#F7F7F7"/>
<path d="M151.693 57.1385L79.8438 15.6254L79.8438 10.0142L151.693 51.5272L151.693 57.1385Z" fill="white"/>
<path d="M151.692 89.1212L79.8431 47.6081L79.8432 41.9968L151.692 83.5099L151.692 89.1212Z" fill="white"/>
<path d="M87.0839 23.7493C87.0838 24.8866 86.286 25.3476 85.302 24.7789C84.3179 24.2103 83.5201 22.8275 83.5201 21.6904C83.5201 20.5532 84.3179 20.0922 85.302 20.6608C86.2861 21.2294 87.0839 22.6121 87.0839 23.7493Z" stroke="#EAEAEA" stroke-width="7.115" stroke-miterlimit="10"/>
<path d="M88.121 31.4104C88.2458 31.0512 88.3173 30.6474 88.3173 30.2145C88.3173 28.2899 86.9673 26.5728 85.3019 25.6106C83.6365 24.6484 82.2865 24.8054 82.2864 26.7299C82.2864 27.1628 82.3579 27.6493 82.4827 28.1527L88.121 31.4104Z" stroke="#EAEAEA" stroke-width="7.115" stroke-miterlimit="10"/>
<path d="M121.635 63.3394L92.069 46.2566L92.0691 24.5706L121.635 41.6535L121.635 63.3394Z" stroke="#EAEAEA" stroke-width="7.115" stroke-miterlimit="10"/>
<path d="M151.692 80.7058L122.948 64.0979L122.948 42.4119L151.693 59.0198L151.692 80.7058Z" stroke="#EAEAEA" stroke-width="7.115" stroke-miterlimit="10"/>
<path d="M90.713 46.8032L79.8433 40.5228L79.8434 27.9619L90.7132 34.2422L90.713 46.8032Z" fill="white"/>
<path d="M89.6459 36.3835L80.9103 31.3362L80.9104 30.095L89.646 35.1422L89.6459 36.3835Z" fill="#EAEAEA"/>
<path d="M89.6459 38.997L80.9103 33.9498L80.9104 32.7085L89.646 37.7558L89.6459 38.997Z" fill="#EAEAEA"/>
<path d="M89.6459 41.6108L80.9103 36.5635L80.9104 35.3223L89.646 40.3695L89.6459 41.6108Z" fill="#EAEAEA"/>
<path d="M85.1221 40.3698V41.6101L80.9091 39.1775V37.9373L85.1221 40.3698Z" fill="#EAEAEA"/>
<path d="M119.931 44.2354L109.788 38.3749V36.8672L119.931 42.7277V44.2354Z" fill="#EAEAEA"/>
<path d="M108.391 37.5679L93.7737 29.1222V27.6145L108.391 36.0602V37.5679Z" fill="#EAEAEA"/>
<path d="M119.931 47.3689L108.391 40.7014L108.391 39.1938L119.931 45.8612V47.3689Z" fill="#EAEAEA"/>
<path d="M107.287 40.0631L100.309 36.0315V34.5239L107.287 38.5555L107.287 40.0631Z" fill="#EAEAEA"/>
<path d="M98.9649 35.2552L93.7736 32.2557L93.7736 30.748L98.9649 33.7475V35.2552Z" fill="#EAEAEA"/>
<path d="M119.931 50.5022L112.476 46.1949V44.6873L119.931 48.9946L119.931 50.5022Z" fill="#EAEAEA"/>
<path d="M111.424 45.5871L93.7736 35.3889V33.8813L111.424 44.0794V45.5871Z" fill="#EAEAEA"/>
<path d="M119.931 53.6355L107.053 46.1949V44.6873L119.931 52.1279V53.6355Z" fill="#EAEAEA"/>
<path d="M105.977 45.5738L93.7736 38.5226V37.0149L105.978 44.0661L105.977 45.5738Z" fill="#EAEAEA"/>
<path d="M119.931 56.7691L114.308 53.5204L114.308 52.0127L119.931 55.2615V56.7691Z" fill="#EAEAEA"/>
<path d="M113.107 52.8266L101.466 46.1006V44.593L113.107 51.319V52.8266Z" fill="#EAEAEA"/>
<path d="M100.309 45.4318L93.7736 41.6559V40.1482L100.309 43.9242L100.309 45.4318Z" fill="#EAEAEA"/>
<path d="M107.777 52.8806L93.7734 44.7894L93.7735 43.2817L107.777 51.3729V52.8806Z" fill="#EAEAEA"/>
<path d="M150.169 61.7065L140.204 55.9491V54.4414L150.169 60.1989L150.169 61.7065Z" fill="#EAEAEA"/>
<path d="M138.832 55.1561L124.472 46.859V45.3513L138.832 53.6485L138.832 55.1561Z" fill="#EAEAEA"/>
<path d="M150.169 64.8399L138.832 58.2897V56.782L150.169 63.3322V64.8399Z" fill="#EAEAEA"/>
<path d="M137.747 57.6626L130.892 53.7019V52.1943L137.747 56.1549V57.6626Z" fill="#EAEAEA"/>
<path d="M129.572 52.9392L124.472 49.9925V48.4849L129.572 51.4315V52.9392Z" fill="#EAEAEA"/>
<path d="M150.169 67.9733L142.845 63.7417V62.2341L150.169 66.4657V67.9733Z" fill="#EAEAEA"/>
<path d="M141.812 63.1447L124.472 53.1258L124.472 51.6182L141.812 61.637V63.1447Z" fill="#EAEAEA"/>
<path d="M150.169 71.1068L137.517 63.797V62.2893L150.169 69.5992L150.169 71.1068Z" fill="#EAEAEA"/>
<path d="M136.461 63.1866L124.472 56.2593V54.7517L136.461 61.679V63.1866Z" fill="#EAEAEA"/>
<path d="M150.169 74.2403L144.645 71.0486L144.645 69.541L150.169 72.7327V74.2403Z" fill="#EAEAEA"/>
<path d="M143.465 70.3668L132.029 63.7591L132.029 62.2515L143.465 68.8592V70.3668Z" fill="#EAEAEA"/>
<path d="M130.892 63.1023L124.472 59.3927V57.885L130.892 61.5946V63.1023Z" fill="#EAEAEA"/>
<path d="M138.229 70.4752L124.472 62.5262V61.0186L138.229 68.9675V70.4752Z" fill="#EAEAEA"/>
<path d="M26.0198 19.7543L22.8469 21.5875L22.8468 14.9206L26.0197 13.0874L26.0198 19.7543Z" fill="url(#paint23_linear_148_3587)"/>
<path d="M26.0198 27.5602L22.8469 29.3934L22.8468 22.7265L26.0197 20.8933L26.0198 27.5602Z" fill="#FFC933"/>
<path d="M26.0199 35.3663L22.847 37.1995L22.8469 30.5326L26.0198 28.6995L26.0199 35.3663Z" fill="#FFC933"/>
<path d="M26.0199 43.1723L22.847 45.0055L22.8469 38.3386L26.0198 36.5054L26.0199 43.1723Z" fill="#FFC933"/>
<path d="M26.0201 50.9785L22.8472 52.8116L22.8472 46.1448L26.02 44.3115L26.0201 50.9785Z" fill="#FFC933"/>
<path d="M32.6112 31.558L29.4384 33.3913L29.4384 26.7244L32.6112 24.8911L32.6112 31.558Z" fill="url(#paint24_linear_148_3587)"/>
<path d="M32.6112 39.3639L29.4384 41.1971L29.4384 34.5302L32.6112 32.697V39.3639Z" fill="#FFC933"/>
<path d="M32.6114 47.17L29.4386 49.0032L29.4385 42.3363L32.6113 40.5032L32.6114 47.17Z" fill="#FFC933"/>
<path d="M39.2027 43.3618L36.0299 45.1949L36.0298 38.5281L39.2027 36.6948L39.2027 43.3618Z" fill="url(#paint25_linear_148_3587)"/>
<path d="M45.7939 16.1351L42.621 17.9684V11.3015L45.7938 9.46826L45.7939 16.1351Z" fill="url(#paint26_linear_148_3587)"/>
<path d="M45.7939 23.9413L42.6211 25.7745L42.621 19.1077L45.7939 17.2744L45.7939 23.9413Z" fill="#FFC933"/>
<path d="M45.794 31.7472L42.6212 33.5803L42.6211 26.9135L45.7939 25.0803L45.794 31.7472Z" fill="#FFC933"/>
<path d="M45.7942 39.5534L42.6213 41.3866L42.6212 34.7197L45.7941 32.8865L45.7942 39.5534Z" fill="#FFC933"/>
<path d="M52.3855 27.9389L49.2127 29.7721L49.2125 23.1052L52.3854 21.272L52.3855 27.9389Z" fill="#FFC933"/>
<path d="M52.3855 35.745L49.2127 37.5782L49.2126 30.9113L52.3854 29.0781L52.3855 35.745Z" fill="#FFC933"/>
<path d="M58.9767 8.51842L55.8038 10.3516L55.8037 3.68472L58.9766 1.85156L58.9767 8.51842Z" fill="url(#paint27_linear_148_3587)"/>
<path d="M58.9767 16.3243L55.8038 18.1576V11.4907L58.9766 9.65747L58.9767 16.3243Z" fill="#FFC933"/>
<path d="M58.9767 24.1306L55.8039 25.9637L55.8038 19.2969L58.9766 17.4636L58.9767 24.1306Z" fill="#FFC933"/>
<path d="M58.9769 31.9366L55.804 33.7699L55.804 27.1029L58.9768 25.2698L58.9769 31.9366Z" fill="#FFC933"/>
<path d="M22.0182 61.6904L19.3983 63.2041V60.1766L22.0182 58.6628V61.6904Z" stroke="#CDCDCD" stroke-width="3.919" stroke-miterlimit="10" stroke-linejoin="round"/>
<path d="M40.4874 49.1201L23.4274 58.977V57.7312L40.4874 47.8743V49.1201Z" fill="url(#paint28_linear_148_3587)"/>
<path d="M28.8824 57.8422L23.4274 60.9939V59.7481L28.8823 56.5964L28.8824 57.8422Z" fill="url(#paint29_linear_148_3587)"/>
<path d="M19.8247 61.3261L20.4255 61.9244L21.7225 59.5203" stroke="#CDCDCD" stroke-width="3.919" stroke-miterlimit="10" stroke-linecap="round" stroke-linejoin="round"/>
<path d="M22.0184 67.0864L19.3984 68.6001V65.5726L22.0184 64.0588V67.0864Z" stroke="#CDCDCD" stroke-width="3.919" stroke-miterlimit="10" stroke-linejoin="round"/>
<path d="M40.4874 54.5159L23.4274 64.3728V63.127L40.4873 53.27L40.4874 54.5159Z" fill="url(#paint30_linear_148_3587)"/>
<path d="M33.396 60.6301L23.4274 66.3897V65.144L33.396 59.3843V60.6301Z" fill="url(#paint31_linear_148_3587)"/>
<path d="M19.8248 66.7219L20.4256 67.3201L21.7226 64.916" stroke="#CDCDCD" stroke-width="3.919" stroke-miterlimit="10" stroke-linecap="round" stroke-linejoin="round"/>
<path d="M22.0185 72.4821L19.3986 73.9959V70.9683L22.0185 69.4546V72.4821Z" stroke="#CDCDCD" stroke-width="3.919" stroke-miterlimit="10" stroke-linejoin="round"/>
<path d="M40.4875 59.9116L23.4275 69.7686V68.5227L40.4874 58.6658L40.4875 59.9116Z" fill="url(#paint32_linear_148_3587)"/>
<path d="M30.7501 67.5547L23.4275 71.7856V70.5398L30.7501 66.3088V67.5547Z" fill="url(#paint33_linear_148_3587)"/>
<path d="M19.825 72.1177L20.4257 72.7159L21.7227 70.3118" stroke="#CDCDCD" stroke-width="3.919" stroke-miterlimit="10" stroke-linecap="round" stroke-linejoin="round"/>
<path d="M22.0186 77.8779L19.3986 79.3916L19.3986 76.3641L22.0186 74.8503V77.8779Z" stroke="#CDCDCD" stroke-width="3.919" stroke-miterlimit="10" stroke-linejoin="round"/>
<path d="M40.4875 65.3074L23.4276 75.1643V73.9185L40.4875 64.0615V65.3074Z" fill="url(#paint34_linear_148_3587)"/>
<path d="M35.762 70.0549L23.4276 77.1815V75.9357L35.762 68.8091V70.0549Z" fill="url(#paint35_linear_148_3587)"/>
<path d="M19.825 77.5134L20.4257 78.1116L21.7228 75.7075" stroke="#CDCDCD" stroke-width="3.919" stroke-miterlimit="10" stroke-linecap="round" stroke-linejoin="round"/>
<path d="M47.022 47.2438L44.402 48.7576V45.73L47.0219 44.2163L47.022 47.2438Z" stroke="#CDCDCD" stroke-width="3.919" stroke-miterlimit="10" stroke-linejoin="round"/>
<path d="M65.4909 34.6735L48.4309 44.5304V43.2846L65.4909 33.4277V34.6735Z" fill="url(#paint36_linear_148_3587)"/>
<path d="M53.8859 43.3955L48.431 46.5472V45.3014L53.8859 42.1497V43.3955Z" fill="url(#paint37_linear_148_3587)"/>
<path d="M44.8284 46.8796L45.4292 47.4778L46.7262 45.0737" stroke="#CDCDCD" stroke-width="3.919" stroke-miterlimit="10" stroke-linejoin="round"/>
<path d="M47.0221 52.6396L44.4021 54.1533L44.402 51.1258L47.022 49.6121L47.0221 52.6396Z" stroke="#CDCDCD" stroke-width="3.919" stroke-miterlimit="10" stroke-linejoin="round"/>
<path d="M65.491 40.0691L48.431 49.926V48.6802L65.491 38.8232V40.0691Z" fill="url(#paint38_linear_148_3587)"/>
<path d="M58.3997 46.1835L48.4312 51.9432V50.6974L58.3997 44.9377V46.1835Z" fill="url(#paint39_linear_148_3587)"/>
<path d="M44.8285 52.2752L45.4293 52.8733L46.7263 50.4692" stroke="#CDCDCD" stroke-width="3.919" stroke-miterlimit="10" stroke-linejoin="round"/>
<path d="M47.022 58.0354L44.4021 59.5492L44.402 56.5216L47.022 55.0078V58.0354Z" stroke="#CDCDCD" stroke-width="3.919" stroke-miterlimit="10" stroke-linejoin="round"/>
<path d="M65.4911 45.465L48.4312 55.3219V54.0762L65.4911 44.2192V45.465Z" fill="url(#paint40_linear_148_3587)"/>
<path d="M55.7538 53.108L48.4312 57.339V56.0931L55.7538 51.8623L55.7538 53.108Z" fill="url(#paint41_linear_148_3587)"/>
<path d="M44.8286 57.6711L45.4294 58.2693L46.7265 55.8652" stroke="#CDCDCD" stroke-width="3.919" stroke-miterlimit="10" stroke-linejoin="round"/>
<path d="M47.0221 63.4311L44.4022 64.9448L44.4021 61.9173L47.022 60.4036L47.0221 63.4311Z" stroke="#CDCDCD" stroke-width="3.919" stroke-miterlimit="10" stroke-linejoin="round"/>
<path d="M65.4911 50.8608L48.4312 60.7178V59.4719L65.4911 49.615V50.8608Z" fill="url(#paint42_linear_148_3587)"/>
<path d="M60.7655 55.6081L48.4312 62.7346V61.4889L60.7655 54.3623V55.6081Z" fill="url(#paint43_linear_148_3587)"/>
<path d="M44.8286 63.0668L45.4294 63.6651L46.7264 61.261" stroke="#CDCDCD" stroke-width="3.919" stroke-miterlimit="10" stroke-linejoin="round"/>
<g opacity="0.7">
<path d="M130.448 98.9978C129.144 98.9978 127.931 98.6882 126.852 98.065C124.287 96.5827 122.874 93.55 122.874 89.5256C122.874 85.9098 124.036 81.8029 126.147 77.9616C128.485 73.7064 131.679 70.2615 135.141 68.2612C136.913 67.2376 138.645 66.6573 140.29 66.5364C141.933 66.4155 143.471 66.7733 144.737 67.5708C147.163 69.0984 148.498 72.0845 148.498 75.979C148.498 79.7858 147.227 84.0859 144.919 88.0871C142.611 92.0882 139.525 95.3399 136.231 97.2434C134.213 98.4094 132.245 98.9978 130.448 98.9978ZM140.916 68.6869C139.507 68.6869 137.912 69.1777 136.231 70.1494C133.153 71.9272 130.174 75.1577 128.056 79.0121C126.119 82.537 125.052 86.2708 125.052 89.5256C125.052 92.7382 126.078 95.1004 127.941 96.1768C129.804 97.2533 132.362 96.9615 135.142 95.3552C141.305 91.7938 146.32 83.1018 146.32 75.979C146.32 72.8608 145.346 70.53 143.577 69.416C142.804 68.9288 141.905 68.6869 140.916 68.6869Z" fill="url(#paint44_linear_148_3587)"/>
<path d="M127.101 78.4869C129.242 74.5916 132.296 71.164 135.686 69.2053C139.017 67.2809 142.023 67.149 144.157 68.4934" stroke="#FA9F11" stroke-width="28.415" stroke-miterlimit="10" stroke-linejoin="round"/>
<path d="M142.989 78.5326C142.989 83.1936 139.72 88.8613 135.686 91.1918C131.653 93.5222 128.383 91.633 128.383 86.9719C128.383 82.3109 131.652 76.6432 135.686 74.3127" stroke="#FA9F11" stroke-width="28.415" stroke-miterlimit="10" stroke-linejoin="round"/>
<path d="M131.981 84.8927C131.981 82.5284 133.64 79.6531 135.686 78.471C137.732 77.2888 139.391 78.2471 139.391 80.6116C139.391 82.976 137.732 85.8512 135.686 87.0334" stroke="#E5E5E5" stroke-width="11" stroke-miterlimit="10" stroke-linejoin="round"/>
</g>
<g opacity="0.7">
<path d="M144.157 109.7C144.157 115.107 140.365 121.681 135.686 124.384C131.008 127.087 127.215 124.895 127.215 119.489C127.215 116.914 128.076 114.073 129.483 111.512C131.029 108.698 133.236 106.221 135.686 104.806C138.093 103.415 140.265 103.32 141.808 104.291C143.263 105.208 144.157 107.075 144.157 109.7Z" stroke="#E5E5E5" stroke-width="20.533" stroke-miterlimit="10" stroke-linejoin="round"/>
<path d="M129.483 111.512C131.029 108.698 133.236 106.221 135.686 104.806C138.093 103.415 140.265 103.32 141.807 104.291" stroke="#FA9F11" stroke-width="20.533" stroke-miterlimit="10" stroke-linejoin="round"/>
<path d="M140.963 111.546C140.963 114.914 138.601 119.009 135.686 120.693C132.771 122.377 130.409 121.012 130.409 117.644C130.409 114.276 132.771 110.18 135.686 108.496" stroke="#FA9F11" stroke-width="20.533" stroke-miterlimit="10" stroke-linejoin="round"/>
<path d="M133.009 116.141C133.009 114.433 134.207 112.355 135.686 111.501C137.164 110.647 138.363 111.339 138.363 113.048C138.363 114.756 137.165 116.834 135.686 117.688" stroke="#E5E5E5" stroke-width="11" stroke-miterlimit="10" stroke-linejoin="round"/>
</g>
<path d="M75.7709 56.3508C73.1493 56.4891 69.2357 56.2456 68.4301 54.81C68.2958 54.5663 68.233 54.1675 68.233 53.6556C68.233 51.7415 69.0846 48.2614 70.0785 45.6923C70.0785 45.6923 71.0689 42.934 71.6979 41.7252C72.0752 41.0073 73.3086 40.7012 74.244 40.5708C74.8775 40.4828 75.3683 40.4785 75.3683 40.4785C75.3683 40.4785 75.2297 40.6841 75.0159 40.9907C74.8062 42.4182 74.1478 46.6159 73.5688 47.5687C72.8723 48.7231 71.9582 52.216 72.2432 52.7824C72.4024 53.1059 73.9505 53.4794 75.1166 53.7189C75.8548 53.8698 76.4379 53.9706 76.4379 53.9706L76.5427 54.3902C76.5427 54.3902 78.3926 56.208 75.7709 56.3508Z" fill="#E1E8F2"/>
<path opacity="0.56" d="M75.1166 53.7187C75.0286 53.8147 74.9768 54.0619 74.8589 54.0619C73.3658 54.0619 72.102 53.1917 72.102 53.1917C71.6446 54.0904 70.4435 54.512 70.2966 54.5751C71.681 53.6345 71.8311 53.054 71.8311 52.0463C71.8311 51.0685 72.5488 49.2858 72.5948 49.1639C72.5698 49.1849 72.6205 49.1175 72.2517 49.4823C71.9411 49.7934 71.0981 50.3307 70.6746 50.5952C71.916 49.7974 72.5389 48.6355 72.5389 48.6355C72.5389 48.6355 72.2583 47.8329 72.4514 44.3152C72.5814 41.9559 73.4434 40.8648 74.2438 40.5706C74.8773 40.4826 75.3682 40.4783 75.3682 40.4783C75.3682 40.4783 75.2296 40.6838 75.0157 40.9904C74.806 42.4179 74.1477 46.6156 73.5686 47.5684C72.8722 48.7229 71.9581 52.2158 72.243 52.7822C72.4023 53.1058 73.9505 53.4791 75.1166 53.7187Z" fill="#D0D8E2"/>
<path d="M74.0597 95.4584C74.0597 95.4584 73.4043 97.2952 74.2692 98.1608C75.1343 99.027 76.2615 98.1607 77.7561 97.4C79.2505 96.6393 80.6934 96.0883 80.6934 96.0883L80.4041 92.8608H80.0894C80.0894 92.8608 77.9135 94.1466 76.9959 93.9892C76.0782 93.832 74.0597 95.4584 74.0597 95.4584Z" fill="#04242B"/>
<path d="M80.2292 98.2404C80.2292 98.2404 79.7048 99.6572 79.7048 100.549C79.7048 101.442 80.7535 102.002 82.4487 101.477C84.1439 100.952 86.836 99.7803 87.9542 99.1154C89.073 98.4505 88.8981 97.5936 88.4961 96.8413C88.0943 96.0892 87.7272 95.862 86.2242 96.2642C84.7207 96.6662 83.3578 96.841 82.9733 96.6141C82.5887 96.3867 80.2292 98.2404 80.2292 98.2404Z" fill="#04242B"/>
<path d="M74.5901 63.7349C74.5901 63.7349 74.846 75.2822 74.846 77.4862C74.846 79.6903 73.4829 81.5792 73.4829 85.5147C73.4829 89.4504 73.9548 93.2287 73.9548 94.2082C73.9548 95.1877 73.8149 95.4676 73.8149 95.4676C73.8149 95.4676 74.007 96.1321 75.353 95.5726C76.699 95.0127 77.3629 94.0682 77.3629 94.0682C77.3629 94.0682 78.0845 86.211 78.8185 82.9054C79.5527 79.5993 81.0333 76.1744 81.0333 76.1744L81.3904 64.2622C81.3904 64.2622 74.5901 62.0323 74.5901 63.7349Z" fill="#05313F"/>
<path d="M77.4677 65.5145C77.4677 65.5145 78.2016 67.5611 79.5123 69.3451C80.8235 71.129 80.1942 78.4231 80.1942 81.0991C80.1942 83.7752 79.6698 85.7168 79.6698 89.2849C79.6698 92.8535 80.2729 96.4478 80.1155 97.3923C79.9581 98.337 79.9581 98.337 79.9581 98.337C79.9581 98.337 81.4263 99.3076 82.2391 98.4941C83.052 97.6812 83.2878 96.8677 83.2878 96.8677C83.2878 96.8677 84.0916 88.4638 84.7207 85.245C85.3501 82.0269 86.5386 78.8084 86.5386 76.4295C86.5386 74.0507 87.6261 68.8729 86.8464 65.5146C86.0666 62.1562 77.4677 65.5145 77.4677 65.5145Z" fill="#083F4C"/>
<path d="M95.0852 57.0314C95.0852 57.0314 95.3736 56.7166 95.3736 56.3231C95.3736 55.9298 95.6709 55.3347 95.9768 54.6264C96.2823 53.9178 96.6933 52.9381 97.1125 53.0869C97.5324 53.2357 97.3402 53.8123 97.27 54.2151C97.1998 54.6175 96.9901 55.3171 97.7329 54.9675C98.4759 54.6175 99.4372 53.8217 99.6995 53.6555C99.9613 53.4892 100.329 53.6207 100.084 54.0668C99.839 54.5126 99.839 54.5126 99.839 54.5126C99.839 54.5126 100.163 54.1278 100.259 54.5653C100.355 55.0025 99.9613 55.3261 99.9613 55.3261C99.9613 55.3261 100.101 55.2999 100.101 55.7112C100.101 56.1221 99.7082 56.3842 99.7082 56.3842C99.7082 56.3842 100.25 56.4891 99.8656 56.8741C99.4811 57.259 98.441 58.2076 97.5233 58.352C96.6057 58.4962 95.5703 59.1784 95.5703 59.1784L95.0852 57.0314Z" fill="#FFC77D"/>
<path d="M77.3628 39.1655C77.3628 39.1655 77.5069 40.2092 77.0221 40.6946C77.0221 40.6946 76.9695 41.8227 79.0407 42.0328C81.1118 42.2425 81.6885 42.0328 81.6885 42.0328C81.6885 42.0328 81.6097 39.9077 82.2041 39.6102C82.7984 39.3129 83.2656 39.1654 83.2656 39.1654L82.6723 36.1062C82.6723 36.1062 81.0348 36.4638 80.6933 36.4638C80.3514 36.4638 77.3628 38.1437 77.3628 39.1655Z" fill="#FFCB8D"/>
<path d="M85.6016 32.4493C85.6016 32.4493 85.7893 33.9844 85.4134 34.9922C85.0379 36.0001 84.6651 36.9203 84.7643 37.7457C84.8631 38.5714 83.7399 39.4772 83.1347 39.6239C82.5297 39.7704 82.1334 39.631 81.9216 39.3521C81.7099 39.0732 81.7411 38.5694 81.7967 38.1615C81.8525 37.7537 81.2008 37.8761 81.1535 37.0577C81.1067 36.2396 84.817 31.4151 85.6016 32.4493Z" fill="#FFC77D"/>
<path d="M77.1239 28.4567C77.1239 28.4567 73.6968 30.6892 74.5391 33.823C75.3813 36.957 76.3814 38.4177 76.4897 39.1741C76.5983 39.9303 78.0904 40.6286 79.4115 39.9974C80.7325 39.366 81.2415 37.7057 82.7247 36.9197C84.208 36.1339 84.4041 33.407 85.4102 33.0147C86.4161 32.6225 85.9282 31.2847 85.2706 30.4179C84.6128 29.5515 83.1786 27.9078 81.7606 27.9608C80.3421 28.0139 80.202 27.7476 79.3991 27.4261C78.5964 27.1046 77.6499 28.3523 77.1239 28.4567Z" fill="#074B67"/>
<path d="M83.6415 35.1978C83.6415 35.1978 84.0744 36.2081 83.7856 37.3362C83.4974 38.4643 83.4711 37.0474 83.4711 36.7328C83.4711 36.4178 83.2091 36.3093 82.842 36.4816C82.4748 36.6542 82.7372 35.8538 82.7372 35.8538C82.7372 35.8538 83.6415 34.9749 83.6415 35.1978Z" fill="#074B67"/>
<path d="M95.8172 60.0908C95.8172 60.0908 91.2578 63.4701 89.6343 64.0285C88.0069 64.5868 87.4487 63.4701 87.0461 62.1562C86.6687 60.9305 86.1987 60.0363 86.1401 59.9314L86.1361 59.9186C86.1361 59.9186 86.2783 62.5257 86.6434 63.7054C87.0087 64.885 87.2727 67.1602 83.7869 67.4373C80.6913 67.6846 77.52 66.5306 76.1317 65.8292C74.8731 65.1956 73.8748 64.5449 74.0051 63.1805C74.1391 61.8164 75.1794 59.8808 75.1794 57.014C75.1794 54.1467 74.026 52.0473 73.5016 50.6121C72.977 49.1763 72.8556 48.9832 72.8556 45.4695C72.8556 41.9559 73.6565 39.7311 77.0207 40.6963C80.385 41.6579 80.9263 41.6745 81.6895 42.0313C81.6895 42.0313 83.3799 43.5301 85.0076 45.2388C85.3766 45.6207 85.7415 46.0152 86.0856 46.4057C87.0291 47.4802 87.7971 48.5211 87.9733 49.2141C88.4973 51.2753 89.1603 54.7384 89.7559 56.4553C90.3472 58.168 90.2426 59.1126 91.5721 58.6592C92.902 58.2015 95.1207 56.8582 95.1207 56.8582C95.1207 56.8582 95.5402 57.6267 95.6786 58.466C95.771 59.0372 95.8046 59.5789 95.8129 59.8723V59.8849C95.8172 60.0154 95.8172 60.0908 95.8172 60.0908Z" fill="#E1E8F2"/>
<path opacity="0.56" d="M95.8131 59.8725C95.6957 59.2176 95.0874 57.3117 95.0874 57.3117C95.0874 57.3117 94.2109 57.6603 92.9902 58.2564C91.7653 58.8482 90.96 59.3225 90.96 59.3225C90.96 59.3225 90.6998 60.2336 90.3309 61.283C89.9867 62.2652 88.8584 63.0126 88.7159 63.1046C88.7451 63.071 88.8499 62.9662 89.1858 62.6266C89.6723 62.1434 90.7167 59.587 90.3854 59.2514C90.0538 58.9196 88.8794 56.5226 87.9736 51.9762C87.0633 47.4301 85.2634 46.5321 85.2634 46.5321C84.9155 46.1873 84.8651 45.7133 85.0079 45.239C85.3769 45.6209 85.7419 46.0154 86.0859 46.4059C87.0295 47.4804 87.7974 48.5213 87.9736 49.2143C88.4976 51.2755 89.1606 54.7386 89.7562 56.4555C90.3476 58.1682 90.2429 59.1128 91.5724 58.6594C92.9023 58.2017 95.121 56.8584 95.121 56.8584C95.121 56.8584 95.5406 57.6269 95.6789 58.4662C95.7713 59.0373 95.8048 59.579 95.8131 59.8725Z" fill="#D0D8E2"/>
<path d="M83.7869 67.4372C83.5265 67.4582 83.2709 67.4665 83.0108 67.4708C80.1755 67.496 77.4026 66.4717 76.1317 65.8292C74.8731 65.1955 73.8748 64.5449 74.0051 63.1804C74.1391 61.8163 75.1794 59.8807 75.1794 57.0139C75.1794 54.1466 74.0261 52.0473 73.5016 50.612C72.977 49.1763 72.8556 48.9831 72.8556 45.4695C72.8556 43.018 73.2458 41.1918 74.6256 40.6459C74.6299 40.6419 74.6299 40.6419 74.6299 40.6419C75.2296 40.4025 76.0097 40.4069 77.0207 40.6963C80.385 41.6579 80.9263 41.6745 81.6895 42.0314C81.6895 42.0314 84.2274 44.2857 86.0856 46.4058C86.0856 46.4058 82.4487 46.2545 83.5517 51.4011C84.6511 56.5394 86.136 59.9185 86.136 59.9185C86.136 59.9185 86.2782 62.5256 86.6433 63.7053C87.0087 64.8849 87.2727 67.1601 83.7869 67.4372Z" fill="#F9F9F9"/>
<path d="M75.3683 60.5569C75.1334 61.3418 74.2019 63.7681 75.4229 64.9899C76.6392 66.2076 81.2242 67.1937 83.0108 67.4709C80.1755 67.496 77.4026 66.4718 76.1317 65.8292C74.8731 65.1956 73.8748 64.5449 74.0051 63.1805C74.1391 61.8164 75.1794 59.8808 75.1794 57.014C75.1794 54.1467 74.0261 52.0473 73.5016 50.6121C72.977 49.1763 72.8556 48.9832 72.8556 45.4696C72.8556 43.0181 73.2458 41.1919 74.6256 40.646C74.5165 40.793 72.2431 43.9248 73.7786 49.4239C75.3516 55.0532 75.5988 55.1583 75.7708 57.1189C75.9469 59.0792 77.7634 59.9521 80.2129 60.8967C82.4487 61.7614 84.4581 61.7196 84.7811 61.707C84.4329 61.7408 82.1677 61.9087 79.5921 61.2117C76.786 60.452 75.6032 59.7676 75.3683 60.5569Z" fill="#E1E8F2"/>
<path d="M75.9164 40.5721C75.9164 40.5721 76.314 39.8935 77.8015 40.3448C79.2891 40.7961 81.4435 40.4496 82.0846 40.9886C82.7258 41.5276 82.7963 43.0475 82.7963 43.0475C82.7963 43.0475 81.1101 41.887 79.584 41.7073C78.058 41.5276 75.9678 40.6819 75.9164 40.5721Z" fill="#E1E8F2"/>
<path d="M74.6518 34.86C75.6851 36.433 81.1019 36.1575 82.5684 35.4128C84.035 34.6681 84.813 34.5591 85.6485 33.6396C86.639 32.5492 85.433 30.379 85.433 30.379C85.433 30.379 87.7435 33.1365 85.5908 34.274C85.5908 34.274 88.0707 34.1247 86.8766 30.8615C85.6827 27.5984 81.825 25.5072 78.5415 26.8631C75.2579 28.2189 72.3417 31.6199 74.1558 35.1128C74.1558 35.1128 73.1913 31.9474 75.0513 30.1894C75.0513 30.1894 73.7186 32.3609 74.6518 34.86Z" fill="#073847"/>
<path d="M114.648 80.9822L92.1837 93.9614V91.9393L114.648 78.9602V80.9822Z" fill="url(#paint45_linear_148_3587)"/>
<path d="M114.648 85.3417L92.1838 98.3207V96.2988L114.648 83.3196V85.3417Z" fill="url(#paint46_linear_148_3587)"/>
<path d="M114.648 89.7009L92.1838 102.68V100.658L114.648 87.679V89.7009Z" fill="url(#paint47_linear_148_3587)"/>
<path d="M114.648 94.0604L92.184 107.04V105.017L114.648 92.0383V94.0604Z" fill="url(#paint48_linear_148_3587)"/>
<path d="M114.648 98.4197L92.184 111.399V109.377L114.648 96.3977L114.648 98.4197Z" fill="url(#paint49_linear_148_3587)"/>
<path d="M114.648 102.84L102.338 109.952L102.338 107.93L114.648 100.818V102.84Z" fill="url(#paint50_linear_148_3587)"/>
<path d="M114.648 110.379L92.184 123.358L92.184 121.336L114.648 108.357L114.648 110.379Z" fill="url(#paint51_linear_148_3587)"/>
<path d="M114.648 114.738L92.1842 127.718L92.1841 125.696L114.648 112.716V114.738Z" fill="url(#paint52_linear_148_3587)"/>
<path d="M114.648 119.098L92.1842 132.077V130.055L114.648 117.076V119.098Z" fill="url(#paint53_linear_148_3587)"/>
<path d="M114.648 123.457L92.1842 136.436V134.414L114.648 121.435V123.457Z" fill="url(#paint54_linear_148_3587)"/>
<path d="M114.648 127.641L102.339 134.753L102.339 132.731L114.648 125.619V127.641Z" fill="url(#paint55_linear_148_3587)"/>
<g opacity="0.85">
<path d="M113.345 75.0432L91.3316 87.7621L91.3314 73.5823L113.345 60.8635L113.345 75.0432Z" fill="#FFC933"/>
<path d="M111.382 65.1366L94.735 74.7547V74.066L111.382 64.4478V65.1366Z" fill="white"/>
<path d="M111.382 66.6356L94.735 76.2537V75.565L111.382 65.9468V66.6356Z" fill="white"/>
<path d="M111.382 68.1349L94.735 77.7531V77.0643L111.382 67.446V68.1349Z" fill="white"/>
<path d="M111.382 69.6341L94.7351 79.2523V78.5634L111.382 68.9453L111.382 69.6341Z" fill="white"/>
<path d="M111.382 71.1331L94.7351 80.7514V80.0626L111.382 70.4443V71.1331Z" fill="white"/>
<path d="M111.382 72.6325L94.7351 82.2507V81.5618L111.382 71.9436V72.6325Z" fill="white"/>
<path d="M93.2946 75.587L94.0484 75.1514V74.4626L93.2946 74.8982V75.587Z" fill="white"/>
<path d="M93.2946 77.0862L94.0485 76.6507V75.9619L93.2946 76.3974V77.0862Z" fill="white"/>
<path d="M93.2947 78.5853L94.0485 78.1497V77.4609L93.2947 77.8965V78.5853Z" fill="white"/>
<path d="M93.2947 80.0845L94.0485 79.649V78.9602L93.2947 79.3958V80.0845Z" fill="white"/>
<path d="M93.2947 81.5838L94.0485 81.1482V80.4595L93.2947 80.8951V81.5838Z" fill="white"/>
<path d="M93.2947 83.0828L94.0485 82.6472V81.9585L93.2947 82.3941V83.0828Z" fill="white"/>
<path d="M93.2947 84.5822L94.0486 84.1466L94.0485 83.4578L93.2947 83.8934V84.5822Z" fill="white"/>
<path d="M104.022 78.384L94.7351 83.7499V83.061L104.022 77.6951L104.022 78.384Z" fill="white"/>
</g>
<path d="M60.5962 84.8873H59.0877C59.0583 84.8596 59.0292 84.8317 58.9992 84.8041C58.9467 84.8332 58.8926 84.8607 58.8379 84.8873H58.5841V84.9992C57.4166 85.4642 55.8745 85.433 54.9152 84.8786C53.8362 84.255 53.9004 83.2058 55.042 82.5175C55.0355 82.5152 55.029 82.5129 55.0226 82.5106H55.042V80.3742H52.6257V81.8381C52.1542 81.7403 51.6747 81.6592 51.1895 81.5952C51.1536 82.5506 49.9166 83.3167 48.3902 83.3167C46.8658 83.3162 45.6269 82.5492 45.592 81.5956C45.2039 81.6467 44.8193 81.709 44.4395 81.7818V80.3738H41.7385V82.5106H41.7566C41.7505 82.5128 41.7445 82.5149 41.7385 82.517C42.8809 83.2068 42.9443 84.2555 41.8661 84.8786C41.1907 85.269 40.2251 85.4001 39.3048 85.2808V84.8873H37.9427C37.8879 84.8607 37.8338 84.8332 37.7813 84.8041C37.7513 84.8317 37.7223 84.8596 37.693 84.8873H36.1842V87.0347H36.3425C37.9204 87.097 39.1643 87.7946 39.1634 88.6477C39.1637 88.9491 39.0085 89.231 38.7382 89.4725V88.1215H36.1851V90.2656H36.1855C36.4923 91.0433 37.0248 91.7957 37.7813 92.4912C38.9733 91.8309 40.7871 91.7945 41.8653 92.4181C41.9823 92.4857 42.0851 92.5585 42.1753 92.635H41.7385V94.7741H41.7451C41.7428 94.7755 41.7407 94.7769 41.7385 94.7783C42.9425 95.2153 44.2465 95.5232 45.592 95.7002C45.6269 94.7466 46.8656 93.9797 48.3902 93.9797C49.9156 93.9792 51.1535 94.7461 51.1894 95.7006C52.5348 95.5224 53.8379 95.2159 55.042 94.7783C55.0398 94.7769 55.0377 94.7755 55.0355 94.7741H55.042V92.635H54.6053C54.6955 92.5585 54.7982 92.4856 54.9152 92.4181C55.9935 91.7945 57.8072 91.8314 59.001 92.4912C59.7569 91.7959 60.2896 91.0423 60.5963 90.2651C60.4789 90.2636 60.3634 90.2583 60.2496 90.25H60.5963V88.122H57.8752V89.2989C57.7097 89.0996 57.6171 88.8795 57.6171 88.6477C57.6171 87.7659 58.9451 87.0508 60.5962 87.0306C60.5946 87.0266 60.5929 87.0226 60.5913 87.0187H60.5962V84.8873ZM52.1207 90.8033C50.0607 91.9935 46.7206 91.9931 44.6617 90.8029C42.601 89.6126 42.6 87.6822 44.6608 86.4923C46.7198 85.3022 50.0598 85.3026 52.1207 86.4923C54.1806 87.6827 54.1806 89.6132 52.1207 90.8033Z" fill="url(#paint56_linear_148_3587)"/>
<path d="M37.7814 82.6606C37.0246 83.3572 36.493 84.1096 36.1843 84.8871C37.8365 84.9073 39.1645 85.6228 39.1635 86.5042C39.1645 87.3855 37.8364 88.1015 36.1852 88.1212C36.492 88.8992 37.0246 89.652 37.7813 90.3477C38.9734 89.6874 40.7871 89.6511 41.8653 90.2747C42.9443 90.8978 42.8819 91.9461 41.7386 92.6349C42.9426 93.0718 44.2467 93.3798 45.5921 93.5567C45.627 92.6032 46.8657 91.8363 48.3903 91.8363C49.9157 91.8358 51.1536 92.6028 51.1895 93.5573C52.535 93.3789 53.8381 93.0724 55.0421 92.6349C53.9005 91.9461 53.8372 90.8974 54.9153 90.2747C55.9935 89.6511 57.8072 89.6879 59.0011 90.3477C59.757 89.6524 60.2896 88.8989 60.5963 88.1218C58.9452 88.1011 57.6173 87.3855 57.6173 86.5042C57.6173 85.6223 58.9452 84.9072 60.5963 84.8871C60.2896 84.1096 59.757 83.3564 58.9993 82.6606C57.8082 83.3209 55.9935 83.3583 54.9153 82.735C53.8363 82.1114 53.9005 81.0623 55.0421 80.374C53.8381 79.9365 52.535 79.629 51.1895 79.4517C51.1536 80.407 49.9166 81.1731 48.3903 81.1731C46.8658 81.1726 45.627 80.4056 45.5921 79.4521C44.2467 79.629 42.9426 79.9369 41.7386 80.3735C42.881 81.0632 42.9444 82.1118 41.8662 82.7349C40.789 83.3578 38.9735 83.321 37.7814 82.6606ZM44.6608 84.349C46.7198 83.1586 50.0599 83.1592 52.1207 84.349C54.1806 85.5391 54.1806 87.4697 52.1207 88.6599C50.0608 89.8501 46.7207 89.8496 44.6618 88.6594C42.601 87.4692 42.6001 85.5387 44.6608 84.349Z" fill="url(#paint57_linear_148_3587)"/>
<path d="M66.6954 95.1387H65.8146C65.7974 95.1225 65.7804 95.1062 65.7629 95.0901C65.7318 95.1074 65.6992 95.123 65.6668 95.1387H65.5204V95.2034C64.8386 95.4751 63.9383 95.4575 63.378 95.1336C62.7479 94.7695 62.7854 94.1568 63.452 93.7549C63.4482 93.7534 63.4442 93.7522 63.4404 93.7508H63.452V92.5032H62.041V93.3583C61.7656 93.3012 61.4856 93.2537 61.2023 93.2162C61.1814 93.7741 60.459 94.2215 59.5677 94.2215C58.6775 94.2212 57.9541 93.7733 57.9337 93.2165C57.7069 93.2463 57.4826 93.2833 57.2607 93.3258V92.5029H55.6835V93.7508H55.6943C55.6907 93.7521 55.687 93.7532 55.6835 93.7546C56.3506 94.1573 56.3876 94.7697 55.758 95.1336C55.3636 95.3617 54.7997 95.4381 54.2623 95.3685V95.1388H53.4688C53.4363 95.123 53.4037 95.1075 53.3727 95.0902C53.3551 95.1063 53.3383 95.1226 53.3212 95.1388H52.4401V96.3928H52.5325C53.454 96.4292 54.1803 96.8365 54.1798 97.3347C54.18 97.5107 54.0893 97.6753 53.9315 97.8163V97.0274H52.4406V98.2795H52.4408C52.62 98.7336 52.9309 99.173 53.3727 99.5791C54.0688 99.1936 55.1279 99.1722 55.7575 99.5364C55.8259 99.5759 55.8859 99.6183 55.9386 99.6631H55.6835V100.912H55.6873C55.686 100.913 55.6848 100.914 55.6835 100.915C56.3865 101.17 57.1481 101.35 57.9338 101.453C57.9542 100.896 58.6776 100.448 59.5678 100.448C60.4585 100.448 61.1815 100.896 61.2024 101.453C61.9881 101.349 62.749 101.17 63.4522 100.915C63.4509 100.914 63.4496 100.913 63.4483 100.912H63.4522V99.6631H63.1972C63.2498 99.6183 63.3098 99.5758 63.3781 99.5364C64.0077 99.1722 65.0669 99.1937 65.764 99.5791C66.2054 99.1731 66.5165 98.733 66.6956 98.2793C66.627 98.2784 66.5596 98.2753 66.4932 98.2704H66.6956V97.0278H65.1066V97.715C65.01 97.5986 64.9558 97.4701 64.9558 97.3348C64.9558 96.8198 65.7314 96.4023 66.6955 96.3904C66.6946 96.3881 66.6936 96.3857 66.6926 96.3834H66.6955L66.6954 95.1387ZM61.7461 98.5935C60.5432 99.2885 58.5928 99.2883 57.3904 98.5932C56.187 97.8981 56.1864 96.7708 57.3899 96.076C58.5922 95.381 60.5427 95.3813 61.7461 96.076C62.949 96.7711 62.949 97.8984 61.7461 98.5935Z" fill="#EAB91F"/>
<path d="M53.3726 93.8385C52.9306 94.2453 52.6202 94.6846 52.4399 95.1386C53.4047 95.1504 54.1802 95.5682 54.1797 96.0829C54.1802 96.5976 53.4048 97.0157 52.4405 97.0273C52.6196 97.4816 52.9306 97.9212 53.3726 98.3274C54.0687 97.9418 55.1278 97.9206 55.7574 98.2848C56.3875 98.6486 56.351 99.2608 55.6834 99.663C56.3864 99.9181 57.1479 100.098 57.9336 100.201C57.954 99.6445 58.6774 99.1966 59.5677 99.1966C60.4584 99.1963 61.1813 99.6442 61.2023 100.202C61.988 100.098 62.7489 99.9185 63.452 99.663C62.7854 99.2608 62.7484 98.6483 63.378 98.2848C64.0076 97.9206 65.0667 97.942 65.7639 98.3274C66.2053 97.9214 66.5163 97.4814 66.6954 97.0276C65.7312 97.0155 64.9557 96.5976 64.9557 96.0829C64.9557 95.568 65.7312 95.1504 66.6954 95.1386C66.5163 94.6846 66.2052 94.2448 65.7628 93.8385C65.0673 94.2241 64.0075 94.2459 63.378 93.8819C62.7479 93.5178 62.7854 92.9052 63.452 92.5032C62.749 92.2477 61.988 92.0681 61.2023 91.9646C61.1813 92.5224 60.459 92.9698 59.5677 92.9698C58.6774 92.9695 57.954 92.5216 57.9336 91.9648C57.1479 92.0681 56.3864 92.2479 55.6834 92.5029C56.3505 92.9057 56.3875 93.518 55.7579 93.8819C55.1289 94.2456 54.0687 94.2241 53.3726 93.8385ZM57.3899 94.8244C58.5922 94.1294 60.5427 94.1296 61.7461 94.8244C62.949 95.5194 62.949 96.6468 61.7461 97.3419C60.5432 98.0369 58.5928 98.0366 57.3904 97.3416C56.187 96.6465 56.1865 95.5191 57.3899 94.8244Z" fill="#F5D451"/>
<defs>
<linearGradient id="paint0_linear_148_3587" x1="1.32735" y1="26.6341" x2="16.2127" y2="32.6592" gradientUnits="userSpaceOnUse">
<stop stop-color="#25D366"/>
<stop offset="1" stop-color="#009036"/>
</linearGradient>
<linearGradient id="paint1_linear_148_3587" x1="1.84082" y1="30.1517" x2="11.0646" y2="30.1517" gradientUnits="userSpaceOnUse">
<stop stop-color="#E2E3E5"/>
<stop offset="1" stop-color="#EFEFEF"/>
</linearGradient>
<linearGradient id="paint2_linear_148_3587" x1="1.84082" y1="31.3407" x2="11.0646" y2="31.3407" gradientUnits="userSpaceOnUse">
<stop stop-color="#E2E3E5"/>
<stop offset="1" stop-color="#EFEFEF"/>
</linearGradient>
<linearGradient id="paint3_linear_148_3587" x1="1.84082" y1="33.897" x2="6.33091" y2="33.897" gradientUnits="userSpaceOnUse">
<stop stop-color="#E2E3E5"/>
<stop offset="1" stop-color="#EFEFEF"/>
</linearGradient>
<linearGradient id="paint4_linear_148_3587" x1="1.84082" y1="33.7184" x2="11.0646" y2="33.7184" gradientUnits="userSpaceOnUse">
<stop stop-color="#E2E3E5"/>
<stop offset="1" stop-color="#EFEFEF"/>
</linearGradient>
<linearGradient id="paint5_linear_148_3587" x1="1.84094" y1="36.2751" x2="6.33095" y2="36.2751" gradientUnits="userSpaceOnUse">
<stop stop-color="#E2E3E5"/>
<stop offset="1" stop-color="#EFEFEF"/>
</linearGradient>
<linearGradient id="paint6_linear_148_3587" x1="1.01504" y1="41.6186" x2="16.8074" y2="48.0108" gradientUnits="userSpaceOnUse">
<stop stop-color="#25D366"/>
<stop offset="1" stop-color="#009036"/>
</linearGradient>
<linearGradient id="paint7_linear_148_3587" x1="2.80872" y1="49.1734" x2="4.72994" y2="49.1734" gradientUnits="userSpaceOnUse">
<stop stop-color="#E2E3E5"/>
<stop offset="1" stop-color="#EFEFEF"/>
</linearGradient>
<linearGradient id="paint8_linear_148_3587" x1="5.66382" y1="47.524" x2="7.58504" y2="47.524" gradientUnits="userSpaceOnUse">
<stop stop-color="#E2E3E5"/>
<stop offset="1" stop-color="#EFEFEF"/>
</linearGradient>
<linearGradient id="paint9_linear_148_3587" x1="8.51904" y1="45.8744" x2="10.4402" y2="45.8744" gradientUnits="userSpaceOnUse">
<stop stop-color="#E2E3E5"/>
<stop offset="1" stop-color="#EFEFEF"/>
</linearGradient>
<linearGradient id="paint10_linear_148_3587" x1="1.35235" y1="58.8957" x2="14.4668" y2="66.2509" gradientUnits="userSpaceOnUse">
<stop stop-color="#25D366"/>
<stop offset="1" stop-color="#009036"/>
</linearGradient>
<linearGradient id="paint11_linear_148_3587" x1="3.33459" y1="64.5032" x2="4.68891" y2="64.5032" gradientUnits="userSpaceOnUse">
<stop stop-color="#E2E3E5"/>
<stop offset="1" stop-color="#EFEFEF"/>
</linearGradient>
<linearGradient id="paint12_linear_148_3587" x1="5.94283" y1="62.9964" x2="7.29707" y2="62.9964" gradientUnits="userSpaceOnUse">
<stop stop-color="#E2E3E5"/>
<stop offset="1" stop-color="#EFEFEF"/>
</linearGradient>
<linearGradient id="paint13_linear_148_3587" x1="8.55103" y1="61.4893" x2="9.90534" y2="61.4893" gradientUnits="userSpaceOnUse">
<stop stop-color="#E2E3E5"/>
<stop offset="1" stop-color="#EFEFEF"/>
</linearGradient>
<linearGradient id="paint14_linear_148_3587" x1="1.18025" y1="73.1649" x2="15.9971" y2="79.8369" gradientUnits="userSpaceOnUse">
<stop stop-color="#25D366"/>
<stop offset="1" stop-color="#009036"/>
</linearGradient>
<linearGradient id="paint15_linear_148_3587" x1="3.21938" y1="80.0484" x2="9.68612" y2="80.0484" gradientUnits="userSpaceOnUse">
<stop stop-color="#E2E3E5"/>
<stop offset="1" stop-color="#EFEFEF"/>
</linearGradient>
<linearGradient id="paint16_linear_148_3587" x1="119.398" y1="88.4179" x2="105.74" y2="88.4179" gradientUnits="userSpaceOnUse">
<stop stop-color="#CCCCCC"/>
<stop offset="1" stop-color="#DBDBDB"/>
</linearGradient>
<linearGradient id="paint17_linear_148_3587" x1="108.649" y1="89.9075" x2="110.919" y2="85.9381" gradientUnits="userSpaceOnUse">
<stop stop-color="#CCCCCC"/>
<stop offset="1" stop-color="#DBDBDB"/>
</linearGradient>
<linearGradient id="paint18_linear_148_3587" x1="131.888" y1="70.6571" x2="129.397" y2="67.2871" gradientUnits="userSpaceOnUse">
<stop stop-color="#CCCCCC"/>
<stop offset="1" stop-color="#DBDBDB"/>
</linearGradient>
<linearGradient id="paint19_linear_148_3587" x1="73.6012" y1="53.4641" x2="157.935" y2="53.4641" gradientUnits="userSpaceOnUse">
<stop stop-color="#E2E3E5"/>
<stop offset="1" stop-color="#EFEFEF"/>
</linearGradient>
<linearGradient id="paint20_linear_148_3587" x1="82.1777" y1="11.8132" x2="172.441" y2="59.3259" gradientUnits="userSpaceOnUse">
<stop stop-color="#25D366"/>
<stop offset="1" stop-color="#009036"/>
</linearGradient>
<linearGradient id="paint21_linear_148_3587" x1="72.0991" y1="120.494" x2="73.0366" y2="120.494" gradientUnits="userSpaceOnUse">
<stop stop-color="#CCCCCC"/>
<stop offset="1" stop-color="#DBDBDB"/>
</linearGradient>
<linearGradient id="paint22_linear_148_3587" x1="72.5139" y1="111.57" x2="44.7375" y2="123.738" gradientUnits="userSpaceOnUse">
<stop stop-color="#E2E3E5"/>
<stop offset="1" stop-color="#EFEFEF"/>
</linearGradient>
<linearGradient id="paint23_linear_148_3587" x1="22.8468" y1="17.3374" x2="26.0198" y2="17.3374" gradientUnits="userSpaceOnUse">
<stop stop-color="#FFB888"/>
<stop offset="0.287" stop-color="#FF9B57"/>
<stop offset="1" stop-color="#FF6801"/>
</linearGradient>
<linearGradient id="paint24_linear_148_3587" x1="29.4384" y1="29.1412" x2="32.6112" y2="29.1412" gradientUnits="userSpaceOnUse">
<stop stop-color="#FFB888"/>
<stop offset="0.287" stop-color="#FF9B57"/>
<stop offset="1" stop-color="#FF6801"/>
</linearGradient>
<linearGradient id="paint25_linear_148_3587" x1="36.0298" y1="40.9448" x2="39.2027" y2="40.9448" gradientUnits="userSpaceOnUse">
<stop stop-color="#FFB888"/>
<stop offset="0.287" stop-color="#FF9B57"/>
<stop offset="1" stop-color="#FF6801"/>
</linearGradient>
<linearGradient id="paint26_linear_148_3587" x1="42.621" y1="13.7183" x2="45.7939" y2="13.7183" gradientUnits="userSpaceOnUse">
<stop stop-color="#FFB888"/>
<stop offset="0.287" stop-color="#FF9B57"/>
<stop offset="1" stop-color="#FF6801"/>
</linearGradient>
<linearGradient id="paint27_linear_148_3587" x1="55.8038" y1="6.10157" x2="58.9767" y2="6.10157" gradientUnits="userSpaceOnUse">
<stop stop-color="#FFB888"/>
<stop offset="0.287" stop-color="#FF9B57"/>
<stop offset="1" stop-color="#FF6801"/>
</linearGradient>
<linearGradient id="paint28_linear_148_3587" x1="23.4274" y1="53.4257" x2="40.4874" y2="53.4257" gradientUnits="userSpaceOnUse">
<stop stop-color="#CCCCCC"/>
<stop offset="1" stop-color="#DBDBDB"/>
</linearGradient>
<linearGradient id="paint29_linear_148_3587" x1="23.4274" y1="58.7952" x2="28.8824" y2="58.7952" gradientUnits="userSpaceOnUse">
<stop stop-color="#CCCCCC"/>
<stop offset="1" stop-color="#DBDBDB"/>
</linearGradient>
<linearGradient id="paint30_linear_148_3587" x1="23.4274" y1="58.8214" x2="40.4874" y2="58.8214" gradientUnits="userSpaceOnUse">
<stop stop-color="#CCCCCC"/>
<stop offset="1" stop-color="#DBDBDB"/>
</linearGradient>
<linearGradient id="paint31_linear_148_3587" x1="23.4274" y1="62.887" x2="33.396" y2="62.887" gradientUnits="userSpaceOnUse">
<stop stop-color="#CCCCCC"/>
<stop offset="1" stop-color="#DBDBDB"/>
</linearGradient>
<linearGradient id="paint32_linear_148_3587" x1="23.4275" y1="64.2171" x2="40.4875" y2="64.2171" gradientUnits="userSpaceOnUse">
<stop stop-color="#CCCCCC"/>
<stop offset="1" stop-color="#DBDBDB"/>
</linearGradient>
<linearGradient id="paint33_linear_148_3587" x1="23.4275" y1="69.0472" x2="30.7501" y2="69.0472" gradientUnits="userSpaceOnUse">
<stop stop-color="#CCCCCC"/>
<stop offset="1" stop-color="#DBDBDB"/>
</linearGradient>
<linearGradient id="paint34_linear_148_3587" x1="23.4275" y1="69.6129" x2="40.4875" y2="69.6129" gradientUnits="userSpaceOnUse">
<stop stop-color="#CCCCCC"/>
<stop offset="1" stop-color="#DBDBDB"/>
</linearGradient>
<linearGradient id="paint35_linear_148_3587" x1="23.4275" y1="72.9953" x2="35.762" y2="72.9953" gradientUnits="userSpaceOnUse">
<stop stop-color="#CCCCCC"/>
<stop offset="1" stop-color="#DBDBDB"/>
</linearGradient>
<linearGradient id="paint36_linear_148_3587" x1="48.4309" y1="38.9791" x2="65.4909" y2="38.9791" gradientUnits="userSpaceOnUse">
<stop stop-color="#CCCCCC"/>
<stop offset="1" stop-color="#DBDBDB"/>
</linearGradient>
<linearGradient id="paint37_linear_148_3587" x1="48.431" y1="44.3485" x2="53.8859" y2="44.3485" gradientUnits="userSpaceOnUse">
<stop stop-color="#CCCCCC"/>
<stop offset="1" stop-color="#DBDBDB"/>
</linearGradient>
<linearGradient id="paint38_linear_148_3587" x1="48.431" y1="44.3747" x2="65.491" y2="44.3747" gradientUnits="userSpaceOnUse">
<stop stop-color="#CCCCCC"/>
<stop offset="1" stop-color="#DBDBDB"/>
</linearGradient>
<linearGradient id="paint39_linear_148_3587" x1="48.4312" y1="48.4405" x2="58.3997" y2="48.4405" gradientUnits="userSpaceOnUse">
<stop stop-color="#CCCCCC"/>
<stop offset="1" stop-color="#DBDBDB"/>
</linearGradient>
<linearGradient id="paint40_linear_148_3587" x1="48.4312" y1="49.7706" x2="65.4911" y2="49.7706" gradientUnits="userSpaceOnUse">
<stop stop-color="#CCCCCC"/>
<stop offset="1" stop-color="#DBDBDB"/>
</linearGradient>
<linearGradient id="paint41_linear_148_3587" x1="48.4312" y1="54.6007" x2="55.7538" y2="54.6007" gradientUnits="userSpaceOnUse">
<stop stop-color="#CCCCCC"/>
<stop offset="1" stop-color="#DBDBDB"/>
</linearGradient>
<linearGradient id="paint42_linear_148_3587" x1="48.4312" y1="55.1664" x2="65.4911" y2="55.1664" gradientUnits="userSpaceOnUse">
<stop stop-color="#CCCCCC"/>
<stop offset="1" stop-color="#DBDBDB"/>
</linearGradient>
<linearGradient id="paint43_linear_148_3587" x1="48.4312" y1="58.5485" x2="60.7655" y2="58.5485" gradientUnits="userSpaceOnUse">
<stop stop-color="#CCCCCC"/>
<stop offset="1" stop-color="#DBDBDB"/>
</linearGradient>
<linearGradient id="paint44_linear_148_3587" x1="122.874" y1="82.7556" x2="148.498" y2="82.7556" gradientUnits="userSpaceOnUse">
<stop stop-color="#E2E3E5"/>
<stop offset="1" stop-color="#EFEFEF"/>
</linearGradient>
<linearGradient id="paint45_linear_148_3587" x1="92.1837" y1="86.4608" x2="114.648" y2="86.4608" gradientUnits="userSpaceOnUse">
<stop stop-color="#00C6FF"/>
<stop offset="1" stop-color="#0072FF"/>
</linearGradient>
<linearGradient id="paint46_linear_148_3587" x1="92.1838" y1="90.8202" x2="114.648" y2="90.8202" gradientUnits="userSpaceOnUse">
<stop stop-color="#25D366"/>
<stop offset="1" stop-color="#25D366"/>
</linearGradient>
<linearGradient id="paint47_linear_148_3587" x1="92.1838" y1="95.1796" x2="114.648" y2="95.1796" gradientUnits="userSpaceOnUse">
<stop stop-color="#25D366"/>
<stop offset="1" stop-color="#25D366"/>
</linearGradient>
<linearGradient id="paint48_linear_148_3587" x1="92.1839" y1="99.5389" x2="114.648" y2="99.5389" gradientUnits="userSpaceOnUse">
<stop stop-color="#00C6FF"/>
<stop offset="1" stop-color="#0072FF"/>
</linearGradient>
<linearGradient id="paint49_linear_148_3587" x1="92.1839" y1="103.898" x2="114.648" y2="103.898" gradientUnits="userSpaceOnUse">
<stop stop-color="#00C6FF"/>
<stop offset="1" stop-color="#0072FF"/>
</linearGradient>
<linearGradient id="paint50_linear_148_3587" x1="102.338" y1="105.385" x2="114.648" y2="105.385" gradientUnits="userSpaceOnUse">
<stop stop-color="#00C6FF"/>
<stop offset="1" stop-color="#0072FF"/>
</linearGradient>
<linearGradient id="paint51_linear_148_3587" x1="93.9508" y1="109.472" x2="112.135" y2="125.318" gradientUnits="userSpaceOnUse">
<stop stop-color="#25D366"/>
<stop offset="1" stop-color="#009036"/>
</linearGradient>
<linearGradient id="paint52_linear_148_3587" x1="93.9509" y1="113.831" x2="112.136" y2="129.677" gradientUnits="userSpaceOnUse">
<stop stop-color="#25D366"/>
<stop offset="1" stop-color="#009036"/>
</linearGradient>
<linearGradient id="paint53_linear_148_3587" x1="93.951" y1="118.191" x2="112.136" y2="134.037" gradientUnits="userSpaceOnUse">
<stop stop-color="#25D366"/>
<stop offset="1" stop-color="#009036"/>
</linearGradient>
<linearGradient id="paint54_linear_148_3587" x1="93.951" y1="122.55" x2="112.136" y2="138.396" gradientUnits="userSpaceOnUse">
<stop stop-color="#25D366"/>
<stop offset="1" stop-color="#009036"/>
</linearGradient>
<linearGradient id="paint55_linear_148_3587" x1="103.307" y1="126.298" x2="114.162" y2="134.811" gradientUnits="userSpaceOnUse">
<stop stop-color="#25D366"/>
<stop offset="1" stop-color="#009036"/>
</linearGradient>
<linearGradient id="paint56_linear_148_3587" x1="33.5251" y1="89.4609" x2="59.731" y2="86.5818" gradientUnits="userSpaceOnUse">
<stop stop-color="#FFB888"/>
<stop offset="0.287" stop-color="#FF9B57"/>
<stop offset="1" stop-color="#FF6801"/>
</linearGradient>
<linearGradient id="paint57_linear_148_3587" x1="60.8634" y1="86.2099" x2="19.1537" y2="87.1944" gradientUnits="userSpaceOnUse">
<stop stop-color="#FFB888"/>
<stop offset="1" stop-color="white"/>
</linearGradient>
</defs>
</svg>
