<svg width="518" height="432" viewBox="0 0 518 432" fill="none" xmlns="http://www.w3.org/2000/svg">
<path d="M110.123 116.32C110.123 114.913 109.137 114.343 107.92 115.047L84.9325 128.328C83.7157 129.032 82.7292 130.741 82.7292 132.147V145.58L82.7294 154.129L85.2762 146.654L107.92 133.571C109.137 132.868 110.124 131.158 110.124 129.752L110.123 116.32Z" fill="url(#paint0_linear_61_2086)"/>
<path d="M106.813 120.38L86.0403 132.382V130.809L106.813 118.807V120.38Z" fill="url(#paint1_linear_61_2086)"/>
<path d="M106.813 123.058L86.0403 135.06V133.486L106.813 121.484V123.058Z" fill="url(#paint2_linear_61_2086)"/>
<path d="M96.1522 131.895L86.0403 137.737V136.164L96.1522 130.321V131.895Z" fill="url(#paint3_linear_61_2086)"/>
<path d="M106.813 128.413L86.0403 140.415V138.841L106.813 126.839V128.413Z" fill="url(#paint4_linear_61_2086)"/>
<path d="M96.1522 137.25L86.0405 143.093V141.519L96.1522 135.677V137.25Z" fill="url(#paint5_linear_61_2086)"/>
<path d="M110.958 149.983C110.958 148.491 109.911 147.887 108.621 148.632L84.2321 162.724C82.9411 163.469 81.8946 165.283 81.8946 166.775L81.8947 178.135V180.549V181.026L81.8949 190.096L84.597 182.166L108.621 168.285C109.912 167.54 110.958 165.726 110.958 164.234V149.983Z" fill="url(#paint6_linear_61_2086)"/>
<path d="M92.5467 167.183C92.5467 168.563 91.5782 170.242 90.3834 170.933C89.1885 171.623 88.22 171.063 88.22 169.683C88.22 168.302 89.1885 166.623 90.3834 165.933C91.5781 165.243 92.5465 165.802 92.5467 167.183Z" fill="url(#paint7_linear_61_2086)"/>
<path d="M98.9766 163.468C98.9766 164.849 98.0082 166.527 96.8133 167.218C95.6186 167.908 94.6501 167.348 94.65 165.968C94.65 164.587 95.6184 162.908 96.8133 162.218C98.0082 161.528 98.9766 162.087 98.9766 163.468Z" fill="url(#paint8_linear_61_2086)"/>
<path d="M105.406 159.753C105.406 161.134 104.438 162.812 103.243 163.503C102.049 164.193 101.08 163.633 101.08 162.253C101.08 160.872 102.048 159.193 103.243 158.503C104.438 157.813 105.406 158.372 105.406 159.753Z" fill="url(#paint9_linear_61_2086)"/>
<path d="M96.4264 191.2C88.8984 195.55 82.7961 203.076 82.7961 208.011V216.51L84.463 211.333C86.7774 212.767 91.2671 212.052 96.4265 209.071C103.954 204.722 110.057 197.195 110.057 192.26C110.057 187.326 103.954 186.851 96.4264 191.2Z" fill="url(#paint10_linear_61_2086)"/>
<path d="M92.4542 202.075C92.4542 203.048 91.7714 204.232 90.9292 204.718C90.0871 205.205 89.4042 204.81 89.4042 203.837C89.4042 202.864 90.0869 201.68 90.9292 201.194C91.7713 200.707 92.454 201.102 92.4542 202.075Z" fill="url(#paint11_linear_61_2086)"/>
<path d="M98.3279 198.681C98.3279 199.654 97.6452 200.838 96.803 201.324C95.9607 201.811 95.278 201.417 95.278 200.443C95.278 199.47 95.9607 198.287 96.803 197.8C97.6452 197.313 98.3279 197.708 98.3279 198.681Z" fill="url(#paint12_linear_61_2086)"/>
<path d="M104.202 195.287C104.202 196.261 103.519 197.444 102.677 197.931C101.835 198.417 101.152 198.023 101.152 197.049C101.152 196.076 101.835 194.893 102.677 194.406C103.519 193.92 104.202 194.314 104.202 195.287Z" fill="url(#paint13_linear_61_2086)"/>
<path d="M82.3362 246.105C82.3362 255.098 88.645 258.743 96.4267 254.247C104.208 249.75 110.517 238.816 110.517 229.823C110.517 220.83 104.208 217.185 96.4264 221.682C88.6444 226.178 82.3361 237.113 82.3362 246.105Z" fill="url(#paint14_linear_61_2086)"/>
<path d="M89.8749 243.137C90.0565 243.363 90.272 243.551 90.5218 243.695L96.0054 246.864C96.1397 246.941 96.2805 247.004 96.4264 247.053C96.5724 246.836 96.7132 246.611 96.8478 246.377L102.331 236.872C102.581 236.439 102.797 236.002 102.978 235.566C104.133 232.798 103.917 230.105 102.331 229.189C101.413 228.659 100.21 228.823 99.007 229.518C98.1069 230.038 97.2075 230.855 96.4267 231.899C95.6459 231.757 94.7461 231.98 93.846 232.5C92.6432 233.195 91.4396 234.421 90.5218 236.012C88.9356 238.762 88.7196 241.703 89.8749 243.137Z" fill="url(#paint15_linear_61_2086)"/>
<path d="M361.056 251.042L317.645 227.749C317.645 227.749 320.793 240.472 312.885 247.778C305.58 254.526 294.909 258.502 292.283 260.99L292.232 260.903L291.343 261.055V262.959L291.35 262.958C291.396 264.275 293.473 265.09 299.298 268.376C306.852 272.638 327.485 285.017 330.425 285.778C333.366 286.539 338.942 282.683 342.998 280.299C347.053 277.914 358.284 272.08 359.771 266.668C361.259 261.257 361.056 251.042 361.056 251.042Z" fill="url(#paint16_linear_61_2086)"/>
<path d="M316.332 225.457C316.332 225.457 320.793 238.647 312.885 245.953C304.976 253.259 293.114 257.318 291.796 259.753C290.477 262.188 291.745 262.29 299.298 266.551C306.852 270.813 327.485 283.192 330.425 283.953C333.365 284.714 338.942 280.858 342.997 278.474C347.053 276.089 356.415 271.625 357.902 266.213C359.389 260.801 359.186 250.587 359.186 250.587L316.332 225.457Z" fill="url(#paint17_linear_61_2086)"/>
<path d="M437.12 162.533L256.95 58.4335C255.47 57.5786 254.147 57.5788 253.253 58.2645L249.107 60.5788L254.115 66.7197L254.114 179.009C254.114 182.121 256.297 185.904 258.989 187.46L427.03 284.55L436.068 295.632L440.397 293.176C441.376 292.711 441.994 291.588 441.994 289.937L441.995 170.983C441.995 167.872 439.813 164.089 437.12 162.533Z" fill="url(#paint18_linear_61_2086)"/>
<path d="M432.694 295.255L252.523 191.156C249.831 189.6 247.648 185.817 247.648 182.706L247.65 63.7515C247.65 60.6402 249.833 59.3789 252.525 60.9346L432.696 165.034C435.388 166.59 437.571 170.373 437.571 173.484L437.569 292.438C437.569 295.55 435.386 296.811 432.694 295.255Z" fill="url(#paint19_linear_61_2086)"/>
<path d="M434.905 270.827L252.626 165.51L252.627 69.3171L434.907 174.635L434.905 270.827Z" fill="url(#paint20_linear_61_2086)"/>
<path d="M301.916 351.277L301.92 351.278V348.121L293.636 346.184L169.239 274.306C168.675 273.98 167.76 273.98 167.196 274.306L115.058 304.432L111.597 303.623V306.73C111.572 306.961 111.706 307.196 112.012 307.373L244.272 383.794C244.837 384.12 245.752 384.12 246.316 383.794L301.5 351.908C301.8 351.735 301.936 351.504 301.916 351.277Z" fill="url(#paint21_linear_61_2086)"/>
<path d="M244.272 380.563L112.012 304.142C111.447 303.815 111.447 303.287 112.012 302.961L167.196 271.075C167.76 270.749 168.675 270.749 169.239 271.075L301.5 347.496C302.064 347.822 302.064 348.351 301.5 348.677L246.316 380.563C245.752 380.889 244.837 380.889 244.272 380.563Z" fill="url(#paint22_linear_61_2086)"/>
<path d="M176.797 290.246L167.055 284.617C166.868 284.509 166.868 284.334 167.055 284.226L172.656 280.989C172.843 280.881 173.146 280.881 173.333 280.989L183.075 286.618C183.262 286.726 183.262 286.902 183.075 287.009L177.474 290.246C177.287 290.354 176.984 290.354 176.797 290.246Z" fill="#D3D3D3"/>
<path d="M184.874 294.913L178.649 291.316C178.463 291.208 178.463 291.033 178.649 290.925L184.25 287.689C184.437 287.581 184.74 287.581 184.927 287.689L191.152 291.285C191.339 291.393 191.339 291.568 191.152 291.676L185.551 294.913C185.364 295.021 185.061 295.021 184.874 294.913Z" fill="#D3D3D3"/>
<path d="M165.546 292.682L159.321 289.086C159.134 288.978 159.134 288.803 159.321 288.695L164.923 285.458C165.11 285.35 165.412 285.35 165.599 285.458L171.824 289.055C172.011 289.163 172.011 289.338 171.824 289.446L166.223 292.682C166.036 292.79 165.733 292.79 165.546 292.682Z" fill="#D3D3D3"/>
<path d="M161.681 298.939L151.975 293.33C151.788 293.222 151.788 293.047 151.975 292.939L157.576 289.703C157.763 289.595 158.066 289.595 158.253 289.703L167.959 295.311C168.146 295.419 168.146 295.595 167.959 295.703L162.358 298.939C162.171 299.047 161.868 299.047 161.681 298.939Z" fill="#D3D3D3"/>
<path d="M173.026 297.004L166.801 293.408C166.615 293.3 166.615 293.125 166.801 293.017L172.403 289.78C172.59 289.672 172.892 289.672 173.079 289.78L179.304 293.377C179.491 293.485 179.491 293.66 179.304 293.768L173.703 297.004C173.516 297.112 173.213 297.112 173.026 297.004Z" fill="#D3D3D3"/>
<path d="M180.673 301.423L174.449 297.826C174.262 297.718 174.262 297.543 174.449 297.435L180.05 294.199C180.237 294.091 180.54 294.091 180.727 294.199L186.951 297.795C187.138 297.903 187.138 298.078 186.951 298.186L181.35 301.423C181.163 301.531 180.86 301.531 180.673 301.423Z" fill="#D3D3D3"/>
<path d="M188.467 305.926L182.243 302.33C182.056 302.222 182.056 302.047 182.243 301.939L187.844 298.702C188.031 298.594 188.334 298.594 188.52 298.702L194.745 302.299C194.932 302.407 194.932 302.582 194.745 302.69L189.144 305.926C188.957 306.034 188.654 306.034 188.467 305.926Z" fill="#D3D3D3"/>
<path d="M196.312 310.46L190.088 306.863C189.901 306.755 189.901 306.58 190.088 306.472L195.689 303.235C195.876 303.127 196.179 303.127 196.366 303.235L202.59 306.832C202.777 306.94 202.777 307.115 202.59 307.223L196.989 310.46C196.802 310.567 196.499 310.567 196.312 310.46Z" fill="#D3D3D3"/>
<path d="M204.104 314.961L197.88 311.365C197.693 311.257 197.693 311.082 197.88 310.974L203.481 307.737C203.668 307.629 203.971 307.629 204.158 307.737L210.382 311.334C210.569 311.442 210.569 311.617 210.382 311.725L204.781 314.961C204.594 315.069 204.291 315.069 204.104 314.961Z" fill="#D3D3D3"/>
<path d="M211.869 319.448L205.645 315.852C205.458 315.744 205.458 315.569 205.645 315.461L211.246 312.224C211.433 312.116 211.736 312.116 211.923 312.224L218.147 315.821C218.334 315.929 218.334 316.104 218.147 316.212L212.546 319.448C212.359 319.556 212.056 319.556 211.869 319.448Z" fill="#D3D3D3"/>
<path d="M219.456 323.832L213.232 320.236C213.045 320.128 213.045 319.952 213.232 319.845L218.833 316.608C219.02 316.5 219.323 316.5 219.51 316.608L225.734 320.205C225.921 320.313 225.921 320.488 225.734 320.596L220.133 323.832C219.946 323.94 219.643 323.94 219.456 323.832Z" fill="#D3D3D3"/>
<path d="M227.204 328.309L220.979 324.712C220.792 324.604 220.792 324.429 220.979 324.321L226.58 321.085C226.767 320.977 227.07 320.977 227.257 321.085L233.482 324.681C233.669 324.789 233.669 324.964 233.482 325.072L227.88 328.309C227.694 328.417 227.391 328.417 227.204 328.309Z" fill="#D3D3D3"/>
<path d="M234.773 332.682L228.548 329.086C228.361 328.978 228.361 328.803 228.548 328.695L234.149 325.458C234.336 325.35 234.639 325.35 234.826 325.458L241.051 329.055C241.238 329.163 241.238 329.338 241.051 329.446L235.45 332.682C235.263 332.79 234.96 332.79 234.773 332.682Z" fill="#D3D3D3"/>
<path d="M242.645 337.231L236.42 333.634C236.233 333.526 236.233 333.351 236.42 333.243L242.021 330.007C242.208 329.899 242.511 329.899 242.698 330.007L248.923 333.603C249.11 333.711 249.11 333.886 248.923 333.994L243.322 337.231C243.135 337.339 242.832 337.339 242.645 337.231Z" fill="#D3D3D3"/>
<path d="M250.464 341.748L244.239 338.152C244.052 338.044 244.052 337.869 244.239 337.761L249.84 334.524C250.027 334.416 250.33 334.416 250.517 334.524L256.742 338.121C256.928 338.229 256.928 338.404 256.742 338.512L251.14 341.748C250.953 341.856 250.65 341.856 250.464 341.748Z" fill="#D3D3D3"/>
<path d="M258.033 346.122L251.808 342.525C251.621 342.417 251.621 342.242 251.808 342.134L257.409 338.898C257.596 338.79 257.899 338.79 258.086 338.898L264.311 342.494C264.497 342.602 264.497 342.778 264.311 342.886L258.709 346.122C258.523 346.23 258.22 346.23 258.033 346.122Z" fill="#D3D3D3"/>
<path d="M169.793 303.626L163.569 300.03C163.382 299.922 163.382 299.747 163.569 299.639L169.17 296.402C169.357 296.294 169.66 296.294 169.847 296.402L176.071 299.999C176.258 300.107 176.258 300.282 176.071 300.39L170.47 303.626C170.284 303.734 169.98 303.734 169.793 303.626Z" fill="#D3D3D3"/>
<path d="M177.541 308.103L171.316 304.506C171.129 304.398 171.129 304.223 171.316 304.115L176.917 300.879C177.104 300.771 177.407 300.771 177.594 300.879L183.819 304.475C184.006 304.583 184.006 304.758 183.819 304.866L178.218 308.103C178.031 308.211 177.728 308.211 177.541 308.103Z" fill="#D3D3D3"/>
<path d="M185.081 312.46L178.857 308.863C178.67 308.755 178.67 308.58 178.857 308.472L184.458 305.236C184.645 305.128 184.948 305.128 185.134 305.236L191.359 308.832C191.546 308.94 191.546 309.115 191.359 309.223L185.758 312.459C185.571 312.568 185.268 312.568 185.081 312.46Z" fill="#D3D3D3"/>
<path d="M192.889 316.971L186.664 313.374C186.477 313.266 186.477 313.091 186.664 312.983L192.265 309.747C192.452 309.639 192.755 309.639 192.942 309.747L199.166 313.343C199.353 313.451 199.353 313.626 199.166 313.734L193.565 316.971C193.379 317.079 193.076 317.079 192.889 316.971Z" fill="#D3D3D3"/>
<path d="M200.56 321.404L194.336 317.807C194.149 317.699 194.149 317.524 194.336 317.416L199.937 314.18C200.124 314.072 200.427 314.072 200.614 314.18L206.838 317.776C207.025 317.884 207.025 318.059 206.838 318.167L201.237 321.404C201.05 321.512 200.747 321.512 200.56 321.404Z" fill="#D3D3D3"/>
<path d="M208.352 325.94L202.128 322.344C201.941 322.236 201.941 322.061 202.128 321.953L207.729 318.716C207.916 318.608 208.219 318.608 208.405 318.716L214.63 322.313C214.817 322.421 214.817 322.596 214.63 322.704L209.029 325.94C208.842 326.048 208.539 326.048 208.352 325.94Z" fill="#D3D3D3"/>
<path d="M216.211 330.447L209.986 326.85C209.799 326.742 209.799 326.567 209.986 326.459L215.587 323.223C215.774 323.115 216.077 323.115 216.264 323.223L222.488 326.819C222.675 326.927 222.675 327.102 222.488 327.21L216.887 330.447C216.7 330.555 216.397 330.555 216.211 330.447Z" fill="#D3D3D3"/>
<path d="M223.764 334.919L217.54 331.323C217.353 331.215 217.353 331.04 217.54 330.932L223.141 327.695C223.328 327.587 223.631 327.587 223.817 327.695L230.042 331.292C230.229 331.4 230.229 331.575 230.042 331.683L224.441 334.919C224.254 335.027 223.951 335.027 223.764 334.919Z" fill="#D3D3D3"/>
<path d="M231.719 339.407L225.494 335.811C225.307 335.703 225.307 335.528 225.494 335.42L231.095 332.183C231.282 332.075 231.585 332.075 231.772 332.183L237.996 335.78C238.183 335.888 238.183 336.063 237.996 336.171L232.395 339.407C232.208 339.515 231.905 339.515 231.719 339.407Z" fill="#D3D3D3"/>
<path d="M239.239 343.753L233.014 340.156C232.827 340.048 232.827 339.873 233.014 339.765L238.615 336.529C238.802 336.421 239.105 336.421 239.292 336.529L245.517 340.125C245.704 340.233 245.704 340.408 245.517 340.516L239.915 343.753C239.729 343.861 239.426 343.861 239.239 343.753Z" fill="#D3D3D3"/>
<path d="M247.026 348.252L240.802 344.656C240.615 344.548 240.615 344.373 240.802 344.265L246.403 341.028C246.59 340.92 246.893 340.92 247.079 341.028L253.304 344.625C253.491 344.733 253.491 344.908 253.304 345.016L247.703 348.252C247.516 348.36 247.213 348.36 247.026 348.252Z" fill="#D3D3D3"/>
<path d="M254.907 352.806L248.682 349.209C248.495 349.101 248.495 348.926 248.682 348.818L254.284 345.582C254.47 345.473 254.773 345.473 254.96 345.582L261.185 349.178C261.372 349.286 261.372 349.461 261.185 349.569L255.584 352.806C255.397 352.914 255.094 352.914 254.907 352.806Z" fill="#D3D3D3"/>
<path d="M164.041 309.142L157.816 305.546C157.629 305.438 157.629 305.263 157.816 305.155L163.418 301.918C163.605 301.81 163.907 301.81 164.094 301.918L170.319 305.515C170.506 305.623 170.506 305.798 170.319 305.906L164.718 309.142C164.531 309.25 164.228 309.25 164.041 309.142Z" fill="#D3D3D3"/>
<path d="M156.196 304.609L144.325 297.75C144.139 297.642 144.139 297.467 144.325 297.359L149.927 294.123C150.114 294.015 150.416 294.015 150.603 294.123L162.474 300.982C162.66 301.09 162.66 301.265 162.474 301.373L156.872 304.609C156.686 304.717 156.383 304.717 156.196 304.609Z" fill="#D3D3D3"/>
<path d="M171.788 313.619L165.564 310.022C165.377 309.914 165.377 309.739 165.564 309.631L171.165 306.395C171.352 306.287 171.655 306.287 171.842 306.395L178.066 309.991C178.253 310.099 178.253 310.274 178.066 310.382L172.465 313.619C172.278 313.727 171.975 313.727 171.788 313.619Z" fill="#D3D3D3"/>
<path d="M179.329 317.976L173.104 314.379C172.917 314.271 172.917 314.096 173.104 313.988L178.705 310.752C178.892 310.644 179.195 310.644 179.382 310.752L185.607 314.348C185.794 314.456 185.794 314.631 185.607 314.739L180.005 317.976C179.819 318.084 179.515 318.084 179.329 317.976Z" fill="#D3D3D3"/>
<path d="M187.136 322.487L180.911 318.89C180.724 318.782 180.724 318.607 180.911 318.499L186.513 315.263C186.699 315.155 187.002 315.155 187.189 315.263L193.414 318.859C193.601 318.967 193.601 319.142 193.414 319.25L187.813 322.487C187.626 322.595 187.323 322.595 187.136 322.487Z" fill="#D3D3D3"/>
<path d="M194.808 326.92L188.583 323.323C188.396 323.215 188.396 323.04 188.583 322.932L194.184 319.696C194.371 319.588 194.674 319.588 194.861 319.696L201.085 323.292C201.272 323.4 201.272 323.575 201.085 323.683L195.484 326.92C195.297 327.027 194.995 327.027 194.808 326.92Z" fill="#D3D3D3"/>
<path d="M202.599 331.456L196.375 327.86C196.188 327.752 196.188 327.577 196.375 327.469L201.976 324.232C202.163 324.124 202.466 324.124 202.653 324.232L208.877 327.829C209.064 327.937 209.064 328.112 208.877 328.22L203.276 331.456C203.089 331.564 202.786 331.564 202.599 331.456Z" fill="#D3D3D3"/>
<path d="M210.458 335.962L204.234 332.366C204.047 332.258 204.047 332.083 204.234 331.975L209.835 328.738C210.022 328.63 210.325 328.63 210.511 328.738L216.736 332.335C216.923 332.443 216.923 332.618 216.736 332.726L211.135 335.962C210.948 336.07 210.645 336.07 210.458 335.962Z" fill="#D3D3D3"/>
<path d="M218.012 340.435L211.787 336.838C211.6 336.73 211.6 336.555 211.787 336.447L217.388 333.211C217.575 333.103 217.878 333.103 218.065 333.211L224.29 336.808C224.476 336.916 224.476 337.091 224.29 337.199L218.688 340.435C218.502 340.543 218.198 340.543 218.012 340.435Z" fill="#D3D3D3"/>
<path d="M225.966 344.923L219.741 341.327C219.554 341.219 219.554 341.043 219.741 340.935L225.343 337.699C225.529 337.591 225.832 337.591 226.019 337.699L232.244 341.296C232.431 341.404 232.431 341.579 232.244 341.687L226.643 344.923C226.456 345.031 226.153 345.031 225.966 344.923Z" fill="#D3D3D3"/>
<path d="M233.486 349.268L227.262 345.672C227.075 345.564 227.075 345.389 227.262 345.281L232.863 342.044C233.05 341.936 233.353 341.936 233.54 342.044L239.764 345.641C239.951 345.749 239.951 345.924 239.764 346.032L234.163 349.268C233.976 349.376 233.673 349.376 233.486 349.268Z" fill="#D3D3D3"/>
<path d="M241.274 353.768L235.049 350.172C234.862 350.064 234.862 349.888 235.049 349.781L240.65 346.544C240.837 346.436 241.14 346.436 241.327 346.544L247.551 350.141C247.738 350.249 247.738 350.424 247.551 350.532L241.95 353.768C241.764 353.876 241.461 353.876 241.274 353.768Z" fill="#D3D3D3"/>
<path d="M152.714 311.365L146.489 307.768C146.302 307.66 146.302 307.485 146.489 307.377L152.09 304.141C152.277 304.033 152.58 304.033 152.767 304.141L158.992 307.738C159.179 307.846 159.179 308.021 158.992 308.129L153.391 311.365C153.204 311.473 152.901 311.473 152.714 311.365Z" fill="#D3D3D3"/>
<path d="M144.762 306.77L136.738 302.134C136.552 302.026 136.552 301.851 136.738 301.743L142.34 298.507C142.527 298.399 142.829 298.399 143.016 298.507L151.04 303.143C151.227 303.251 151.227 303.426 151.04 303.534L145.439 306.77C145.252 306.878 144.949 306.878 144.762 306.77Z" fill="#D3D3D3"/>
<path d="M160.461 315.841L154.237 312.245C154.05 312.137 154.05 311.962 154.237 311.854L159.838 308.617C160.025 308.509 160.328 308.509 160.515 308.617L166.739 312.214C166.926 312.322 166.926 312.497 166.739 312.605L161.138 315.841C160.951 315.949 160.648 315.949 160.461 315.841Z" fill="#D3D3D3"/>
<path d="M168.002 320.198L161.777 316.602C161.59 316.494 161.59 316.319 161.777 316.211L167.378 312.974C167.565 312.866 167.868 312.866 168.055 312.974L174.279 316.571C174.466 316.679 174.466 316.854 174.279 316.962L168.678 320.198C168.491 320.306 168.188 320.306 168.002 320.198Z" fill="#D3D3D3"/>
<path d="M175.809 324.709L169.584 321.113C169.398 321.005 169.398 320.83 169.584 320.722L175.186 317.485C175.372 317.378 175.675 317.378 175.862 317.485L182.087 321.082C182.274 321.19 182.274 321.365 182.087 321.473L176.486 324.709C176.299 324.817 175.996 324.817 175.809 324.709Z" fill="#D3D3D3"/>
<path d="M135.456 310.069L129.232 306.472C129.045 306.364 129.045 306.189 129.232 306.081L134.833 302.844C135.02 302.736 135.323 302.736 135.509 302.844L141.734 306.441C141.921 306.549 141.921 306.724 141.734 306.832L136.133 310.069C135.946 310.177 135.643 310.177 135.456 310.069Z" fill="#D3D3D3"/>
<path d="M143.203 314.545L136.979 310.948C136.792 310.84 136.792 310.665 136.979 310.557L142.58 307.321C142.767 307.213 143.07 307.213 143.257 307.321L149.482 310.917C149.668 311.025 149.668 311.2 149.482 311.308L143.881 314.545C143.693 314.653 143.39 314.653 143.203 314.545Z" fill="#D3D3D3"/>
<path d="M150.744 318.902L144.519 315.305C144.332 315.197 144.332 315.022 144.519 314.914L150.12 311.678C150.307 311.57 150.61 311.57 150.797 311.678L157.022 315.274C157.208 315.382 157.208 315.557 157.022 315.665L151.42 318.901C151.234 319.01 150.931 319.01 150.744 318.902Z" fill="#D3D3D3"/>
<path d="M160.35 324.452L152.327 319.816C152.14 319.708 152.14 319.533 152.327 319.425L157.928 316.189C158.114 316.081 158.417 316.081 158.604 316.189L166.628 320.825C166.815 320.933 166.815 321.108 166.628 321.216L161.027 324.452C160.84 324.56 160.537 324.56 160.35 324.452Z" fill="#D3D3D3"/>
<path d="M199.271 346.941L162.078 325.45C161.891 325.343 161.891 325.167 162.078 325.059L167.679 321.823C167.866 321.715 168.169 321.715 168.355 321.823L205.549 343.314C205.736 343.422 205.736 343.597 205.549 343.705L199.948 346.941C199.761 347.049 199.458 347.049 199.271 346.941Z" fill="#D3D3D3"/>
<path d="M225.801 362.271L232.026 365.867C232.213 365.975 232.516 365.975 232.702 365.867L234.844 364.63C235.031 364.522 235.031 364.347 234.844 364.239L228.619 360.642C228.433 360.534 228.13 360.534 227.943 360.642L225.801 361.88C225.614 361.988 225.614 362.163 225.801 362.271Z" fill="#D3D3D3"/>
<path d="M229.261 360.272L235.485 363.868C235.672 363.976 235.975 363.976 236.162 363.868L238.304 362.631C238.491 362.523 238.491 362.348 238.304 362.24L232.079 358.643C231.892 358.535 231.589 358.535 231.402 358.643L229.261 359.88C229.074 359.989 229.074 360.164 229.261 360.272Z" fill="#D3D3D3"/>
<path d="M233.954 366.981L240.178 370.578C240.365 370.686 240.668 370.686 240.855 370.578L246.456 367.341C246.643 367.233 246.643 367.058 246.456 366.95L240.232 363.354C240.045 363.246 239.742 363.246 239.555 363.354L233.954 366.59C233.767 366.698 233.767 366.873 233.954 366.981Z" fill="#D3D3D3"/>
<path d="M218.054 357.794L224.278 361.391C224.465 361.499 224.768 361.499 224.955 361.391L230.556 358.154C230.743 358.046 230.743 357.871 230.556 357.763L224.332 354.167C224.145 354.059 223.842 354.059 223.655 354.167L218.054 357.403C217.867 357.511 217.867 357.686 218.054 357.794Z" fill="#D3D3D3"/>
<path d="M210.514 353.437L216.738 357.034C216.925 357.142 217.228 357.142 217.415 357.034L223.016 353.797C223.203 353.689 223.203 353.514 223.016 353.406L216.792 349.81C216.605 349.702 216.302 349.702 216.115 349.81L210.514 353.046C210.327 353.154 210.327 353.329 210.514 353.437Z" fill="#D3D3D3"/>
<path d="M200.907 347.887L208.931 352.523C209.118 352.631 209.421 352.631 209.607 352.523L215.209 349.286C215.396 349.178 215.396 349.003 215.209 348.895L207.185 344.259C206.998 344.151 206.695 344.151 206.509 344.259L200.907 347.496C200.721 347.604 200.721 347.779 200.907 347.887Z" fill="#D3D3D3"/>
<path d="M183.481 329.142L177.256 325.546C177.069 325.438 177.069 325.263 177.256 325.155L182.857 321.918C183.044 321.81 183.347 321.81 183.534 321.918L189.758 325.515C189.945 325.623 189.945 325.798 189.758 325.906L184.157 329.142C183.97 329.25 183.667 329.25 183.481 329.142Z" fill="#D3D3D3"/>
<path d="M191.272 333.679L185.048 330.083C184.861 329.975 184.861 329.8 185.048 329.692L190.649 326.455C190.836 326.347 191.139 326.347 191.326 326.455L197.55 330.052C197.737 330.16 197.737 330.335 197.55 330.443L191.949 333.679C191.762 333.787 191.459 333.787 191.272 333.679Z" fill="#D3D3D3"/>
<path d="M199.131 338.185L192.906 334.589C192.719 334.481 192.719 334.305 192.906 334.197L198.508 330.961C198.695 330.853 198.997 330.853 199.184 330.961L205.409 334.558C205.596 334.666 205.596 334.841 205.409 334.949L199.808 338.185C199.621 338.293 199.318 338.293 199.131 338.185Z" fill="#D3D3D3"/>
<path d="M206.685 342.658L200.46 339.061C200.273 338.953 200.273 338.778 200.46 338.67L206.061 335.434C206.248 335.326 206.551 335.326 206.738 335.434L212.963 339.03C213.149 339.138 213.149 339.313 212.963 339.421L207.361 342.658C207.174 342.766 206.872 342.766 206.685 342.658Z" fill="#D3D3D3"/>
<path d="M214.639 347.146L208.414 343.549C208.227 343.441 208.227 343.266 208.414 343.158L214.015 339.922C214.202 339.814 214.505 339.814 214.692 339.922L220.917 343.518C221.104 343.626 221.104 343.801 220.917 343.909L215.316 347.146C215.129 347.254 214.826 347.254 214.639 347.146Z" fill="#D3D3D3"/>
<path d="M222.159 351.491L215.934 347.895C215.748 347.787 215.748 347.612 215.934 347.504L221.536 344.267C221.722 344.159 222.025 344.159 222.212 344.267L228.437 347.864C228.624 347.972 228.624 348.147 228.437 348.255L222.836 351.491C222.649 351.599 222.346 351.599 222.159 351.491Z" fill="#D3D3D3"/>
<path d="M229.947 355.991L223.722 352.394C223.535 352.286 223.535 352.111 223.722 352.003L229.323 348.767C229.51 348.659 229.813 348.659 230 348.767L236.224 352.363C236.411 352.471 236.411 352.646 236.224 352.754L230.623 355.991C230.436 356.099 230.133 356.099 229.947 355.991Z" fill="#D3D3D3"/>
<path d="M249.155 358.322L242.93 354.725C242.743 354.617 242.743 354.442 242.93 354.334L248.531 351.098C248.718 350.99 249.021 350.99 249.208 351.098L255.432 354.694C255.619 354.802 255.619 354.977 255.432 355.085L249.831 358.322C249.644 358.43 249.341 358.43 249.155 358.322Z" fill="#D3D3D3"/>
<path d="M269.199 354.2C269.386 354.092 269.386 353.917 269.2 353.809L262.975 350.212C262.788 350.105 262.485 350.105 262.298 350.212L256.697 353.449C256.51 353.557 256.51 353.732 256.697 353.84L257.89 354.53L250.486 358.808C250.299 358.916 250.299 359.091 250.486 359.199L255.179 361.91C255.366 362.018 255.669 362.018 255.856 361.91L263.376 357.565C263.415 357.543 263.444 357.517 263.467 357.489C263.514 357.476 263.559 357.459 263.598 357.437L269.199 354.2Z" fill="#D3D3D3"/>
<path d="M270.268 353.192L260.01 347.264C259.823 347.156 259.823 346.981 260.01 346.873L265.611 343.637C265.798 343.529 266.101 343.529 266.287 343.637L276.546 349.564C276.733 349.672 276.733 349.847 276.546 349.955L270.945 353.192C270.758 353.3 270.455 353.3 270.268 353.192Z" fill="#D3D3D3"/>
<path d="M247.685 366.24L231.371 356.814C231.184 356.706 231.184 356.531 231.371 356.423L236.973 353.186C237.16 353.079 237.462 353.079 237.649 353.186L253.963 362.613C254.15 362.721 254.15 362.896 253.963 363.004L248.362 366.24C248.175 366.348 247.872 366.348 247.685 366.24Z" fill="#D3D3D3"/>
<path d="M192.702 299.436L186.477 295.839C186.29 295.731 186.29 295.556 186.477 295.448L192.078 292.211C192.265 292.103 192.568 292.103 192.755 292.211L198.979 295.808C199.166 295.916 199.166 296.091 198.979 296.199L193.378 299.436C193.191 299.544 192.888 299.544 192.702 299.436Z" fill="#D3D3D3"/>
<path d="M200.529 303.958L194.304 300.362C194.117 300.254 194.117 300.079 194.304 299.971L199.906 296.734C200.092 296.626 200.396 296.626 200.582 296.734L206.807 300.331C206.994 300.439 206.994 300.614 206.807 300.722L201.206 303.958C201.019 304.066 200.716 304.066 200.529 303.958Z" fill="#D3D3D3"/>
<path d="M208.356 308.481L202.132 304.885C201.945 304.777 201.945 304.601 202.132 304.493L207.733 301.257C207.92 301.149 208.223 301.149 208.41 301.257L214.634 304.854C214.821 304.962 214.821 305.137 214.634 305.245L209.033 308.481C208.846 308.589 208.543 308.589 208.356 308.481Z" fill="#D3D3D3"/>
<path d="M215.89 312.834L209.665 309.237C209.478 309.129 209.478 308.954 209.665 308.846L215.267 305.61C215.454 305.502 215.756 305.502 215.943 305.61L222.168 309.206C222.355 309.314 222.355 309.489 222.168 309.597L216.567 312.834C216.38 312.942 216.077 312.942 215.89 312.834Z" fill="#D3D3D3"/>
<path d="M223.74 317.37L217.515 313.773C217.328 313.665 217.328 313.49 217.515 313.382L223.116 310.146C223.303 310.038 223.606 310.038 223.793 310.146L230.018 313.742C230.205 313.85 230.205 314.025 230.018 314.133L224.417 317.37C224.23 317.478 223.927 317.478 223.74 317.37Z" fill="#D3D3D3"/>
<path d="M231.487 321.846L225.262 318.249C225.075 318.141 225.075 317.966 225.262 317.858L230.864 314.622C231.051 314.514 231.353 314.514 231.54 314.622L237.765 318.219C237.952 318.327 237.952 318.502 237.765 318.61L232.164 321.846C231.977 321.954 231.674 321.954 231.487 321.846Z" fill="#D3D3D3"/>
<path d="M239.056 326.22L232.832 322.623C232.645 322.515 232.645 322.34 232.832 322.232L238.433 318.996C238.62 318.888 238.923 318.888 239.11 318.996L245.334 322.592C245.521 322.7 245.521 322.875 245.334 322.983L239.733 326.22C239.546 326.328 239.243 326.328 239.056 326.22Z" fill="#D3D3D3"/>
<path d="M246.906 330.755L240.681 327.159C240.494 327.051 240.494 326.876 240.681 326.768L246.283 323.531C246.47 323.423 246.772 323.423 246.959 323.531L253.184 327.128C253.371 327.236 253.371 327.411 253.184 327.519L247.583 330.755C247.396 330.863 247.093 330.863 246.906 330.755Z" fill="#D3D3D3"/>
<path d="M254.613 335.209L248.389 331.612C248.202 331.504 248.202 331.329 248.389 331.221L253.99 327.985C254.177 327.877 254.48 327.877 254.667 327.985L260.891 331.581C261.078 331.689 261.078 331.864 260.891 331.972L255.29 335.209C255.103 335.317 254.8 335.317 254.613 335.209Z" fill="#D3D3D3"/>
<path d="M262.285 339.641L256.06 336.045C255.873 335.937 255.873 335.762 256.06 335.654L261.661 332.417C261.848 332.309 262.151 332.309 262.338 332.417L268.563 336.014C268.749 336.122 268.749 336.297 268.563 336.405L262.961 339.641C262.775 339.749 262.472 339.749 262.285 339.641Z" fill="#D3D3D3"/>
<path d="M270.028 344.115L263.803 340.519C263.616 340.411 263.616 340.236 263.803 340.128L269.404 336.891C269.591 336.783 269.894 336.783 270.081 336.891L276.305 340.488C276.492 340.596 276.492 340.771 276.305 340.879L270.704 344.115C270.518 344.223 270.214 344.223 270.028 344.115Z" fill="#D3D3D3"/>
<path d="M278.002 348.723L271.777 345.126C271.59 345.018 271.59 344.843 271.777 344.735L277.378 341.499C277.565 341.391 277.868 341.391 278.055 341.499L284.28 345.095C284.467 345.203 284.467 345.378 284.28 345.486L278.679 348.723C278.492 348.831 278.189 348.831 278.002 348.723Z" fill="#D3D3D3"/>
<path d="M176.797 289.749L167.055 284.12C166.868 284.012 166.868 283.837 167.055 283.729L172.656 280.493C172.843 280.385 173.146 280.385 173.333 280.493L183.075 286.122C183.262 286.23 183.262 286.405 183.075 286.513L177.474 289.749C177.287 289.857 176.984 289.857 176.797 289.749Z" fill="#F7F7F7"/>
<path d="M184.874 294.416L178.649 290.82C178.463 290.712 178.463 290.536 178.649 290.428L184.25 287.192C184.437 287.084 184.74 287.084 184.927 287.192L191.152 290.789C191.339 290.897 191.339 291.072 191.152 291.18L185.551 294.416C185.364 294.524 185.061 294.524 184.874 294.416Z" fill="#F7F7F7"/>
<path d="M165.546 292.186L159.321 288.589C159.134 288.481 159.134 288.306 159.321 288.198L164.923 284.962C165.11 284.854 165.412 284.854 165.599 284.962L171.824 288.558C172.011 288.666 172.011 288.841 171.824 288.949L166.223 292.186C166.036 292.294 165.733 292.294 165.546 292.186Z" fill="#F7F7F7"/>
<path d="M161.681 298.442L151.975 292.834C151.788 292.726 151.788 292.551 151.975 292.443L157.576 289.206C157.763 289.098 158.066 289.098 158.253 289.206L167.959 294.815C168.146 294.923 168.146 295.098 167.959 295.206L162.358 298.442C162.171 298.55 161.868 298.55 161.681 298.442Z" fill="#F7F7F7"/>
<path d="M173.026 296.508L166.801 292.911C166.615 292.803 166.615 292.628 166.801 292.52L172.403 289.284C172.59 289.176 172.892 289.176 173.079 289.284L179.304 292.88C179.491 292.988 179.491 293.163 179.304 293.271L173.703 296.508C173.516 296.616 173.213 296.616 173.026 296.508Z" fill="#F7F7F7"/>
<path d="M180.673 300.926L174.449 297.33C174.262 297.222 174.262 297.047 174.449 296.939L180.05 293.702C180.237 293.594 180.54 293.594 180.727 293.702L186.951 297.299C187.138 297.407 187.138 297.582 186.951 297.69L181.35 300.926C181.163 301.034 180.86 301.034 180.673 300.926Z" fill="#F7F7F7"/>
<path d="M188.467 305.43L182.243 301.833C182.056 301.725 182.056 301.55 182.243 301.442L187.844 298.206C188.031 298.098 188.334 298.098 188.52 298.206L194.745 301.802C194.932 301.91 194.932 302.085 194.745 302.193L189.144 305.43C188.957 305.538 188.654 305.538 188.467 305.43Z" fill="#F7F7F7"/>
<path d="M196.312 309.963L190.088 306.367C189.901 306.259 189.901 306.083 190.088 305.975L195.689 302.739C195.876 302.631 196.179 302.631 196.366 302.739L202.59 306.336C202.777 306.443 202.777 306.619 202.59 306.727L196.989 309.963C196.802 310.071 196.499 310.071 196.312 309.963Z" fill="#F7F7F7"/>
<path d="M204.104 314.465L197.88 310.868C197.693 310.76 197.693 310.585 197.88 310.477L203.481 307.241C203.668 307.133 203.971 307.133 204.158 307.241L210.382 310.838C210.569 310.946 210.569 311.121 210.382 311.229L204.781 314.465C204.594 314.573 204.291 314.573 204.104 314.465Z" fill="#F7F7F7"/>
<path d="M211.869 318.952L205.645 315.355C205.458 315.247 205.458 315.072 205.645 314.964L211.246 311.728C211.433 311.62 211.736 311.62 211.923 311.728L218.147 315.324C218.334 315.432 218.334 315.607 218.147 315.716L212.546 318.952C212.359 319.06 212.056 319.06 211.869 318.952Z" fill="#F7F7F7"/>
<path d="M219.456 323.336L213.232 319.739C213.045 319.631 213.045 319.456 213.232 319.348L218.833 316.112C219.02 316.004 219.323 316.004 219.51 316.112L225.734 319.708C225.921 319.816 225.921 319.991 225.734 320.099L220.133 323.336C219.946 323.444 219.643 323.444 219.456 323.336Z" fill="#F7F7F7"/>
<path d="M227.204 327.812L220.979 324.216C220.792 324.108 220.792 323.933 220.979 323.825L226.58 320.588C226.767 320.48 227.07 320.48 227.257 320.588L233.482 324.185C233.669 324.293 233.669 324.468 233.482 324.576L227.88 327.812C227.694 327.92 227.391 327.92 227.204 327.812Z" fill="#F7F7F7"/>
<path d="M234.773 332.186L228.548 328.589C228.361 328.481 228.361 328.306 228.548 328.198L234.149 324.962C234.336 324.854 234.639 324.854 234.826 324.962L241.051 328.558C241.238 328.666 241.238 328.841 241.051 328.949L235.45 332.186C235.263 332.294 234.96 332.294 234.773 332.186Z" fill="#F7F7F7"/>
<path d="M242.645 336.734L236.42 333.138C236.233 333.03 236.233 332.855 236.42 332.747L242.021 329.51C242.208 329.402 242.511 329.402 242.698 329.51L248.923 333.107C249.11 333.215 249.11 333.39 248.923 333.498L243.322 336.734C243.135 336.842 242.832 336.842 242.645 336.734Z" fill="#F7F7F7"/>
<path d="M250.464 341.252L244.239 337.655C244.052 337.547 244.052 337.372 244.239 337.264L249.84 334.028C250.027 333.92 250.33 333.92 250.517 334.028L256.742 337.624C256.928 337.732 256.928 337.908 256.742 338.016L251.14 341.252C250.953 341.36 250.65 341.36 250.464 341.252Z" fill="#F7F7F7"/>
<path d="M258.033 345.625L251.808 342.029C251.621 341.921 251.621 341.746 251.808 341.638L257.409 338.401C257.596 338.293 257.899 338.293 258.086 338.401L264.311 341.998C264.497 342.106 264.497 342.281 264.311 342.389L258.709 345.625C258.523 345.733 258.22 345.733 258.033 345.625Z" fill="#F7F7F7"/>
<path d="M169.793 303.13L163.569 299.533C163.382 299.425 163.382 299.25 163.569 299.142L169.17 295.906C169.357 295.798 169.66 295.798 169.847 295.906L176.071 299.502C176.258 299.61 176.258 299.786 176.071 299.894L170.47 303.13C170.284 303.238 169.98 303.238 169.793 303.13Z" fill="#F7F7F7"/>
<path d="M177.541 307.606L171.316 304.01C171.129 303.902 171.129 303.727 171.316 303.619L176.917 300.382C177.104 300.274 177.407 300.274 177.594 300.382L183.819 303.979C184.006 304.087 184.006 304.262 183.819 304.37L178.218 307.606C178.031 307.714 177.728 307.714 177.541 307.606Z" fill="#F7F7F7"/>
<path d="M185.081 311.963L178.857 308.367C178.67 308.259 178.67 308.084 178.857 307.976L184.458 304.739C184.645 304.631 184.948 304.631 185.134 304.739L191.359 308.336C191.546 308.444 191.546 308.619 191.359 308.727L185.758 311.963C185.571 312.071 185.268 312.071 185.081 311.963Z" fill="#F7F7F7"/>
<path d="M192.889 316.474L186.664 312.878C186.477 312.77 186.477 312.595 186.664 312.487L192.265 309.25C192.452 309.142 192.755 309.142 192.942 309.25L199.166 312.847C199.353 312.955 199.353 313.13 199.166 313.238L193.565 316.474C193.379 316.582 193.076 316.582 192.889 316.474Z" fill="#F7F7F7"/>
<path d="M200.56 320.907L194.336 317.311C194.149 317.203 194.149 317.027 194.336 316.92L199.937 313.683C200.124 313.575 200.427 313.575 200.614 313.683L206.838 317.28C207.025 317.388 207.025 317.563 206.838 317.671L201.237 320.907C201.05 321.015 200.747 321.015 200.56 320.907Z" fill="#F7F7F7"/>
<path d="M208.352 325.444L202.128 321.847C201.941 321.739 201.941 321.564 202.128 321.456L207.729 318.22C207.916 318.112 208.219 318.112 208.405 318.22L214.63 321.816C214.817 321.924 214.817 322.1 214.63 322.207L209.029 325.444C208.842 325.552 208.539 325.552 208.352 325.444Z" fill="#F7F7F7"/>
<path d="M216.211 329.95L209.986 326.354C209.799 326.246 209.799 326.07 209.986 325.962L215.587 322.726C215.774 322.618 216.077 322.618 216.264 322.726L222.488 326.323C222.675 326.431 222.675 326.606 222.488 326.714L216.887 329.95C216.7 330.058 216.397 330.058 216.211 329.95Z" fill="#F7F7F7"/>
<path d="M223.764 334.423L217.54 330.826C217.353 330.718 217.353 330.543 217.54 330.435L223.141 327.199C223.328 327.091 223.631 327.091 223.817 327.199L230.042 330.795C230.229 330.903 230.229 331.078 230.042 331.186L224.441 334.423C224.254 334.531 223.951 334.531 223.764 334.423Z" fill="#F7F7F7"/>
<path d="M231.719 338.911L225.494 335.314C225.307 335.206 225.307 335.031 225.494 334.923L231.095 331.687C231.282 331.579 231.585 331.579 231.772 331.687L237.996 335.283C238.183 335.391 238.183 335.566 237.996 335.674L232.395 338.911C232.208 339.019 231.905 339.019 231.719 338.911Z" fill="#F7F7F7"/>
<path d="M239.239 343.256L233.014 339.66C232.827 339.552 232.827 339.376 233.014 339.269L238.615 336.032C238.802 335.924 239.105 335.924 239.292 336.032L245.517 339.629C245.704 339.737 245.704 339.912 245.517 340.02L239.915 343.256C239.729 343.364 239.426 343.364 239.239 343.256Z" fill="#F7F7F7"/>
<path d="M247.026 347.756L240.802 344.159C240.615 344.051 240.615 343.876 240.802 343.768L246.403 340.532C246.59 340.424 246.893 340.424 247.079 340.532L253.304 344.128C253.491 344.236 253.491 344.411 253.304 344.519L247.703 347.756C247.516 347.864 247.213 347.864 247.026 347.756Z" fill="#F7F7F7"/>
<path d="M254.907 352.309L248.682 348.713C248.495 348.605 248.495 348.43 248.682 348.322L254.284 345.085C254.47 344.977 254.773 344.977 254.96 345.085L261.185 348.682C261.372 348.79 261.372 348.965 261.185 349.073L255.584 352.309C255.397 352.417 255.094 352.417 254.907 352.309Z" fill="#F7F7F7"/>
<path d="M164.041 308.646L157.816 305.049C157.629 304.941 157.629 304.766 157.816 304.658L163.418 301.422C163.605 301.314 163.907 301.314 164.094 301.422L170.319 305.018C170.506 305.126 170.506 305.301 170.319 305.409L164.718 308.646C164.531 308.754 164.228 308.754 164.041 308.646Z" fill="#F7F7F7"/>
<path d="M156.196 304.113L144.325 297.254C144.139 297.146 144.139 296.971 144.325 296.863L149.927 293.627C150.114 293.519 150.416 293.519 150.603 293.627L162.474 300.485C162.66 300.593 162.66 300.768 162.474 300.876L156.872 304.113C156.686 304.221 156.383 304.221 156.196 304.113Z" fill="#F7F7F7"/>
<path d="M171.788 313.122L165.564 309.526C165.377 309.418 165.377 309.243 165.564 309.135L171.165 305.898C171.352 305.79 171.655 305.79 171.842 305.898L178.066 309.495C178.253 309.603 178.253 309.778 178.066 309.886L172.465 313.122C172.278 313.23 171.975 313.23 171.788 313.122Z" fill="#F7F7F7"/>
<path d="M179.329 317.479L173.104 313.882C172.917 313.774 172.917 313.599 173.104 313.491L178.705 310.255C178.892 310.147 179.195 310.147 179.382 310.255L185.607 313.852C185.794 313.96 185.794 314.135 185.607 314.243L180.005 317.479C179.819 317.587 179.515 317.587 179.329 317.479Z" fill="#F7F7F7"/>
<path d="M187.136 321.99L180.911 318.394C180.724 318.286 180.724 318.111 180.911 318.003L186.513 314.766C186.699 314.658 187.002 314.658 187.189 314.766L193.414 318.363C193.601 318.471 193.601 318.646 193.414 318.754L187.813 321.99C187.626 322.098 187.323 322.098 187.136 321.99Z" fill="#F7F7F7"/>
<path d="M194.808 326.423L188.583 322.826C188.396 322.718 188.396 322.543 188.583 322.435L194.184 319.199C194.371 319.091 194.674 319.091 194.861 319.199L201.085 322.795C201.272 322.903 201.272 323.079 201.085 323.187L195.484 326.423C195.297 326.531 194.995 326.531 194.808 326.423Z" fill="#F7F7F7"/>
<path d="M202.599 330.96L196.375 327.363C196.188 327.255 196.188 327.08 196.375 326.972L201.976 323.736C202.163 323.628 202.466 323.628 202.653 323.736L208.877 327.332C209.064 327.44 209.064 327.615 208.877 327.723L203.276 330.96C203.089 331.068 202.786 331.068 202.599 330.96Z" fill="#F7F7F7"/>
<path d="M210.458 335.466L204.234 331.869C204.047 331.761 204.047 331.586 204.234 331.478L209.835 328.242C210.022 328.134 210.325 328.134 210.511 328.242L216.736 331.838C216.923 331.946 216.923 332.121 216.736 332.229L211.135 335.466C210.948 335.574 210.645 335.574 210.458 335.466Z" fill="#F7F7F7"/>
<path d="M218.012 339.939L211.787 336.342C211.6 336.234 211.6 336.059 211.787 335.951L217.388 332.714C217.575 332.606 217.878 332.606 218.065 332.714L224.29 336.311C224.476 336.419 224.476 336.594 224.29 336.702L218.688 339.938C218.502 340.046 218.198 340.047 218.012 339.939Z" fill="#F7F7F7"/>
<path d="M225.966 344.427L219.741 340.83C219.554 340.722 219.554 340.547 219.741 340.439L225.343 337.203C225.529 337.095 225.832 337.095 226.019 337.203L232.244 340.799C232.431 340.907 232.431 341.082 232.244 341.19L226.643 344.427C226.456 344.535 226.153 344.535 225.966 344.427Z" fill="#F7F7F7"/>
<path d="M233.486 348.772L227.262 345.175C227.075 345.067 227.075 344.892 227.262 344.784L232.863 341.548C233.05 341.44 233.353 341.44 233.54 341.548L239.764 345.144C239.951 345.252 239.951 345.427 239.764 345.535L234.163 348.772C233.976 348.88 233.673 348.88 233.486 348.772Z" fill="#F7F7F7"/>
<path d="M241.274 353.272L235.049 349.675C234.862 349.567 234.862 349.392 235.049 349.284L240.65 346.047C240.837 345.939 241.14 345.939 241.327 346.047L247.551 349.644C247.738 349.752 247.738 349.927 247.551 350.035L241.95 353.272C241.764 353.38 241.461 353.38 241.274 353.272Z" fill="#F7F7F7"/>
<path d="M152.714 310.869L146.489 307.272C146.302 307.164 146.302 306.989 146.489 306.881L152.09 303.645C152.277 303.537 152.58 303.537 152.767 303.645L158.992 307.241C159.179 307.349 159.179 307.524 158.992 307.632L153.391 310.869C153.204 310.977 152.901 310.977 152.714 310.869Z" fill="#F7F7F7"/>
<path d="M144.762 306.274L136.738 301.638C136.552 301.53 136.552 301.355 136.738 301.247L142.34 298.01C142.527 297.902 142.829 297.902 143.016 298.01L151.04 302.646C151.227 302.754 151.227 302.929 151.04 303.037L145.439 306.274C145.252 306.382 144.949 306.382 144.762 306.274Z" fill="#F7F7F7"/>
<path d="M160.461 315.345L154.237 311.748C154.05 311.64 154.05 311.465 154.237 311.357L159.838 308.121C160.025 308.013 160.328 308.013 160.515 308.121L166.739 311.718C166.926 311.826 166.926 312.001 166.739 312.109L161.138 315.345C160.951 315.453 160.648 315.453 160.461 315.345Z" fill="#F7F7F7"/>
<path d="M168.002 319.702L161.777 316.105C161.59 315.997 161.59 315.822 161.777 315.714L167.378 312.478C167.565 312.37 167.868 312.37 168.055 312.478L174.279 316.074C174.466 316.182 174.466 316.357 174.279 316.465L168.678 319.702C168.491 319.81 168.188 319.81 168.002 319.702Z" fill="#F7F7F7"/>
<path d="M175.809 324.213L169.584 320.616C169.398 320.509 169.398 320.333 169.584 320.225L175.186 316.989C175.372 316.881 175.675 316.881 175.862 316.989L182.087 320.585C182.274 320.693 182.274 320.869 182.087 320.977L176.486 324.213C176.299 324.321 175.996 324.321 175.809 324.213Z" fill="#F7F7F7"/>
<path d="M135.456 309.572L129.232 305.975C129.045 305.867 129.045 305.692 129.232 305.584L134.833 302.348C135.02 302.24 135.323 302.24 135.509 302.348L141.734 305.944C141.921 306.052 141.921 306.228 141.734 306.336L136.133 309.572C135.946 309.68 135.643 309.68 135.456 309.572Z" fill="#F7F7F7"/>
<path d="M143.203 314.048L136.979 310.452C136.792 310.344 136.792 310.169 136.979 310.061L142.58 306.824C142.767 306.716 143.07 306.716 143.257 306.824L149.482 310.421C149.668 310.529 149.668 310.704 149.482 310.812L143.881 314.048C143.693 314.156 143.39 314.156 143.203 314.048Z" fill="#F7F7F7"/>
<path d="M150.744 318.405L144.519 314.809C144.332 314.701 144.332 314.526 144.519 314.418L150.12 311.181C150.307 311.073 150.61 311.073 150.797 311.181L157.022 314.778C157.208 314.886 157.208 315.061 157.022 315.169L151.42 318.405C151.234 318.513 150.931 318.513 150.744 318.405Z" fill="#F7F7F7"/>
<path d="M160.35 323.956L152.327 319.32C152.14 319.212 152.14 319.037 152.327 318.929L157.928 315.692C158.114 315.584 158.417 315.584 158.604 315.692L166.628 320.328C166.815 320.436 166.815 320.611 166.628 320.719L161.027 323.956C160.84 324.064 160.537 324.064 160.35 323.956Z" fill="#F7F7F7"/>
<path d="M199.271 346.445L162.078 324.954C161.891 324.846 161.891 324.671 162.078 324.563L167.679 321.327C167.866 321.219 168.169 321.219 168.355 321.327L205.549 342.818C205.736 342.926 205.736 343.101 205.549 343.209L199.948 346.445C199.761 346.553 199.458 346.553 199.271 346.445Z" fill="#F7F7F7"/>
<path d="M225.801 361.774L232.026 365.371C232.213 365.479 232.516 365.479 232.702 365.371L234.844 364.133C235.031 364.025 235.031 363.85 234.844 363.742L228.619 360.146C228.433 360.038 228.13 360.038 227.943 360.146L225.801 361.383C225.614 361.491 225.614 361.666 225.801 361.774Z" fill="#F7F7F7"/>
<path d="M229.261 359.775L235.485 363.372C235.672 363.48 235.975 363.48 236.162 363.372L238.304 362.134C238.491 362.026 238.491 361.851 238.304 361.743L232.079 358.147C231.892 358.039 231.589 358.039 231.402 358.147L229.261 359.384C229.074 359.492 229.074 359.667 229.261 359.775Z" fill="#F7F7F7"/>
<path d="M233.954 366.485L240.178 370.081C240.365 370.189 240.668 370.189 240.855 370.081L246.456 366.845C246.643 366.737 246.643 366.562 246.456 366.454L240.232 362.857C240.045 362.749 239.742 362.749 239.555 362.857L233.954 366.093C233.767 366.202 233.767 366.377 233.954 366.485Z" fill="#F7F7F7"/>
<path d="M218.054 357.298L224.278 360.894C224.465 361.002 224.768 361.002 224.955 360.894L230.556 357.658C230.743 357.55 230.743 357.375 230.556 357.267L224.332 353.67C224.145 353.562 223.842 353.562 223.655 353.67L218.054 356.907C217.867 357.015 217.867 357.19 218.054 357.298Z" fill="#F7F7F7"/>
<path d="M210.514 352.941L216.738 356.537C216.925 356.645 217.228 356.645 217.415 356.537L223.016 353.301C223.203 353.193 223.203 353.018 223.016 352.91L216.792 349.313C216.605 349.205 216.302 349.205 216.115 349.313L210.514 352.55C210.327 352.658 210.327 352.833 210.514 352.941Z" fill="#F7F7F7"/>
<path d="M200.907 347.39L208.931 352.026C209.118 352.134 209.421 352.134 209.607 352.026L215.209 348.79C215.396 348.682 215.396 348.507 215.209 348.399L207.185 343.763C206.998 343.655 206.695 343.655 206.509 343.763L200.907 346.999C200.721 347.107 200.721 347.282 200.907 347.39Z" fill="#F7F7F7"/>
<path d="M183.481 328.646L177.256 325.049C177.069 324.941 177.069 324.766 177.256 324.658L182.857 321.422C183.044 321.314 183.347 321.314 183.534 321.422L189.758 325.018C189.945 325.126 189.945 325.301 189.758 325.409L184.157 328.646C183.97 328.754 183.667 328.754 183.481 328.646Z" fill="#F7F7F7"/>
<path d="M191.272 333.183L185.048 329.586C184.861 329.478 184.861 329.303 185.048 329.195L190.649 325.959C190.836 325.851 191.139 325.851 191.326 325.959L197.55 329.555C197.737 329.663 197.737 329.838 197.55 329.946L191.949 333.183C191.762 333.291 191.459 333.291 191.272 333.183Z" fill="#F7F7F7"/>
<path d="M199.131 337.689L192.906 334.092C192.719 333.984 192.719 333.809 192.906 333.701L198.508 330.465C198.695 330.357 198.997 330.357 199.184 330.465L205.409 334.061C205.596 334.169 205.596 334.344 205.409 334.452L199.808 337.689C199.621 337.797 199.318 337.797 199.131 337.689Z" fill="#F7F7F7"/>
<path d="M206.685 342.161L200.46 338.565C200.273 338.457 200.273 338.282 200.46 338.174L206.061 334.937C206.248 334.829 206.551 334.829 206.738 334.937L212.963 338.534C213.149 338.642 213.149 338.817 212.963 338.925L207.361 342.161C207.174 342.269 206.872 342.269 206.685 342.161Z" fill="#F7F7F7"/>
<path d="M214.639 346.649L208.414 343.053C208.227 342.945 208.227 342.77 208.414 342.662L214.015 339.425C214.202 339.317 214.505 339.317 214.692 339.425L220.917 343.022C221.104 343.13 221.104 343.305 220.917 343.413L215.316 346.649C215.129 346.757 214.826 346.757 214.639 346.649Z" fill="#F7F7F7"/>
<path d="M222.159 350.995L215.934 347.398C215.748 347.29 215.748 347.115 215.934 347.007L221.536 343.771C221.722 343.663 222.025 343.663 222.212 343.771L228.437 347.367C228.624 347.475 228.624 347.65 228.437 347.758L222.836 350.995C222.649 351.103 222.346 351.103 222.159 350.995Z" fill="#F7F7F7"/>
<path d="M229.947 355.494L223.722 351.898C223.535 351.79 223.535 351.615 223.722 351.507L229.323 348.27C229.51 348.162 229.813 348.162 230 348.27L236.224 351.867C236.411 351.975 236.411 352.15 236.224 352.258L230.623 355.494C230.436 355.602 230.133 355.602 229.947 355.494Z" fill="#F7F7F7"/>
<path d="M249.155 357.825L242.93 354.229C242.743 354.121 242.743 353.946 242.93 353.838L248.531 350.601C248.718 350.493 249.021 350.493 249.208 350.601L255.432 354.198C255.619 354.306 255.619 354.481 255.432 354.589L249.831 357.825C249.644 357.933 249.341 357.933 249.155 357.825Z" fill="#F7F7F7"/>
<path d="M269.199 353.704C269.386 353.596 269.386 353.421 269.2 353.313L262.975 349.716C262.788 349.608 262.485 349.608 262.298 349.716L256.697 352.952C256.51 353.06 256.51 353.236 256.697 353.344L257.89 354.033L250.486 358.311C250.299 358.419 250.299 358.594 250.486 358.702L255.179 361.414C255.366 361.522 255.669 361.522 255.856 361.414L263.376 357.069C263.415 357.046 263.444 357.02 263.467 356.993C263.514 356.98 263.559 356.963 263.598 356.94L269.199 353.704Z" fill="#F7F7F7"/>
<path d="M270.268 352.695L260.01 346.768C259.823 346.66 259.823 346.485 260.01 346.377L265.611 343.14C265.798 343.032 266.101 343.032 266.287 343.14L276.546 349.068C276.733 349.176 276.733 349.351 276.546 349.459L270.945 352.695C270.758 352.803 270.455 352.803 270.268 352.695Z" fill="#F7F7F7"/>
<path d="M247.685 365.744L231.371 356.318C231.184 356.21 231.184 356.034 231.371 355.927L236.973 352.69C237.16 352.582 237.462 352.582 237.649 352.69L253.963 362.116C254.15 362.224 254.15 362.399 253.963 362.507L248.362 365.744C248.175 365.852 247.872 365.852 247.685 365.744Z" fill="#F7F7F7"/>
<path d="M192.702 298.939L186.477 295.342C186.29 295.234 186.29 295.059 186.477 294.951L192.078 291.715C192.265 291.607 192.568 291.607 192.755 291.715L198.979 295.312C199.166 295.42 199.166 295.595 198.979 295.703L193.378 298.939C193.191 299.047 192.888 299.047 192.702 298.939Z" fill="#F7F7F7"/>
<path d="M200.529 303.462L194.304 299.865C194.117 299.757 194.117 299.582 194.304 299.474L199.906 296.238C200.092 296.13 200.396 296.13 200.582 296.238L206.807 299.834C206.994 299.942 206.994 300.117 206.807 300.225L201.206 303.462C201.019 303.57 200.716 303.57 200.529 303.462Z" fill="#F7F7F7"/>
<path d="M208.356 307.985L202.132 304.388C201.945 304.28 201.945 304.105 202.132 303.997L207.733 300.76C207.92 300.652 208.223 300.652 208.41 300.76L214.634 304.357C214.821 304.465 214.821 304.64 214.634 304.748L209.033 307.985C208.846 308.093 208.543 308.093 208.356 307.985Z" fill="#F7F7F7"/>
<path d="M215.89 312.338L209.665 308.741C209.478 308.633 209.478 308.458 209.665 308.35L215.267 305.114C215.454 305.006 215.756 305.006 215.943 305.114L222.168 308.71C222.355 308.818 222.355 308.993 222.168 309.101L216.567 312.338C216.38 312.446 216.077 312.446 215.89 312.338Z" fill="#F7F7F7"/>
<path d="M223.74 316.873L217.515 313.277C217.328 313.169 217.328 312.993 217.515 312.885L223.116 309.649C223.303 309.541 223.606 309.541 223.793 309.649L230.018 313.246C230.205 313.354 230.205 313.529 230.018 313.637L224.417 316.873C224.23 316.981 223.927 316.981 223.74 316.873Z" fill="#F7F7F7"/>
<path d="M231.487 321.35L225.262 317.753C225.075 317.645 225.075 317.47 225.262 317.362L230.864 314.125C231.051 314.017 231.353 314.017 231.54 314.125L237.765 317.722C237.952 317.83 237.952 318.005 237.765 318.113L232.164 321.349C231.977 321.458 231.674 321.458 231.487 321.35Z" fill="#F7F7F7"/>
<path d="M239.056 325.723L232.832 322.127C232.645 322.019 232.645 321.844 232.832 321.736L238.433 318.499C238.62 318.391 238.923 318.391 239.11 318.499L245.334 322.096C245.521 322.204 245.521 322.379 245.334 322.487L239.733 325.723C239.546 325.831 239.243 325.831 239.056 325.723Z" fill="#F7F7F7"/>
<path d="M246.906 330.259L240.681 326.662C240.494 326.554 240.494 326.379 240.681 326.271L246.283 323.035C246.47 322.927 246.772 322.927 246.959 323.035L253.184 326.631C253.371 326.739 253.371 326.915 253.184 327.023L247.583 330.259C247.396 330.367 247.093 330.367 246.906 330.259Z" fill="#F7F7F7"/>
<path d="M254.613 334.712L248.389 331.116C248.202 331.008 248.202 330.832 248.389 330.724L253.99 327.488C254.177 327.38 254.48 327.38 254.667 327.488L260.891 331.085C261.078 331.193 261.078 331.368 260.891 331.476L255.29 334.712C255.103 334.82 254.8 334.82 254.613 334.712Z" fill="#F7F7F7"/>
<path d="M262.285 339.145L256.06 335.548C255.873 335.44 255.873 335.265 256.06 335.157L261.661 331.921C261.848 331.813 262.151 331.813 262.338 331.921L268.563 335.517C268.749 335.625 268.749 335.801 268.563 335.908L262.961 339.145C262.775 339.253 262.472 339.253 262.285 339.145Z" fill="#F7F7F7"/>
<path d="M270.028 343.619L263.803 340.022C263.616 339.914 263.616 339.739 263.803 339.631L269.404 336.395C269.591 336.287 269.894 336.287 270.081 336.395L276.305 339.991C276.492 340.099 276.492 340.274 276.305 340.382L270.704 343.619C270.518 343.727 270.214 343.727 270.028 343.619Z" fill="#F7F7F7"/>
<path d="M278.002 348.226L271.777 344.63C271.59 344.522 271.59 344.347 271.777 344.239L277.378 341.002C277.565 340.894 277.868 340.894 278.055 341.002L284.28 344.599C284.467 344.707 284.467 344.882 284.28 344.99L278.679 348.226C278.492 348.334 278.189 348.334 278.002 348.226Z" fill="#F7F7F7"/>
<path d="M423.514 186.37L261.706 92.8806L261.706 80.2439L423.514 173.733L423.514 186.37Z" fill="white"/>
<path d="M423.513 258.397L261.705 164.907L261.705 152.271L423.513 245.76L423.513 258.397Z" fill="white"/>
<path d="M278.011 111.176C278.011 113.737 276.215 114.775 273.998 113.495C271.782 112.214 269.986 109.1 269.986 106.539C269.986 103.978 271.782 102.94 273.999 104.22C276.215 105.501 278.011 108.615 278.011 111.176Z" stroke="#EAEAEA" stroke-width="7.115" stroke-miterlimit="10"/>
<path d="M280.347 128.429C280.628 127.62 280.789 126.711 280.789 125.736C280.789 121.402 277.749 117.535 273.998 115.368C270.248 113.201 267.208 113.555 267.207 117.889C267.207 118.864 267.368 119.959 267.65 121.093L280.347 128.429Z" stroke="#EAEAEA" stroke-width="7.115" stroke-miterlimit="10"/>
<path d="M355.823 200.335L289.238 161.864L289.239 113.026L355.823 151.497L355.823 200.335Z" stroke="#EAEAEA" stroke-width="7.115" stroke-miterlimit="10"/>
<path d="M423.513 239.445L358.779 202.043L358.78 153.205L423.513 190.607L423.513 239.445Z" stroke="#EAEAEA" stroke-width="7.115" stroke-miterlimit="10"/>
<path d="M286.184 163.094L261.705 148.951L261.706 120.663L286.185 134.806L286.184 163.094Z" fill="white"/>
<path d="M283.782 139.629L264.108 128.262L264.109 125.467L283.782 136.834L283.782 139.629Z" fill="#EAEAEA"/>
<path d="M283.782 145.515L264.108 134.148L264.109 131.353L283.782 142.72L283.782 145.515Z" fill="#EAEAEA"/>
<path d="M283.782 151.401L264.108 140.034L264.109 137.239L283.782 148.605L283.782 151.401Z" fill="#EAEAEA"/>
<path d="M273.594 148.606V151.4L264.106 145.921V143.128L273.594 148.606Z" fill="#EAEAEA"/>
<path d="M351.985 157.312L329.142 144.114V140.718L351.985 153.916V157.312Z" fill="#EAEAEA"/>
<path d="M325.997 142.296L293.077 123.276V119.881L325.997 138.901V142.296Z" fill="#EAEAEA"/>
<path d="M351.984 164.368L325.996 149.353L325.996 145.958L351.984 160.973V164.368Z" fill="#EAEAEA"/>
<path d="M323.509 147.916L307.795 138.836V135.441L323.509 144.52L323.509 147.916Z" fill="#EAEAEA"/>
<path d="M304.768 137.088L293.077 130.333L293.077 126.938L304.768 133.692V137.088Z" fill="#EAEAEA"/>
<path d="M351.984 171.425L335.196 161.725V158.329L351.984 168.03L351.984 171.425Z" fill="#EAEAEA"/>
<path d="M332.827 160.356L293.077 137.389V133.994L332.827 156.961V160.356Z" fill="#EAEAEA"/>
<path d="M351.984 178.482L322.982 161.725V158.33L351.984 175.086V178.482Z" fill="#EAEAEA"/>
<path d="M320.561 160.326L293.077 144.446V141.051L320.561 156.93L320.561 160.326Z" fill="#EAEAEA"/>
<path d="M351.984 185.538L339.321 178.222L339.321 174.827L351.984 182.143V185.538Z" fill="#EAEAEA"/>
<path d="M336.617 176.659L310.401 161.512V158.117L336.617 173.264V176.659Z" fill="#EAEAEA"/>
<path d="M307.795 160.006L293.077 151.503V148.107L307.795 156.611L307.795 160.006Z" fill="#EAEAEA"/>
<path d="M324.614 176.781L293.077 158.559L293.077 155.164L324.614 173.386V176.781Z" fill="#EAEAEA"/>
<path d="M420.082 196.657L397.641 183.691V180.296L420.083 193.262L420.082 196.657Z" fill="#EAEAEA"/>
<path d="M394.551 181.906L362.211 163.22V159.825L394.551 178.511L394.551 181.906Z" fill="#EAEAEA"/>
<path d="M420.082 203.714L394.551 188.962V185.567L420.082 200.319V203.714Z" fill="#EAEAEA"/>
<path d="M392.108 187.551L376.67 178.631V175.236L392.108 184.155V187.551Z" fill="#EAEAEA"/>
<path d="M373.696 176.913L362.211 170.277V166.882L373.696 173.518V176.913Z" fill="#EAEAEA"/>
<path d="M420.082 210.771L403.589 201.241V197.846L420.082 207.375V210.771Z" fill="#EAEAEA"/>
<path d="M401.261 199.896L362.211 177.334L362.211 173.938L401.261 196.501V199.896Z" fill="#EAEAEA"/>
<path d="M420.082 217.827L391.59 201.365V197.97L420.082 214.432L420.082 217.827Z" fill="#EAEAEA"/>
<path d="M389.211 199.991L362.211 184.39V180.995L389.211 196.595V199.991Z" fill="#EAEAEA"/>
<path d="M420.082 224.884L407.642 217.696L407.642 214.301L420.082 221.489V224.884Z" fill="#EAEAEA"/>
<path d="M404.985 216.161L379.23 201.28L379.23 197.885L404.985 212.766V216.161Z" fill="#EAEAEA"/>
<path d="M376.67 199.801L362.21 191.447V188.052L376.67 196.406V199.801Z" fill="#EAEAEA"/>
<path d="M393.193 216.405L362.21 198.504V195.108L393.193 213.01V216.405Z" fill="#EAEAEA"/>
<path d="M140.492 102.179L133.347 106.308L133.347 91.2934L140.492 87.165L140.492 102.179Z" fill="url(#paint23_linear_61_2086)"/>
<path d="M140.492 119.759L133.347 123.887L133.347 108.873L140.492 104.744L140.492 119.759Z" fill="#FFC933"/>
<path d="M140.493 137.338L133.347 141.467L133.347 126.453L140.492 122.324L140.493 137.338Z" fill="#FFC933"/>
<path d="M140.493 154.918L133.347 159.046L133.347 144.032L140.493 139.904L140.493 154.918Z" fill="#FFC933"/>
<path d="M140.493 172.497L133.348 176.626L133.348 161.612L140.493 157.483L140.493 172.497Z" fill="#FFC933"/>
<path d="M155.337 128.762L148.191 132.89L148.191 117.876L155.336 113.747L155.337 128.762Z" fill="url(#paint24_linear_61_2086)"/>
<path d="M155.337 146.341L148.191 150.47L148.191 135.455L155.337 131.327V146.341Z" fill="#FFC933"/>
<path d="M155.337 163.921L148.192 168.049L148.191 153.035L155.337 148.907L155.337 163.921Z" fill="#FFC933"/>
<path d="M170.181 155.344L163.036 159.472L163.035 144.458L170.181 140.33L170.181 155.344Z" fill="url(#paint25_linear_61_2086)"/>
<path d="M185.025 94.0287L177.879 98.1573V83.1432L185.024 79.0146L185.025 94.0287Z" fill="url(#paint26_linear_61_2086)"/>
<path d="M185.025 111.608L177.879 115.737L177.879 100.723L185.025 96.5942L185.025 111.608Z" fill="#FFC933"/>
<path d="M185.025 129.188L177.88 133.316L177.879 118.302L185.025 114.174L185.025 129.188Z" fill="#FFC933"/>
<path d="M185.025 146.768L177.88 150.896L177.88 135.882L185.025 131.753L185.025 146.768Z" fill="#FFC933"/>
<path d="M199.869 120.611L192.724 124.74L192.723 109.726L199.869 105.597L199.869 120.611Z" fill="#FFC933"/>
<path d="M199.869 138.191L192.724 142.319L192.724 127.305L199.869 123.177L199.869 138.191Z" fill="#FFC933"/>
<path d="M214.713 76.8756L207.567 81.004L207.567 65.9899L214.713 61.8616L214.713 76.8756Z" fill="url(#paint27_linear_61_2086)"/>
<path d="M214.713 94.455L207.567 98.5835V83.5695L214.713 79.4409L214.713 94.455Z" fill="#FFC933"/>
<path d="M214.713 112.035L207.568 116.163L207.568 101.149L214.713 97.0205L214.713 112.035Z" fill="#FFC933"/>
<path d="M214.713 129.614L207.568 133.743L207.568 118.728L214.713 114.6L214.713 129.614Z" fill="#FFC933"/>
<path d="M131.481 196.621L125.581 200.03V193.212L131.481 189.803V196.621Z" stroke="#CDCDCD" stroke-width="3.919" stroke-miterlimit="10" stroke-linejoin="round"/>
<path d="M173.074 168.312L134.654 190.511V187.705L173.074 165.507V168.312Z" fill="url(#paint28_linear_61_2086)"/>
<path d="M146.939 187.955L134.654 195.053V192.247L146.939 185.149L146.939 187.955Z" fill="url(#paint29_linear_61_2086)"/>
<path d="M126.541 195.801L127.894 197.148L130.815 191.734" stroke="#CDCDCD" stroke-width="3.919" stroke-miterlimit="10" stroke-linecap="round" stroke-linejoin="round"/>
<path d="M131.481 208.773L125.581 212.182V205.364L131.481 201.955V208.773Z" stroke="#CDCDCD" stroke-width="3.919" stroke-miterlimit="10" stroke-linejoin="round"/>
<path d="M173.074 180.464L134.654 202.662V199.856L173.074 177.658L173.074 180.464Z" fill="url(#paint30_linear_61_2086)"/>
<path d="M157.104 194.233L134.654 207.204V204.399L157.104 191.428V194.233Z" fill="url(#paint31_linear_61_2086)"/>
<path d="M126.541 207.952L127.894 209.3L130.815 203.885" stroke="#CDCDCD" stroke-width="3.919" stroke-miterlimit="10" stroke-linecap="round" stroke-linejoin="round"/>
<path d="M131.481 220.925L125.581 224.334V217.515L131.481 214.106V220.925Z" stroke="#CDCDCD" stroke-width="3.919" stroke-miterlimit="10" stroke-linejoin="round"/>
<path d="M173.074 192.615L134.654 214.814V212.008L173.074 189.81L173.074 192.615Z" fill="url(#paint32_linear_61_2086)"/>
<path d="M151.145 209.828L134.654 219.356V216.551L151.145 207.022V209.828Z" fill="url(#paint33_linear_61_2086)"/>
<path d="M126.541 220.104L127.894 221.451L130.815 216.037" stroke="#CDCDCD" stroke-width="3.919" stroke-miterlimit="10" stroke-linecap="round" stroke-linejoin="round"/>
<path d="M131.481 233.076L125.581 236.485L125.581 229.667L131.481 226.258V233.076Z" stroke="#CDCDCD" stroke-width="3.919" stroke-miterlimit="10" stroke-linejoin="round"/>
<path d="M173.074 204.767L134.655 226.965V224.16L173.074 201.961V204.767Z" fill="url(#paint34_linear_61_2086)"/>
<path d="M162.432 215.458L134.655 231.508V228.702L162.432 212.653V215.458Z" fill="url(#paint35_linear_61_2086)"/>
<path d="M126.541 232.255L127.894 233.603L130.815 228.188" stroke="#CDCDCD" stroke-width="3.919" stroke-miterlimit="10" stroke-linecap="round" stroke-linejoin="round"/>
<path d="M187.79 164.087L181.89 167.496V160.678L187.79 157.269L187.79 164.087Z" stroke="#CDCDCD" stroke-width="3.919" stroke-miterlimit="10" stroke-linejoin="round"/>
<path d="M229.383 135.778L190.963 157.976V155.17L229.383 132.972V135.778Z" fill="url(#paint36_linear_61_2086)"/>
<path d="M203.248 155.42L190.964 162.518V159.713L203.248 152.615V155.42Z" fill="url(#paint37_linear_61_2086)"/>
<path d="M182.85 163.266L184.203 164.614L187.124 159.199" stroke="#CDCDCD" stroke-width="3.919" stroke-miterlimit="10" stroke-linejoin="round"/>
<path d="M187.791 176.239L181.89 179.648L181.89 172.829L187.79 169.42L187.791 176.239Z" stroke="#CDCDCD" stroke-width="3.919" stroke-miterlimit="10" stroke-linejoin="round"/>
<path d="M229.383 147.929L190.964 170.128V167.322L229.383 145.124V147.929Z" fill="url(#paint38_linear_61_2086)"/>
<path d="M213.413 161.699L190.964 174.67V171.864L213.413 158.893V161.699Z" fill="url(#paint39_linear_61_2086)"/>
<path d="M182.851 175.418L184.204 176.765L187.125 171.351" stroke="#CDCDCD" stroke-width="3.919" stroke-miterlimit="10" stroke-linejoin="round"/>
<path d="M187.791 188.39L181.89 191.799L181.89 184.981L187.791 181.572V188.39Z" stroke="#CDCDCD" stroke-width="3.919" stroke-miterlimit="10" stroke-linejoin="round"/>
<path d="M229.384 160.081L190.964 182.279V179.474L229.384 157.275V160.081Z" fill="url(#paint40_linear_61_2086)"/>
<path d="M207.455 177.293L190.964 186.822V184.016L207.455 174.488L207.455 177.293Z" fill="url(#paint41_linear_61_2086)"/>
<path d="M182.851 187.569L184.204 188.917L187.125 183.502" stroke="#CDCDCD" stroke-width="3.919" stroke-miterlimit="10" stroke-linejoin="round"/>
<path d="M187.791 200.542L181.891 203.951L181.89 197.132L187.791 193.723L187.791 200.542Z" stroke="#CDCDCD" stroke-width="3.919" stroke-miterlimit="10" stroke-linejoin="round"/>
<path d="M229.384 172.232L190.964 194.431V191.625L229.384 169.427V172.232Z" fill="url(#paint42_linear_61_2086)"/>
<path d="M218.742 182.924L190.964 198.973V196.167L218.742 180.118V182.924Z" fill="url(#paint43_linear_61_2086)"/>
<path d="M182.851 199.721L184.204 201.068L187.125 195.654" stroke="#CDCDCD" stroke-width="3.919" stroke-miterlimit="10" stroke-linejoin="round"/>
<g opacity="0.7">
<path d="M375.67 280.639C372.734 280.639 370 279.942 367.571 278.538C361.794 275.2 358.612 268.37 358.612 259.307C358.612 251.164 361.229 241.915 365.983 233.264C371.248 223.682 378.442 215.923 386.239 211.419C390.229 209.114 394.13 207.807 397.835 207.534C401.535 207.262 404.999 208.068 407.85 209.864C413.312 213.304 416.32 220.029 416.32 228.8C416.32 237.373 413.457 247.057 408.259 256.068C403.06 265.078 396.112 272.401 388.693 276.688C384.148 279.314 379.716 280.639 375.67 280.639ZM399.244 212.377C396.07 212.377 392.48 213.483 388.692 215.671C381.762 219.675 375.052 226.95 370.282 235.63C365.92 243.569 363.518 251.977 363.518 259.307C363.518 266.542 365.829 271.862 370.024 274.286C374.22 276.71 379.979 276.053 386.24 272.436C400.121 264.415 411.414 244.84 411.414 228.8C411.414 221.777 409.22 216.528 405.237 214.019C403.495 212.922 401.472 212.377 399.244 212.377Z" fill="url(#paint44_linear_61_2086)"/>
<path d="M368.133 234.447C372.953 225.675 379.831 217.956 387.466 213.545C394.967 209.211 401.737 208.914 406.543 211.942" stroke="#FA9F11" stroke-width="28.415" stroke-miterlimit="10" stroke-linejoin="round"/>
<path d="M403.913 234.55C403.913 245.047 396.55 257.811 387.466 263.059C378.383 268.308 371.019 264.053 371.019 253.556C371.018 243.059 378.382 230.295 387.466 225.047" stroke="#FA9F11" stroke-width="28.415" stroke-miterlimit="10" stroke-linejoin="round"/>
<path d="M379.122 248.874C379.122 243.549 382.858 237.074 387.466 234.412C392.074 231.749 395.809 233.908 395.809 239.233C395.809 244.557 392.074 251.032 387.466 253.695" stroke="#E5E5E5" stroke-width="11" stroke-miterlimit="10" stroke-linejoin="round"/>
</g>
<g opacity="0.7">
<path d="M406.543 304.741C406.544 316.917 398.002 331.722 387.466 337.81C376.93 343.897 368.389 338.962 368.389 326.787C368.388 320.987 370.327 314.59 373.496 308.823C376.979 302.484 381.949 296.906 387.466 293.718C392.886 290.587 397.779 290.372 401.252 292.56C404.529 294.625 406.543 298.83 406.543 304.741Z" stroke="#E5E5E5" stroke-width="20.533" stroke-miterlimit="10" stroke-linejoin="round"/>
<path d="M373.495 308.823C376.979 302.484 381.949 296.906 387.466 293.718C392.886 290.587 397.778 290.372 401.252 292.56" stroke="#FA9F11" stroke-width="20.533" stroke-miterlimit="10" stroke-linejoin="round"/>
<path d="M399.351 308.897C399.351 316.482 394.03 325.706 387.466 329.498C380.902 333.291 375.581 330.216 375.581 322.631C375.581 315.046 380.902 305.823 387.466 302.03" stroke="#FA9F11" stroke-width="20.533" stroke-miterlimit="10" stroke-linejoin="round"/>
<path d="M381.437 319.247C381.437 315.399 384.136 310.721 387.466 308.797C390.795 306.873 393.495 308.433 393.495 312.28C393.495 316.128 390.796 320.807 387.466 322.731" stroke="#E5E5E5" stroke-width="11" stroke-miterlimit="10" stroke-linejoin="round"/>
</g>
<path d="M252.534 184.596C246.63 184.907 237.817 184.359 236.002 181.126C235.7 180.577 235.559 179.679 235.559 178.526C235.559 174.216 237.476 166.378 239.715 160.593C239.715 160.593 241.945 154.381 243.362 151.658C244.211 150.042 246.989 149.352 249.095 149.059C250.522 148.86 251.628 148.851 251.628 148.851C251.628 148.851 251.315 149.314 250.834 150.004C250.362 153.219 248.879 162.672 247.575 164.818C246.006 167.418 243.948 175.284 244.59 176.56C244.948 177.288 248.435 178.129 251.061 178.669C252.723 179.009 254.036 179.236 254.036 179.236L254.272 180.181C254.272 180.181 258.438 184.274 252.534 184.596Z" fill="#E1E8F2"/>
<path opacity="0.56" d="M251.061 178.669C250.863 178.885 250.746 179.442 250.48 179.442C247.118 179.442 244.272 177.482 244.272 177.482C243.242 179.506 240.537 180.455 240.206 180.597C243.324 178.479 243.662 177.172 243.662 174.902C243.662 172.7 245.278 168.685 245.382 168.411C245.325 168.458 245.439 168.306 244.609 169.128C243.909 169.829 242.011 171.039 241.057 171.634C243.853 169.838 245.256 167.221 245.256 167.221C245.256 167.221 244.624 165.413 245.059 157.491C245.351 152.178 247.292 149.721 249.095 149.058C250.522 148.86 251.627 148.851 251.627 148.851C251.627 148.851 251.315 149.314 250.834 150.004C250.361 153.219 248.879 162.672 247.575 164.818C246.006 167.418 243.948 175.284 244.589 176.56C244.948 177.288 248.435 178.129 251.061 178.669Z" fill="#D0D8E2"/>
<path d="M248.68 272.668C248.68 272.668 247.204 276.805 249.152 278.754C251.1 280.705 253.639 278.754 257.005 277.041C260.37 275.328 263.62 274.087 263.62 274.087L262.968 266.818H262.259C262.259 266.818 257.359 269.714 255.293 269.36C253.226 269.006 248.68 272.668 248.68 272.668Z" fill="#04242B"/>
<path d="M262.575 278.934C262.575 278.934 261.394 282.124 261.394 284.134C261.394 286.143 263.755 287.404 267.573 286.222C271.391 285.04 277.453 282.402 279.972 280.904C282.491 279.407 282.097 277.477 281.192 275.783C280.287 274.089 279.46 273.577 276.076 274.483C272.69 275.388 269.62 275.782 268.754 275.271C267.888 274.759 262.575 278.934 262.575 278.934Z" fill="#04242B"/>
<path d="M249.875 201.226C249.875 201.226 250.451 227.231 250.451 232.194C250.451 237.158 247.381 241.412 247.381 250.275C247.381 259.138 248.444 267.647 248.444 269.853C248.444 272.059 248.129 272.689 248.129 272.689C248.129 272.689 248.562 274.186 251.593 272.926C254.624 271.665 256.119 269.538 256.119 269.538C256.119 269.538 257.744 251.843 259.397 244.399C261.051 236.953 264.385 229.24 264.385 229.24L265.189 202.413C265.189 202.413 249.875 197.391 249.875 201.226Z" fill="#05313F"/>
<path d="M256.355 205.233C256.355 205.233 258.008 209.842 260.96 213.86C263.913 217.878 262.496 234.304 262.496 240.33C262.496 246.357 261.315 250.73 261.315 258.765C261.315 266.802 262.673 274.897 262.318 277.024C261.964 279.151 261.964 279.151 261.964 279.151C261.964 279.151 265.27 281.337 267.101 279.505C268.932 277.674 269.463 275.842 269.463 275.842C269.463 275.842 271.273 256.916 272.69 249.667C274.107 242.42 276.784 235.172 276.784 229.814C276.784 224.457 279.233 212.797 277.477 205.234C275.721 197.67 256.355 205.233 256.355 205.233Z" fill="#083F4C"/>
<path d="M296.031 186.129C296.031 186.129 296.68 185.42 296.68 184.534C296.68 183.648 297.35 182.308 298.039 180.713C298.727 179.117 299.652 176.911 300.597 177.246C301.542 177.581 301.109 178.879 300.951 179.786C300.793 180.693 300.321 182.268 301.994 181.481C303.667 180.693 305.832 178.9 306.423 178.526C307.012 178.152 307.839 178.448 307.288 179.452C306.737 180.457 306.737 180.457 306.737 180.457C306.737 180.457 307.466 179.59 307.682 180.575C307.898 181.56 307.012 182.289 307.012 182.289C307.012 182.289 307.328 182.229 307.328 183.156C307.328 184.081 306.442 184.671 306.442 184.671C306.442 184.671 307.662 184.908 306.797 185.775C305.931 186.641 303.588 188.778 301.522 189.103C299.455 189.428 297.123 190.964 297.123 190.964L296.031 186.129Z" fill="#FFC77D"/>
<path d="M256.119 145.894C256.119 145.894 256.444 148.244 255.352 149.337C255.352 149.337 255.233 151.878 259.898 152.351C264.562 152.823 265.861 152.351 265.861 152.351C265.861 152.351 265.683 147.565 267.022 146.895C268.36 146.226 269.412 145.894 269.412 145.894L268.076 139.004C268.076 139.004 264.389 139.809 263.62 139.809C262.85 139.81 256.119 143.593 256.119 145.894Z" fill="#FFCB8D"/>
<path d="M274.673 130.769C274.673 130.769 275.096 134.226 274.25 136.496C273.404 138.766 272.564 140.838 272.788 142.697C273.01 144.556 270.481 146.596 269.118 146.926C267.755 147.257 266.863 146.943 266.386 146.314C265.909 145.686 265.979 144.552 266.105 143.633C266.23 142.715 264.763 142.99 264.656 141.147C264.551 139.305 272.906 128.44 274.673 130.769Z" fill="#FFC77D"/>
<path d="M255.581 121.777C255.581 121.777 247.863 126.805 249.76 133.862C251.657 140.92 253.909 144.21 254.153 145.913C254.398 147.616 257.758 149.189 260.733 147.767C263.708 146.345 264.854 142.606 268.194 140.836C271.535 139.067 271.976 132.925 274.242 132.042C276.508 131.159 275.409 128.146 273.928 126.194C272.447 124.243 269.217 120.541 266.023 120.66C262.829 120.78 262.513 120.18 260.705 119.456C258.897 118.732 256.766 121.542 255.581 121.777Z" fill="#074B67"/>
<path d="M270.259 136.959C270.259 136.959 271.234 139.234 270.584 141.774C269.935 144.315 269.876 141.124 269.876 140.415C269.876 139.706 269.285 139.462 268.459 139.85C267.632 140.238 268.223 138.436 268.223 138.436C268.223 138.436 270.259 136.457 270.259 136.959Z" fill="#074B67"/>
<path d="M297.679 193.019C297.679 193.019 287.411 200.629 283.755 201.887C280.09 203.144 278.833 200.629 277.926 197.67C277.076 194.91 276.018 192.896 275.886 192.66L275.877 192.631C275.877 192.631 276.197 198.502 277.019 201.159C277.842 203.816 278.437 208.94 270.586 209.564C263.615 210.121 256.473 207.522 253.347 205.942C250.512 204.515 248.264 203.05 248.557 199.977C248.859 196.905 251.202 192.546 251.202 186.09C251.202 179.633 248.605 174.905 247.424 171.672C246.242 168.439 245.969 168.004 245.969 160.091C245.969 152.178 247.772 147.168 255.349 149.342C262.925 151.507 264.144 151.545 265.863 152.348C265.863 152.348 269.67 155.724 273.335 159.572C274.167 160.432 274.988 161.32 275.763 162.2C277.888 164.619 279.618 166.964 280.014 168.524C281.195 173.166 282.688 180.965 284.029 184.832C285.361 188.689 285.125 190.816 288.119 189.795C291.114 188.764 296.111 185.739 296.111 185.739C296.111 185.739 297.056 187.47 297.367 189.36C297.575 190.646 297.651 191.866 297.67 192.527V192.555C297.679 192.849 297.679 193.019 297.679 193.019Z" fill="#E1E8F2"/>
<path opacity="0.56" d="M297.67 192.527C297.406 191.053 296.036 186.76 296.036 186.76C296.036 186.76 294.062 187.545 291.313 188.888C288.554 190.221 286.741 191.289 286.741 191.289C286.741 191.289 286.155 193.341 285.324 195.704C284.549 197.916 282.008 199.599 281.687 199.806C281.752 199.731 281.988 199.494 282.745 198.73C283.841 197.641 286.193 191.884 285.446 191.129C284.7 190.381 282.055 184.983 280.015 174.744C277.965 164.507 273.912 162.484 273.912 162.484C273.128 161.708 273.015 160.64 273.336 159.572C274.167 160.432 274.989 161.32 275.764 162.2C277.889 164.62 279.618 166.964 280.015 168.524C281.195 173.166 282.688 180.966 284.03 184.832C285.361 188.689 285.126 190.817 288.12 189.795C291.115 188.765 296.111 185.739 296.111 185.739C296.111 185.739 297.056 187.47 297.368 189.36C297.576 190.646 297.651 191.866 297.67 192.527Z" fill="#D0D8E2"/>
<path d="M270.587 209.563C270 209.611 269.425 209.629 268.839 209.639C262.454 209.696 256.209 207.389 253.347 205.942C250.512 204.515 248.264 203.05 248.558 199.977C248.859 196.905 251.202 192.546 251.202 186.09C251.202 179.632 248.605 174.905 247.424 171.672C246.242 168.439 245.969 168.004 245.969 160.091C245.969 154.57 246.848 150.458 249.955 149.228C249.965 149.219 249.965 149.219 249.965 149.219C251.315 148.68 253.072 148.69 255.349 149.342C262.925 151.507 264.144 151.545 265.863 152.348C265.863 152.348 271.579 157.425 275.763 162.2C275.763 162.2 267.573 161.859 270.057 173.449C272.533 185.021 275.877 192.631 275.877 192.631C275.877 192.631 276.197 198.502 277.019 201.159C277.842 203.816 278.437 208.939 270.587 209.563Z" fill="#F9F9F9"/>
<path d="M251.627 194.068C251.099 195.836 249.001 201.3 251.751 204.052C254.49 206.794 264.815 209.015 268.839 209.639C262.454 209.696 256.209 207.389 253.347 205.942C250.512 204.515 248.264 203.05 248.558 199.977C248.859 196.905 251.202 192.546 251.202 186.09C251.202 179.632 248.605 174.904 247.424 171.672C246.242 168.439 245.969 168.004 245.969 160.091C245.969 154.57 246.848 150.457 249.955 149.228C249.709 149.559 244.589 156.612 248.047 168.996C251.59 181.674 252.147 181.91 252.534 186.326C252.931 190.74 257.021 192.706 262.538 194.834C267.573 196.781 272.098 196.687 272.826 196.658C272.042 196.735 266.94 197.113 261.14 195.543C254.82 193.832 252.157 192.291 251.627 194.068Z" fill="#E1E8F2"/>
<path d="M252.862 149.062C252.862 149.062 253.757 147.534 257.107 148.55C260.457 149.567 265.309 148.786 266.753 150C268.197 151.214 268.356 154.637 268.356 154.637C268.356 154.637 264.558 152.023 261.122 151.619C257.685 151.214 252.978 149.309 252.862 149.062Z" fill="#E1E8F2"/>
<path d="M250.014 136.198C252.341 139.74 264.54 139.12 267.843 137.443C271.145 135.765 272.897 135.52 274.779 133.449C277.01 130.994 274.294 126.106 274.294 126.106C274.294 126.106 279.497 132.316 274.649 134.878C274.649 134.878 280.234 134.542 277.545 127.193C274.856 119.844 266.168 115.135 258.774 118.188C251.379 121.242 244.812 128.901 248.897 136.767C248.897 136.767 246.725 129.638 250.914 125.679C250.914 125.679 247.912 130.57 250.014 136.198Z" fill="#073847"/>
<path d="M340.086 240.067L289.497 269.297V264.743L340.086 235.514V240.067Z" fill="url(#paint45_linear_61_2086)"/>
<path d="M340.086 249.885L289.497 279.114V274.561L340.086 245.331V249.885Z" fill="url(#paint46_linear_61_2086)"/>
<path d="M340.086 259.702L289.497 288.932V284.378L340.086 255.149V259.702Z" fill="url(#paint47_linear_61_2086)"/>
<path d="M340.087 269.52L289.497 298.75V294.196L340.087 264.966V269.52Z" fill="url(#paint48_linear_61_2086)"/>
<path d="M340.087 279.337L289.497 308.567V304.013L340.087 274.784L340.087 279.337Z" fill="url(#paint49_linear_61_2086)"/>
<path d="M340.086 289.292L312.365 305.309L312.365 300.755L340.086 284.739V289.292Z" fill="url(#paint50_linear_61_2086)"/>
<path d="M340.087 306.27L289.497 335.5L289.497 330.946L340.087 301.716L340.087 306.27Z" fill="url(#paint51_linear_61_2086)"/>
<path d="M340.087 316.087L289.498 345.317L289.497 340.763L340.087 311.534V316.087Z" fill="url(#paint52_linear_61_2086)"/>
<path d="M340.087 325.905L289.498 355.135V350.581L340.087 321.351V325.905Z" fill="url(#paint53_linear_61_2086)"/>
<path d="M340.088 335.722L289.498 364.952V360.399L340.088 331.169V335.722Z" fill="url(#paint54_linear_61_2086)"/>
<path d="M340.088 345.145L312.366 361.162L312.366 356.608L340.088 340.591V345.145Z" fill="url(#paint55_linear_61_2086)"/>
<g opacity="0.85">
<path d="M337.153 226.692L287.578 255.336L287.577 223.402L337.152 194.759L337.153 226.692Z" fill="#FFC933"/>
<path d="M332.732 204.382L295.242 226.043V224.492L332.732 202.831V204.382Z" fill="white"/>
<path d="M332.732 207.758L295.242 229.419V227.868L332.732 206.207V207.758Z" fill="white"/>
<path d="M332.732 211.135L295.242 232.795V231.244L332.732 209.583V211.135Z" fill="white"/>
<path d="M332.732 214.511L295.243 236.171V234.62L332.732 212.96L332.732 214.511Z" fill="white"/>
<path d="M332.732 217.887L295.243 239.548V237.996L332.732 216.336V217.887Z" fill="white"/>
<path d="M332.732 221.263L295.243 242.924V241.373L332.732 219.712V221.263Z" fill="white"/>
<path d="M291.998 227.917L293.696 226.936V225.385L291.998 226.366V227.917Z" fill="white"/>
<path d="M291.998 231.293L293.696 230.312V228.761L291.998 229.742V231.293Z" fill="white"/>
<path d="M291.998 234.669L293.696 233.688V232.137L291.998 233.118V234.669Z" fill="white"/>
<path d="M291.998 238.046L293.696 237.065V235.514L291.998 236.495V238.046Z" fill="white"/>
<path d="M291.998 241.422L293.696 240.441V238.89L291.998 239.871V241.422Z" fill="white"/>
<path d="M291.998 244.798L293.696 243.817V242.266L291.998 243.247V244.798Z" fill="white"/>
<path d="M291.998 248.175L293.696 247.194L293.696 245.642L291.998 246.623V248.175Z" fill="white"/>
<path d="M316.158 234.216L295.243 246.3V244.749L316.157 232.665L316.158 234.216Z" fill="white"/>
</g>
<path d="M218.36 248.861H214.963C214.897 248.799 214.831 248.736 214.763 248.674C214.645 248.74 214.523 248.801 214.4 248.861H213.829V249.114C211.199 250.161 207.727 250.09 205.566 248.842C203.136 247.438 203.281 245.075 205.852 243.525C205.837 243.519 205.822 243.514 205.808 243.509H205.852V238.698H200.41V241.994C199.348 241.774 198.268 241.592 197.176 241.447C197.095 243.599 194.309 245.324 190.872 245.324C187.438 245.323 184.648 243.596 184.57 241.448C183.696 241.564 182.83 241.704 181.974 241.868V238.697H175.892V243.509H175.932C175.919 243.514 175.905 243.519 175.892 243.523C178.464 245.077 178.607 247.439 176.179 248.842C174.658 249.721 172.483 250.016 170.411 249.748V248.861H167.343C167.22 248.801 167.098 248.74 166.98 248.674C166.912 248.736 166.847 248.799 166.781 248.861H163.383V253.698H163.74C167.293 253.838 170.094 255.409 170.092 257.33C170.093 258.009 169.743 258.644 169.135 259.188V256.145H163.385V260.974H163.386C164.077 262.725 165.276 264.419 166.98 265.986C169.664 264.499 173.749 264.417 176.177 265.821C176.441 265.973 176.672 266.137 176.875 266.31H175.892V271.127H175.906C175.901 271.13 175.897 271.133 175.892 271.137C178.603 272.121 181.54 272.814 184.57 273.213C184.648 271.065 187.438 269.338 190.871 269.338C194.307 269.337 197.095 271.064 197.175 273.214C200.205 272.812 203.14 272.122 205.852 271.137C205.847 271.133 205.842 271.13 205.837 271.127H205.852V266.31H204.868C205.071 266.137 205.303 265.973 205.566 265.821C207.994 264.417 212.079 264.5 214.768 265.986C216.47 264.42 217.669 262.723 218.36 260.973C218.096 260.969 217.836 260.957 217.579 260.939H218.36V256.146H212.232V258.797C211.86 258.348 211.651 257.852 211.651 257.33C211.651 255.344 214.642 253.734 218.36 253.688C218.356 253.679 218.353 253.67 218.349 253.661H218.36V248.861ZM199.273 262.185C194.634 264.865 187.112 264.864 182.475 262.184C177.834 259.503 177.832 255.156 182.473 252.476C187.11 249.796 194.632 249.797 199.273 252.476C203.912 255.157 203.912 259.504 199.273 262.185Z" fill="url(#paint56_linear_61_2086)"/>
<path d="M166.98 243.847C165.276 245.416 164.078 247.11 163.383 248.861C167.104 248.907 170.095 250.518 170.093 252.503C170.095 254.488 167.104 256.101 163.385 256.145C164.076 257.897 165.276 259.592 166.98 261.159C169.664 259.672 173.749 259.59 176.177 260.995C178.607 262.398 178.467 264.759 175.892 266.31C178.603 267.294 181.54 267.987 184.57 268.386C184.649 266.239 187.438 264.511 190.872 264.511C194.307 264.51 197.095 266.237 197.176 268.387C200.206 267.985 203.14 267.295 205.852 266.31C203.281 264.759 203.138 262.397 205.566 260.995C207.994 259.59 212.079 259.673 214.768 261.159C216.47 259.593 217.669 257.896 218.36 256.146C214.642 256.099 211.651 254.488 211.651 252.503C211.651 250.517 214.642 248.907 218.36 248.861C217.669 247.11 216.47 245.414 214.764 243.847C212.081 245.334 207.994 245.419 205.566 244.015C203.136 242.611 203.281 240.248 205.852 238.698C203.14 237.713 200.206 237.02 197.176 236.621C197.095 238.772 194.309 240.497 190.872 240.497C187.438 240.496 184.649 238.769 184.57 236.622C181.54 237.02 178.603 237.713 175.892 238.697C178.464 240.25 178.607 242.611 176.179 244.015C173.753 245.417 169.664 245.335 166.98 243.847ZM182.473 247.65C187.11 244.969 194.632 244.97 199.273 247.65C203.912 250.33 203.912 254.678 199.273 257.358C194.634 260.038 187.112 260.037 182.475 257.357C177.834 254.676 177.832 250.329 182.473 247.65Z" fill="url(#paint57_linear_61_2086)"/>
<path d="M232.096 271.948H230.112C230.073 271.912 230.035 271.875 229.996 271.839C229.926 271.878 229.852 271.913 229.779 271.948H229.45V272.094C227.914 272.706 225.887 272.666 224.625 271.937C223.206 271.117 223.29 269.737 224.792 268.832C224.783 268.829 224.774 268.826 224.766 268.823H224.792V266.013H221.614V267.939C220.994 267.81 220.363 267.703 219.725 267.619C219.678 268.875 218.051 269.883 216.044 269.883C214.039 269.882 212.41 268.874 212.364 267.62C211.853 267.687 211.348 267.77 210.848 267.866V266.013H207.297V268.823H207.321C207.313 268.826 207.304 268.828 207.297 268.831C208.799 269.738 208.882 271.117 207.464 271.937C206.576 272.451 205.306 272.623 204.096 272.466V271.949H202.309C202.236 271.913 202.162 271.878 202.093 271.839C202.053 271.876 202.015 271.912 201.976 271.949H199.992V274.773H200.2C202.276 274.855 203.911 275.772 203.91 276.894C203.911 277.29 203.706 277.661 203.351 277.979V276.202H199.993V279.022H199.994C200.397 280.044 201.098 281.034 202.093 281.949C203.66 281.08 206.045 281.032 207.463 281.852C207.617 281.941 207.752 282.037 207.871 282.138H207.297V284.951H207.305C207.302 284.952 207.299 284.954 207.297 284.956C208.88 285.531 210.595 285.936 212.364 286.168C212.41 284.914 214.039 283.906 216.044 283.906C218.05 283.905 219.678 284.914 219.725 286.169C221.495 285.935 223.208 285.532 224.792 284.956C224.789 284.954 224.786 284.952 224.783 284.951H224.792V282.138H224.218C224.336 282.037 224.471 281.941 224.625 281.852C226.043 281.032 228.428 281.081 229.998 281.949C230.992 281.034 231.693 280.043 232.096 279.021C231.942 279.019 231.79 279.012 231.64 279.001H232.096V276.203H228.518V277.75C228.3 277.488 228.178 277.199 228.178 276.894C228.178 275.734 229.925 274.794 232.096 274.767C232.094 274.762 232.092 274.757 232.09 274.752H232.096L232.096 271.948ZM220.95 279.729C218.241 281.294 213.848 281.293 211.141 279.728C208.43 278.163 208.429 275.624 211.139 274.059C213.847 272.494 218.24 272.495 220.95 274.059C223.659 275.625 223.659 278.163 220.95 279.729Z" fill="#EAB91F"/>
<path d="M202.092 269.021C201.097 269.937 200.398 270.926 199.992 271.948C202.165 271.975 203.911 272.916 203.91 274.075C203.911 275.234 202.165 276.176 199.993 276.202C200.396 277.225 201.097 278.215 202.092 279.13C203.66 278.261 206.045 278.214 207.463 279.034C208.882 279.853 208.8 281.232 207.296 282.138C208.88 282.712 210.594 283.117 212.364 283.35C212.41 282.096 214.039 281.087 216.044 281.087C218.05 281.087 219.678 282.095 219.725 283.351C221.495 283.116 223.208 282.713 224.792 282.138C223.29 281.232 223.207 279.853 224.625 279.034C226.043 278.214 228.428 278.262 229.998 279.13C230.992 278.215 231.692 277.225 232.096 276.203C229.924 276.175 228.178 275.234 228.178 274.075C228.178 272.915 229.924 271.975 232.096 271.948C231.692 270.926 230.992 269.936 229.996 269.021C228.429 269.889 226.043 269.938 224.625 269.118C223.206 268.298 223.29 266.919 224.792 266.013C223.208 265.438 221.495 265.034 219.725 264.8C219.678 266.057 218.051 267.064 216.044 267.064C214.039 267.064 212.41 266.055 212.364 264.801C210.594 265.034 208.88 265.438 207.296 266.013C208.799 266.92 208.882 268.299 207.464 269.118C206.048 269.937 203.66 269.889 202.092 269.021ZM211.139 271.241C213.847 269.676 218.24 269.676 220.95 271.241C223.659 272.806 223.659 275.345 220.95 276.91C218.241 278.475 213.848 278.475 211.141 276.91C208.43 275.344 208.429 272.805 211.139 271.241Z" fill="#F5D451"/>
<defs>
<linearGradient id="paint0_linear_61_2086" x1="84.8839" y1="117.673" x2="118.406" y2="131.242" gradientUnits="userSpaceOnUse">
<stop stop-color="#25D366"/>
<stop offset="1" stop-color="#009036"/>
</linearGradient>
<linearGradient id="paint1_linear_61_2086" x1="86.0403" y1="125.595" x2="106.813" y2="125.595" gradientUnits="userSpaceOnUse">
<stop stop-color="#E2E3E5"/>
<stop offset="1" stop-color="#EFEFEF"/>
</linearGradient>
<linearGradient id="paint2_linear_61_2086" x1="86.0403" y1="128.272" x2="106.813" y2="128.272" gradientUnits="userSpaceOnUse">
<stop stop-color="#E2E3E5"/>
<stop offset="1" stop-color="#EFEFEF"/>
</linearGradient>
<linearGradient id="paint3_linear_61_2086" x1="86.0403" y1="134.029" x2="96.1522" y2="134.029" gradientUnits="userSpaceOnUse">
<stop stop-color="#E2E3E5"/>
<stop offset="1" stop-color="#EFEFEF"/>
</linearGradient>
<linearGradient id="paint4_linear_61_2086" x1="86.0403" y1="133.627" x2="106.813" y2="133.627" gradientUnits="userSpaceOnUse">
<stop stop-color="#E2E3E5"/>
<stop offset="1" stop-color="#EFEFEF"/>
</linearGradient>
<linearGradient id="paint5_linear_61_2086" x1="86.0405" y1="139.385" x2="96.1522" y2="139.385" gradientUnits="userSpaceOnUse">
<stop stop-color="#E2E3E5"/>
<stop offset="1" stop-color="#EFEFEF"/>
</linearGradient>
<linearGradient id="paint6_linear_61_2086" x1="84.1805" y1="151.419" x2="119.746" y2="165.814" gradientUnits="userSpaceOnUse">
<stop stop-color="#25D366"/>
<stop offset="1" stop-color="#009036"/>
</linearGradient>
<linearGradient id="paint7_linear_61_2086" x1="88.22" y1="168.433" x2="92.5467" y2="168.433" gradientUnits="userSpaceOnUse">
<stop stop-color="#E2E3E5"/>
<stop offset="1" stop-color="#EFEFEF"/>
</linearGradient>
<linearGradient id="paint8_linear_61_2086" x1="94.65" y1="164.718" x2="98.9766" y2="164.718" gradientUnits="userSpaceOnUse">
<stop stop-color="#E2E3E5"/>
<stop offset="1" stop-color="#EFEFEF"/>
</linearGradient>
<linearGradient id="paint9_linear_61_2086" x1="101.08" y1="161.003" x2="105.406" y2="161.003" gradientUnits="userSpaceOnUse">
<stop stop-color="#E2E3E5"/>
<stop offset="1" stop-color="#EFEFEF"/>
</linearGradient>
<linearGradient id="paint10_linear_61_2086" x1="84.9402" y1="190.328" x2="114.475" y2="206.892" gradientUnits="userSpaceOnUse">
<stop stop-color="#25D366"/>
<stop offset="1" stop-color="#009036"/>
</linearGradient>
<linearGradient id="paint11_linear_61_2086" x1="89.4042" y1="202.956" x2="92.4542" y2="202.956" gradientUnits="userSpaceOnUse">
<stop stop-color="#E2E3E5"/>
<stop offset="1" stop-color="#EFEFEF"/>
</linearGradient>
<linearGradient id="paint12_linear_61_2086" x1="95.2781" y1="199.562" x2="98.3279" y2="199.562" gradientUnits="userSpaceOnUse">
<stop stop-color="#E2E3E5"/>
<stop offset="1" stop-color="#EFEFEF"/>
</linearGradient>
<linearGradient id="paint13_linear_61_2086" x1="101.152" y1="196.168" x2="104.202" y2="196.168" gradientUnits="userSpaceOnUse">
<stop stop-color="#E2E3E5"/>
<stop offset="1" stop-color="#EFEFEF"/>
</linearGradient>
<linearGradient id="paint14_linear_61_2086" x1="84.5527" y1="222.463" x2="117.921" y2="237.488" gradientUnits="userSpaceOnUse">
<stop stop-color="#25D366"/>
<stop offset="1" stop-color="#009036"/>
</linearGradient>
<linearGradient id="paint15_linear_61_2086" x1="89.1448" y1="237.964" x2="103.708" y2="237.964" gradientUnits="userSpaceOnUse">
<stop stop-color="#E2E3E5"/>
<stop offset="1" stop-color="#EFEFEF"/>
</linearGradient>
<linearGradient id="paint16_linear_61_2086" x1="350.785" y1="256.813" x2="320.026" y2="256.813" gradientUnits="userSpaceOnUse">
<stop stop-color="#CCCCCC"/>
<stop offset="1" stop-color="#DBDBDB"/>
</linearGradient>
<linearGradient id="paint17_linear_61_2086" x1="326.577" y1="260.168" x2="331.689" y2="251.228" gradientUnits="userSpaceOnUse">
<stop stop-color="#CCCCCC"/>
<stop offset="1" stop-color="#DBDBDB"/>
</linearGradient>
<linearGradient id="paint18_linear_61_2086" x1="378.912" y1="216.815" x2="373.303" y2="209.225" gradientUnits="userSpaceOnUse">
<stop stop-color="#CCCCCC"/>
<stop offset="1" stop-color="#DBDBDB"/>
</linearGradient>
<linearGradient id="paint19_linear_61_2086" x1="247.648" y1="178.095" x2="437.571" y2="178.095" gradientUnits="userSpaceOnUse">
<stop stop-color="#E2E3E5"/>
<stop offset="1" stop-color="#EFEFEF"/>
</linearGradient>
<linearGradient id="paint20_linear_61_2086" x1="266.963" y1="84.2957" x2="470.241" y2="191.297" gradientUnits="userSpaceOnUse">
<stop stop-color="#25D366"/>
<stop offset="1" stop-color="#009036"/>
</linearGradient>
<linearGradient id="paint21_linear_61_2086" x1="244.265" y1="329.05" x2="246.376" y2="329.05" gradientUnits="userSpaceOnUse">
<stop stop-color="#CCCCCC"/>
<stop offset="1" stop-color="#DBDBDB"/>
</linearGradient>
<linearGradient id="paint22_linear_61_2086" x1="245.199" y1="308.952" x2="182.646" y2="336.355" gradientUnits="userSpaceOnUse">
<stop stop-color="#E2E3E5"/>
<stop offset="1" stop-color="#EFEFEF"/>
</linearGradient>
<linearGradient id="paint23_linear_61_2086" x1="133.347" y1="96.7363" x2="140.492" y2="96.7363" gradientUnits="userSpaceOnUse">
<stop stop-color="#FFB888"/>
<stop offset="0.287" stop-color="#FF9B57"/>
<stop offset="1" stop-color="#FF6801"/>
</linearGradient>
<linearGradient id="paint24_linear_61_2086" x1="148.191" y1="123.319" x2="155.337" y2="123.319" gradientUnits="userSpaceOnUse">
<stop stop-color="#FFB888"/>
<stop offset="0.287" stop-color="#FF9B57"/>
<stop offset="1" stop-color="#FF6801"/>
</linearGradient>
<linearGradient id="paint25_linear_61_2086" x1="163.035" y1="149.901" x2="170.181" y2="149.901" gradientUnits="userSpaceOnUse">
<stop stop-color="#FFB888"/>
<stop offset="0.287" stop-color="#FF9B57"/>
<stop offset="1" stop-color="#FF6801"/>
</linearGradient>
<linearGradient id="paint26_linear_61_2086" x1="177.879" y1="88.5859" x2="185.025" y2="88.5859" gradientUnits="userSpaceOnUse">
<stop stop-color="#FFB888"/>
<stop offset="0.287" stop-color="#FF9B57"/>
<stop offset="1" stop-color="#FF6801"/>
</linearGradient>
<linearGradient id="paint27_linear_61_2086" x1="207.567" y1="71.4328" x2="214.713" y2="71.4328" gradientUnits="userSpaceOnUse">
<stop stop-color="#FFB888"/>
<stop offset="0.287" stop-color="#FF9B57"/>
<stop offset="1" stop-color="#FF6801"/>
</linearGradient>
<linearGradient id="paint28_linear_61_2086" x1="134.654" y1="178.009" x2="173.074" y2="178.009" gradientUnits="userSpaceOnUse">
<stop stop-color="#CCCCCC"/>
<stop offset="1" stop-color="#DBDBDB"/>
</linearGradient>
<linearGradient id="paint29_linear_61_2086" x1="134.654" y1="190.101" x2="146.939" y2="190.101" gradientUnits="userSpaceOnUse">
<stop stop-color="#CCCCCC"/>
<stop offset="1" stop-color="#DBDBDB"/>
</linearGradient>
<linearGradient id="paint30_linear_61_2086" x1="134.654" y1="190.16" x2="173.074" y2="190.16" gradientUnits="userSpaceOnUse">
<stop stop-color="#CCCCCC"/>
<stop offset="1" stop-color="#DBDBDB"/>
</linearGradient>
<linearGradient id="paint31_linear_61_2086" x1="134.654" y1="199.316" x2="157.104" y2="199.316" gradientUnits="userSpaceOnUse">
<stop stop-color="#CCCCCC"/>
<stop offset="1" stop-color="#DBDBDB"/>
</linearGradient>
<linearGradient id="paint32_linear_61_2086" x1="134.654" y1="202.312" x2="173.074" y2="202.312" gradientUnits="userSpaceOnUse">
<stop stop-color="#CCCCCC"/>
<stop offset="1" stop-color="#DBDBDB"/>
</linearGradient>
<linearGradient id="paint33_linear_61_2086" x1="134.654" y1="213.189" x2="151.145" y2="213.189" gradientUnits="userSpaceOnUse">
<stop stop-color="#CCCCCC"/>
<stop offset="1" stop-color="#DBDBDB"/>
</linearGradient>
<linearGradient id="paint34_linear_61_2086" x1="134.654" y1="214.463" x2="173.074" y2="214.463" gradientUnits="userSpaceOnUse">
<stop stop-color="#CCCCCC"/>
<stop offset="1" stop-color="#DBDBDB"/>
</linearGradient>
<linearGradient id="paint35_linear_61_2086" x1="134.654" y1="222.08" x2="162.432" y2="222.08" gradientUnits="userSpaceOnUse">
<stop stop-color="#CCCCCC"/>
<stop offset="1" stop-color="#DBDBDB"/>
</linearGradient>
<linearGradient id="paint36_linear_61_2086" x1="190.963" y1="145.474" x2="229.383" y2="145.474" gradientUnits="userSpaceOnUse">
<stop stop-color="#CCCCCC"/>
<stop offset="1" stop-color="#DBDBDB"/>
</linearGradient>
<linearGradient id="paint37_linear_61_2086" x1="190.964" y1="157.567" x2="203.248" y2="157.567" gradientUnits="userSpaceOnUse">
<stop stop-color="#CCCCCC"/>
<stop offset="1" stop-color="#DBDBDB"/>
</linearGradient>
<linearGradient id="paint38_linear_61_2086" x1="190.964" y1="157.626" x2="229.383" y2="157.626" gradientUnits="userSpaceOnUse">
<stop stop-color="#CCCCCC"/>
<stop offset="1" stop-color="#DBDBDB"/>
</linearGradient>
<linearGradient id="paint39_linear_61_2086" x1="190.964" y1="166.782" x2="213.413" y2="166.782" gradientUnits="userSpaceOnUse">
<stop stop-color="#CCCCCC"/>
<stop offset="1" stop-color="#DBDBDB"/>
</linearGradient>
<linearGradient id="paint40_linear_61_2086" x1="190.964" y1="169.777" x2="229.384" y2="169.777" gradientUnits="userSpaceOnUse">
<stop stop-color="#CCCCCC"/>
<stop offset="1" stop-color="#DBDBDB"/>
</linearGradient>
<linearGradient id="paint41_linear_61_2086" x1="190.964" y1="180.655" x2="207.455" y2="180.655" gradientUnits="userSpaceOnUse">
<stop stop-color="#CCCCCC"/>
<stop offset="1" stop-color="#DBDBDB"/>
</linearGradient>
<linearGradient id="paint42_linear_61_2086" x1="190.964" y1="181.929" x2="229.384" y2="181.929" gradientUnits="userSpaceOnUse">
<stop stop-color="#CCCCCC"/>
<stop offset="1" stop-color="#DBDBDB"/>
</linearGradient>
<linearGradient id="paint43_linear_61_2086" x1="190.964" y1="189.546" x2="218.742" y2="189.546" gradientUnits="userSpaceOnUse">
<stop stop-color="#CCCCCC"/>
<stop offset="1" stop-color="#DBDBDB"/>
</linearGradient>
<linearGradient id="paint44_linear_61_2086" x1="358.612" y1="244.061" x2="416.32" y2="244.061" gradientUnits="userSpaceOnUse">
<stop stop-color="#E2E3E5"/>
<stop offset="1" stop-color="#EFEFEF"/>
</linearGradient>
<linearGradient id="paint45_linear_61_2086" x1="289.497" y1="252.405" x2="340.086" y2="252.405" gradientUnits="userSpaceOnUse">
<stop stop-color="#00C6FF"/>
<stop offset="1" stop-color="#0072FF"/>
</linearGradient>
<linearGradient id="paint46_linear_61_2086" x1="289.497" y1="262.223" x2="340.086" y2="262.223" gradientUnits="userSpaceOnUse">
<stop stop-color="#25D366"/>
<stop offset="1" stop-color="#25D366"/>
</linearGradient>
<linearGradient id="paint47_linear_61_2086" x1="289.497" y1="272.04" x2="340.086" y2="272.04" gradientUnits="userSpaceOnUse">
<stop stop-color="#25D366"/>
<stop offset="1" stop-color="#25D366"/>
</linearGradient>
<linearGradient id="paint48_linear_61_2086" x1="289.497" y1="281.858" x2="340.087" y2="281.858" gradientUnits="userSpaceOnUse">
<stop stop-color="#00C6FF"/>
<stop offset="1" stop-color="#0072FF"/>
</linearGradient>
<linearGradient id="paint49_linear_61_2086" x1="289.497" y1="291.675" x2="340.087" y2="291.675" gradientUnits="userSpaceOnUse">
<stop stop-color="#00C6FF"/>
<stop offset="1" stop-color="#0072FF"/>
</linearGradient>
<linearGradient id="paint50_linear_61_2086" x1="312.365" y1="295.024" x2="340.086" y2="295.024" gradientUnits="userSpaceOnUse">
<stop stop-color="#00C6FF"/>
<stop offset="1" stop-color="#0072FF"/>
</linearGradient>
<linearGradient id="paint51_linear_61_2086" x1="293.476" y1="304.228" x2="334.429" y2="339.914" gradientUnits="userSpaceOnUse">
<stop stop-color="#25D366"/>
<stop offset="1" stop-color="#009036"/>
</linearGradient>
<linearGradient id="paint52_linear_61_2086" x1="293.476" y1="314.045" x2="334.429" y2="349.731" gradientUnits="userSpaceOnUse">
<stop stop-color="#25D366"/>
<stop offset="1" stop-color="#009036"/>
</linearGradient>
<linearGradient id="paint53_linear_61_2086" x1="293.477" y1="323.862" x2="334.429" y2="359.548" gradientUnits="userSpaceOnUse">
<stop stop-color="#25D366"/>
<stop offset="1" stop-color="#009036"/>
</linearGradient>
<linearGradient id="paint54_linear_61_2086" x1="293.477" y1="333.68" x2="334.429" y2="369.366" gradientUnits="userSpaceOnUse">
<stop stop-color="#25D366"/>
<stop offset="1" stop-color="#009036"/>
</linearGradient>
<linearGradient id="paint55_linear_61_2086" x1="314.546" y1="342.12" x2="338.993" y2="361.291" gradientUnits="userSpaceOnUse">
<stop stop-color="#25D366"/>
<stop offset="1" stop-color="#009036"/>
</linearGradient>
<linearGradient id="paint56_linear_61_2086" x1="157.395" y1="259.161" x2="216.412" y2="252.678" gradientUnits="userSpaceOnUse">
<stop stop-color="#FFB888"/>
<stop offset="0.287" stop-color="#FF9B57"/>
<stop offset="1" stop-color="#FF6801"/>
</linearGradient>
<linearGradient id="paint57_linear_61_2086" x1="218.962" y1="251.84" x2="125.03" y2="254.058" gradientUnits="userSpaceOnUse">
<stop stop-color="#FFB888"/>
<stop offset="1" stop-color="white"/>
</linearGradient>
</defs>
</svg>
