<svg width="861" height="502" viewBox="0 0 861 502" fill="none" xmlns="http://www.w3.org/2000/svg">
<path d="M73.7622 93.272C91.8599 52.5 139.808 34.4057 180.33 53.056L584.954 239.284C612.886 252.14 630.978 279.868 631.495 310.613L638.848 748.391C639.808 805.559 582.225 845.25 529.141 824.01L-55.9126 589.927C-98.0156 573.082 -117.713 524.644 -99.315 483.195L73.7622 93.272Z" fill="#F9FAFB"/>
<path d="M101.146 110.994C125.842 73.8454 176.15 64.0714 212.959 89.2702L580.506 340.886C605.879 358.256 619.051 388.631 614.39 419.025L548.025 851.806C539.358 908.321 475.921 937.764 427.164 907.901L-110.197 578.772C-148.867 555.086 -160.139 504.026 -135.034 466.261L101.146 110.994Z" fill="#F2F4F7"/>
<path d="M224.123 116.32C224.123 114.913 223.137 114.343 221.92 115.047L198.932 128.328C197.716 129.032 196.729 130.741 196.729 132.147V145.58L196.729 154.129L199.276 146.654L221.92 133.571C223.137 132.868 224.124 131.158 224.124 129.752L224.123 116.32Z" fill="url(#paint0_linear_161_4471)"/>
<path d="M220.813 120.38L200.04 132.382V130.809L220.813 118.807V120.38Z" fill="url(#paint1_linear_161_4471)"/>
<path d="M220.813 123.058L200.04 135.06V133.486L220.813 121.484V123.058Z" fill="url(#paint2_linear_161_4471)"/>
<path d="M210.152 131.895L200.04 137.737V136.164L210.152 130.321V131.895Z" fill="url(#paint3_linear_161_4471)"/>
<path d="M220.813 128.413L200.04 140.415V138.841L220.813 126.839V128.413Z" fill="url(#paint4_linear_161_4471)"/>
<path d="M210.152 137.25L200.04 143.093V141.519L210.152 135.677V137.25Z" fill="url(#paint5_linear_161_4471)"/>
<path d="M224.958 149.983C224.958 148.491 223.911 147.887 222.621 148.632L198.232 162.724C196.941 163.469 195.895 165.283 195.895 166.775L195.895 178.135V180.549V181.026L195.895 190.096L198.597 182.166L222.621 168.285C223.912 167.54 224.958 165.726 224.958 164.234V149.983Z" fill="url(#paint6_linear_161_4471)"/>
<path d="M206.547 167.183C206.547 168.563 205.578 170.242 204.383 170.933C203.189 171.623 202.22 171.063 202.22 169.683C202.22 168.302 203.189 166.623 204.383 165.933C205.578 165.243 206.547 165.802 206.547 167.183Z" fill="url(#paint7_linear_161_4471)"/>
<path d="M212.977 163.468C212.977 164.849 212.008 166.527 210.813 167.218C209.619 167.908 208.65 167.348 208.65 165.968C208.65 164.587 209.618 162.908 210.813 162.218C212.008 161.528 212.977 162.087 212.977 163.468Z" fill="url(#paint8_linear_161_4471)"/>
<path d="M219.406 159.753C219.406 161.134 218.438 162.812 217.243 163.503C216.049 164.193 215.08 163.633 215.08 162.253C215.08 160.872 216.048 159.193 217.243 158.503C218.438 157.813 219.406 158.372 219.406 159.753Z" fill="url(#paint9_linear_161_4471)"/>
<path d="M210.426 191.2C202.898 195.55 196.796 203.076 196.796 208.011V216.51L198.463 211.333C200.777 212.767 205.267 212.052 210.427 209.071C217.954 204.722 224.057 197.195 224.057 192.26C224.057 187.326 217.954 186.851 210.426 191.2Z" fill="url(#paint10_linear_161_4471)"/>
<path d="M206.454 202.075C206.454 203.048 205.771 204.232 204.929 204.718C204.087 205.205 203.404 204.81 203.404 203.837C203.404 202.864 204.087 201.68 204.929 201.194C205.771 200.707 206.454 201.102 206.454 202.075Z" fill="url(#paint11_linear_161_4471)"/>
<path d="M212.328 198.681C212.328 199.654 211.645 200.838 210.803 201.324C209.961 201.811 209.278 201.417 209.278 200.443C209.278 199.47 209.961 198.287 210.803 197.8C211.645 197.313 212.328 197.708 212.328 198.681Z" fill="url(#paint12_linear_161_4471)"/>
<path d="M218.202 195.287C218.202 196.261 217.519 197.444 216.677 197.931C215.835 198.417 215.152 198.023 215.152 197.049C215.152 196.076 215.835 194.893 216.677 194.406C217.519 193.92 218.202 194.314 218.202 195.287Z" fill="url(#paint13_linear_161_4471)"/>
<path d="M196.336 246.105C196.336 255.098 202.645 258.743 210.427 254.247C218.208 249.75 224.517 238.816 224.517 229.823C224.517 220.83 218.208 217.185 210.426 221.682C202.644 226.178 196.336 237.113 196.336 246.105Z" fill="url(#paint14_linear_161_4471)"/>
<path d="M203.875 243.137C204.057 243.363 204.272 243.551 204.522 243.695L210.005 246.864C210.14 246.941 210.28 247.004 210.426 247.053C210.572 246.836 210.713 246.611 210.848 246.377L216.331 236.872C216.581 236.439 216.797 236.002 216.978 235.566C218.133 232.798 217.917 230.105 216.331 229.189C215.413 228.659 214.21 228.823 213.007 229.518C212.107 230.038 211.208 230.855 210.427 231.899C209.646 231.757 208.746 231.98 207.846 232.5C206.643 233.195 205.44 234.421 204.522 236.012C202.936 238.762 202.72 241.703 203.875 243.137Z" fill="url(#paint15_linear_161_4471)"/>
<path d="M475.056 251.042L431.645 227.749C431.645 227.749 434.793 240.472 426.885 247.778C419.58 254.526 408.909 258.502 406.283 260.99L406.232 260.903L405.343 261.055V262.959L405.35 262.958C405.396 264.275 407.473 265.09 413.298 268.376C420.852 272.638 441.485 285.017 444.425 285.778C447.366 286.539 452.942 282.683 456.998 280.299C461.053 277.914 472.284 272.08 473.771 266.668C475.259 261.257 475.056 251.042 475.056 251.042Z" fill="url(#paint16_linear_161_4471)"/>
<path d="M430.332 225.457C430.332 225.457 434.793 238.647 426.885 245.953C418.976 253.259 407.114 257.318 405.796 259.753C404.477 262.188 405.745 262.29 413.298 266.551C420.852 270.813 441.485 283.192 444.425 283.953C447.365 284.714 452.942 280.858 456.997 278.474C461.053 276.089 470.415 271.625 471.902 266.213C473.389 260.801 473.186 250.587 473.186 250.587L430.332 225.457Z" fill="url(#paint17_linear_161_4471)"/>
<path d="M551.12 162.533L370.95 58.4335C369.47 57.5786 368.147 57.5788 367.253 58.2645L363.107 60.5788L368.115 66.7197L368.114 179.009C368.114 182.121 370.297 185.904 372.989 187.46L541.03 284.55L550.068 295.632L554.397 293.176C555.376 292.711 555.994 291.588 555.994 289.937L555.995 170.983C555.995 167.872 553.813 164.089 551.12 162.533Z" fill="url(#paint18_linear_161_4471)"/>
<path d="M546.694 295.255L366.523 191.156C363.831 189.6 361.648 185.817 361.648 182.706L361.65 63.7515C361.65 60.6402 363.833 59.3789 366.525 60.9346L546.696 165.034C549.388 166.59 551.571 170.373 551.571 173.484L551.569 292.438C551.569 295.55 549.386 296.811 546.694 295.255Z" fill="url(#paint19_linear_161_4471)"/>
<path d="M548.905 270.827L366.626 165.51L366.627 69.3171L548.907 174.635L548.905 270.827Z" fill="url(#paint20_linear_161_4471)"/>
<path d="M415.916 351.277L415.92 351.278V348.121L407.636 346.184L283.239 274.306C282.675 273.98 281.76 273.98 281.196 274.306L229.058 304.432L225.597 303.623V306.73C225.572 306.961 225.706 307.196 226.012 307.373L358.272 383.794C358.837 384.12 359.752 384.12 360.316 383.794L415.5 351.908C415.8 351.735 415.936 351.504 415.916 351.277Z" fill="url(#paint21_linear_161_4471)"/>
<path d="M358.272 380.563L226.012 304.142C225.447 303.815 225.447 303.287 226.012 302.961L281.196 271.075C281.76 270.749 282.675 270.749 283.239 271.075L415.5 347.496C416.064 347.822 416.064 348.351 415.5 348.677L360.316 380.563C359.752 380.889 358.837 380.889 358.272 380.563Z" fill="url(#paint22_linear_161_4471)"/>
<path d="M290.797 290.246L281.055 284.617C280.868 284.509 280.868 284.334 281.055 284.226L286.656 280.989C286.843 280.881 287.146 280.881 287.333 280.989L297.075 286.618C297.262 286.726 297.262 286.902 297.075 287.009L291.474 290.246C291.287 290.354 290.984 290.354 290.797 290.246Z" fill="#D3D3D3"/>
<path d="M298.874 294.913L292.649 291.316C292.463 291.208 292.463 291.033 292.649 290.925L298.25 287.689C298.437 287.581 298.74 287.581 298.927 287.689L305.152 291.285C305.339 291.393 305.339 291.568 305.152 291.676L299.551 294.913C299.364 295.021 299.061 295.021 298.874 294.913Z" fill="#D3D3D3"/>
<path d="M279.546 292.682L273.321 289.086C273.134 288.978 273.134 288.803 273.321 288.695L278.923 285.458C279.11 285.35 279.412 285.35 279.599 285.458L285.824 289.055C286.011 289.163 286.011 289.338 285.824 289.446L280.223 292.682C280.036 292.79 279.733 292.79 279.546 292.682Z" fill="#D3D3D3"/>
<path d="M275.681 298.939L265.975 293.33C265.788 293.222 265.788 293.047 265.975 292.939L271.576 289.703C271.763 289.595 272.066 289.595 272.253 289.703L281.959 295.311C282.146 295.419 282.146 295.595 281.959 295.703L276.358 298.939C276.171 299.047 275.868 299.047 275.681 298.939Z" fill="#D3D3D3"/>
<path d="M287.026 297.004L280.801 293.408C280.615 293.3 280.615 293.125 280.801 293.017L286.403 289.78C286.59 289.672 286.892 289.672 287.079 289.78L293.304 293.377C293.491 293.485 293.491 293.66 293.304 293.768L287.703 297.004C287.516 297.112 287.213 297.112 287.026 297.004Z" fill="#D3D3D3"/>
<path d="M294.673 301.423L288.449 297.826C288.262 297.718 288.262 297.543 288.449 297.435L294.05 294.199C294.237 294.091 294.54 294.091 294.727 294.199L300.951 297.795C301.138 297.903 301.138 298.078 300.951 298.186L295.35 301.423C295.163 301.531 294.86 301.531 294.673 301.423Z" fill="#D3D3D3"/>
<path d="M302.467 305.926L296.243 302.33C296.056 302.222 296.056 302.047 296.243 301.939L301.844 298.702C302.031 298.594 302.334 298.594 302.52 298.702L308.745 302.299C308.932 302.407 308.932 302.582 308.745 302.69L303.144 305.926C302.957 306.034 302.654 306.034 302.467 305.926Z" fill="#D3D3D3"/>
<path d="M310.312 310.46L304.088 306.863C303.901 306.755 303.901 306.58 304.088 306.472L309.689 303.235C309.876 303.127 310.179 303.127 310.366 303.235L316.59 306.832C316.777 306.94 316.777 307.115 316.59 307.223L310.989 310.46C310.802 310.567 310.499 310.567 310.312 310.46Z" fill="#D3D3D3"/>
<path d="M318.104 314.961L311.88 311.365C311.693 311.257 311.693 311.082 311.88 310.974L317.481 307.737C317.668 307.629 317.971 307.629 318.158 307.737L324.382 311.334C324.569 311.442 324.569 311.617 324.382 311.725L318.781 314.961C318.594 315.069 318.291 315.069 318.104 314.961Z" fill="#D3D3D3"/>
<path d="M325.869 319.448L319.645 315.852C319.458 315.744 319.458 315.569 319.645 315.461L325.246 312.224C325.433 312.116 325.736 312.116 325.923 312.224L332.147 315.821C332.334 315.929 332.334 316.104 332.147 316.212L326.546 319.448C326.359 319.556 326.056 319.556 325.869 319.448Z" fill="#D3D3D3"/>
<path d="M333.456 323.832L327.232 320.236C327.045 320.128 327.045 319.952 327.232 319.845L332.833 316.608C333.02 316.5 333.323 316.5 333.51 316.608L339.734 320.205C339.921 320.313 339.921 320.488 339.734 320.596L334.133 323.832C333.946 323.94 333.643 323.94 333.456 323.832Z" fill="#D3D3D3"/>
<path d="M341.204 328.309L334.979 324.712C334.792 324.604 334.792 324.429 334.979 324.321L340.58 321.085C340.767 320.977 341.07 320.977 341.257 321.085L347.482 324.681C347.669 324.789 347.669 324.964 347.482 325.072L341.88 328.309C341.694 328.417 341.391 328.417 341.204 328.309Z" fill="#D3D3D3"/>
<path d="M348.773 332.682L342.548 329.086C342.361 328.978 342.361 328.803 342.548 328.695L348.149 325.458C348.336 325.35 348.639 325.35 348.826 325.458L355.051 329.055C355.238 329.163 355.238 329.338 355.051 329.446L349.45 332.682C349.263 332.79 348.96 332.79 348.773 332.682Z" fill="#D3D3D3"/>
<path d="M356.645 337.231L350.42 333.634C350.233 333.526 350.233 333.351 350.42 333.243L356.021 330.007C356.208 329.899 356.511 329.899 356.698 330.007L362.923 333.603C363.11 333.711 363.11 333.886 362.923 333.994L357.322 337.231C357.135 337.339 356.832 337.339 356.645 337.231Z" fill="#D3D3D3"/>
<path d="M364.464 341.748L358.239 338.152C358.052 338.044 358.052 337.869 358.239 337.761L363.84 334.524C364.027 334.416 364.33 334.416 364.517 334.524L370.742 338.121C370.928 338.229 370.928 338.404 370.742 338.512L365.14 341.748C364.953 341.856 364.65 341.856 364.464 341.748Z" fill="#D3D3D3"/>
<path d="M372.033 346.122L365.808 342.525C365.621 342.417 365.621 342.242 365.808 342.134L371.409 338.898C371.596 338.79 371.899 338.79 372.086 338.898L378.311 342.494C378.497 342.602 378.497 342.778 378.311 342.886L372.709 346.122C372.523 346.23 372.22 346.23 372.033 346.122Z" fill="#D3D3D3"/>
<path d="M283.793 303.626L277.569 300.03C277.382 299.922 277.382 299.747 277.569 299.639L283.17 296.402C283.357 296.294 283.66 296.294 283.847 296.402L290.071 299.999C290.258 300.107 290.258 300.282 290.071 300.39L284.47 303.626C284.284 303.734 283.98 303.734 283.793 303.626Z" fill="#D3D3D3"/>
<path d="M291.541 308.103L285.316 304.506C285.129 304.398 285.129 304.223 285.316 304.115L290.917 300.879C291.104 300.771 291.407 300.771 291.594 300.879L297.819 304.475C298.006 304.583 298.006 304.758 297.819 304.866L292.218 308.103C292.031 308.211 291.728 308.211 291.541 308.103Z" fill="#D3D3D3"/>
<path d="M299.081 312.46L292.857 308.863C292.67 308.755 292.67 308.58 292.857 308.472L298.458 305.236C298.645 305.128 298.948 305.128 299.134 305.236L305.359 308.832C305.546 308.94 305.546 309.115 305.359 309.223L299.758 312.459C299.571 312.568 299.268 312.568 299.081 312.46Z" fill="#D3D3D3"/>
<path d="M306.889 316.971L300.664 313.374C300.477 313.266 300.477 313.091 300.664 312.983L306.265 309.747C306.452 309.639 306.755 309.639 306.942 309.747L313.166 313.343C313.353 313.451 313.353 313.626 313.166 313.734L307.565 316.971C307.379 317.079 307.076 317.079 306.889 316.971Z" fill="#D3D3D3"/>
<path d="M314.56 321.404L308.336 317.807C308.149 317.699 308.149 317.524 308.336 317.416L313.937 314.18C314.124 314.072 314.427 314.072 314.614 314.18L320.838 317.776C321.025 317.884 321.025 318.059 320.838 318.167L315.237 321.404C315.05 321.512 314.747 321.512 314.56 321.404Z" fill="#D3D3D3"/>
<path d="M322.352 325.94L316.128 322.344C315.941 322.236 315.941 322.061 316.128 321.953L321.729 318.716C321.916 318.608 322.219 318.608 322.405 318.716L328.63 322.313C328.817 322.421 328.817 322.596 328.63 322.704L323.029 325.94C322.842 326.048 322.539 326.048 322.352 325.94Z" fill="#D3D3D3"/>
<path d="M330.211 330.447L323.986 326.85C323.799 326.742 323.799 326.567 323.986 326.459L329.587 323.223C329.774 323.115 330.077 323.115 330.264 323.223L336.488 326.819C336.675 326.927 336.675 327.102 336.488 327.21L330.887 330.447C330.7 330.555 330.397 330.555 330.211 330.447Z" fill="#D3D3D3"/>
<path d="M337.764 334.919L331.54 331.323C331.353 331.215 331.353 331.04 331.54 330.932L337.141 327.695C337.328 327.587 337.631 327.587 337.817 327.695L344.042 331.292C344.229 331.4 344.229 331.575 344.042 331.683L338.441 334.919C338.254 335.027 337.951 335.027 337.764 334.919Z" fill="#D3D3D3"/>
<path d="M345.719 339.407L339.494 335.811C339.307 335.703 339.307 335.528 339.494 335.42L345.095 332.183C345.282 332.075 345.585 332.075 345.772 332.183L351.996 335.78C352.183 335.888 352.183 336.063 351.996 336.171L346.395 339.407C346.208 339.515 345.905 339.515 345.719 339.407Z" fill="#D3D3D3"/>
<path d="M353.239 343.753L347.014 340.156C346.827 340.048 346.827 339.873 347.014 339.765L352.615 336.529C352.802 336.421 353.105 336.421 353.292 336.529L359.517 340.125C359.704 340.233 359.704 340.408 359.517 340.516L353.915 343.753C353.729 343.861 353.426 343.861 353.239 343.753Z" fill="#D3D3D3"/>
<path d="M361.026 348.252L354.802 344.656C354.615 344.548 354.615 344.373 354.802 344.265L360.403 341.028C360.59 340.92 360.893 340.92 361.079 341.028L367.304 344.625C367.491 344.733 367.491 344.908 367.304 345.016L361.703 348.252C361.516 348.36 361.213 348.36 361.026 348.252Z" fill="#D3D3D3"/>
<path d="M368.907 352.806L362.682 349.209C362.495 349.101 362.495 348.926 362.682 348.818L368.284 345.582C368.47 345.473 368.773 345.473 368.96 345.582L375.185 349.178C375.372 349.286 375.372 349.461 375.185 349.569L369.584 352.806C369.397 352.914 369.094 352.914 368.907 352.806Z" fill="#D3D3D3"/>
<path d="M278.041 309.142L271.816 305.546C271.629 305.438 271.629 305.263 271.816 305.155L277.418 301.918C277.605 301.81 277.907 301.81 278.094 301.918L284.319 305.515C284.506 305.623 284.506 305.798 284.319 305.906L278.718 309.142C278.531 309.25 278.228 309.25 278.041 309.142Z" fill="#D3D3D3"/>
<path d="M270.196 304.609L258.325 297.75C258.139 297.642 258.139 297.467 258.325 297.359L263.927 294.123C264.114 294.015 264.416 294.015 264.603 294.123L276.474 300.982C276.66 301.09 276.66 301.265 276.474 301.373L270.872 304.609C270.686 304.717 270.383 304.717 270.196 304.609Z" fill="#D3D3D3"/>
<path d="M285.788 313.619L279.564 310.022C279.377 309.914 279.377 309.739 279.564 309.631L285.165 306.395C285.352 306.287 285.655 306.287 285.842 306.395L292.066 309.991C292.253 310.099 292.253 310.274 292.066 310.382L286.465 313.619C286.278 313.727 285.975 313.727 285.788 313.619Z" fill="#D3D3D3"/>
<path d="M293.329 317.976L287.104 314.379C286.917 314.271 286.917 314.096 287.104 313.988L292.705 310.752C292.892 310.644 293.195 310.644 293.382 310.752L299.607 314.348C299.794 314.456 299.794 314.631 299.607 314.739L294.005 317.976C293.819 318.084 293.515 318.084 293.329 317.976Z" fill="#D3D3D3"/>
<path d="M301.136 322.487L294.911 318.89C294.724 318.782 294.724 318.607 294.911 318.499L300.513 315.263C300.699 315.155 301.002 315.155 301.189 315.263L307.414 318.859C307.601 318.967 307.601 319.142 307.414 319.25L301.813 322.487C301.626 322.595 301.323 322.595 301.136 322.487Z" fill="#D3D3D3"/>
<path d="M308.808 326.92L302.583 323.323C302.396 323.215 302.396 323.04 302.583 322.932L308.184 319.696C308.371 319.588 308.674 319.588 308.861 319.696L315.085 323.292C315.272 323.4 315.272 323.575 315.085 323.683L309.484 326.92C309.297 327.027 308.995 327.027 308.808 326.92Z" fill="#D3D3D3"/>
<path d="M316.599 331.456L310.375 327.86C310.188 327.752 310.188 327.577 310.375 327.469L315.976 324.232C316.163 324.124 316.466 324.124 316.653 324.232L322.877 327.829C323.064 327.937 323.064 328.112 322.877 328.22L317.276 331.456C317.089 331.564 316.786 331.564 316.599 331.456Z" fill="#D3D3D3"/>
<path d="M324.458 335.962L318.234 332.366C318.047 332.258 318.047 332.083 318.234 331.975L323.835 328.738C324.022 328.63 324.325 328.63 324.511 328.738L330.736 332.335C330.923 332.443 330.923 332.618 330.736 332.726L325.135 335.962C324.948 336.07 324.645 336.07 324.458 335.962Z" fill="#D3D3D3"/>
<path d="M332.012 340.435L325.787 336.838C325.6 336.73 325.6 336.555 325.787 336.447L331.388 333.211C331.575 333.103 331.878 333.103 332.065 333.211L338.29 336.808C338.476 336.916 338.476 337.091 338.29 337.199L332.688 340.435C332.502 340.543 332.198 340.543 332.012 340.435Z" fill="#D3D3D3"/>
<path d="M339.966 344.923L333.741 341.327C333.554 341.219 333.554 341.043 333.741 340.935L339.343 337.699C339.529 337.591 339.832 337.591 340.019 337.699L346.244 341.296C346.431 341.404 346.431 341.579 346.244 341.687L340.643 344.923C340.456 345.031 340.153 345.031 339.966 344.923Z" fill="#D3D3D3"/>
<path d="M347.486 349.268L341.262 345.672C341.075 345.564 341.075 345.389 341.262 345.281L346.863 342.044C347.05 341.936 347.353 341.936 347.54 342.044L353.764 345.641C353.951 345.749 353.951 345.924 353.764 346.032L348.163 349.268C347.976 349.376 347.673 349.376 347.486 349.268Z" fill="#D3D3D3"/>
<path d="M355.274 353.768L349.049 350.172C348.862 350.064 348.862 349.888 349.049 349.781L354.65 346.544C354.837 346.436 355.14 346.436 355.327 346.544L361.551 350.141C361.738 350.249 361.738 350.424 361.551 350.532L355.95 353.768C355.764 353.876 355.461 353.876 355.274 353.768Z" fill="#D3D3D3"/>
<path d="M266.714 311.365L260.489 307.768C260.302 307.66 260.302 307.485 260.489 307.377L266.09 304.141C266.277 304.033 266.58 304.033 266.767 304.141L272.992 307.738C273.179 307.846 273.179 308.021 272.992 308.129L267.391 311.365C267.204 311.473 266.901 311.473 266.714 311.365Z" fill="#D3D3D3"/>
<path d="M258.762 306.77L250.738 302.134C250.552 302.026 250.552 301.851 250.738 301.743L256.34 298.507C256.527 298.399 256.829 298.399 257.016 298.507L265.04 303.143C265.227 303.251 265.227 303.426 265.04 303.534L259.439 306.77C259.252 306.878 258.949 306.878 258.762 306.77Z" fill="#D3D3D3"/>
<path d="M274.461 315.841L268.237 312.245C268.05 312.137 268.05 311.962 268.237 311.854L273.838 308.617C274.025 308.509 274.328 308.509 274.515 308.617L280.739 312.214C280.926 312.322 280.926 312.497 280.739 312.605L275.138 315.841C274.951 315.949 274.648 315.949 274.461 315.841Z" fill="#D3D3D3"/>
<path d="M282.002 320.198L275.777 316.602C275.59 316.494 275.59 316.319 275.777 316.211L281.378 312.974C281.565 312.866 281.868 312.866 282.055 312.974L288.279 316.571C288.466 316.679 288.466 316.854 288.279 316.962L282.678 320.198C282.491 320.306 282.188 320.306 282.002 320.198Z" fill="#D3D3D3"/>
<path d="M289.809 324.709L283.584 321.113C283.398 321.005 283.398 320.83 283.584 320.722L289.186 317.485C289.372 317.378 289.675 317.378 289.862 317.485L296.087 321.082C296.274 321.19 296.274 321.365 296.087 321.473L290.486 324.709C290.299 324.817 289.996 324.817 289.809 324.709Z" fill="#D3D3D3"/>
<path d="M249.456 310.069L243.232 306.472C243.045 306.364 243.045 306.189 243.232 306.081L248.833 302.844C249.02 302.736 249.323 302.736 249.509 302.844L255.734 306.441C255.921 306.549 255.921 306.724 255.734 306.832L250.133 310.069C249.946 310.177 249.643 310.177 249.456 310.069Z" fill="#D3D3D3"/>
<path d="M257.203 314.545L250.979 310.948C250.792 310.84 250.792 310.665 250.979 310.557L256.58 307.321C256.767 307.213 257.07 307.213 257.257 307.321L263.482 310.917C263.668 311.025 263.668 311.2 263.482 311.308L257.881 314.545C257.693 314.653 257.39 314.653 257.203 314.545Z" fill="#D3D3D3"/>
<path d="M264.744 318.902L258.519 315.305C258.332 315.197 258.332 315.022 258.519 314.914L264.12 311.678C264.307 311.57 264.61 311.57 264.797 311.678L271.022 315.274C271.208 315.382 271.208 315.557 271.022 315.665L265.42 318.901C265.234 319.01 264.931 319.01 264.744 318.902Z" fill="#D3D3D3"/>
<path d="M274.35 324.452L266.327 319.816C266.14 319.708 266.14 319.533 266.327 319.425L271.928 316.189C272.114 316.081 272.417 316.081 272.604 316.189L280.628 320.825C280.815 320.933 280.815 321.108 280.628 321.216L275.027 324.452C274.84 324.56 274.537 324.56 274.35 324.452Z" fill="#D3D3D3"/>
<path d="M313.271 346.941L276.078 325.45C275.891 325.343 275.891 325.167 276.078 325.059L281.679 321.823C281.866 321.715 282.169 321.715 282.355 321.823L319.549 343.314C319.736 343.422 319.736 343.597 319.549 343.705L313.948 346.941C313.761 347.049 313.458 347.049 313.271 346.941Z" fill="#D3D3D3"/>
<path d="M339.801 362.271L346.026 365.867C346.213 365.975 346.516 365.975 346.702 365.867L348.844 364.63C349.031 364.522 349.031 364.347 348.844 364.239L342.619 360.642C342.433 360.534 342.13 360.534 341.943 360.642L339.801 361.88C339.614 361.988 339.614 362.163 339.801 362.271Z" fill="#D3D3D3"/>
<path d="M343.261 360.272L349.485 363.868C349.672 363.976 349.975 363.976 350.162 363.868L352.304 362.631C352.491 362.523 352.491 362.348 352.304 362.24L346.079 358.643C345.892 358.535 345.589 358.535 345.402 358.643L343.261 359.88C343.074 359.989 343.074 360.164 343.261 360.272Z" fill="#D3D3D3"/>
<path d="M347.954 366.981L354.178 370.578C354.365 370.686 354.668 370.686 354.855 370.578L360.456 367.341C360.643 367.233 360.643 367.058 360.456 366.95L354.232 363.354C354.045 363.246 353.742 363.246 353.555 363.354L347.954 366.59C347.767 366.698 347.767 366.873 347.954 366.981Z" fill="#D3D3D3"/>
<path d="M332.054 357.794L338.278 361.391C338.465 361.499 338.768 361.499 338.955 361.391L344.556 358.154C344.743 358.046 344.743 357.871 344.556 357.763L338.332 354.167C338.145 354.059 337.842 354.059 337.655 354.167L332.054 357.403C331.867 357.511 331.867 357.686 332.054 357.794Z" fill="#D3D3D3"/>
<path d="M324.514 353.437L330.738 357.034C330.925 357.142 331.228 357.142 331.415 357.034L337.016 353.797C337.203 353.689 337.203 353.514 337.016 353.406L330.792 349.81C330.605 349.702 330.302 349.702 330.115 349.81L324.514 353.046C324.327 353.154 324.327 353.329 324.514 353.437Z" fill="#D3D3D3"/>
<path d="M314.907 347.887L322.931 352.523C323.118 352.631 323.421 352.631 323.607 352.523L329.209 349.286C329.396 349.178 329.396 349.003 329.209 348.895L321.185 344.259C320.998 344.151 320.695 344.151 320.509 344.259L314.907 347.496C314.721 347.604 314.721 347.779 314.907 347.887Z" fill="#D3D3D3"/>
<path d="M297.481 329.142L291.256 325.546C291.069 325.438 291.069 325.263 291.256 325.155L296.857 321.918C297.044 321.81 297.347 321.81 297.534 321.918L303.758 325.515C303.945 325.623 303.945 325.798 303.758 325.906L298.157 329.142C297.97 329.25 297.667 329.25 297.481 329.142Z" fill="#D3D3D3"/>
<path d="M305.272 333.679L299.048 330.083C298.861 329.975 298.861 329.8 299.048 329.692L304.649 326.455C304.836 326.347 305.139 326.347 305.326 326.455L311.55 330.052C311.737 330.16 311.737 330.335 311.55 330.443L305.949 333.679C305.762 333.787 305.459 333.787 305.272 333.679Z" fill="#D3D3D3"/>
<path d="M313.131 338.185L306.906 334.589C306.719 334.481 306.719 334.305 306.906 334.197L312.508 330.961C312.695 330.853 312.997 330.853 313.184 330.961L319.409 334.558C319.596 334.666 319.596 334.841 319.409 334.949L313.808 338.185C313.621 338.293 313.318 338.293 313.131 338.185Z" fill="#D3D3D3"/>
<path d="M320.685 342.658L314.46 339.061C314.273 338.953 314.273 338.778 314.46 338.67L320.061 335.434C320.248 335.326 320.551 335.326 320.738 335.434L326.963 339.03C327.149 339.138 327.149 339.313 326.963 339.421L321.361 342.658C321.174 342.766 320.872 342.766 320.685 342.658Z" fill="#D3D3D3"/>
<path d="M328.639 347.146L322.414 343.549C322.227 343.441 322.227 343.266 322.414 343.158L328.015 339.922C328.202 339.814 328.505 339.814 328.692 339.922L334.917 343.518C335.104 343.626 335.104 343.801 334.917 343.909L329.316 347.146C329.129 347.254 328.826 347.254 328.639 347.146Z" fill="#D3D3D3"/>
<path d="M336.159 351.491L329.934 347.895C329.748 347.787 329.748 347.612 329.934 347.504L335.536 344.267C335.722 344.159 336.025 344.159 336.212 344.267L342.437 347.864C342.624 347.972 342.624 348.147 342.437 348.255L336.836 351.491C336.649 351.599 336.346 351.599 336.159 351.491Z" fill="#D3D3D3"/>
<path d="M343.947 355.991L337.722 352.394C337.535 352.286 337.535 352.111 337.722 352.003L343.323 348.767C343.51 348.659 343.813 348.659 344 348.767L350.224 352.363C350.411 352.471 350.411 352.646 350.224 352.754L344.623 355.991C344.436 356.099 344.133 356.099 343.947 355.991Z" fill="#D3D3D3"/>
<path d="M363.155 358.322L356.93 354.725C356.743 354.617 356.743 354.442 356.93 354.334L362.531 351.098C362.718 350.99 363.021 350.99 363.208 351.098L369.432 354.694C369.619 354.802 369.619 354.977 369.432 355.085L363.831 358.322C363.644 358.43 363.341 358.43 363.155 358.322Z" fill="#D3D3D3"/>
<path d="M383.199 354.2C383.386 354.092 383.386 353.917 383.2 353.809L376.975 350.212C376.788 350.105 376.485 350.105 376.298 350.212L370.697 353.449C370.51 353.557 370.51 353.732 370.697 353.84L371.89 354.53L364.486 358.808C364.299 358.916 364.299 359.091 364.486 359.199L369.179 361.91C369.366 362.018 369.669 362.018 369.856 361.91L377.376 357.565C377.415 357.543 377.444 357.517 377.467 357.489C377.514 357.476 377.559 357.459 377.598 357.437L383.199 354.2Z" fill="#D3D3D3"/>
<path d="M384.268 353.192L374.01 347.264C373.823 347.156 373.823 346.981 374.01 346.873L379.611 343.637C379.798 343.529 380.101 343.529 380.287 343.637L390.546 349.564C390.733 349.672 390.733 349.847 390.546 349.955L384.945 353.192C384.758 353.3 384.455 353.3 384.268 353.192Z" fill="#D3D3D3"/>
<path d="M361.685 366.24L345.371 356.814C345.184 356.706 345.184 356.531 345.371 356.423L350.973 353.186C351.16 353.079 351.462 353.079 351.649 353.186L367.963 362.613C368.15 362.721 368.15 362.896 367.963 363.004L362.362 366.24C362.175 366.348 361.872 366.348 361.685 366.24Z" fill="#D3D3D3"/>
<path d="M306.702 299.436L300.477 295.839C300.29 295.731 300.29 295.556 300.477 295.448L306.078 292.211C306.265 292.103 306.568 292.103 306.755 292.211L312.979 295.808C313.166 295.916 313.166 296.091 312.979 296.199L307.378 299.436C307.191 299.544 306.888 299.544 306.702 299.436Z" fill="#D3D3D3"/>
<path d="M314.529 303.958L308.304 300.362C308.117 300.254 308.117 300.079 308.304 299.971L313.906 296.734C314.092 296.626 314.396 296.626 314.582 296.734L320.807 300.331C320.994 300.439 320.994 300.614 320.807 300.722L315.206 303.958C315.019 304.066 314.716 304.066 314.529 303.958Z" fill="#D3D3D3"/>
<path d="M322.356 308.481L316.132 304.885C315.945 304.777 315.945 304.601 316.132 304.493L321.733 301.257C321.92 301.149 322.223 301.149 322.41 301.257L328.634 304.854C328.821 304.962 328.821 305.137 328.634 305.245L323.033 308.481C322.846 308.589 322.543 308.589 322.356 308.481Z" fill="#D3D3D3"/>
<path d="M329.89 312.834L323.665 309.237C323.478 309.129 323.478 308.954 323.665 308.846L329.267 305.61C329.454 305.502 329.756 305.502 329.943 305.61L336.168 309.206C336.355 309.314 336.355 309.489 336.168 309.597L330.567 312.834C330.38 312.942 330.077 312.942 329.89 312.834Z" fill="#D3D3D3"/>
<path d="M337.74 317.37L331.515 313.773C331.328 313.665 331.328 313.49 331.515 313.382L337.116 310.146C337.303 310.038 337.606 310.038 337.793 310.146L344.018 313.742C344.205 313.85 344.205 314.025 344.018 314.133L338.417 317.37C338.23 317.478 337.927 317.478 337.74 317.37Z" fill="#D3D3D3"/>
<path d="M345.487 321.846L339.262 318.249C339.075 318.141 339.075 317.966 339.262 317.858L344.864 314.622C345.051 314.514 345.353 314.514 345.54 314.622L351.765 318.219C351.952 318.327 351.952 318.502 351.765 318.61L346.164 321.846C345.977 321.954 345.674 321.954 345.487 321.846Z" fill="#D3D3D3"/>
<path d="M353.056 326.22L346.832 322.623C346.645 322.515 346.645 322.34 346.832 322.232L352.433 318.996C352.62 318.888 352.923 318.888 353.11 318.996L359.334 322.592C359.521 322.7 359.521 322.875 359.334 322.983L353.733 326.22C353.546 326.328 353.243 326.328 353.056 326.22Z" fill="#D3D3D3"/>
<path d="M360.906 330.755L354.681 327.159C354.494 327.051 354.494 326.876 354.681 326.768L360.283 323.531C360.47 323.423 360.772 323.423 360.959 323.531L367.184 327.128C367.371 327.236 367.371 327.411 367.184 327.519L361.583 330.755C361.396 330.863 361.093 330.863 360.906 330.755Z" fill="#D3D3D3"/>
<path d="M368.613 335.209L362.389 331.612C362.202 331.504 362.202 331.329 362.389 331.221L367.99 327.985C368.177 327.877 368.48 327.877 368.667 327.985L374.891 331.581C375.078 331.689 375.078 331.864 374.891 331.972L369.29 335.209C369.103 335.317 368.8 335.317 368.613 335.209Z" fill="#D3D3D3"/>
<path d="M376.285 339.641L370.06 336.045C369.873 335.937 369.873 335.762 370.06 335.654L375.661 332.417C375.848 332.309 376.151 332.309 376.338 332.417L382.563 336.014C382.749 336.122 382.749 336.297 382.563 336.405L376.961 339.641C376.775 339.749 376.472 339.749 376.285 339.641Z" fill="#D3D3D3"/>
<path d="M384.028 344.115L377.803 340.519C377.616 340.411 377.616 340.236 377.803 340.128L383.404 336.891C383.591 336.783 383.894 336.783 384.081 336.891L390.305 340.488C390.492 340.596 390.492 340.771 390.305 340.879L384.704 344.115C384.518 344.223 384.214 344.223 384.028 344.115Z" fill="#D3D3D3"/>
<path d="M392.002 348.723L385.777 345.126C385.59 345.018 385.59 344.843 385.777 344.735L391.378 341.499C391.565 341.391 391.868 341.391 392.055 341.499L398.28 345.095C398.467 345.203 398.467 345.378 398.28 345.486L392.679 348.723C392.492 348.831 392.189 348.831 392.002 348.723Z" fill="#D3D3D3"/>
<path d="M290.797 289.749L281.055 284.12C280.868 284.012 280.868 283.837 281.055 283.729L286.656 280.493C286.843 280.385 287.146 280.385 287.333 280.493L297.075 286.122C297.262 286.23 297.262 286.405 297.075 286.513L291.474 289.749C291.287 289.857 290.984 289.857 290.797 289.749Z" fill="#F7F7F7"/>
<path d="M298.874 294.416L292.649 290.82C292.463 290.712 292.463 290.536 292.649 290.428L298.25 287.192C298.437 287.084 298.74 287.084 298.927 287.192L305.152 290.789C305.339 290.897 305.339 291.072 305.152 291.18L299.551 294.416C299.364 294.524 299.061 294.524 298.874 294.416Z" fill="#F7F7F7"/>
<path d="M279.546 292.186L273.321 288.589C273.134 288.481 273.134 288.306 273.321 288.198L278.923 284.962C279.11 284.854 279.412 284.854 279.599 284.962L285.824 288.558C286.011 288.666 286.011 288.841 285.824 288.949L280.223 292.186C280.036 292.294 279.733 292.294 279.546 292.186Z" fill="#F7F7F7"/>
<path d="M275.681 298.442L265.975 292.834C265.788 292.726 265.788 292.551 265.975 292.443L271.576 289.206C271.763 289.098 272.066 289.098 272.253 289.206L281.959 294.815C282.146 294.923 282.146 295.098 281.959 295.206L276.358 298.442C276.171 298.55 275.868 298.55 275.681 298.442Z" fill="#F7F7F7"/>
<path d="M287.026 296.508L280.801 292.911C280.615 292.803 280.615 292.628 280.801 292.52L286.403 289.284C286.59 289.176 286.892 289.176 287.079 289.284L293.304 292.88C293.491 292.988 293.491 293.163 293.304 293.271L287.703 296.508C287.516 296.616 287.213 296.616 287.026 296.508Z" fill="#F7F7F7"/>
<path d="M294.673 300.926L288.449 297.33C288.262 297.222 288.262 297.047 288.449 296.939L294.05 293.702C294.237 293.594 294.54 293.594 294.727 293.702L300.951 297.299C301.138 297.407 301.138 297.582 300.951 297.69L295.35 300.926C295.163 301.034 294.86 301.034 294.673 300.926Z" fill="#F7F7F7"/>
<path d="M302.467 305.43L296.243 301.833C296.056 301.725 296.056 301.55 296.243 301.442L301.844 298.206C302.031 298.098 302.334 298.098 302.52 298.206L308.745 301.802C308.932 301.91 308.932 302.085 308.745 302.193L303.144 305.43C302.957 305.538 302.654 305.538 302.467 305.43Z" fill="#F7F7F7"/>
<path d="M310.312 309.963L304.088 306.367C303.901 306.259 303.901 306.083 304.088 305.975L309.689 302.739C309.876 302.631 310.179 302.631 310.366 302.739L316.59 306.336C316.777 306.443 316.777 306.619 316.59 306.727L310.989 309.963C310.802 310.071 310.499 310.071 310.312 309.963Z" fill="#F7F7F7"/>
<path d="M318.104 314.465L311.88 310.868C311.693 310.76 311.693 310.585 311.88 310.477L317.481 307.241C317.668 307.133 317.971 307.133 318.158 307.241L324.382 310.838C324.569 310.946 324.569 311.121 324.382 311.229L318.781 314.465C318.594 314.573 318.291 314.573 318.104 314.465Z" fill="#F7F7F7"/>
<path d="M325.869 318.952L319.645 315.355C319.458 315.247 319.458 315.072 319.645 314.964L325.246 311.728C325.433 311.62 325.736 311.62 325.923 311.728L332.147 315.324C332.334 315.432 332.334 315.607 332.147 315.716L326.546 318.952C326.359 319.06 326.056 319.06 325.869 318.952Z" fill="#F7F7F7"/>
<path d="M333.456 323.336L327.232 319.739C327.045 319.631 327.045 319.456 327.232 319.348L332.833 316.112C333.02 316.004 333.323 316.004 333.51 316.112L339.734 319.708C339.921 319.816 339.921 319.991 339.734 320.099L334.133 323.336C333.946 323.444 333.643 323.444 333.456 323.336Z" fill="#F7F7F7"/>
<path d="M341.204 327.812L334.979 324.216C334.792 324.108 334.792 323.933 334.979 323.825L340.58 320.588C340.767 320.48 341.07 320.48 341.257 320.588L347.482 324.185C347.669 324.293 347.669 324.468 347.482 324.576L341.88 327.812C341.694 327.92 341.391 327.92 341.204 327.812Z" fill="#F7F7F7"/>
<path d="M348.773 332.186L342.548 328.589C342.361 328.481 342.361 328.306 342.548 328.198L348.149 324.962C348.336 324.854 348.639 324.854 348.826 324.962L355.051 328.558C355.238 328.666 355.238 328.841 355.051 328.949L349.45 332.186C349.263 332.294 348.96 332.294 348.773 332.186Z" fill="#F7F7F7"/>
<path d="M356.645 336.734L350.42 333.138C350.233 333.03 350.233 332.855 350.42 332.747L356.021 329.51C356.208 329.402 356.511 329.402 356.698 329.51L362.923 333.107C363.11 333.215 363.11 333.39 362.923 333.498L357.322 336.734C357.135 336.842 356.832 336.842 356.645 336.734Z" fill="#F7F7F7"/>
<path d="M364.464 341.252L358.239 337.655C358.052 337.547 358.052 337.372 358.239 337.264L363.84 334.028C364.027 333.92 364.33 333.92 364.517 334.028L370.742 337.624C370.928 337.732 370.928 337.908 370.742 338.016L365.14 341.252C364.953 341.36 364.65 341.36 364.464 341.252Z" fill="#F7F7F7"/>
<path d="M372.033 345.625L365.808 342.029C365.621 341.921 365.621 341.746 365.808 341.638L371.409 338.401C371.596 338.293 371.899 338.293 372.086 338.401L378.311 341.998C378.497 342.106 378.497 342.281 378.311 342.389L372.709 345.625C372.523 345.733 372.22 345.733 372.033 345.625Z" fill="#F7F7F7"/>
<path d="M283.793 303.13L277.569 299.533C277.382 299.425 277.382 299.25 277.569 299.142L283.17 295.906C283.357 295.798 283.66 295.798 283.847 295.906L290.071 299.502C290.258 299.61 290.258 299.786 290.071 299.894L284.47 303.13C284.284 303.238 283.98 303.238 283.793 303.13Z" fill="#F7F7F7"/>
<path d="M291.541 307.606L285.316 304.01C285.129 303.902 285.129 303.727 285.316 303.619L290.917 300.382C291.104 300.274 291.407 300.274 291.594 300.382L297.819 303.979C298.006 304.087 298.006 304.262 297.819 304.37L292.218 307.606C292.031 307.714 291.728 307.714 291.541 307.606Z" fill="#F7F7F7"/>
<path d="M299.081 311.963L292.857 308.367C292.67 308.259 292.67 308.084 292.857 307.976L298.458 304.739C298.645 304.631 298.948 304.631 299.134 304.739L305.359 308.336C305.546 308.444 305.546 308.619 305.359 308.727L299.758 311.963C299.571 312.071 299.268 312.071 299.081 311.963Z" fill="#F7F7F7"/>
<path d="M306.889 316.474L300.664 312.878C300.477 312.77 300.477 312.595 300.664 312.487L306.265 309.25C306.452 309.142 306.755 309.142 306.942 309.25L313.166 312.847C313.353 312.955 313.353 313.13 313.166 313.238L307.565 316.474C307.379 316.582 307.076 316.582 306.889 316.474Z" fill="#F7F7F7"/>
<path d="M314.56 320.907L308.336 317.311C308.149 317.203 308.149 317.027 308.336 316.92L313.937 313.683C314.124 313.575 314.427 313.575 314.614 313.683L320.838 317.28C321.025 317.388 321.025 317.563 320.838 317.671L315.237 320.907C315.05 321.015 314.747 321.015 314.56 320.907Z" fill="#F7F7F7"/>
<path d="M322.352 325.444L316.128 321.847C315.941 321.739 315.941 321.564 316.128 321.456L321.729 318.22C321.916 318.112 322.219 318.112 322.405 318.22L328.63 321.816C328.817 321.924 328.817 322.1 328.63 322.207L323.029 325.444C322.842 325.552 322.539 325.552 322.352 325.444Z" fill="#F7F7F7"/>
<path d="M330.211 329.95L323.986 326.354C323.799 326.246 323.799 326.07 323.986 325.962L329.587 322.726C329.774 322.618 330.077 322.618 330.264 322.726L336.488 326.323C336.675 326.431 336.675 326.606 336.488 326.714L330.887 329.95C330.7 330.058 330.397 330.058 330.211 329.95Z" fill="#F7F7F7"/>
<path d="M337.764 334.423L331.54 330.826C331.353 330.718 331.353 330.543 331.54 330.435L337.141 327.199C337.328 327.091 337.631 327.091 337.817 327.199L344.042 330.795C344.229 330.903 344.229 331.078 344.042 331.186L338.441 334.423C338.254 334.531 337.951 334.531 337.764 334.423Z" fill="#F7F7F7"/>
<path d="M345.719 338.911L339.494 335.314C339.307 335.206 339.307 335.031 339.494 334.923L345.095 331.687C345.282 331.579 345.585 331.579 345.772 331.687L351.996 335.283C352.183 335.391 352.183 335.566 351.996 335.674L346.395 338.911C346.208 339.019 345.905 339.019 345.719 338.911Z" fill="#F7F7F7"/>
<path d="M353.239 343.256L347.014 339.66C346.827 339.552 346.827 339.376 347.014 339.269L352.615 336.032C352.802 335.924 353.105 335.924 353.292 336.032L359.517 339.629C359.704 339.737 359.704 339.912 359.517 340.02L353.915 343.256C353.729 343.364 353.426 343.364 353.239 343.256Z" fill="#F7F7F7"/>
<path d="M361.026 347.756L354.802 344.159C354.615 344.051 354.615 343.876 354.802 343.768L360.403 340.532C360.59 340.424 360.893 340.424 361.079 340.532L367.304 344.128C367.491 344.236 367.491 344.411 367.304 344.519L361.703 347.756C361.516 347.864 361.213 347.864 361.026 347.756Z" fill="#F7F7F7"/>
<path d="M368.907 352.309L362.682 348.713C362.495 348.605 362.495 348.43 362.682 348.322L368.284 345.085C368.47 344.977 368.773 344.977 368.96 345.085L375.185 348.682C375.372 348.79 375.372 348.965 375.185 349.073L369.584 352.309C369.397 352.417 369.094 352.417 368.907 352.309Z" fill="#F7F7F7"/>
<path d="M278.041 308.646L271.816 305.049C271.629 304.941 271.629 304.766 271.816 304.658L277.418 301.422C277.605 301.314 277.907 301.314 278.094 301.422L284.319 305.018C284.506 305.126 284.506 305.301 284.319 305.409L278.718 308.646C278.531 308.754 278.228 308.754 278.041 308.646Z" fill="#F7F7F7"/>
<path d="M270.196 304.113L258.325 297.254C258.139 297.146 258.139 296.971 258.325 296.863L263.927 293.627C264.114 293.519 264.416 293.519 264.603 293.627L276.474 300.485C276.66 300.593 276.66 300.768 276.474 300.876L270.872 304.113C270.686 304.221 270.383 304.221 270.196 304.113Z" fill="#F7F7F7"/>
<path d="M285.788 313.122L279.564 309.526C279.377 309.418 279.377 309.243 279.564 309.135L285.165 305.898C285.352 305.79 285.655 305.79 285.842 305.898L292.066 309.495C292.253 309.603 292.253 309.778 292.066 309.886L286.465 313.122C286.278 313.23 285.975 313.23 285.788 313.122Z" fill="#F7F7F7"/>
<path d="M293.329 317.479L287.104 313.882C286.917 313.774 286.917 313.599 287.104 313.491L292.705 310.255C292.892 310.147 293.195 310.147 293.382 310.255L299.607 313.852C299.794 313.96 299.794 314.135 299.607 314.243L294.005 317.479C293.819 317.587 293.515 317.587 293.329 317.479Z" fill="#F7F7F7"/>
<path d="M301.136 321.99L294.911 318.394C294.724 318.286 294.724 318.111 294.911 318.003L300.513 314.766C300.699 314.658 301.002 314.658 301.189 314.766L307.414 318.363C307.601 318.471 307.601 318.646 307.414 318.754L301.813 321.99C301.626 322.098 301.323 322.098 301.136 321.99Z" fill="#F7F7F7"/>
<path d="M308.808 326.423L302.583 322.826C302.396 322.718 302.396 322.543 302.583 322.435L308.184 319.199C308.371 319.091 308.674 319.091 308.861 319.199L315.085 322.795C315.272 322.903 315.272 323.079 315.085 323.187L309.484 326.423C309.297 326.531 308.995 326.531 308.808 326.423Z" fill="#F7F7F7"/>
<path d="M316.599 330.96L310.375 327.363C310.188 327.255 310.188 327.08 310.375 326.972L315.976 323.736C316.163 323.628 316.466 323.628 316.653 323.736L322.877 327.332C323.064 327.44 323.064 327.615 322.877 327.723L317.276 330.96C317.089 331.068 316.786 331.068 316.599 330.96Z" fill="#F7F7F7"/>
<path d="M324.458 335.466L318.234 331.869C318.047 331.761 318.047 331.586 318.234 331.478L323.835 328.242C324.022 328.134 324.325 328.134 324.511 328.242L330.736 331.838C330.923 331.946 330.923 332.121 330.736 332.229L325.135 335.466C324.948 335.574 324.645 335.574 324.458 335.466Z" fill="#F7F7F7"/>
<path d="M332.012 339.939L325.787 336.342C325.6 336.234 325.6 336.059 325.787 335.951L331.388 332.714C331.575 332.606 331.878 332.606 332.065 332.714L338.29 336.311C338.476 336.419 338.476 336.594 338.29 336.702L332.688 339.938C332.502 340.046 332.198 340.047 332.012 339.939Z" fill="#F7F7F7"/>
<path d="M339.966 344.427L333.741 340.83C333.554 340.722 333.554 340.547 333.741 340.439L339.343 337.203C339.529 337.095 339.832 337.095 340.019 337.203L346.244 340.799C346.431 340.907 346.431 341.082 346.244 341.19L340.643 344.427C340.456 344.535 340.153 344.535 339.966 344.427Z" fill="#F7F7F7"/>
<path d="M347.486 348.772L341.262 345.175C341.075 345.067 341.075 344.892 341.262 344.784L346.863 341.548C347.05 341.44 347.353 341.44 347.54 341.548L353.764 345.144C353.951 345.252 353.951 345.427 353.764 345.535L348.163 348.772C347.976 348.88 347.673 348.88 347.486 348.772Z" fill="#F7F7F7"/>
<path d="M355.274 353.272L349.049 349.675C348.862 349.567 348.862 349.392 349.049 349.284L354.65 346.047C354.837 345.939 355.14 345.939 355.327 346.047L361.551 349.644C361.738 349.752 361.738 349.927 361.551 350.035L355.95 353.272C355.764 353.38 355.461 353.38 355.274 353.272Z" fill="#F7F7F7"/>
<path d="M266.714 310.869L260.489 307.272C260.302 307.164 260.302 306.989 260.489 306.881L266.09 303.645C266.277 303.537 266.58 303.537 266.767 303.645L272.992 307.241C273.179 307.349 273.179 307.524 272.992 307.632L267.391 310.869C267.204 310.977 266.901 310.977 266.714 310.869Z" fill="#F7F7F7"/>
<path d="M258.762 306.274L250.738 301.638C250.552 301.53 250.552 301.355 250.738 301.247L256.34 298.01C256.527 297.902 256.829 297.902 257.016 298.01L265.04 302.646C265.227 302.754 265.227 302.929 265.04 303.037L259.439 306.274C259.252 306.382 258.949 306.382 258.762 306.274Z" fill="#F7F7F7"/>
<path d="M274.461 315.345L268.237 311.748C268.05 311.64 268.05 311.465 268.237 311.357L273.838 308.121C274.025 308.013 274.328 308.013 274.515 308.121L280.739 311.718C280.926 311.826 280.926 312.001 280.739 312.109L275.138 315.345C274.951 315.453 274.648 315.453 274.461 315.345Z" fill="#F7F7F7"/>
<path d="M282.002 319.702L275.777 316.105C275.59 315.997 275.59 315.822 275.777 315.714L281.378 312.478C281.565 312.37 281.868 312.37 282.055 312.478L288.279 316.074C288.466 316.182 288.466 316.357 288.279 316.465L282.678 319.702C282.491 319.81 282.188 319.81 282.002 319.702Z" fill="#F7F7F7"/>
<path d="M289.809 324.213L283.584 320.616C283.398 320.509 283.398 320.333 283.584 320.225L289.186 316.989C289.372 316.881 289.675 316.881 289.862 316.989L296.087 320.585C296.274 320.693 296.274 320.869 296.087 320.977L290.486 324.213C290.299 324.321 289.996 324.321 289.809 324.213Z" fill="#F7F7F7"/>
<path d="M249.456 309.572L243.232 305.975C243.045 305.867 243.045 305.692 243.232 305.584L248.833 302.348C249.02 302.24 249.323 302.24 249.509 302.348L255.734 305.944C255.921 306.052 255.921 306.228 255.734 306.336L250.133 309.572C249.946 309.68 249.643 309.68 249.456 309.572Z" fill="#F7F7F7"/>
<path d="M257.203 314.048L250.979 310.452C250.792 310.344 250.792 310.169 250.979 310.061L256.58 306.824C256.767 306.716 257.07 306.716 257.257 306.824L263.482 310.421C263.668 310.529 263.668 310.704 263.482 310.812L257.881 314.048C257.693 314.156 257.39 314.156 257.203 314.048Z" fill="#F7F7F7"/>
<path d="M264.744 318.405L258.519 314.809C258.332 314.701 258.332 314.526 258.519 314.418L264.12 311.181C264.307 311.073 264.61 311.073 264.797 311.181L271.022 314.778C271.208 314.886 271.208 315.061 271.022 315.169L265.42 318.405C265.234 318.513 264.931 318.513 264.744 318.405Z" fill="#F7F7F7"/>
<path d="M274.35 323.956L266.327 319.32C266.14 319.212 266.14 319.037 266.327 318.929L271.928 315.692C272.114 315.584 272.417 315.584 272.604 315.692L280.628 320.328C280.815 320.436 280.815 320.611 280.628 320.719L275.027 323.956C274.84 324.064 274.537 324.064 274.35 323.956Z" fill="#F7F7F7"/>
<path d="M313.271 346.445L276.078 324.954C275.891 324.846 275.891 324.671 276.078 324.563L281.679 321.327C281.866 321.219 282.169 321.219 282.355 321.327L319.549 342.818C319.736 342.926 319.736 343.101 319.549 343.209L313.948 346.445C313.761 346.553 313.458 346.553 313.271 346.445Z" fill="#F7F7F7"/>
<path d="M339.801 361.774L346.026 365.371C346.213 365.479 346.516 365.479 346.702 365.371L348.844 364.133C349.031 364.025 349.031 363.85 348.844 363.742L342.619 360.146C342.433 360.038 342.13 360.038 341.943 360.146L339.801 361.383C339.614 361.491 339.614 361.666 339.801 361.774Z" fill="#F7F7F7"/>
<path d="M343.261 359.775L349.485 363.372C349.672 363.48 349.975 363.48 350.162 363.372L352.304 362.134C352.491 362.026 352.491 361.851 352.304 361.743L346.079 358.147C345.892 358.039 345.589 358.039 345.402 358.147L343.261 359.384C343.074 359.492 343.074 359.667 343.261 359.775Z" fill="#F7F7F7"/>
<path d="M347.954 366.485L354.178 370.081C354.365 370.189 354.668 370.189 354.855 370.081L360.456 366.845C360.643 366.737 360.643 366.562 360.456 366.454L354.232 362.857C354.045 362.749 353.742 362.749 353.555 362.857L347.954 366.093C347.767 366.202 347.767 366.377 347.954 366.485Z" fill="#F7F7F7"/>
<path d="M332.054 357.298L338.278 360.894C338.465 361.002 338.768 361.002 338.955 360.894L344.556 357.658C344.743 357.55 344.743 357.375 344.556 357.267L338.332 353.67C338.145 353.562 337.842 353.562 337.655 353.67L332.054 356.907C331.867 357.015 331.867 357.19 332.054 357.298Z" fill="#F7F7F7"/>
<path d="M324.514 352.941L330.738 356.537C330.925 356.645 331.228 356.645 331.415 356.537L337.016 353.301C337.203 353.193 337.203 353.018 337.016 352.91L330.792 349.313C330.605 349.205 330.302 349.205 330.115 349.313L324.514 352.55C324.327 352.658 324.327 352.833 324.514 352.941Z" fill="#F7F7F7"/>
<path d="M314.907 347.39L322.931 352.026C323.118 352.134 323.421 352.134 323.607 352.026L329.209 348.79C329.396 348.682 329.396 348.507 329.209 348.399L321.185 343.763C320.998 343.655 320.695 343.655 320.509 343.763L314.907 346.999C314.721 347.107 314.721 347.282 314.907 347.39Z" fill="#F7F7F7"/>
<path d="M297.481 328.646L291.256 325.049C291.069 324.941 291.069 324.766 291.256 324.658L296.857 321.422C297.044 321.314 297.347 321.314 297.534 321.422L303.758 325.018C303.945 325.126 303.945 325.301 303.758 325.409L298.157 328.646C297.97 328.754 297.667 328.754 297.481 328.646Z" fill="#F7F7F7"/>
<path d="M305.272 333.183L299.048 329.586C298.861 329.478 298.861 329.303 299.048 329.195L304.649 325.959C304.836 325.851 305.139 325.851 305.326 325.959L311.55 329.555C311.737 329.663 311.737 329.838 311.55 329.946L305.949 333.183C305.762 333.291 305.459 333.291 305.272 333.183Z" fill="#F7F7F7"/>
<path d="M313.131 337.689L306.906 334.092C306.719 333.984 306.719 333.809 306.906 333.701L312.508 330.465C312.695 330.357 312.997 330.357 313.184 330.465L319.409 334.061C319.596 334.169 319.596 334.344 319.409 334.452L313.808 337.689C313.621 337.797 313.318 337.797 313.131 337.689Z" fill="#F7F7F7"/>
<path d="M320.685 342.161L314.46 338.565C314.273 338.457 314.273 338.282 314.46 338.174L320.061 334.937C320.248 334.829 320.551 334.829 320.738 334.937L326.963 338.534C327.149 338.642 327.149 338.817 326.963 338.925L321.361 342.161C321.174 342.269 320.872 342.269 320.685 342.161Z" fill="#F7F7F7"/>
<path d="M328.639 346.649L322.414 343.053C322.227 342.945 322.227 342.77 322.414 342.662L328.015 339.425C328.202 339.317 328.505 339.317 328.692 339.425L334.917 343.022C335.104 343.13 335.104 343.305 334.917 343.413L329.316 346.649C329.129 346.757 328.826 346.757 328.639 346.649Z" fill="#F7F7F7"/>
<path d="M336.159 350.995L329.934 347.398C329.748 347.29 329.748 347.115 329.934 347.007L335.536 343.771C335.722 343.663 336.025 343.663 336.212 343.771L342.437 347.367C342.624 347.475 342.624 347.65 342.437 347.758L336.836 350.995C336.649 351.103 336.346 351.103 336.159 350.995Z" fill="#F7F7F7"/>
<path d="M343.947 355.494L337.722 351.898C337.535 351.79 337.535 351.615 337.722 351.507L343.323 348.27C343.51 348.162 343.813 348.162 344 348.27L350.224 351.867C350.411 351.975 350.411 352.15 350.224 352.258L344.623 355.494C344.436 355.602 344.133 355.602 343.947 355.494Z" fill="#F7F7F7"/>
<path d="M363.155 357.825L356.93 354.229C356.743 354.121 356.743 353.946 356.93 353.838L362.531 350.601C362.718 350.493 363.021 350.493 363.208 350.601L369.432 354.198C369.619 354.306 369.619 354.481 369.432 354.589L363.831 357.825C363.644 357.933 363.341 357.933 363.155 357.825Z" fill="#F7F7F7"/>
<path d="M383.199 353.704C383.386 353.596 383.386 353.421 383.2 353.313L376.975 349.716C376.788 349.608 376.485 349.608 376.298 349.716L370.697 352.952C370.51 353.06 370.51 353.236 370.697 353.344L371.89 354.033L364.486 358.311C364.299 358.419 364.299 358.594 364.486 358.702L369.179 361.414C369.366 361.522 369.669 361.522 369.856 361.414L377.376 357.069C377.415 357.046 377.444 357.02 377.467 356.993C377.514 356.98 377.559 356.963 377.598 356.94L383.199 353.704Z" fill="#F7F7F7"/>
<path d="M384.268 352.695L374.01 346.768C373.823 346.66 373.823 346.485 374.01 346.377L379.611 343.14C379.798 343.032 380.101 343.032 380.287 343.14L390.546 349.068C390.733 349.176 390.733 349.351 390.546 349.459L384.945 352.695C384.758 352.803 384.455 352.803 384.268 352.695Z" fill="#F7F7F7"/>
<path d="M361.685 365.744L345.371 356.318C345.184 356.21 345.184 356.034 345.371 355.927L350.973 352.69C351.16 352.582 351.462 352.582 351.649 352.69L367.963 362.116C368.15 362.224 368.15 362.399 367.963 362.507L362.362 365.744C362.175 365.852 361.872 365.852 361.685 365.744Z" fill="#F7F7F7"/>
<path d="M306.702 298.939L300.477 295.342C300.29 295.234 300.29 295.059 300.477 294.951L306.078 291.715C306.265 291.607 306.568 291.607 306.755 291.715L312.979 295.312C313.166 295.42 313.166 295.595 312.979 295.703L307.378 298.939C307.191 299.047 306.888 299.047 306.702 298.939Z" fill="#F7F7F7"/>
<path d="M314.529 303.462L308.304 299.865C308.117 299.757 308.117 299.582 308.304 299.474L313.906 296.238C314.092 296.13 314.396 296.13 314.582 296.238L320.807 299.834C320.994 299.942 320.994 300.117 320.807 300.225L315.206 303.462C315.019 303.57 314.716 303.57 314.529 303.462Z" fill="#F7F7F7"/>
<path d="M322.356 307.985L316.132 304.388C315.945 304.28 315.945 304.105 316.132 303.997L321.733 300.76C321.92 300.652 322.223 300.652 322.41 300.76L328.634 304.357C328.821 304.465 328.821 304.64 328.634 304.748L323.033 307.985C322.846 308.093 322.543 308.093 322.356 307.985Z" fill="#F7F7F7"/>
<path d="M329.89 312.338L323.665 308.741C323.478 308.633 323.478 308.458 323.665 308.35L329.267 305.114C329.454 305.006 329.756 305.006 329.943 305.114L336.168 308.71C336.355 308.818 336.355 308.993 336.168 309.101L330.567 312.338C330.38 312.446 330.077 312.446 329.89 312.338Z" fill="#F7F7F7"/>
<path d="M337.74 316.873L331.515 313.277C331.328 313.169 331.328 312.993 331.515 312.885L337.116 309.649C337.303 309.541 337.606 309.541 337.793 309.649L344.018 313.246C344.205 313.354 344.205 313.529 344.018 313.637L338.417 316.873C338.23 316.981 337.927 316.981 337.74 316.873Z" fill="#F7F7F7"/>
<path d="M345.487 321.35L339.262 317.753C339.075 317.645 339.075 317.47 339.262 317.362L344.864 314.125C345.051 314.017 345.353 314.017 345.54 314.125L351.765 317.722C351.952 317.83 351.952 318.005 351.765 318.113L346.164 321.349C345.977 321.458 345.674 321.458 345.487 321.35Z" fill="#F7F7F7"/>
<path d="M353.056 325.723L346.832 322.127C346.645 322.019 346.645 321.844 346.832 321.736L352.433 318.499C352.62 318.391 352.923 318.391 353.11 318.499L359.334 322.096C359.521 322.204 359.521 322.379 359.334 322.487L353.733 325.723C353.546 325.831 353.243 325.831 353.056 325.723Z" fill="#F7F7F7"/>
<path d="M360.906 330.259L354.681 326.662C354.494 326.554 354.494 326.379 354.681 326.271L360.283 323.035C360.47 322.927 360.772 322.927 360.959 323.035L367.184 326.631C367.371 326.739 367.371 326.915 367.184 327.023L361.583 330.259C361.396 330.367 361.093 330.367 360.906 330.259Z" fill="#F7F7F7"/>
<path d="M368.613 334.712L362.389 331.116C362.202 331.008 362.202 330.832 362.389 330.724L367.99 327.488C368.177 327.38 368.48 327.38 368.667 327.488L374.891 331.085C375.078 331.193 375.078 331.368 374.891 331.476L369.29 334.712C369.103 334.82 368.8 334.82 368.613 334.712Z" fill="#F7F7F7"/>
<path d="M376.285 339.145L370.06 335.548C369.873 335.44 369.873 335.265 370.06 335.157L375.661 331.921C375.848 331.813 376.151 331.813 376.338 331.921L382.563 335.517C382.749 335.625 382.749 335.801 382.563 335.908L376.961 339.145C376.775 339.253 376.472 339.253 376.285 339.145Z" fill="#F7F7F7"/>
<path d="M384.028 343.619L377.803 340.022C377.616 339.914 377.616 339.739 377.803 339.631L383.404 336.395C383.591 336.287 383.894 336.287 384.081 336.395L390.305 339.991C390.492 340.099 390.492 340.274 390.305 340.382L384.704 343.619C384.518 343.727 384.214 343.727 384.028 343.619Z" fill="#F7F7F7"/>
<path d="M392.002 348.226L385.777 344.63C385.59 344.522 385.59 344.347 385.777 344.239L391.378 341.002C391.565 340.894 391.868 340.894 392.055 341.002L398.28 344.599C398.467 344.707 398.467 344.882 398.28 344.99L392.679 348.226C392.492 348.334 392.189 348.334 392.002 348.226Z" fill="#F7F7F7"/>
<path d="M537.514 186.37L375.706 92.8806L375.706 80.2439L537.514 173.733L537.514 186.37Z" fill="white"/>
<path d="M537.513 258.397L375.705 164.907L375.705 152.271L537.513 245.76L537.513 258.397Z" fill="white"/>
<path d="M392.011 111.176C392.011 113.737 390.215 114.775 387.998 113.495C385.782 112.214 383.986 109.1 383.986 106.539C383.986 103.978 385.782 102.94 387.999 104.22C390.215 105.501 392.011 108.615 392.011 111.176Z" stroke="#EAEAEA" stroke-width="7.115" stroke-miterlimit="10"/>
<path d="M394.347 128.429C394.628 127.62 394.789 126.711 394.789 125.736C394.789 121.402 391.749 117.535 387.998 115.368C384.248 113.201 381.208 113.555 381.207 117.889C381.207 118.864 381.368 119.959 381.65 121.093L394.347 128.429Z" stroke="#EAEAEA" stroke-width="7.115" stroke-miterlimit="10"/>
<path d="M469.823 200.335L403.238 161.864L403.239 113.026L469.823 151.497L469.823 200.335Z" stroke="#EAEAEA" stroke-width="7.115" stroke-miterlimit="10"/>
<path d="M537.513 239.445L472.779 202.043L472.78 153.205L537.513 190.607L537.513 239.445Z" stroke="#EAEAEA" stroke-width="7.115" stroke-miterlimit="10"/>
<path d="M400.184 163.094L375.705 148.951L375.706 120.663L400.185 134.806L400.184 163.094Z" fill="white"/>
<path d="M397.782 139.629L378.108 128.262L378.109 125.467L397.782 136.834L397.782 139.629Z" fill="#EAEAEA"/>
<path d="M397.782 145.515L378.108 134.148L378.109 131.353L397.782 142.72L397.782 145.515Z" fill="#EAEAEA"/>
<path d="M397.782 151.401L378.108 140.034L378.109 137.239L397.782 148.605L397.782 151.401Z" fill="#EAEAEA"/>
<path d="M387.594 148.606V151.4L378.106 145.921V143.128L387.594 148.606Z" fill="#EAEAEA"/>
<path d="M465.985 157.312L443.142 144.114V140.718L465.985 153.916V157.312Z" fill="#EAEAEA"/>
<path d="M439.997 142.296L407.077 123.276V119.881L439.997 138.901V142.296Z" fill="#EAEAEA"/>
<path d="M465.984 164.368L439.996 149.353L439.996 145.958L465.984 160.973V164.368Z" fill="#EAEAEA"/>
<path d="M437.509 147.916L421.795 138.836V135.441L437.509 144.52L437.509 147.916Z" fill="#EAEAEA"/>
<path d="M418.768 137.088L407.077 130.333L407.077 126.938L418.768 133.692V137.088Z" fill="#EAEAEA"/>
<path d="M465.984 171.425L449.196 161.725V158.329L465.984 168.03L465.984 171.425Z" fill="#EAEAEA"/>
<path d="M446.827 160.356L407.077 137.389V133.994L446.827 156.961V160.356Z" fill="#EAEAEA"/>
<path d="M465.984 178.482L436.982 161.725V158.33L465.984 175.086V178.482Z" fill="#EAEAEA"/>
<path d="M434.561 160.326L407.077 144.446V141.051L434.561 156.93L434.561 160.326Z" fill="#EAEAEA"/>
<path d="M465.984 185.538L453.321 178.222L453.321 174.827L465.984 182.143V185.538Z" fill="#EAEAEA"/>
<path d="M450.617 176.659L424.401 161.512V158.117L450.617 173.264V176.659Z" fill="#EAEAEA"/>
<path d="M421.795 160.006L407.077 151.503V148.107L421.795 156.611L421.795 160.006Z" fill="#EAEAEA"/>
<path d="M438.614 176.781L407.077 158.559L407.077 155.164L438.614 173.386V176.781Z" fill="#EAEAEA"/>
<path d="M534.082 196.657L511.641 183.691V180.296L534.083 193.262L534.082 196.657Z" fill="#EAEAEA"/>
<path d="M508.551 181.906L476.211 163.22V159.825L508.551 178.511L508.551 181.906Z" fill="#EAEAEA"/>
<path d="M534.082 203.714L508.551 188.962V185.567L534.082 200.319V203.714Z" fill="#EAEAEA"/>
<path d="M506.108 187.551L490.67 178.631V175.236L506.108 184.155V187.551Z" fill="#EAEAEA"/>
<path d="M487.696 176.913L476.211 170.277V166.882L487.696 173.518V176.913Z" fill="#EAEAEA"/>
<path d="M534.082 210.771L517.589 201.241V197.846L534.082 207.375V210.771Z" fill="#EAEAEA"/>
<path d="M515.261 199.896L476.211 177.334L476.211 173.938L515.261 196.501V199.896Z" fill="#EAEAEA"/>
<path d="M534.082 217.827L505.59 201.365V197.97L534.082 214.432L534.082 217.827Z" fill="#EAEAEA"/>
<path d="M503.211 199.991L476.211 184.39V180.995L503.211 196.595V199.991Z" fill="#EAEAEA"/>
<path d="M534.082 224.884L521.642 217.696L521.642 214.301L534.082 221.489V224.884Z" fill="#EAEAEA"/>
<path d="M518.985 216.161L493.23 201.28L493.23 197.885L518.985 212.766V216.161Z" fill="#EAEAEA"/>
<path d="M490.67 199.801L476.21 191.447V188.052L490.67 196.406V199.801Z" fill="#EAEAEA"/>
<path d="M507.193 216.405L476.21 198.504V195.108L507.193 213.01V216.405Z" fill="#EAEAEA"/>
<path d="M254.492 102.179L247.347 106.308L247.347 91.2934L254.492 87.165L254.492 102.179Z" fill="url(#paint23_linear_161_4471)"/>
<path d="M254.492 119.759L247.347 123.887L247.347 108.873L254.492 104.744L254.492 119.759Z" fill="#FFC933"/>
<path d="M254.493 137.338L247.347 141.467L247.347 126.453L254.492 122.324L254.493 137.338Z" fill="#FFC933"/>
<path d="M254.493 154.918L247.347 159.046L247.347 144.032L254.493 139.904L254.493 154.918Z" fill="#FFC933"/>
<path d="M254.493 172.497L247.348 176.626L247.348 161.612L254.493 157.483L254.493 172.497Z" fill="#FFC933"/>
<path d="M269.337 128.762L262.191 132.89L262.191 117.876L269.336 113.747L269.337 128.762Z" fill="url(#paint24_linear_161_4471)"/>
<path d="M269.337 146.341L262.191 150.47L262.191 135.455L269.337 131.327V146.341Z" fill="#FFC933"/>
<path d="M269.337 163.921L262.192 168.049L262.191 153.035L269.337 148.907L269.337 163.921Z" fill="#FFC933"/>
<path d="M284.181 155.344L277.036 159.472L277.035 144.458L284.181 140.33L284.181 155.344Z" fill="url(#paint25_linear_161_4471)"/>
<path d="M299.025 94.0287L291.879 98.1573V83.1432L299.024 79.0146L299.025 94.0287Z" fill="url(#paint26_linear_161_4471)"/>
<path d="M299.025 111.608L291.879 115.737L291.879 100.723L299.025 96.5942L299.025 111.608Z" fill="#FFC933"/>
<path d="M299.025 129.188L291.88 133.316L291.879 118.302L299.025 114.174L299.025 129.188Z" fill="#FFC933"/>
<path d="M299.025 146.768L291.88 150.896L291.88 135.882L299.025 131.753L299.025 146.768Z" fill="#FFC933"/>
<path d="M313.869 120.611L306.724 124.74L306.723 109.726L313.869 105.597L313.869 120.611Z" fill="#FFC933"/>
<path d="M313.869 138.191L306.724 142.319L306.724 127.305L313.869 123.177L313.869 138.191Z" fill="#FFC933"/>
<path d="M328.713 76.8756L321.567 81.004L321.567 65.9899L328.713 61.8616L328.713 76.8756Z" fill="url(#paint27_linear_161_4471)"/>
<path d="M328.713 94.455L321.567 98.5835V83.5695L328.713 79.4409L328.713 94.455Z" fill="#FFC933"/>
<path d="M328.713 112.035L321.568 116.163L321.568 101.149L328.713 97.0205L328.713 112.035Z" fill="#FFC933"/>
<path d="M328.713 129.614L321.568 133.743L321.568 118.728L328.713 114.6L328.713 129.614Z" fill="#FFC933"/>
<path d="M245.481 196.621L239.581 200.03V193.212L245.481 189.803V196.621Z" stroke="#CDCDCD" stroke-width="3.919" stroke-miterlimit="10" stroke-linejoin="round"/>
<path d="M287.074 168.312L248.654 190.511V187.705L287.074 165.507V168.312Z" fill="url(#paint28_linear_161_4471)"/>
<path d="M260.939 187.955L248.654 195.053V192.247L260.939 185.149L260.939 187.955Z" fill="url(#paint29_linear_161_4471)"/>
<path d="M240.541 195.801L241.894 197.148L244.815 191.734" stroke="#CDCDCD" stroke-width="3.919" stroke-miterlimit="10" stroke-linecap="round" stroke-linejoin="round"/>
<path d="M245.481 208.773L239.581 212.182V205.364L245.481 201.955V208.773Z" stroke="#CDCDCD" stroke-width="3.919" stroke-miterlimit="10" stroke-linejoin="round"/>
<path d="M287.074 180.464L248.654 202.662V199.856L287.074 177.658L287.074 180.464Z" fill="url(#paint30_linear_161_4471)"/>
<path d="M271.104 194.233L248.654 207.204V204.399L271.104 191.428V194.233Z" fill="url(#paint31_linear_161_4471)"/>
<path d="M240.541 207.952L241.894 209.3L244.815 203.885" stroke="#CDCDCD" stroke-width="3.919" stroke-miterlimit="10" stroke-linecap="round" stroke-linejoin="round"/>
<path d="M245.481 220.925L239.581 224.334V217.515L245.481 214.106V220.925Z" stroke="#CDCDCD" stroke-width="3.919" stroke-miterlimit="10" stroke-linejoin="round"/>
<path d="M287.074 192.615L248.654 214.814V212.008L287.074 189.81L287.074 192.615Z" fill="url(#paint32_linear_161_4471)"/>
<path d="M265.145 209.828L248.654 219.356V216.551L265.145 207.022V209.828Z" fill="url(#paint33_linear_161_4471)"/>
<path d="M240.541 220.104L241.894 221.451L244.815 216.037" stroke="#CDCDCD" stroke-width="3.919" stroke-miterlimit="10" stroke-linecap="round" stroke-linejoin="round"/>
<path d="M245.481 233.076L239.581 236.485L239.581 229.667L245.481 226.258V233.076Z" stroke="#CDCDCD" stroke-width="3.919" stroke-miterlimit="10" stroke-linejoin="round"/>
<path d="M287.074 204.767L248.655 226.965V224.16L287.074 201.961V204.767Z" fill="url(#paint34_linear_161_4471)"/>
<path d="M276.432 215.458L248.655 231.508V228.702L276.432 212.653V215.458Z" fill="url(#paint35_linear_161_4471)"/>
<path d="M240.541 232.255L241.894 233.603L244.815 228.188" stroke="#CDCDCD" stroke-width="3.919" stroke-miterlimit="10" stroke-linecap="round" stroke-linejoin="round"/>
<path d="M301.79 164.087L295.89 167.496V160.678L301.79 157.269L301.79 164.087Z" stroke="#CDCDCD" stroke-width="3.919" stroke-miterlimit="10" stroke-linejoin="round"/>
<path d="M343.383 135.778L304.963 157.976V155.17L343.383 132.972V135.778Z" fill="url(#paint36_linear_161_4471)"/>
<path d="M317.248 155.42L304.964 162.518V159.713L317.248 152.615V155.42Z" fill="url(#paint37_linear_161_4471)"/>
<path d="M296.85 163.266L298.203 164.614L301.124 159.199" stroke="#CDCDCD" stroke-width="3.919" stroke-miterlimit="10" stroke-linejoin="round"/>
<path d="M301.791 176.239L295.89 179.648L295.89 172.829L301.79 169.42L301.791 176.239Z" stroke="#CDCDCD" stroke-width="3.919" stroke-miterlimit="10" stroke-linejoin="round"/>
<path d="M343.383 147.929L304.964 170.128V167.322L343.383 145.124V147.929Z" fill="url(#paint38_linear_161_4471)"/>
<path d="M327.413 161.699L304.964 174.67V171.864L327.413 158.893V161.699Z" fill="url(#paint39_linear_161_4471)"/>
<path d="M296.851 175.418L298.204 176.765L301.125 171.351" stroke="#CDCDCD" stroke-width="3.919" stroke-miterlimit="10" stroke-linejoin="round"/>
<path d="M301.791 188.39L295.89 191.799L295.89 184.981L301.791 181.572V188.39Z" stroke="#CDCDCD" stroke-width="3.919" stroke-miterlimit="10" stroke-linejoin="round"/>
<path d="M343.384 160.081L304.964 182.279V179.474L343.384 157.275V160.081Z" fill="url(#paint40_linear_161_4471)"/>
<path d="M321.455 177.293L304.964 186.822V184.016L321.455 174.488L321.455 177.293Z" fill="url(#paint41_linear_161_4471)"/>
<path d="M296.851 187.569L298.204 188.917L301.125 183.502" stroke="#CDCDCD" stroke-width="3.919" stroke-miterlimit="10" stroke-linejoin="round"/>
<path d="M301.791 200.542L295.891 203.951L295.89 197.132L301.791 193.723L301.791 200.542Z" stroke="#CDCDCD" stroke-width="3.919" stroke-miterlimit="10" stroke-linejoin="round"/>
<path d="M343.384 172.232L304.964 194.431V191.625L343.384 169.427V172.232Z" fill="url(#paint42_linear_161_4471)"/>
<path d="M332.742 182.924L304.964 198.973V196.167L332.742 180.118V182.924Z" fill="url(#paint43_linear_161_4471)"/>
<path d="M296.851 199.721L298.204 201.068L301.125 195.654" stroke="#CDCDCD" stroke-width="3.919" stroke-miterlimit="10" stroke-linejoin="round"/>
<g opacity="0.7">
<path d="M489.67 280.639C486.734 280.639 484 279.942 481.571 278.538C475.794 275.2 472.612 268.37 472.612 259.307C472.612 251.164 475.229 241.915 479.983 233.264C485.248 223.682 492.442 215.923 500.239 211.419C504.229 209.114 508.13 207.807 511.835 207.534C515.535 207.262 518.999 208.068 521.85 209.864C527.312 213.304 530.32 220.029 530.32 228.8C530.32 237.373 527.457 247.057 522.259 256.068C517.06 265.078 510.112 272.401 502.693 276.688C498.148 279.314 493.716 280.639 489.67 280.639ZM513.244 212.377C510.07 212.377 506.48 213.483 502.692 215.671C495.762 219.675 489.052 226.95 484.282 235.63C479.92 243.569 477.518 251.977 477.518 259.307C477.518 266.542 479.829 271.862 484.024 274.286C488.22 276.71 493.979 276.053 500.24 272.436C514.121 264.415 525.414 244.84 525.414 228.8C525.414 221.777 523.22 216.528 519.237 214.019C517.495 212.922 515.472 212.377 513.244 212.377Z" fill="url(#paint44_linear_161_4471)"/>
<path d="M482.133 234.447C486.953 225.675 493.831 217.956 501.466 213.545C508.967 209.211 515.737 208.914 520.543 211.942" stroke="#FA9F11" stroke-width="28.415" stroke-miterlimit="10" stroke-linejoin="round"/>
<path d="M517.913 234.55C517.913 245.047 510.55 257.811 501.466 263.059C492.383 268.308 485.019 264.053 485.019 253.556C485.018 243.059 492.382 230.295 501.466 225.047" stroke="#FA9F11" stroke-width="28.415" stroke-miterlimit="10" stroke-linejoin="round"/>
<path d="M493.122 248.874C493.122 243.549 496.858 237.074 501.466 234.412C506.074 231.749 509.809 233.908 509.809 239.233C509.809 244.557 506.074 251.032 501.466 253.695" stroke="#E5E5E5" stroke-width="11" stroke-miterlimit="10" stroke-linejoin="round"/>
</g>
<g opacity="0.7">
<path d="M520.543 304.741C520.544 316.917 512.002 331.722 501.466 337.81C490.93 343.897 482.389 338.962 482.389 326.787C482.388 320.987 484.327 314.59 487.496 308.823C490.979 302.484 495.949 296.906 501.466 293.718C506.886 290.587 511.779 290.372 515.252 292.56C518.529 294.625 520.543 298.83 520.543 304.741Z" stroke="#E5E5E5" stroke-width="20.533" stroke-miterlimit="10" stroke-linejoin="round"/>
<path d="M487.495 308.823C490.979 302.484 495.949 296.906 501.466 293.718C506.886 290.587 511.778 290.372 515.252 292.56" stroke="#FA9F11" stroke-width="20.533" stroke-miterlimit="10" stroke-linejoin="round"/>
<path d="M513.351 308.897C513.351 316.482 508.03 325.706 501.466 329.498C494.902 333.291 489.581 330.216 489.581 322.631C489.581 315.046 494.902 305.823 501.466 302.03" stroke="#FA9F11" stroke-width="20.533" stroke-miterlimit="10" stroke-linejoin="round"/>
<path d="M495.437 319.247C495.437 315.399 498.136 310.721 501.466 308.797C504.795 306.873 507.495 308.433 507.495 312.28C507.495 316.128 504.796 320.807 501.466 322.731" stroke="#E5E5E5" stroke-width="11" stroke-miterlimit="10" stroke-linejoin="round"/>
</g>
<path d="M366.534 184.596C360.63 184.907 351.817 184.359 350.002 181.126C349.7 180.577 349.559 179.679 349.559 178.526C349.559 174.216 351.476 166.378 353.715 160.593C353.715 160.593 355.945 154.381 357.362 151.658C358.211 150.042 360.989 149.352 363.095 149.059C364.522 148.86 365.628 148.851 365.628 148.851C365.628 148.851 365.315 149.314 364.834 150.004C364.362 153.219 362.879 162.672 361.575 164.818C360.006 167.418 357.948 175.284 358.59 176.56C358.948 177.288 362.435 178.129 365.061 178.669C366.723 179.009 368.036 179.236 368.036 179.236L368.272 180.181C368.272 180.181 372.438 184.274 366.534 184.596Z" fill="#E1E8F2"/>
<path opacity="0.56" d="M365.061 178.669C364.863 178.885 364.746 179.442 364.48 179.442C361.118 179.442 358.272 177.482 358.272 177.482C357.242 179.506 354.537 180.455 354.206 180.597C357.324 178.479 357.662 177.172 357.662 174.902C357.662 172.7 359.278 168.685 359.382 168.411C359.325 168.458 359.439 168.306 358.609 169.128C357.909 169.829 356.011 171.039 355.057 171.634C357.853 169.838 359.256 167.221 359.256 167.221C359.256 167.221 358.624 165.413 359.059 157.491C359.351 152.178 361.292 149.721 363.095 149.058C364.522 148.86 365.627 148.851 365.627 148.851C365.627 148.851 365.315 149.314 364.834 150.004C364.361 153.219 362.879 162.672 361.575 164.818C360.006 167.418 357.948 175.284 358.589 176.56C358.948 177.288 362.435 178.129 365.061 178.669Z" fill="#D0D8E2"/>
<path d="M362.68 272.668C362.68 272.668 361.204 276.805 363.152 278.754C365.1 280.705 367.639 278.754 371.005 277.041C374.37 275.328 377.62 274.087 377.62 274.087L376.968 266.818H376.259C376.259 266.818 371.359 269.714 369.293 269.36C367.226 269.006 362.68 272.668 362.68 272.668Z" fill="#04242B"/>
<path d="M376.575 278.934C376.575 278.934 375.394 282.124 375.394 284.134C375.394 286.143 377.755 287.404 381.573 286.222C385.391 285.04 391.453 282.402 393.972 280.904C396.491 279.407 396.097 277.477 395.192 275.783C394.287 274.089 393.46 273.577 390.076 274.483C386.69 275.388 383.62 275.782 382.754 275.271C381.888 274.759 376.575 278.934 376.575 278.934Z" fill="#04242B"/>
<path d="M363.875 201.226C363.875 201.226 364.451 227.231 364.451 232.194C364.451 237.158 361.381 241.412 361.381 250.275C361.381 259.138 362.444 267.647 362.444 269.853C362.444 272.059 362.129 272.689 362.129 272.689C362.129 272.689 362.562 274.186 365.593 272.926C368.624 271.665 370.119 269.538 370.119 269.538C370.119 269.538 371.744 251.843 373.397 244.399C375.051 236.953 378.385 229.24 378.385 229.24L379.189 202.413C379.189 202.413 363.875 197.391 363.875 201.226Z" fill="#05313F"/>
<path d="M370.355 205.233C370.355 205.233 372.008 209.842 374.96 213.86C377.913 217.878 376.496 234.304 376.496 240.33C376.496 246.357 375.315 250.73 375.315 258.765C375.315 266.802 376.673 274.897 376.318 277.024C375.964 279.151 375.964 279.151 375.964 279.151C375.964 279.151 379.27 281.337 381.101 279.505C382.932 277.674 383.463 275.842 383.463 275.842C383.463 275.842 385.273 256.916 386.69 249.667C388.107 242.42 390.784 235.172 390.784 229.814C390.784 224.457 393.233 212.797 391.477 205.234C389.721 197.67 370.355 205.233 370.355 205.233Z" fill="#083F4C"/>
<path d="M410.031 186.129C410.031 186.129 410.68 185.42 410.68 184.534C410.68 183.648 411.35 182.308 412.039 180.713C412.727 179.117 413.652 176.911 414.597 177.246C415.542 177.581 415.109 178.879 414.951 179.786C414.793 180.693 414.321 182.268 415.994 181.481C417.667 180.693 419.832 178.9 420.423 178.526C421.012 178.152 421.839 178.448 421.288 179.452C420.737 180.457 420.737 180.457 420.737 180.457C420.737 180.457 421.466 179.59 421.682 180.575C421.898 181.56 421.012 182.289 421.012 182.289C421.012 182.289 421.328 182.229 421.328 183.156C421.328 184.081 420.442 184.671 420.442 184.671C420.442 184.671 421.662 184.908 420.797 185.775C419.931 186.641 417.588 188.778 415.522 189.103C413.455 189.428 411.123 190.964 411.123 190.964L410.031 186.129Z" fill="#FFC77D"/>
<path d="M370.119 145.894C370.119 145.894 370.444 148.244 369.352 149.337C369.352 149.337 369.233 151.878 373.898 152.351C378.562 152.823 379.861 152.351 379.861 152.351C379.861 152.351 379.683 147.565 381.022 146.895C382.36 146.226 383.412 145.894 383.412 145.894L382.076 139.004C382.076 139.004 378.389 139.809 377.62 139.809C376.85 139.81 370.119 143.593 370.119 145.894Z" fill="#FFCB8D"/>
<path d="M388.673 130.769C388.673 130.769 389.096 134.226 388.25 136.496C387.404 138.766 386.564 140.838 386.788 142.697C387.01 144.556 384.481 146.596 383.118 146.926C381.755 147.257 380.863 146.943 380.386 146.314C379.909 145.686 379.979 144.552 380.105 143.633C380.23 142.715 378.763 142.99 378.656 141.147C378.551 139.305 386.906 128.44 388.673 130.769Z" fill="#FFC77D"/>
<path d="M369.581 121.777C369.581 121.777 361.863 126.805 363.76 133.862C365.657 140.92 367.909 144.21 368.153 145.913C368.398 147.616 371.758 149.189 374.733 147.767C377.708 146.345 378.854 142.606 382.194 140.836C385.535 139.067 385.976 132.925 388.242 132.042C390.508 131.159 389.409 128.146 387.928 126.194C386.447 124.243 383.217 120.541 380.023 120.66C376.829 120.78 376.513 120.18 374.705 119.456C372.897 118.732 370.766 121.542 369.581 121.777Z" fill="#074B67"/>
<path d="M384.259 136.959C384.259 136.959 385.234 139.234 384.584 141.774C383.935 144.315 383.876 141.124 383.876 140.415C383.876 139.706 383.285 139.462 382.459 139.85C381.632 140.238 382.223 138.436 382.223 138.436C382.223 138.436 384.259 136.457 384.259 136.959Z" fill="#074B67"/>
<path d="M411.679 193.019C411.679 193.019 401.411 200.629 397.755 201.887C394.09 203.144 392.833 200.629 391.926 197.67C391.076 194.91 390.018 192.896 389.886 192.66L389.877 192.631C389.877 192.631 390.197 198.502 391.019 201.159C391.842 203.816 392.437 208.94 384.586 209.564C377.615 210.121 370.473 207.522 367.347 205.942C364.512 204.515 362.264 203.05 362.557 199.977C362.859 196.905 365.202 192.546 365.202 186.09C365.202 179.633 362.605 174.905 361.424 171.672C360.242 168.439 359.969 168.004 359.969 160.091C359.969 152.178 361.772 147.168 369.349 149.342C376.925 151.507 378.144 151.545 379.863 152.348C379.863 152.348 383.67 155.724 387.335 159.572C388.167 160.432 388.988 161.32 389.763 162.2C391.888 164.619 393.618 166.964 394.014 168.524C395.195 173.166 396.688 180.965 398.029 184.832C399.361 188.689 399.125 190.816 402.119 189.795C405.114 188.764 410.111 185.739 410.111 185.739C410.111 185.739 411.056 187.47 411.367 189.36C411.575 190.646 411.651 191.866 411.67 192.527V192.555C411.679 192.849 411.679 193.019 411.679 193.019Z" fill="#E1E8F2"/>
<path opacity="0.56" d="M411.67 192.527C411.406 191.053 410.036 186.76 410.036 186.76C410.036 186.76 408.062 187.545 405.313 188.888C402.554 190.221 400.741 191.289 400.741 191.289C400.741 191.289 400.155 193.341 399.324 195.704C398.549 197.916 396.008 199.599 395.687 199.806C395.752 199.731 395.988 199.494 396.745 198.73C397.841 197.641 400.193 191.884 399.446 191.129C398.7 190.381 396.055 184.983 394.015 174.744C391.965 164.507 387.912 162.484 387.912 162.484C387.128 161.708 387.015 160.64 387.336 159.572C388.167 160.432 388.989 161.32 389.764 162.2C391.889 164.62 393.618 166.964 394.015 168.524C395.195 173.166 396.688 180.966 398.03 184.832C399.361 188.689 399.126 190.817 402.12 189.795C405.115 188.765 410.111 185.739 410.111 185.739C410.111 185.739 411.056 187.47 411.368 189.36C411.576 190.646 411.651 191.866 411.67 192.527Z" fill="#D0D8E2"/>
<path d="M384.587 209.563C384 209.611 383.425 209.629 382.839 209.639C376.454 209.696 370.209 207.389 367.347 205.942C364.512 204.515 362.264 203.05 362.558 199.977C362.859 196.905 365.202 192.546 365.202 186.09C365.202 179.632 362.605 174.905 361.424 171.672C360.242 168.439 359.969 168.004 359.969 160.091C359.969 154.57 360.848 150.458 363.955 149.228C363.965 149.219 363.965 149.219 363.965 149.219C365.315 148.68 367.072 148.69 369.349 149.342C376.925 151.507 378.144 151.545 379.863 152.348C379.863 152.348 385.579 157.425 389.763 162.2C389.763 162.2 381.573 161.859 384.057 173.449C386.533 185.021 389.877 192.631 389.877 192.631C389.877 192.631 390.197 198.502 391.019 201.159C391.842 203.816 392.437 208.939 384.587 209.563Z" fill="#F9F9F9"/>
<path d="M365.627 194.068C365.099 195.836 363.001 201.3 365.751 204.052C368.49 206.794 378.815 209.015 382.839 209.639C376.454 209.696 370.209 207.389 367.347 205.942C364.512 204.515 362.264 203.05 362.558 199.977C362.859 196.905 365.202 192.546 365.202 186.09C365.202 179.632 362.605 174.904 361.424 171.672C360.242 168.439 359.969 168.004 359.969 160.091C359.969 154.57 360.848 150.457 363.955 149.228C363.709 149.559 358.589 156.612 362.047 168.996C365.59 181.674 366.147 181.91 366.534 186.326C366.931 190.74 371.021 192.706 376.538 194.834C381.573 196.781 386.098 196.687 386.826 196.658C386.042 196.735 380.94 197.113 375.14 195.543C368.82 193.832 366.157 192.291 365.627 194.068Z" fill="#E1E8F2"/>
<path d="M366.862 149.062C366.862 149.062 367.757 147.534 371.107 148.55C374.457 149.567 379.309 148.786 380.753 150C382.197 151.214 382.356 154.637 382.356 154.637C382.356 154.637 378.558 152.023 375.122 151.619C371.685 151.214 366.978 149.309 366.862 149.062Z" fill="#E1E8F2"/>
<path d="M364.014 136.198C366.341 139.74 378.54 139.12 381.843 137.443C385.145 135.765 386.897 135.52 388.779 133.449C391.01 130.994 388.294 126.106 388.294 126.106C388.294 126.106 393.497 132.316 388.649 134.878C388.649 134.878 394.234 134.542 391.545 127.193C388.856 119.844 380.168 115.135 372.774 118.188C365.379 121.242 358.812 128.901 362.897 136.767C362.897 136.767 360.725 129.638 364.914 125.679C364.914 125.679 361.912 130.57 364.014 136.198Z" fill="#073847"/>
<path d="M454.086 240.067L403.497 269.297V264.743L454.086 235.514V240.067Z" fill="url(#paint45_linear_161_4471)"/>
<path d="M454.086 249.885L403.497 279.114V274.561L454.086 245.331V249.885Z" fill="url(#paint46_linear_161_4471)"/>
<path d="M454.086 259.702L403.497 288.932V284.378L454.086 255.149V259.702Z" fill="url(#paint47_linear_161_4471)"/>
<path d="M454.087 269.52L403.497 298.75V294.196L454.087 264.966V269.52Z" fill="url(#paint48_linear_161_4471)"/>
<path d="M454.087 279.337L403.497 308.567V304.013L454.087 274.784L454.087 279.337Z" fill="url(#paint49_linear_161_4471)"/>
<path d="M454.086 289.292L426.365 305.309L426.365 300.755L454.086 284.739V289.292Z" fill="url(#paint50_linear_161_4471)"/>
<path d="M454.087 306.27L403.497 335.5L403.497 330.946L454.087 301.716L454.087 306.27Z" fill="url(#paint51_linear_161_4471)"/>
<path d="M454.087 316.087L403.498 345.317L403.497 340.763L454.087 311.534V316.087Z" fill="url(#paint52_linear_161_4471)"/>
<path d="M454.087 325.905L403.498 355.135V350.581L454.087 321.351V325.905Z" fill="url(#paint53_linear_161_4471)"/>
<path d="M454.088 335.722L403.498 364.952V360.399L454.088 331.169V335.722Z" fill="url(#paint54_linear_161_4471)"/>
<path d="M454.088 345.145L426.366 361.162L426.366 356.608L454.088 340.591V345.145Z" fill="url(#paint55_linear_161_4471)"/>
<g opacity="0.85">
<path d="M451.153 226.692L401.578 255.336L401.577 223.402L451.152 194.759L451.153 226.692Z" fill="#FFC933"/>
<path d="M446.732 204.382L409.242 226.043V224.492L446.732 202.831V204.382Z" fill="white"/>
<path d="M446.732 207.758L409.242 229.419V227.868L446.732 206.207V207.758Z" fill="white"/>
<path d="M446.732 211.135L409.242 232.795V231.244L446.732 209.583V211.135Z" fill="white"/>
<path d="M446.732 214.511L409.243 236.171V234.62L446.732 212.96L446.732 214.511Z" fill="white"/>
<path d="M446.732 217.887L409.243 239.548V237.996L446.732 216.336V217.887Z" fill="white"/>
<path d="M446.732 221.263L409.243 242.924V241.373L446.732 219.712V221.263Z" fill="white"/>
<path d="M405.998 227.917L407.696 226.936V225.385L405.998 226.366V227.917Z" fill="white"/>
<path d="M405.998 231.293L407.696 230.312V228.761L405.998 229.742V231.293Z" fill="white"/>
<path d="M405.998 234.669L407.696 233.688V232.137L405.998 233.118V234.669Z" fill="white"/>
<path d="M405.998 238.046L407.696 237.065V235.514L405.998 236.495V238.046Z" fill="white"/>
<path d="M405.998 241.422L407.696 240.441V238.89L405.998 239.871V241.422Z" fill="white"/>
<path d="M405.998 244.798L407.696 243.817V242.266L405.998 243.247V244.798Z" fill="white"/>
<path d="M405.998 248.175L407.696 247.194L407.696 245.642L405.998 246.623V248.175Z" fill="white"/>
<path d="M430.158 234.216L409.243 246.3V244.749L430.157 232.665L430.158 234.216Z" fill="white"/>
</g>
<path d="M332.36 248.861H328.963C328.897 248.799 328.831 248.736 328.763 248.674C328.645 248.74 328.523 248.801 328.4 248.861H327.829V249.114C325.199 250.161 321.727 250.09 319.566 248.842C317.136 247.438 317.281 245.075 319.852 243.525C319.837 243.519 319.822 243.514 319.808 243.509H319.852V238.698H314.41V241.994C313.348 241.774 312.268 241.592 311.176 241.447C311.095 243.599 308.309 245.324 304.872 245.324C301.438 245.323 298.648 243.596 298.57 241.448C297.696 241.564 296.83 241.704 295.974 241.868V238.697H289.892V243.509H289.932C289.919 243.514 289.905 243.519 289.892 243.523C292.464 245.077 292.607 247.439 290.179 248.842C288.658 249.721 286.483 250.016 284.411 249.748V248.861H281.343C281.22 248.801 281.098 248.74 280.98 248.674C280.912 248.736 280.847 248.799 280.781 248.861H277.383V253.698H277.74C281.293 253.838 284.094 255.409 284.092 257.33C284.093 258.009 283.743 258.644 283.135 259.188V256.145H277.385V260.974H277.386C278.077 262.725 279.276 264.419 280.98 265.986C283.664 264.499 287.749 264.417 290.177 265.821C290.441 265.973 290.672 266.137 290.875 266.31H289.892V271.127H289.906C289.901 271.13 289.897 271.133 289.892 271.137C292.603 272.121 295.54 272.814 298.57 273.213C298.648 271.065 301.438 269.338 304.871 269.338C308.307 269.337 311.095 271.064 311.175 273.214C314.205 272.812 317.14 272.122 319.852 271.137C319.847 271.133 319.842 271.13 319.837 271.127H319.852V266.31H318.868C319.071 266.137 319.303 265.973 319.566 265.821C321.994 264.417 326.079 264.5 328.768 265.986C330.47 264.42 331.669 262.723 332.36 260.973C332.096 260.969 331.836 260.957 331.579 260.939H332.36V256.146H326.232V258.797C325.86 258.348 325.651 257.852 325.651 257.33C325.651 255.344 328.642 253.734 332.36 253.688C332.356 253.679 332.353 253.67 332.349 253.661H332.36V248.861ZM313.273 262.185C308.634 264.865 301.112 264.864 296.475 262.184C291.834 259.503 291.832 255.156 296.473 252.476C301.11 249.796 308.632 249.797 313.273 252.476C317.912 255.157 317.912 259.504 313.273 262.185Z" fill="url(#paint56_linear_161_4471)"/>
<path d="M280.98 243.847C279.276 245.416 278.078 247.11 277.383 248.861C281.104 248.907 284.095 250.518 284.093 252.503C284.095 254.488 281.104 256.101 277.385 256.145C278.076 257.897 279.276 259.592 280.98 261.159C283.664 259.672 287.749 259.59 290.177 260.995C292.607 262.398 292.467 264.759 289.892 266.31C292.603 267.294 295.54 267.987 298.57 268.386C298.649 266.239 301.438 264.511 304.872 264.511C308.307 264.51 311.095 266.237 311.176 268.387C314.206 267.985 317.14 267.295 319.852 266.31C317.281 264.759 317.138 262.397 319.566 260.995C321.994 259.59 326.079 259.673 328.768 261.159C330.47 259.593 331.669 257.896 332.36 256.146C328.642 256.099 325.651 254.488 325.651 252.503C325.651 250.517 328.642 248.907 332.36 248.861C331.669 247.11 330.47 245.414 328.764 243.847C326.081 245.334 321.994 245.419 319.566 244.015C317.136 242.611 317.281 240.248 319.852 238.698C317.14 237.713 314.206 237.02 311.176 236.621C311.095 238.772 308.309 240.497 304.872 240.497C301.438 240.496 298.649 238.769 298.57 236.622C295.54 237.02 292.603 237.713 289.892 238.697C292.464 240.25 292.607 242.611 290.179 244.015C287.753 245.417 283.664 245.335 280.98 243.847ZM296.473 247.65C301.11 244.969 308.632 244.97 313.273 247.65C317.912 250.33 317.912 254.678 313.273 257.358C308.634 260.038 301.112 260.037 296.475 257.357C291.834 254.676 291.832 250.329 296.473 247.65Z" fill="url(#paint57_linear_161_4471)"/>
<path d="M346.096 271.948H344.112C344.073 271.912 344.035 271.875 343.996 271.839C343.926 271.878 343.852 271.913 343.779 271.948H343.45V272.094C341.914 272.706 339.887 272.666 338.625 271.937C337.206 271.117 337.29 269.737 338.792 268.832C338.783 268.829 338.774 268.826 338.766 268.823H338.792V266.013H335.614V267.939C334.994 267.81 334.363 267.703 333.725 267.619C333.678 268.875 332.051 269.883 330.044 269.883C328.039 269.882 326.41 268.874 326.364 267.62C325.853 267.687 325.348 267.77 324.848 267.866V266.013H321.297V268.823H321.321C321.313 268.826 321.304 268.828 321.297 268.831C322.799 269.738 322.882 271.117 321.464 271.937C320.576 272.451 319.306 272.623 318.096 272.466V271.949H316.309C316.236 271.913 316.162 271.878 316.093 271.839C316.053 271.876 316.015 271.912 315.976 271.949H313.992V274.773H314.2C316.276 274.855 317.911 275.772 317.91 276.894C317.911 277.29 317.706 277.661 317.351 277.979V276.202H313.993V279.022H313.994C314.397 280.044 315.098 281.034 316.093 281.949C317.66 281.08 320.045 281.032 321.463 281.852C321.617 281.941 321.752 282.037 321.871 282.138H321.297V284.951H321.305C321.302 284.952 321.299 284.954 321.297 284.956C322.88 285.531 324.595 285.936 326.364 286.168C326.41 284.914 328.039 283.906 330.044 283.906C332.05 283.905 333.678 284.914 333.725 286.169C335.495 285.935 337.208 285.532 338.792 284.956C338.789 284.954 338.786 284.952 338.783 284.951H338.792V282.138H338.218C338.336 282.037 338.471 281.941 338.625 281.852C340.043 281.032 342.428 281.081 343.998 281.949C344.992 281.034 345.693 280.043 346.096 279.021C345.942 279.019 345.79 279.012 345.64 279.001H346.096V276.203H342.518V277.75C342.3 277.488 342.178 277.199 342.178 276.894C342.178 275.734 343.925 274.794 346.096 274.767C346.094 274.762 346.092 274.757 346.09 274.752H346.096L346.096 271.948ZM334.95 279.729C332.241 281.294 327.848 281.293 325.141 279.728C322.43 278.163 322.429 275.624 325.139 274.059C327.847 272.494 332.24 272.495 334.95 274.059C337.659 275.625 337.659 278.163 334.95 279.729Z" fill="#EAB91F"/>
<path d="M316.092 269.021C315.097 269.937 314.398 270.926 313.992 271.948C316.165 271.975 317.911 272.916 317.91 274.075C317.911 275.234 316.165 276.176 313.993 276.202C314.396 277.225 315.097 278.215 316.092 279.13C317.66 278.261 320.045 278.214 321.463 279.034C322.882 279.853 322.8 281.232 321.296 282.138C322.88 282.712 324.594 283.117 326.364 283.35C326.41 282.096 328.039 281.087 330.044 281.087C332.05 281.087 333.678 282.095 333.725 283.351C335.495 283.116 337.208 282.713 338.792 282.138C337.29 281.232 337.207 279.853 338.625 279.034C340.043 278.214 342.428 278.262 343.998 279.13C344.992 278.215 345.692 277.225 346.096 276.203C343.924 276.175 342.178 275.234 342.178 274.075C342.178 272.915 343.924 271.975 346.096 271.948C345.692 270.926 344.992 269.936 343.996 269.021C342.429 269.889 340.043 269.938 338.625 269.118C337.206 268.298 337.29 266.919 338.792 266.013C337.208 265.438 335.495 265.034 333.725 264.8C333.678 266.057 332.051 267.064 330.044 267.064C328.039 267.064 326.41 266.055 326.364 264.801C324.594 265.034 322.88 265.438 321.296 266.013C322.799 266.92 322.882 268.299 321.464 269.118C320.048 269.937 317.66 269.889 316.092 269.021ZM325.139 271.241C327.847 269.676 332.24 269.676 334.95 271.241C337.659 272.806 337.659 275.345 334.95 276.91C332.241 278.475 327.848 278.475 325.141 276.91C322.43 275.344 322.429 272.805 325.139 271.241Z" fill="#F5D451"/>
<defs>
<linearGradient id="paint0_linear_161_4471" x1="198.884" y1="117.673" x2="232.406" y2="131.242" gradientUnits="userSpaceOnUse">
<stop stop-color="#25D366"/>
<stop offset="1" stop-color="#009036"/>
</linearGradient>
<linearGradient id="paint1_linear_161_4471" x1="200.04" y1="125.595" x2="220.813" y2="125.595" gradientUnits="userSpaceOnUse">
<stop stop-color="#E2E3E5"/>
<stop offset="1" stop-color="#EFEFEF"/>
</linearGradient>
<linearGradient id="paint2_linear_161_4471" x1="200.04" y1="128.272" x2="220.813" y2="128.272" gradientUnits="userSpaceOnUse">
<stop stop-color="#E2E3E5"/>
<stop offset="1" stop-color="#EFEFEF"/>
</linearGradient>
<linearGradient id="paint3_linear_161_4471" x1="200.04" y1="134.029" x2="210.152" y2="134.029" gradientUnits="userSpaceOnUse">
<stop stop-color="#E2E3E5"/>
<stop offset="1" stop-color="#EFEFEF"/>
</linearGradient>
<linearGradient id="paint4_linear_161_4471" x1="200.04" y1="133.627" x2="220.813" y2="133.627" gradientUnits="userSpaceOnUse">
<stop stop-color="#E2E3E5"/>
<stop offset="1" stop-color="#EFEFEF"/>
</linearGradient>
<linearGradient id="paint5_linear_161_4471" x1="200.04" y1="139.385" x2="210.152" y2="139.385" gradientUnits="userSpaceOnUse">
<stop stop-color="#E2E3E5"/>
<stop offset="1" stop-color="#EFEFEF"/>
</linearGradient>
<linearGradient id="paint6_linear_161_4471" x1="198.18" y1="151.419" x2="233.746" y2="165.814" gradientUnits="userSpaceOnUse">
<stop stop-color="#25D366"/>
<stop offset="1" stop-color="#009036"/>
</linearGradient>
<linearGradient id="paint7_linear_161_4471" x1="202.22" y1="168.433" x2="206.547" y2="168.433" gradientUnits="userSpaceOnUse">
<stop stop-color="#E2E3E5"/>
<stop offset="1" stop-color="#EFEFEF"/>
</linearGradient>
<linearGradient id="paint8_linear_161_4471" x1="208.65" y1="164.718" x2="212.977" y2="164.718" gradientUnits="userSpaceOnUse">
<stop stop-color="#E2E3E5"/>
<stop offset="1" stop-color="#EFEFEF"/>
</linearGradient>
<linearGradient id="paint9_linear_161_4471" x1="215.08" y1="161.003" x2="219.406" y2="161.003" gradientUnits="userSpaceOnUse">
<stop stop-color="#E2E3E5"/>
<stop offset="1" stop-color="#EFEFEF"/>
</linearGradient>
<linearGradient id="paint10_linear_161_4471" x1="198.94" y1="190.328" x2="228.475" y2="206.892" gradientUnits="userSpaceOnUse">
<stop stop-color="#25D366"/>
<stop offset="1" stop-color="#009036"/>
</linearGradient>
<linearGradient id="paint11_linear_161_4471" x1="203.404" y1="202.956" x2="206.454" y2="202.956" gradientUnits="userSpaceOnUse">
<stop stop-color="#E2E3E5"/>
<stop offset="1" stop-color="#EFEFEF"/>
</linearGradient>
<linearGradient id="paint12_linear_161_4471" x1="209.278" y1="199.562" x2="212.328" y2="199.562" gradientUnits="userSpaceOnUse">
<stop stop-color="#E2E3E5"/>
<stop offset="1" stop-color="#EFEFEF"/>
</linearGradient>
<linearGradient id="paint13_linear_161_4471" x1="215.152" y1="196.168" x2="218.202" y2="196.168" gradientUnits="userSpaceOnUse">
<stop stop-color="#E2E3E5"/>
<stop offset="1" stop-color="#EFEFEF"/>
</linearGradient>
<linearGradient id="paint14_linear_161_4471" x1="198.553" y1="222.463" x2="231.921" y2="237.488" gradientUnits="userSpaceOnUse">
<stop stop-color="#25D366"/>
<stop offset="1" stop-color="#009036"/>
</linearGradient>
<linearGradient id="paint15_linear_161_4471" x1="203.145" y1="237.964" x2="217.708" y2="237.964" gradientUnits="userSpaceOnUse">
<stop stop-color="#E2E3E5"/>
<stop offset="1" stop-color="#EFEFEF"/>
</linearGradient>
<linearGradient id="paint16_linear_161_4471" x1="464.785" y1="256.813" x2="434.026" y2="256.813" gradientUnits="userSpaceOnUse">
<stop stop-color="#CCCCCC"/>
<stop offset="1" stop-color="#DBDBDB"/>
</linearGradient>
<linearGradient id="paint17_linear_161_4471" x1="440.577" y1="260.168" x2="445.689" y2="251.228" gradientUnits="userSpaceOnUse">
<stop stop-color="#CCCCCC"/>
<stop offset="1" stop-color="#DBDBDB"/>
</linearGradient>
<linearGradient id="paint18_linear_161_4471" x1="492.912" y1="216.815" x2="487.303" y2="209.225" gradientUnits="userSpaceOnUse">
<stop stop-color="#CCCCCC"/>
<stop offset="1" stop-color="#DBDBDB"/>
</linearGradient>
<linearGradient id="paint19_linear_161_4471" x1="361.648" y1="178.095" x2="551.571" y2="178.095" gradientUnits="userSpaceOnUse">
<stop stop-color="#E2E3E5"/>
<stop offset="1" stop-color="#EFEFEF"/>
</linearGradient>
<linearGradient id="paint20_linear_161_4471" x1="380.963" y1="84.2957" x2="584.241" y2="191.297" gradientUnits="userSpaceOnUse">
<stop stop-color="#25D366"/>
<stop offset="1" stop-color="#009036"/>
</linearGradient>
<linearGradient id="paint21_linear_161_4471" x1="358.265" y1="329.05" x2="360.376" y2="329.05" gradientUnits="userSpaceOnUse">
<stop stop-color="#CCCCCC"/>
<stop offset="1" stop-color="#DBDBDB"/>
</linearGradient>
<linearGradient id="paint22_linear_161_4471" x1="359.199" y1="308.952" x2="296.646" y2="336.355" gradientUnits="userSpaceOnUse">
<stop stop-color="#E2E3E5"/>
<stop offset="1" stop-color="#EFEFEF"/>
</linearGradient>
<linearGradient id="paint23_linear_161_4471" x1="247.347" y1="96.7363" x2="254.492" y2="96.7363" gradientUnits="userSpaceOnUse">
<stop stop-color="#FFB888"/>
<stop offset="0.287" stop-color="#FF9B57"/>
<stop offset="1" stop-color="#FF6801"/>
</linearGradient>
<linearGradient id="paint24_linear_161_4471" x1="262.191" y1="123.319" x2="269.337" y2="123.319" gradientUnits="userSpaceOnUse">
<stop stop-color="#FFB888"/>
<stop offset="0.287" stop-color="#FF9B57"/>
<stop offset="1" stop-color="#FF6801"/>
</linearGradient>
<linearGradient id="paint25_linear_161_4471" x1="277.035" y1="149.901" x2="284.181" y2="149.901" gradientUnits="userSpaceOnUse">
<stop stop-color="#FFB888"/>
<stop offset="0.287" stop-color="#FF9B57"/>
<stop offset="1" stop-color="#FF6801"/>
</linearGradient>
<linearGradient id="paint26_linear_161_4471" x1="291.879" y1="88.5859" x2="299.025" y2="88.5859" gradientUnits="userSpaceOnUse">
<stop stop-color="#FFB888"/>
<stop offset="0.287" stop-color="#FF9B57"/>
<stop offset="1" stop-color="#FF6801"/>
</linearGradient>
<linearGradient id="paint27_linear_161_4471" x1="321.567" y1="71.4328" x2="328.713" y2="71.4328" gradientUnits="userSpaceOnUse">
<stop stop-color="#FFB888"/>
<stop offset="0.287" stop-color="#FF9B57"/>
<stop offset="1" stop-color="#FF6801"/>
</linearGradient>
<linearGradient id="paint28_linear_161_4471" x1="248.654" y1="178.009" x2="287.074" y2="178.009" gradientUnits="userSpaceOnUse">
<stop stop-color="#CCCCCC"/>
<stop offset="1" stop-color="#DBDBDB"/>
</linearGradient>
<linearGradient id="paint29_linear_161_4471" x1="248.654" y1="190.101" x2="260.939" y2="190.101" gradientUnits="userSpaceOnUse">
<stop stop-color="#CCCCCC"/>
<stop offset="1" stop-color="#DBDBDB"/>
</linearGradient>
<linearGradient id="paint30_linear_161_4471" x1="248.654" y1="190.16" x2="287.074" y2="190.16" gradientUnits="userSpaceOnUse">
<stop stop-color="#CCCCCC"/>
<stop offset="1" stop-color="#DBDBDB"/>
</linearGradient>
<linearGradient id="paint31_linear_161_4471" x1="248.654" y1="199.316" x2="271.104" y2="199.316" gradientUnits="userSpaceOnUse">
<stop stop-color="#CCCCCC"/>
<stop offset="1" stop-color="#DBDBDB"/>
</linearGradient>
<linearGradient id="paint32_linear_161_4471" x1="248.654" y1="202.312" x2="287.074" y2="202.312" gradientUnits="userSpaceOnUse">
<stop stop-color="#CCCCCC"/>
<stop offset="1" stop-color="#DBDBDB"/>
</linearGradient>
<linearGradient id="paint33_linear_161_4471" x1="248.654" y1="213.189" x2="265.145" y2="213.189" gradientUnits="userSpaceOnUse">
<stop stop-color="#CCCCCC"/>
<stop offset="1" stop-color="#DBDBDB"/>
</linearGradient>
<linearGradient id="paint34_linear_161_4471" x1="248.654" y1="214.463" x2="287.074" y2="214.463" gradientUnits="userSpaceOnUse">
<stop stop-color="#CCCCCC"/>
<stop offset="1" stop-color="#DBDBDB"/>
</linearGradient>
<linearGradient id="paint35_linear_161_4471" x1="248.654" y1="222.08" x2="276.432" y2="222.08" gradientUnits="userSpaceOnUse">
<stop stop-color="#CCCCCC"/>
<stop offset="1" stop-color="#DBDBDB"/>
</linearGradient>
<linearGradient id="paint36_linear_161_4471" x1="304.963" y1="145.474" x2="343.383" y2="145.474" gradientUnits="userSpaceOnUse">
<stop stop-color="#CCCCCC"/>
<stop offset="1" stop-color="#DBDBDB"/>
</linearGradient>
<linearGradient id="paint37_linear_161_4471" x1="304.964" y1="157.567" x2="317.248" y2="157.567" gradientUnits="userSpaceOnUse">
<stop stop-color="#CCCCCC"/>
<stop offset="1" stop-color="#DBDBDB"/>
</linearGradient>
<linearGradient id="paint38_linear_161_4471" x1="304.964" y1="157.626" x2="343.383" y2="157.626" gradientUnits="userSpaceOnUse">
<stop stop-color="#CCCCCC"/>
<stop offset="1" stop-color="#DBDBDB"/>
</linearGradient>
<linearGradient id="paint39_linear_161_4471" x1="304.964" y1="166.782" x2="327.413" y2="166.782" gradientUnits="userSpaceOnUse">
<stop stop-color="#CCCCCC"/>
<stop offset="1" stop-color="#DBDBDB"/>
</linearGradient>
<linearGradient id="paint40_linear_161_4471" x1="304.964" y1="169.777" x2="343.384" y2="169.777" gradientUnits="userSpaceOnUse">
<stop stop-color="#CCCCCC"/>
<stop offset="1" stop-color="#DBDBDB"/>
</linearGradient>
<linearGradient id="paint41_linear_161_4471" x1="304.964" y1="180.655" x2="321.455" y2="180.655" gradientUnits="userSpaceOnUse">
<stop stop-color="#CCCCCC"/>
<stop offset="1" stop-color="#DBDBDB"/>
</linearGradient>
<linearGradient id="paint42_linear_161_4471" x1="304.964" y1="181.929" x2="343.384" y2="181.929" gradientUnits="userSpaceOnUse">
<stop stop-color="#CCCCCC"/>
<stop offset="1" stop-color="#DBDBDB"/>
</linearGradient>
<linearGradient id="paint43_linear_161_4471" x1="304.964" y1="189.546" x2="332.742" y2="189.546" gradientUnits="userSpaceOnUse">
<stop stop-color="#CCCCCC"/>
<stop offset="1" stop-color="#DBDBDB"/>
</linearGradient>
<linearGradient id="paint44_linear_161_4471" x1="472.612" y1="244.061" x2="530.32" y2="244.061" gradientUnits="userSpaceOnUse">
<stop stop-color="#E2E3E5"/>
<stop offset="1" stop-color="#EFEFEF"/>
</linearGradient>
<linearGradient id="paint45_linear_161_4471" x1="403.497" y1="252.405" x2="454.086" y2="252.405" gradientUnits="userSpaceOnUse">
<stop stop-color="#00C6FF"/>
<stop offset="1" stop-color="#0072FF"/>
</linearGradient>
<linearGradient id="paint46_linear_161_4471" x1="403.497" y1="262.223" x2="454.086" y2="262.223" gradientUnits="userSpaceOnUse">
<stop stop-color="#25D366"/>
<stop offset="1" stop-color="#25D366"/>
</linearGradient>
<linearGradient id="paint47_linear_161_4471" x1="403.497" y1="272.04" x2="454.086" y2="272.04" gradientUnits="userSpaceOnUse">
<stop stop-color="#25D366"/>
<stop offset="1" stop-color="#25D366"/>
</linearGradient>
<linearGradient id="paint48_linear_161_4471" x1="403.497" y1="281.858" x2="454.087" y2="281.858" gradientUnits="userSpaceOnUse">
<stop stop-color="#00C6FF"/>
<stop offset="1" stop-color="#0072FF"/>
</linearGradient>
<linearGradient id="paint49_linear_161_4471" x1="403.497" y1="291.675" x2="454.087" y2="291.675" gradientUnits="userSpaceOnUse">
<stop stop-color="#00C6FF"/>
<stop offset="1" stop-color="#0072FF"/>
</linearGradient>
<linearGradient id="paint50_linear_161_4471" x1="426.365" y1="295.024" x2="454.086" y2="295.024" gradientUnits="userSpaceOnUse">
<stop stop-color="#00C6FF"/>
<stop offset="1" stop-color="#0072FF"/>
</linearGradient>
<linearGradient id="paint51_linear_161_4471" x1="407.476" y1="304.228" x2="448.429" y2="339.914" gradientUnits="userSpaceOnUse">
<stop stop-color="#25D366"/>
<stop offset="1" stop-color="#009036"/>
</linearGradient>
<linearGradient id="paint52_linear_161_4471" x1="407.476" y1="314.045" x2="448.429" y2="349.731" gradientUnits="userSpaceOnUse">
<stop stop-color="#25D366"/>
<stop offset="1" stop-color="#009036"/>
</linearGradient>
<linearGradient id="paint53_linear_161_4471" x1="407.477" y1="323.862" x2="448.429" y2="359.548" gradientUnits="userSpaceOnUse">
<stop stop-color="#25D366"/>
<stop offset="1" stop-color="#009036"/>
</linearGradient>
<linearGradient id="paint54_linear_161_4471" x1="407.477" y1="333.68" x2="448.429" y2="369.366" gradientUnits="userSpaceOnUse">
<stop stop-color="#25D366"/>
<stop offset="1" stop-color="#009036"/>
</linearGradient>
<linearGradient id="paint55_linear_161_4471" x1="428.546" y1="342.12" x2="452.993" y2="361.291" gradientUnits="userSpaceOnUse">
<stop stop-color="#25D366"/>
<stop offset="1" stop-color="#009036"/>
</linearGradient>
<linearGradient id="paint56_linear_161_4471" x1="271.395" y1="259.161" x2="330.412" y2="252.678" gradientUnits="userSpaceOnUse">
<stop stop-color="#FFB888"/>
<stop offset="0.287" stop-color="#FF9B57"/>
<stop offset="1" stop-color="#FF6801"/>
</linearGradient>
<linearGradient id="paint57_linear_161_4471" x1="332.962" y1="251.84" x2="239.03" y2="254.058" gradientUnits="userSpaceOnUse">
<stop stop-color="#FFB888"/>
<stop offset="1" stop-color="white"/>
</linearGradient>
</defs>
</svg>
