<svg width="155" height="36" viewBox="0 0 155 36" fill="none" xmlns="http://www.w3.org/2000/svg">
<rect x="23.0611" y="3.83154" width="8.29434" height="21.2392" rx="4.14717" transform="rotate(30 23.0611 3.83154)" fill="#25D366"/>
<rect x="10.6196" y="11.2966" width="8.29434" height="21.2392" rx="4.14717" transform="rotate(30 10.6196 11.2966)" fill="#25D366"/>
<rect x="1.59238" y="4.14722" width="8.29434" height="35.6657" rx="4.14717" transform="rotate(-30 1.59238 4.14722)" fill="url(#paint0_linear_52_1705)"/>
<path d="M11.5 19.5L16 15" stroke="#25D366" stroke-linecap="round"/>
<path d="M42.4842 27.0173L47.3322 20.4653L42.5922 14.0573H45.5682L48.7962 18.5093L51.9882 14.0573H54.9642L50.2242 20.4653L55.0842 27.0173H52.0962L48.7962 22.4213L45.4722 27.0173H42.4842ZM62.5864 27.3773C61.3464 27.3773 60.3064 27.0773 59.4664 26.4773C58.6264 25.8693 57.9904 25.0493 57.5584 24.0173C57.1264 22.9853 56.9104 21.8213 56.9104 20.5253C56.9104 19.2293 57.1224 18.0653 57.5464 17.0333C57.9784 16.0013 58.6104 15.1893 59.4424 14.5973C60.2824 13.9973 61.3144 13.6973 62.5384 13.6973C63.7544 13.6973 64.8024 13.9973 65.6824 14.5973C66.5704 15.1893 67.2544 16.0013 67.7344 17.0333C68.2144 18.0573 68.4544 19.2213 68.4544 20.5253C68.4544 21.8213 68.2144 22.9893 67.7344 24.0293C67.2624 25.0613 66.5864 25.8773 65.7064 26.4773C64.8344 27.0773 63.7944 27.3773 62.5864 27.3773ZM56.4904 27.0173V9.73733H59.0104V17.6933H58.7224V27.0173H56.4904ZM62.2384 25.1093C63.0384 25.1093 63.6984 24.9053 64.2184 24.4973C64.7464 24.0893 65.1384 23.5413 65.3944 22.8533C65.6584 22.1573 65.7904 21.3813 65.7904 20.5253C65.7904 19.6773 65.6584 18.9093 65.3944 18.2213C65.1384 17.5333 64.7424 16.9853 64.2064 16.5773C63.6704 16.1693 62.9864 15.9653 62.1544 15.9653C61.3704 15.9653 60.7224 16.1573 60.2104 16.5413C59.7064 16.9253 59.3304 17.4613 59.0824 18.1493C58.8424 18.8373 58.7224 19.6293 58.7224 20.5253C58.7224 21.4213 58.8424 22.2133 59.0824 22.9013C59.3224 23.5893 59.7024 24.1293 60.2224 24.5213C60.7424 24.9133 61.4144 25.1093 62.2384 25.1093ZM86.1319 27.0173L86.1439 18.9413C86.1439 18.0053 85.9039 17.2773 85.4239 16.7573C84.9439 16.2293 84.3119 15.9653 83.5279 15.9653C83.0479 15.9653 82.6079 16.0773 82.2079 16.3013C81.8159 16.5173 81.4959 16.8453 81.2479 17.2853C81.0079 17.7173 80.8879 18.2613 80.8879 18.9173L79.6759 18.3053C79.6599 17.3933 79.8519 16.5933 80.2519 15.9053C80.6599 15.2173 81.2119 14.6853 81.9079 14.3093C82.6039 13.9253 83.3839 13.7333 84.2479 13.7333C85.6479 13.7333 86.7319 14.1533 87.4999 14.9933C88.2679 15.8333 88.6519 16.9493 88.6519 18.3413L88.6399 27.0173H86.1319ZM70.5919 27.0173V14.0573H72.8239V17.8013H73.1119V27.0173H70.5919ZM78.3679 27.0173L78.3799 18.9893C78.3799 18.0453 78.1399 17.3053 77.6599 16.7693C77.1879 16.2333 76.5519 15.9653 75.7519 15.9653C74.9599 15.9653 74.3199 16.2373 73.8319 16.7813C73.3519 17.3253 73.1119 18.0373 73.1119 18.9173L71.9119 18.1493C71.9119 17.3013 72.1159 16.5453 72.5239 15.8813C72.9319 15.2173 73.4839 14.6933 74.1799 14.3093C74.8759 13.9253 75.6639 13.7333 76.5439 13.7333C77.4639 13.7333 78.2479 13.9293 78.8959 14.3213C79.5439 14.7053 80.0359 15.2453 80.3719 15.9413C80.7159 16.6373 80.8879 17.4453 80.8879 18.3653L80.8759 27.0173H78.3679ZM96.224 27.3653C94.648 27.3653 93.364 27.0173 92.372 26.3213C91.38 25.6253 90.772 24.6453 90.548 23.3813L93.116 22.9853C93.276 23.6573 93.644 24.1893 94.22 24.5813C94.804 24.9653 95.528 25.1573 96.392 25.1573C97.176 25.1573 97.788 24.9973 98.228 24.6773C98.676 24.3573 98.9 23.9173 98.9 23.3573C98.9 23.0293 98.82 22.7653 98.66 22.5653C98.508 22.3573 98.184 22.1613 97.688 21.9773C97.192 21.7933 96.436 21.5653 95.42 21.2933C94.308 21.0053 93.424 20.6973 92.768 20.3693C92.12 20.0333 91.656 19.6453 91.376 19.2053C91.104 18.7573 90.968 18.2173 90.968 17.5853C90.968 16.8013 91.176 16.1173 91.592 15.5333C92.008 14.9493 92.592 14.4973 93.344 14.1773C94.104 13.8573 94.992 13.6973 96.008 13.6973C97 13.6973 97.884 13.8533 98.66 14.1653C99.436 14.4773 100.064 14.9213 100.544 15.4973C101.024 16.0653 101.312 16.7333 101.408 17.5013L98.84 17.9693C98.752 17.3453 98.46 16.8533 97.964 16.4933C97.468 16.1333 96.824 15.9373 96.032 15.9053C95.272 15.8733 94.656 16.0013 94.184 16.2893C93.712 16.5693 93.476 16.9573 93.476 17.4533C93.476 17.7413 93.564 17.9853 93.74 18.1853C93.924 18.3853 94.276 18.5773 94.796 18.7613C95.316 18.9453 96.084 19.1653 97.1 19.4213C98.188 19.7013 99.052 20.0133 99.692 20.3573C100.332 20.6933 100.788 21.0973 101.06 21.5693C101.34 22.0333 101.48 22.5973 101.48 23.2613C101.48 24.5413 101.012 25.5453 100.076 26.2733C99.148 27.0013 97.864 27.3653 96.224 27.3653ZM107.94 27.0173V9.73733H114.924C115.092 9.73733 115.3 9.74533 115.548 9.76133C115.796 9.76933 116.032 9.79333 116.256 9.83333C117.216 9.98533 118.016 10.3133 118.656 10.8173C119.304 11.3213 119.788 11.9573 120.108 12.7253C120.428 13.4933 120.588 14.3413 120.588 15.2693C120.588 16.2053 120.428 17.0573 120.108 17.8253C119.788 18.5933 119.304 19.2293 118.656 19.7333C118.016 20.2373 117.216 20.5653 116.256 20.7173C116.032 20.7493 115.792 20.7733 115.536 20.7893C115.288 20.8053 115.084 20.8133 114.924 20.8133H110.448V27.0173H107.94ZM110.448 18.4373H114.828C114.988 18.4373 115.164 18.4293 115.356 18.4133C115.556 18.3973 115.744 18.3693 115.92 18.3293C116.432 18.2093 116.844 17.9893 117.156 17.6693C117.468 17.3413 117.692 16.9653 117.828 16.5413C117.964 16.1173 118.032 15.6933 118.032 15.2693C118.032 14.8453 117.964 14.4253 117.828 14.0093C117.692 13.5853 117.468 13.2133 117.156 12.8933C116.844 12.5653 116.432 12.3413 115.92 12.2213C115.744 12.1733 115.556 12.1413 115.356 12.1253C115.164 12.1093 114.988 12.1013 114.828 12.1013H110.448V18.4373ZM122.727 27.0173V9.37733H125.235V27.0173H122.727ZM133.222 27.3653C132.326 27.3653 131.574 27.2213 130.966 26.9333C130.358 26.6453 129.862 26.2693 129.478 25.8053C129.102 25.3333 128.814 24.8213 128.614 24.2693C128.414 23.7173 128.278 23.1773 128.206 22.6493C128.134 22.1213 128.098 21.6573 128.098 21.2573V14.0573H130.642V20.4293C130.642 20.9333 130.682 21.4533 130.762 21.9893C130.85 22.5173 131.01 23.0093 131.242 23.4653C131.482 23.9213 131.814 24.2893 132.238 24.5693C132.67 24.8493 133.23 24.9893 133.918 24.9893C134.366 24.9893 134.79 24.9173 135.19 24.7733C135.59 24.6213 135.938 24.3813 136.234 24.0533C136.538 23.7253 136.774 23.2933 136.942 22.7573C137.118 22.2213 137.206 21.5693 137.206 20.8013L138.766 21.3893C138.766 22.5653 138.546 23.6053 138.106 24.5093C137.666 25.4053 137.034 26.1053 136.21 26.6093C135.386 27.1133 134.39 27.3653 133.222 27.3653ZM137.506 27.0173V23.2733H137.206V14.0573H139.738V27.0173H137.506ZM147.56 27.3653C145.984 27.3653 144.7 27.0173 143.708 26.3213C142.716 25.6253 142.108 24.6453 141.884 23.3813L144.452 22.9853C144.612 23.6573 144.98 24.1893 145.556 24.5813C146.14 24.9653 146.864 25.1573 147.728 25.1573C148.512 25.1573 149.124 24.9973 149.564 24.6773C150.012 24.3573 150.236 23.9173 150.236 23.3573C150.236 23.0293 150.156 22.7653 149.996 22.5653C149.844 22.3573 149.52 22.1613 149.024 21.9773C148.528 21.7933 147.772 21.5653 146.756 21.2933C145.644 21.0053 144.76 20.6973 144.104 20.3693C143.456 20.0333 142.992 19.6453 142.712 19.2053C142.44 18.7573 142.304 18.2173 142.304 17.5853C142.304 16.8013 142.512 16.1173 142.928 15.5333C143.344 14.9493 143.928 14.4973 144.68 14.1773C145.44 13.8573 146.328 13.6973 147.344 13.6973C148.336 13.6973 149.22 13.8533 149.996 14.1653C150.772 14.4773 151.4 14.9213 151.88 15.4973C152.36 16.0653 152.648 16.7333 152.744 17.5013L150.176 17.9693C150.088 17.3453 149.796 16.8533 149.3 16.4933C148.804 16.1333 148.16 15.9373 147.368 15.9053C146.608 15.8733 145.992 16.0013 145.52 16.2893C145.048 16.5693 144.812 16.9573 144.812 17.4533C144.812 17.7413 144.9 17.9853 145.076 18.1853C145.26 18.3853 145.612 18.5773 146.132 18.7613C146.652 18.9453 147.42 19.1653 148.436 19.4213C149.524 19.7013 150.388 20.0133 151.028 20.3573C151.668 20.6933 152.124 21.0973 152.396 21.5693C152.676 22.0333 152.816 22.5973 152.816 23.2613C152.816 24.5413 152.348 25.5453 151.412 26.2733C150.484 27.0013 149.2 27.3653 147.56 27.3653Z" fill="#223039"/>
<defs>
<linearGradient id="paint0_linear_52_1705" x1="4.84232" y1="-1.63199" x2="5.90802" y2="51.5222" gradientUnits="userSpaceOnUse">
<stop stop-color="#25D366"/>
<stop offset="0.9999" stop-color="#8DFBB7"/>
<stop offset="1" stop-color="#25D366" stop-opacity="0"/>
<stop offset="1" stop-color="#5AFF97"/>
</linearGradient>
</defs>
</svg>
