<svg width="24" height="25" viewBox="0 0 24 25" fill="none" xmlns="http://www.w3.org/2000/svg">
<g clip-path="url(#clip0_42_589)">
<path d="M23.0701 18.5603L17.1962 12.7006C17.1193 12.6239 17.015 12.5808 16.9063 12.5808C16.7977 12.5807 16.6934 12.6238 16.6164 12.7006L15.922 13.3931L14.9136 12.3863L18.3281 8.96915C19.8836 9.37012 21.4594 8.95089 22.5859 7.82356C23.7234 6.68515 24.1936 5.01391 23.8129 3.46207C23.7381 3.1574 23.346 3.04725 23.1238 3.26966L20.9374 5.45791L18.5235 3.04217L20.7104 0.853556C20.9324 0.631299 20.8226 0.239453 20.518 0.164684C18.9672 -0.216393 17.297 0.254222 16.1594 1.39279C15.0144 2.53863 14.6125 4.09812 15.059 5.60971L12.5406 8.13089C12.4654 8.20829 12.4237 8.31217 12.4245 8.42008C12.4253 8.52798 12.4686 8.63123 12.5449 8.7075C12.6213 8.78376 12.7245 8.82691 12.8325 8.82761C12.9404 8.82832 13.0442 8.78651 13.1215 8.71125L15.8179 6.01186C15.8729 5.95679 15.9111 5.88722 15.9281 5.81126C15.945 5.7353 15.9401 5.65608 15.9137 5.58284C15.4532 4.30135 15.7621 2.95202 16.7402 1.97325C17.4879 1.22494 18.5151 0.826171 19.5463 0.857094L17.6528 2.75202C17.5759 2.82903 17.5327 2.93341 17.5327 3.04225C17.5327 3.15108 17.5759 3.25547 17.6528 3.33248L20.647 6.32899C20.8406 6.48945 21.0341 6.48945 21.2278 6.32899L23.1205 4.43463C23.1502 5.4675 22.7527 6.49484 22.0051 7.24309C21.0259 8.22309 19.6868 8.5414 18.3312 8.11638C18.2596 8.09395 18.1832 8.09156 18.1104 8.10946C18.0375 8.12736 17.971 8.16487 17.9179 8.21791L14.3325 11.8062L6.71178 4.1973L7.08204 3.82791C7.26507 3.58797 7.23881 3.37366 7.00317 3.18509L3.46891 1.0672C3.39049 1.02019 3.29863 1.00072 3.20788 1.01186C3.11714 1.023 3.03271 1.06411 2.96799 1.12868L1.07912 3.01289C1.01415 3.07769 0.97276 3.16239 0.961559 3.25346C0.950358 3.34454 0.96999 3.43674 1.01732 3.51535L3.14035 7.04099C3.3286 7.27566 3.54245 7.30191 3.78194 7.11986L4.15348 6.74925L9.04245 11.6307L5.65922 15.0165C4.03886 14.6531 2.48214 15.0805 1.35681 16.2067C0.21927 17.3451 -0.250884 19.0163 0.129834 20.5682C0.204604 20.8729 0.596655 20.9828 0.818911 20.7606L3.00537 18.5723L5.41922 20.9881L3.2323 23.1767C3.0103 23.3989 3.12019 23.7908 3.42471 23.8656C4.96937 24.2451 6.66107 23.7606 7.78332 22.6375C8.90978 21.5101 9.3286 19.9331 8.92763 18.3767L11.1896 16.112C11.2641 16.0345 11.3052 15.9308 11.3041 15.8233C11.303 15.7158 11.2598 15.613 11.1837 15.537C11.1076 15.461 11.0048 15.4179 10.8972 15.4169C10.7897 15.4159 10.6861 15.4572 10.6087 15.5318L8.1763 17.967C8.12334 18.0201 8.08591 18.0866 8.06806 18.1593C8.0502 18.2321 8.05261 18.3084 8.07501 18.3799C8.49994 19.7366 8.18194 21.0769 7.2025 22.0571C6.45481 22.8054 5.42722 23.2029 4.3964 23.1733L6.28994 21.2783C6.36685 21.2013 6.41004 21.0969 6.41004 20.9881C6.41004 20.8793 6.36685 20.7749 6.28994 20.6979L3.29578 17.7013C3.10219 17.5409 2.9086 17.5409 2.71501 17.7013L0.822245 19.5957C0.79245 18.5627 1.18989 17.5355 1.93763 16.7871C2.90332 15.8207 4.26671 15.4851 5.67866 15.867C5.74839 15.8859 5.82188 15.886 5.89169 15.8674C5.96149 15.8487 6.02514 15.812 6.07619 15.7609L9.62353 12.2108L13.3632 15.9447L12.6399 16.666C12.479 16.8598 12.479 17.0536 12.6398 17.2474L18.515 23.1082C19.7529 24.343 21.8313 24.3436 23.0697 23.1086C24.3098 21.8721 24.3102 19.7973 23.0701 18.5603ZM4.44368 5.87879C4.2504 5.71879 4.05707 5.71874 3.86373 5.87863L3.57327 6.16838L1.88655 3.36715L3.32132 1.93591L6.12932 3.61858L5.84076 3.90643C5.67999 4.10012 5.67994 4.29386 5.8406 4.48761L15.3404 13.9727L13.9446 15.365L4.44368 5.87879ZM19.0948 22.5269L13.5111 16.9568L16.9062 13.5711L22.4904 19.1416C23.647 20.4861 23.2273 21.7397 22.5132 22.4889C21.7529 23.2866 20.5444 23.6656 19.0948 22.5269Z" fill="#223039"/>
<path d="M20.8273 21.4197L16.3335 16.9368C16.2578 16.8597 16.2156 16.7557 16.216 16.6476C16.2165 16.5395 16.2595 16.436 16.3359 16.3594C16.4122 16.2829 16.5156 16.2395 16.6237 16.2388C16.7319 16.238 16.8359 16.28 16.9133 16.3555L21.4071 20.8383C21.4842 20.9152 21.5276 21.0196 21.5277 21.1285C21.5278 21.2374 21.4847 21.3418 21.4078 21.4189C21.3276 21.4994 21.0978 21.6259 20.8273 21.4197Z" fill="#223039"/>
</g>
<defs>
<clipPath id="clip0_42_589">
<rect width="24" height="24" fill="white" transform="translate(0 0.034668)"/>
</clipPath>
</defs>
</svg>
