<svg width="24" height="25" viewBox="0 0 24 25" fill="none" xmlns="http://www.w3.org/2000/svg">
<path d="M12.0001 13.1139C11.8701 13.1139 11.7401 13.0839 11.6201 13.0139L6.32013 9.95388C5.96013 9.74388 5.84011 9.28388 6.05011 8.93388C6.26011 8.57388 6.7101 8.45388 7.0801 8.66388L12.0001 11.5139L16.8901 8.68388C17.2501 8.47388 17.7101 8.60388 17.9201 8.95388C18.1301 9.31388 18.0001 9.77388 17.6501 9.97388L12.3901 13.0139C12.2601 13.0739 12.1301 13.1139 12.0001 13.1139Z" fill="#292D32"/>
<path d="M12 18.5543C11.59 18.5543 11.25 18.2143 11.25 17.8043V12.3643C11.25 11.9543 11.59 11.6143 12 11.6143C12.41 11.6143 12.75 11.9543 12.75 12.3643V17.8043C12.75 18.2143 12.41 18.5543 12 18.5543Z" fill="#292D32"/>
<path d="M12.0002 18.784C11.4202 18.784 10.8503 18.654 10.3903 18.404L7.19025 16.624C6.23025 16.094 5.49023 14.824 5.49023 13.724V10.334C5.49023 9.24398 6.24025 7.96398 7.19025 7.43398L10.3903 5.65398C11.3103 5.14398 12.6902 5.14398 13.6102 5.65398L16.8102 7.43398C17.7702 7.96398 18.5103 9.23398 18.5103 10.334V13.724C18.5103 14.814 17.7602 16.094 16.8102 16.624L13.6102 18.404C13.1502 18.654 12.5802 18.784 12.0002 18.784ZM12.0002 6.78398C11.6702 6.78398 11.3502 6.84398 11.1202 6.97398L7.92026 8.75398C7.43026 9.02398 6.99023 9.78398 6.99023 10.334V13.724C6.99023 14.284 7.43026 15.034 7.92026 15.304L11.1202 17.084C11.5802 17.344 12.4202 17.344 12.8802 17.084L16.0802 15.304C16.5702 15.034 17.0103 14.274 17.0103 13.724V10.334C17.0103 9.77398 16.5702 9.02398 16.0802 8.75398L12.8802 6.97398C12.6502 6.84398 12.3302 6.78398 12.0002 6.78398Z" fill="#292D32"/>
<path d="M15.0002 22.7844C14.7302 22.7844 14.4802 22.6344 14.3502 22.4044C14.2202 22.1644 14.2202 21.8844 14.3602 21.6444L15.4102 19.8944C15.6202 19.5444 16.0802 19.4244 16.4402 19.6344C16.8002 19.8444 16.9102 20.3044 16.7002 20.6644L16.4302 21.1144C19.1902 20.4644 21.2602 17.9844 21.2602 15.0244C21.2602 14.6144 21.6002 14.2744 22.0102 14.2744C22.4202 14.2744 22.7602 14.6144 22.7602 15.0244C22.7502 19.3044 19.2702 22.7844 15.0002 22.7844Z" fill="#292D32"/>
<path d="M2 9.78418C1.59 9.78418 1.25 9.44418 1.25 9.03418C1.25 4.76418 4.73 1.28418 9 1.28418C9.27 1.28418 9.51999 1.43418 9.64999 1.66418C9.77999 1.90418 9.78001 2.18418 9.64001 2.42418L8.59 4.17418C8.38 4.52418 7.92 4.64418 7.56 4.43418C7.2 4.22418 7.08999 3.76418 7.29999 3.40418L7.57001 2.95418C4.81001 3.60418 2.73999 6.08418 2.73999 9.04418C2.74999 9.44418 2.41 9.78418 2 9.78418Z" fill="#292D32"/>
</svg>
