<svg width="24" height="25" viewBox="0 0 24 25" fill="none" xmlns="http://www.w3.org/2000/svg">
<path d="M9.17969 1.20459C8.19078 1.20459 7.22408 1.49783 6.40184 2.04724C5.57959 2.59665 4.93873 3.37754 4.56029 4.29117C4.18185 5.2048 4.08284 6.21014 4.27576 7.18004C4.46869 8.14995 4.94489 9.04086 5.64416 9.74012C6.34342 10.4394 7.23433 10.9156 8.20424 11.1085C9.17414 11.3014 10.1795 11.2024 11.0931 10.824C12.0067 10.4455 12.7876 9.80469 13.337 8.98244C13.8864 8.1602 14.1797 7.1935 14.1797 6.20459C14.1797 5.54798 14.0504 4.8978 13.7991 4.29117C13.5478 3.68454 13.1795 3.13335 12.7152 2.66906C12.2509 2.20476 11.6997 1.83647 11.0931 1.58519C10.4865 1.33392 9.8363 1.20459 9.17969 1.20459ZM9.17969 9.76459C8.46854 9.76064 7.7745 9.54615 7.18512 9.14818C6.59574 8.75021 6.13743 8.1866 5.86802 7.52845C5.59861 6.8703 5.53016 6.14709 5.67132 5.45009C5.81248 4.75308 6.15691 4.11349 6.66117 3.61202C7.16542 3.11055 7.80691 2.76966 8.50469 2.63237C9.20247 2.49508 9.92528 2.56753 10.5819 2.84058C11.2386 3.11363 11.7996 3.57506 12.1943 4.16663C12.589 4.75821 12.7997 5.45343 12.7997 6.16459C12.7944 7.1212 12.4107 8.03684 11.7324 8.7114C11.0541 9.38596 10.1363 9.7646 9.17969 9.76459Z" fill="#223039"/>
<path d="M9.18039 11.9646C4.82039 11.9646 1.40039 14.3546 1.40039 17.4146C1.40039 20.4746 4.82039 22.8646 9.18039 22.8646C13.5404 22.8646 17.0004 20.4746 17.0004 17.4146C17.0004 14.3546 13.5404 11.9646 9.18039 11.9646ZM9.18039 21.3646C5.77039 21.3646 2.90039 19.5546 2.90039 17.4146C2.90039 15.2746 5.77039 13.4646 9.18039 13.4646C12.5904 13.4646 15.4504 15.2746 15.4504 17.4146C15.4504 19.5546 12.5804 21.3646 9.18039 21.3646Z" fill="#223039"/>
<path d="M16.6306 11.4147C17.7127 11.3908 18.741 10.938 19.4893 10.156C20.2375 9.37399 20.6445 8.32674 20.6206 7.24466C20.5968 6.16257 20.144 5.13429 19.362 4.38602C18.58 3.63775 17.5327 3.23079 16.4506 3.25466C16.2517 3.25466 16.061 3.33367 15.9203 3.47433C15.7797 3.61498 15.7006 3.80574 15.7006 4.00466C15.7006 4.20357 15.7797 4.39433 15.9203 4.53499C16.061 4.67564 16.2517 4.75466 16.4506 4.75466C16.7895 4.74678 17.1265 4.80571 17.4425 4.92809C17.7586 5.05046 18.0474 5.23389 18.2926 5.46789C18.5377 5.7019 18.7344 5.9819 18.8713 6.2919C19.0082 6.6019 19.0828 6.93585 19.0906 7.27466C19.0985 7.61347 19.0396 7.95051 18.9172 8.26655C18.7948 8.58258 18.6114 8.87142 18.3774 9.11657C18.1434 9.36171 17.8634 9.55837 17.5534 9.6953C17.2434 9.83224 16.9095 9.90678 16.5706 9.91466C16.4308 9.92495 16.2905 9.92495 16.1506 9.91466C15.9538 9.89145 15.7556 9.94502 15.5973 10.0642C15.439 10.1834 15.3327 10.3591 15.3006 10.5547C15.2865 10.6525 15.2919 10.7522 15.3165 10.848C15.3411 10.9438 15.3843 11.0338 15.4438 11.1128C15.5033 11.1918 15.5778 11.2583 15.6631 11.3083C15.7483 11.3584 15.8427 11.3912 15.9406 11.4047C16.1303 11.4202 16.321 11.4202 16.5106 11.4047L16.6306 11.4147Z" fill="#223039"/>
<path d="M18.0009 20.7646C20.7009 20.3346 22.5809 18.6646 22.5809 16.6846C22.5809 14.3446 20.0009 12.5146 16.7109 12.5146C16.512 12.5146 16.3213 12.5937 16.1806 12.7343C16.04 12.875 15.9609 13.0657 15.9609 13.2646C15.9609 13.4636 16.04 13.6543 16.1806 13.795C16.3213 13.9356 16.512 14.0146 16.7109 14.0146C19.0809 14.0146 21.0809 15.2346 21.0809 16.6846C21.0809 17.8846 19.6909 18.9746 17.7609 19.2746C17.5659 19.309 17.392 19.4181 17.2762 19.5787C17.1604 19.7393 17.1119 19.9388 17.1409 20.1346C17.1694 20.3104 17.2595 20.4703 17.3951 20.5857C17.5307 20.7011 17.7029 20.7646 17.8809 20.7646H18.0009Z" fill="#223039"/>
</svg>
