<svg width="24" height="26" viewBox="0 0 24 26" fill="none" xmlns="http://www.w3.org/2000/svg">
<path d="M16.15 23.9646H7.85C6.10038 23.962 4.42318 23.2658 3.18602 22.0286C1.94885 20.7914 1.25264 19.1142 1.25 17.3646V9.0646C1.25264 7.31498 1.94885 5.63778 3.18602 4.40062C4.42318 3.16345 6.10038 2.46724 7.85 2.4646H16.15C17.8996 2.46724 19.5768 3.16345 20.814 4.40062C22.0512 5.63778 22.7474 7.31498 22.75 9.0646V17.3646C22.7474 19.1142 22.0512 20.7914 20.814 22.0286C19.5768 23.2658 17.8996 23.962 16.15 23.9646ZM7.85 3.9646C6.49821 3.96724 5.20254 4.50541 4.24667 5.46127C3.29081 6.41714 2.75264 7.71281 2.75 9.0646V17.3646C2.75264 18.7164 3.29081 20.0121 4.24667 20.9679C5.20254 21.9238 6.49821 22.462 7.85 22.4646H16.15C17.5018 22.462 18.7975 21.9238 19.7533 20.9679C20.7092 20.0121 21.2474 18.7164 21.25 17.3646V9.0646C21.2474 7.71281 20.7092 6.41714 19.7533 5.46127C18.7975 4.50541 17.5018 3.96724 16.15 3.9646H7.85ZM16.31 12.0146H7.62C6.88708 12.012 6.18509 11.7189 5.66778 11.1998C5.15046 10.6806 4.86 9.97752 4.86 9.2446V8.6146C4.86 7.88168 5.15046 7.17863 5.66778 6.65944C6.18509 6.14025 6.88708 5.84725 7.62 5.8446H16.31C17.0446 5.8446 17.7492 6.13644 18.2687 6.65591C18.7882 7.17539 19.08 7.87995 19.08 8.6146V9.2446C19.08 9.97925 18.7882 10.6838 18.2687 11.2033C17.7492 11.7228 17.0446 12.0146 16.31 12.0146ZM7.62 7.3446C7.45369 7.34459 7.28902 7.37751 7.1355 7.44146C6.98197 7.5054 6.84262 7.59911 6.72549 7.71717C6.60836 7.83524 6.51576 7.97532 6.45303 8.12935C6.3903 8.28337 6.35868 8.44829 6.36 8.6146V9.2446C6.356 9.41257 6.38563 9.57965 6.44716 9.736C6.50869 9.89235 6.60087 10.0348 6.71827 10.155C6.83567 10.2752 6.97593 10.3707 7.13079 10.4359C7.28565 10.5011 7.45198 10.5346 7.62 10.5346H16.31C16.6468 10.5346 16.9699 10.4008 17.208 10.1626C17.4462 9.92445 17.58 9.60142 17.58 9.2646V8.6146C17.58 8.27777 17.4462 7.95475 17.208 7.71657C16.9699 7.4784 16.6468 7.3446 16.31 7.3446H7.62ZM7.52 13.8746C7.37169 13.8343 7.21609 13.8287 7.06527 13.8583C6.91446 13.8879 6.77249 13.9518 6.6504 14.0452C6.5283 14.1385 6.42937 14.2587 6.36127 14.3965C6.29317 14.5343 6.25775 14.6859 6.25775 14.8396C6.25775 14.9933 6.29317 15.1449 6.36127 15.2827C6.42937 15.4205 6.5283 15.5407 6.6504 15.634C6.77249 15.7274 6.91446 15.7913 7.06527 15.8209C7.21609 15.8505 7.37169 15.8449 7.52 15.8046C7.66831 15.8449 7.82391 15.8505 7.97473 15.8209C8.12554 15.7913 8.26751 15.7274 8.3896 15.634C8.5117 15.5407 8.61063 15.4205 8.67873 15.2827C8.74683 15.1449 8.78225 14.9933 8.78225 14.8396C8.78225 14.6859 8.74683 14.5343 8.67873 14.3965C8.61063 14.2587 8.5117 14.1385 8.3896 14.0452C8.26751 13.9518 8.12554 13.8879 7.97473 13.8583C7.82391 13.8287 7.66831 13.8343 7.52 13.8746ZM12.75 13.8746C12.5522 13.8746 12.3589 13.9332 12.1944 14.0431C12.03 14.153 11.9018 14.3092 11.8261 14.4919C11.7504 14.6746 11.7306 14.8757 11.7692 15.0697C11.8078 15.2637 11.903 15.4419 12.0429 15.5817C12.1827 15.7216 12.3609 15.8168 12.5549 15.8554C12.7489 15.894 12.95 15.8742 13.1327 15.7985C13.3154 15.7228 13.4716 15.5946 13.5815 15.4302C13.6914 15.2657 13.75 15.0724 13.75 14.8746C13.75 14.6094 13.6446 14.355 13.4571 14.1675C13.2696 13.98 13.0152 13.8746 12.75 13.8746ZM7.52 17.5346C7.32222 17.5346 7.12888 17.5932 6.96443 17.7031C6.79998 17.813 6.67181 17.9692 6.59612 18.1519C6.52043 18.3346 6.50063 18.5357 6.53921 18.7297C6.5778 18.9237 6.67304 19.1019 6.81289 19.2417C6.95275 19.3816 7.13093 19.4768 7.32491 19.5154C7.51889 19.554 7.71996 19.5342 7.90268 19.4585C8.08541 19.3828 8.24159 19.2546 8.35147 19.0902C8.46135 18.9257 8.52 18.7324 8.52 18.5346C8.52 18.2694 8.41464 18.015 8.22711 17.8275C8.03957 17.64 7.78522 17.5346 7.52 17.5346ZM12.75 17.5346C12.5522 17.5346 12.3589 17.5932 12.1944 17.7031C12.03 17.813 11.9018 17.9692 11.8261 18.1519C11.7504 18.3346 11.7306 18.5357 11.7692 18.7297C11.8078 18.9237 11.903 19.1019 12.0429 19.2417C12.1827 19.3816 12.3609 19.4768 12.5549 19.5154C12.7489 19.554 12.95 19.5342 13.1327 19.4585C13.3154 19.3828 13.4716 19.2546 13.5815 19.0902C13.6914 18.9257 13.75 18.7324 13.75 18.5346C13.75 18.2694 13.6446 18.015 13.4571 17.8275C13.2696 17.64 13.0152 17.5346 12.75 17.5346ZM17.93 18.8546V14.5346C17.93 14.3357 17.851 14.1449 17.7103 14.0043C17.5697 13.8636 17.3789 13.7846 17.18 13.7846C16.9811 13.7846 16.7903 13.8636 16.6497 14.0043C16.509 14.1449 16.43 14.3357 16.43 14.5346V18.8846C16.43 19.0835 16.509 19.2743 16.6497 19.4149C16.7903 19.5556 16.9811 19.6346 17.18 19.6346C17.3789 19.6346 17.5697 19.5556 17.7103 19.4149C17.851 19.2743 17.93 19.0835 17.93 18.8846V18.8546Z" fill="#223039"/>
</svg>
