<svg width="24" height="25" viewBox="0 0 24 25" fill="none" xmlns="http://www.w3.org/2000/svg">
<path d="M12.9998 14.7847H11.9998C11.5898 14.7847 11.2498 14.4447 11.2498 14.0347C11.2498 13.6247 11.5898 13.2847 11.9998 13.2847H12.9998C13.6898 13.2847 14.2498 12.7247 14.2498 12.0347V2.78467H5.99978C4.81978 2.78467 3.73975 3.42465 3.15975 4.45465C2.95975 4.81465 2.49979 4.94469 2.13979 4.74469C1.77979 4.54469 1.64975 4.08467 1.84975 3.72467C2.68975 2.22467 4.27978 1.28467 5.99978 1.28467H14.9998C15.4098 1.28467 15.7498 1.62467 15.7498 2.03467V12.0347C15.7498 13.5547 14.5198 14.7847 12.9998 14.7847Z" fill="#223039"/>
<path d="M19 20.7847H18C17.59 20.7847 17.25 20.4447 17.25 20.0347C17.25 19.3447 16.69 18.7847 16 18.7847C15.31 18.7847 14.75 19.3447 14.75 20.0347C14.75 20.4447 14.41 20.7847 14 20.7847H10C9.59 20.7847 9.25 20.4447 9.25 20.0347C9.25 19.3447 8.69 18.7847 8 18.7847C7.31 18.7847 6.75 19.3447 6.75 20.0347C6.75 20.4447 6.41 20.7847 6 20.7847H5C2.93 20.7847 1.25 19.1047 1.25 17.0347C1.25 16.6247 1.59 16.2847 2 16.2847C2.41 16.2847 2.75 16.6247 2.75 17.0347C2.75 18.2747 3.76 19.2847 5 19.2847H5.34998C5.67998 18.1347 6.74 17.2847 8 17.2847C9.26 17.2847 10.32 18.1347 10.65 19.2847H13.36C13.69 18.1347 14.75 17.2847 16.01 17.2847C17.27 17.2847 18.33 18.1347 18.66 19.2847H19C20.24 19.2847 21.25 18.2747 21.25 17.0347V14.7847H19C18.04 14.7847 17.25 13.9947 17.25 13.0347V10.0347C17.25 9.07467 18.03 8.28467 19 8.28467L17.93 6.41467C17.71 6.02467 17.29 5.78467 16.84 5.78467H15.75V12.0347C15.75 13.5547 14.52 14.7847 13 14.7847H12C11.59 14.7847 11.25 14.4447 11.25 14.0347C11.25 13.6247 11.59 13.2847 12 13.2847H13C13.69 13.2847 14.25 12.7247 14.25 12.0347V5.03467C14.25 4.62467 14.59 4.28467 15 4.28467H16.84C17.83 4.28467 18.74 4.81468 19.23 5.67468L20.94 8.66467C21.07 8.89467 21.07 9.18467 20.94 9.41467C20.81 9.64467 20.56 9.78467 20.29 9.78467H19C18.86 9.78467 18.75 9.89467 18.75 10.0347V13.0347C18.75 13.1747 18.86 13.2847 19 13.2847H22C22.41 13.2847 22.75 13.6247 22.75 14.0347V17.0347C22.75 19.1047 21.07 20.7847 19 20.7847Z" fill="#223039"/>
<path d="M8 22.7847C6.48 22.7847 5.25 21.5547 5.25 20.0347C5.25 18.5147 6.48 17.2847 8 17.2847C9.52 17.2847 10.75 18.5147 10.75 20.0347C10.75 21.5547 9.52 22.7847 8 22.7847ZM8 18.7847C7.31 18.7847 6.75 19.3447 6.75 20.0347C6.75 20.7247 7.31 21.2847 8 21.2847C8.69 21.2847 9.25 20.7247 9.25 20.0347C9.25 19.3447 8.69 18.7847 8 18.7847Z" fill="#223039"/>
<path d="M16 22.7847C14.48 22.7847 13.25 21.5547 13.25 20.0347C13.25 18.5147 14.48 17.2847 16 17.2847C17.52 17.2847 18.75 18.5147 18.75 20.0347C18.75 21.5547 17.52 22.7847 16 22.7847ZM16 18.7847C15.31 18.7847 14.75 19.3447 14.75 20.0347C14.75 20.7247 15.31 21.2847 16 21.2847C16.69 21.2847 17.25 20.7247 17.25 20.0347C17.25 19.3447 16.69 18.7847 16 18.7847Z" fill="#223039"/>
<path d="M22 14.7847H19C18.04 14.7847 17.25 13.9947 17.25 13.0347V10.0347C17.25 9.07467 18.04 8.28467 19 8.28467H20.29C20.56 8.28467 20.81 8.42467 20.94 8.66467L22.65 11.6647C22.71 11.7747 22.75 11.9047 22.75 12.0347V14.0347C22.75 14.4447 22.41 14.7847 22 14.7847ZM19 9.78467C18.86 9.78467 18.75 9.89467 18.75 10.0347V13.0347C18.75 13.1747 18.86 13.2847 19 13.2847H21.25V12.2347L19.85 9.78467H19Z" fill="#223039"/>
<path d="M8 8.78467H2C1.59 8.78467 1.25 8.44467 1.25 8.03467C1.25 7.62467 1.59 7.28467 2 7.28467H8C8.41 7.28467 8.75 7.62467 8.75 8.03467C8.75 8.44467 8.41 8.78467 8 8.78467Z" fill="#223039"/>
<path d="M6 11.7847H2C1.59 11.7847 1.25 11.4447 1.25 11.0347C1.25 10.6247 1.59 10.2847 2 10.2847H6C6.41 10.2847 6.75 10.6247 6.75 11.0347C6.75 11.4447 6.41 11.7847 6 11.7847Z" fill="#223039"/>
<path d="M4 14.7847H2C1.59 14.7847 1.25 14.4447 1.25 14.0347C1.25 13.6247 1.59 13.2847 2 13.2847H4C4.41 13.2847 4.75 13.6247 4.75 14.0347C4.75 14.4447 4.41 14.7847 4 14.7847Z" fill="#223039"/>
</svg>
