<svg width="24" height="25" viewBox="0 0 24 25" fill="none" xmlns="http://www.w3.org/2000/svg">
<path d="M12 18.5347C9.66 18.5347 7.75 16.6247 7.75 14.2847C7.75 13.8747 8.09 13.5347 8.5 13.5347C8.91 13.5347 9.25 13.8747 9.25 14.2847C9.25 15.8047 10.48 17.0347 12 17.0347C13.52 17.0347 14.75 15.8047 14.75 14.2847C14.75 13.8747 15.09 13.5347 15.5 13.5347C15.91 13.5347 16.25 13.8747 16.25 14.2847C16.25 16.6247 14.34 18.5347 12 18.5347Z" fill="#223039"/>
<path d="M5.19001 6.41461C5.00001 6.41461 4.8 6.33461 4.66 6.19461C4.37 5.90461 4.37 5.42461 4.66 5.13461L8.29 1.50461C8.58001 1.21461 9.06001 1.21461 9.35001 1.50461C9.64001 1.79461 9.64001 2.27461 9.35001 2.56461L5.72 6.19461C5.57 6.33461 5.38001 6.41461 5.19001 6.41461Z" fill="#223039"/>
<path d="M18.81 6.41461C18.62 6.41461 18.43 6.34461 18.28 6.19461L14.65 2.56461C14.36 2.27461 14.36 1.79461 14.65 1.50461C14.94 1.21461 15.42 1.21461 15.71 1.50461L19.34 5.13461C19.63 5.42461 19.63 5.90461 19.34 6.19461C19.2 6.33461 19 6.41461 18.81 6.41461Z" fill="#223039"/>
<path d="M20.21 10.6348C20.14 10.6348 20.07 10.6348 20 10.6348H19.77H4C3.3 10.6448 2.5 10.6448 1.92 10.0648C1.46 9.61477 1.25 8.91477 1.25 7.88477C1.25 5.13477 3.26 5.13477 4.22 5.13477H19.78C20.74 5.13477 22.75 5.13477 22.75 7.88477C22.75 8.92477 22.54 9.61477 22.08 10.0648C21.56 10.5848 20.86 10.6348 20.21 10.6348ZM4.22 9.13477H20.01C20.46 9.14477 20.88 9.14477 21.02 9.00477C21.09 8.93477 21.24 8.69477 21.24 7.88477C21.24 6.75477 20.96 6.63477 19.77 6.63477H4.22C3.03 6.63477 2.75 6.75477 2.75 7.88477C2.75 8.69477 2.91 8.93477 2.97 9.00477C3.11 9.13477 3.54 9.13477 3.98 9.13477H4.22Z" fill="#223039"/>
<path d="M14.89 22.7847H8.86C5.28 22.7847 4.48 20.6547 4.17 18.8047L2.76 10.1547C2.69 9.74467 2.97 9.36467 3.38 9.29467C3.78 9.22467 4.17 9.50467 4.24 9.91467L5.65 18.5547C5.94 20.3247 6.54 21.2847 8.86 21.2847H14.89C17.46 21.2847 17.75 20.3847 18.08 18.6447L19.76 9.89467C19.84 9.48467 20.23 9.21467 20.64 9.30467C21.05 9.38467 21.31 9.77467 21.23 10.1847L19.55 18.9347C19.16 20.9647 18.51 22.7847 14.89 22.7847Z" fill="#223039"/>
</svg>
