<svg width="24" height="25" viewBox="0 0 24 25" fill="none" xmlns="http://www.w3.org/2000/svg">
<path d="M15.5 15.7847C15.32 15.7847 15.12 15.7747 14.93 15.7647C14.56 15.7447 14.26 15.4447 14.23 15.0747C14.01 12.2847 11.74 10.0247 8.95999 9.80466C8.58999 9.77466 8.28999 9.47468 8.26999 9.10468C8.25999 8.91468 8.25 8.72467 8.25 8.53467C8.25 4.53467 11.5 1.28467 15.5 1.28467C19.5 1.28467 22.75 4.53467 22.75 8.53467C22.75 12.5347 19.5 15.7847 15.5 15.7847ZM9.75 8.39465C12.73 8.91465 15.12 11.3047 15.64 14.2847C18.75 14.2047 21.25 11.6647 21.25 8.53467C21.25 5.36467 18.67 2.78467 15.5 2.78467C12.38 2.78467 9.83 5.28465 9.75 8.39465Z" fill="#223039"/>
<path d="M8.5 22.7847C4.5 22.7847 1.25 19.5347 1.25 15.5347C1.25 11.5347 4.5 8.28467 8.5 8.28467C8.68 8.28467 8.88001 8.29466 9.07001 8.30466C12.6 8.58466 15.46 11.4447 15.73 14.9547C15.74 15.1547 15.75 15.3447 15.75 15.5347C15.75 19.5347 12.5 22.7847 8.5 22.7847ZM8.5 9.78467C5.33 9.78467 2.75 12.3647 2.75 15.5347C2.75 18.7047 5.33 21.2847 8.5 21.2847C11.67 21.2847 14.25 18.7047 14.25 15.5347C14.25 15.3747 14.24 15.2147 14.23 15.0647C14.01 12.2947 11.75 10.0247 8.95999 9.80466C8.81999 9.79466 8.66 9.78467 8.5 9.78467Z" fill="#223039"/>
<path d="M3 7.37466C2.77 7.37466 2.54999 7.33466 2.32999 7.24466C1.66999 6.97466 1.25 6.33466 1.25 5.62466V3.03467C1.25 2.07467 2.04 1.28467 3 1.28467H5.59C6.3 1.28467 6.92999 1.70465 7.20999 2.36465C7.47999 3.02465 7.32999 3.77466 6.82999 4.27466L4.23999 6.86465C3.89999 7.19465 3.46 7.37466 3 7.37466ZM3 2.78467C2.86 2.78467 2.75 2.89467 2.75 3.03467V5.62466C2.75 5.77466 2.84999 5.83468 2.89999 5.85468C2.95999 5.87468 3.07001 5.90466 3.17001 5.80466L5.76001 3.21466C5.86001 3.11466 5.84 3.00467 5.81 2.94467C5.78 2.88467 5.71999 2.79468 5.57999 2.79468H3V2.78467Z" fill="#223039"/>
<path d="M20.9998 22.7847H18.4098C17.6998 22.7847 17.0698 22.3647 16.7898 21.7047C16.5198 21.0447 16.6698 20.2947 17.1698 19.7947L19.7598 17.2047C20.2598 16.7047 21.0098 16.5547 21.6698 16.8247C22.3298 17.0947 22.7498 17.7347 22.7498 18.4447V21.0347C22.7498 21.9947 21.9598 22.7847 20.9998 22.7847ZM20.9898 18.1947C20.9398 18.1947 20.8798 18.2147 20.8198 18.2747L18.2298 20.8647C18.1298 20.9647 18.1498 21.0747 18.1798 21.1347C18.2098 21.1947 18.2698 21.2847 18.4098 21.2847H20.9998C21.1398 21.2847 21.2498 21.1747 21.2498 21.0347V18.4447C21.2498 18.2947 21.1498 18.2347 21.0998 18.2147C21.0698 18.2047 21.0298 18.1947 20.9898 18.1947Z" fill="#223039"/>
</svg>
