<svg width="24" height="25" viewBox="0 0 24 25" fill="none" xmlns="http://www.w3.org/2000/svg">
<path d="M14.7 22.7846H9.30001C4.36001 22.7846 2.26001 20.6746 2.26001 15.7446V11.2546C2.26001 10.8446 2.60001 10.5046 3.01001 10.5046C3.42001 10.5046 3.76001 10.8446 3.76001 11.2546V15.7446C3.76001 19.8346 5.21001 21.2846 9.30001 21.2846H14.69C18.78 21.2846 20.23 19.8346 20.23 15.7446V11.2546C20.23 10.8446 20.57 10.5046 20.98 10.5046C21.39 10.5046 21.73 10.8446 21.73 11.2546V15.7446C21.74 20.6746 19.63 22.7846 14.7 22.7846Z" fill="#223039"/>
<path d="M12 12.7847C10.9 12.7847 9.9 12.3547 9.19 11.5647C8.48 10.7747 8.15 9.74467 8.26 8.64467L8.93 1.96467C8.97 1.58467 9.29 1.28467 9.68 1.28467H14.35C14.74 1.28467 15.06 1.57467 15.1 1.96467L15.77 8.64467C15.88 9.74467 15.55 10.7747 14.84 11.5647C14.1 12.3547 13.1 12.7847 12 12.7847ZM10.35 2.78467L9.75 8.79467C9.68 9.46467 9.88 10.0947 10.3 10.5547C11.15 11.4947 12.85 11.4947 13.7 10.5547C14.12 10.0847 14.32 9.45467 14.25 8.79467L13.65 2.78467H10.35Z" fill="#223039"/>
<path d="M18.31 12.7847C16.28 12.7847 14.47 11.1447 14.26 9.12467L13.56 2.11467C13.54 1.90467 13.61 1.69467 13.75 1.53467C13.89 1.37467 14.09 1.28467 14.31 1.28467H17.36C20.3 1.28467 21.67 2.51467 22.08 5.53467L22.36 8.31467C22.48 9.49467 22.12 10.6147 21.35 11.4647C20.58 12.3147 19.5 12.7847 18.31 12.7847ZM15.14 2.78467L15.76 8.97467C15.89 10.2247 17.05 11.2847 18.31 11.2847C19.07 11.2847 19.75 10.9947 20.24 10.4647C20.72 9.93467 20.94 9.22467 20.87 8.46467L20.59 5.71467C20.28 3.45467 19.55 2.78467 17.36 2.78467H15.14Z" fill="#223039"/>
<path d="M5.63999 12.7847C4.44999 12.7847 3.36999 12.3147 2.59999 11.4647C1.82999 10.6147 1.46999 9.49467 1.58999 8.31467L1.85999 5.56467C2.27999 2.51467 3.64999 1.28467 6.58999 1.28467H9.63999C9.84999 1.28467 10.05 1.37467 10.2 1.53467C10.35 1.69467 10.41 1.90467 10.39 2.11467L9.68999 9.12467C9.47999 11.1447 7.66999 12.7847 5.63999 12.7847ZM6.58999 2.78467C4.39999 2.78467 3.66999 3.44467 3.34999 5.73467L3.07999 8.46467C2.99999 9.22467 3.22999 9.93467 3.70999 10.4647C4.18999 10.9947 4.86999 11.2847 5.63999 11.2847C6.89999 11.2847 8.06999 10.2247 8.18999 8.97467L8.80999 2.78467H6.58999Z" fill="#223039"/>
<path d="M14.5 22.7847H9.5C9.09 22.7847 8.75 22.4447 8.75 22.0347V19.5347C8.75 17.4347 9.9 16.2847 12 16.2847C14.1 16.2847 15.25 17.4347 15.25 19.5347V22.0347C15.25 22.4447 14.91 22.7847 14.5 22.7847ZM10.25 21.2847H13.75V19.5347C13.75 18.2747 13.26 17.7847 12 17.7847C10.74 17.7847 10.25 18.2747 10.25 19.5347V21.2847Z" fill="#223039"/>
</svg>
