<svg width="24" height="25" viewBox="0 0 24 25" fill="none" xmlns="http://www.w3.org/2000/svg">
<path d="M18 22.7646C16.9 22.7646 14.45 22.7646 12 22.7646H6C5.37488 22.7693 4.75507 22.6496 4.17655 22.4127C3.59804 22.1758 3.07235 21.8264 2.63 21.3846C2.17747 20.9525 1.81807 20.4324 1.57388 19.8564C1.32969 19.2803 1.20586 18.6603 1.21 18.0346V12.3746C1.22033 11.3236 1.45598 10.2869 1.90105 9.3347C2.34612 8.38246 2.99026 7.53675 3.79 6.85465L8.89 2.44465C9.76633 1.69073 10.884 1.27612 12.04 1.27612C13.196 1.27612 14.3137 1.69073 15.19 2.44465L20.26 6.89465C21.049 7.58749 21.6803 8.44133 22.1115 9.39868C22.5428 10.356 22.7639 11.3947 22.76 12.4446V18.0646C22.7606 18.683 22.636 19.295 22.3936 19.8639C22.1513 20.4328 21.7963 20.9467 21.35 21.3746C20.9108 21.8158 20.3888 22.1657 19.8138 22.4043C19.2389 22.6428 18.6225 22.7653 18 22.7646ZM15 21.2646H18C18.8589 21.2677 19.6847 20.9338 20.3 20.3346C20.6006 20.0421 20.8396 19.6922 21.0027 19.3058C21.1659 18.9194 21.25 18.5041 21.25 18.0846V12.4646C21.2508 11.6294 21.0727 10.8037 20.7277 10.043C20.3827 9.28232 19.8789 8.60434 19.25 8.05465L14.2 3.60465C13.5986 3.08461 12.8301 2.79842 12.035 2.79842C11.2399 2.79842 10.4714 3.08461 9.87 3.60465L4.77 8.03465L4.28 7.46465L4.77 8.03465C4.1419 8.58281 3.63843 9.2591 3.29346 10.018C2.94849 10.777 2.77 11.601 2.77 12.4346V18.0946C2.76721 18.5142 2.84801 18.9302 3.00768 19.3182C3.16735 19.7062 3.4027 20.0586 3.7 20.3546C4.3207 20.942 5.14555 21.2647 6 21.2546H15V21.2646ZM12.75 19.1346V16.2746C12.75 16.0757 12.671 15.885 12.5303 15.7443C12.3897 15.6037 12.1989 15.5246 12 15.5246C11.8011 15.5246 11.6103 15.6037 11.4697 15.7443C11.329 15.885 11.25 16.0757 11.25 16.2746V19.1346C11.25 19.3336 11.329 19.5243 11.4697 19.665C11.6103 19.8056 11.8011 19.8846 12 19.8846C12.1989 19.8846 12.3897 19.8056 12.5303 19.665C12.671 19.5243 12.75 19.3336 12.75 19.1346Z" fill="#223039"/>
</svg>
