<svg width="24" height="25" viewBox="0 0 24 25" fill="none" xmlns="http://www.w3.org/2000/svg">
<path d="M22 6.34473H12C11.59 6.34473 11.25 6.00473 11.25 5.59473C11.25 5.18473 11.59 4.84473 12 4.84473H22C22.41 4.84473 22.75 5.18473 22.75 5.59473C22.75 6.01473 22.41 6.34473 22 6.34473Z" fill="#223039"/>
<path d="M19.7798 11.2847H14.2298C12.0398 11.2847 11.2598 10.5147 11.2598 8.33467V4.23467C11.2598 2.05467 12.0398 1.28467 14.2298 1.28467H19.7798C21.9698 1.28467 22.7498 2.05467 22.7498 4.23467V8.34467C22.7498 10.5147 21.9698 11.2847 19.7798 11.2847ZM14.2198 2.78467C12.8598 2.78467 12.7498 2.89467 12.7498 4.23467V8.34467C12.7498 9.68467 12.8598 9.79467 14.2198 9.79467H19.7697C21.1297 9.79467 21.2397 9.68467 21.2397 8.34467V4.23467C21.2397 2.89467 21.1297 2.78467 19.7697 2.78467H14.2198Z" fill="#223039"/>
<path d="M12 17.8447H2C1.59 17.8447 1.25 17.5047 1.25 17.0947C1.25 16.6847 1.59 16.3447 2 16.3447H12C12.41 16.3447 12.75 16.6847 12.75 17.0947C12.75 17.5147 12.41 17.8447 12 17.8447Z" fill="#223039"/>
<path d="M9.77975 22.7847H4.22977C2.03977 22.7847 1.25977 22.0147 1.25977 19.8347V15.7347C1.25977 13.5547 2.03977 12.7847 4.22977 12.7847H9.77975C11.9698 12.7847 12.7498 13.5547 12.7498 15.7347V19.8447C12.7498 22.0147 11.9698 22.7847 9.77975 22.7847ZM4.21976 14.2847C2.85976 14.2847 2.74976 14.3947 2.74976 15.7347V19.8447C2.74976 21.1847 2.85976 21.2947 4.21976 21.2947H9.76974C11.1297 21.2947 11.2397 21.1847 11.2397 19.8447V15.7347C11.2397 14.3947 11.1297 14.2847 9.76974 14.2847H4.21976Z" fill="#223039"/>
<path d="M15.0002 22.7847C14.7302 22.7847 14.4802 22.6347 14.3502 22.4047C14.2202 22.1647 14.2202 21.8847 14.3602 21.6447L15.4102 19.8947C15.6202 19.5447 16.0802 19.4247 16.4402 19.6347C16.8002 19.8447 16.9102 20.3047 16.7002 20.6647L16.4302 21.1147C19.1902 20.4647 21.2602 17.9847 21.2602 15.0247C21.2602 14.6147 21.6002 14.2747 22.0102 14.2747C22.4202 14.2747 22.7602 14.6147 22.7602 15.0247C22.7502 19.3047 19.2702 22.7847 15.0002 22.7847Z" fill="#223039"/>
<path d="M2 9.78467C1.59 9.78467 1.25 9.44467 1.25 9.03467C1.25 4.76467 4.73 1.28467 9 1.28467C9.27 1.28467 9.51999 1.43467 9.64999 1.66467C9.77999 1.90467 9.78001 2.18467 9.64001 2.42467L8.59 4.17467C8.38 4.52467 7.92 4.64467 7.56 4.43467C7.2 4.22467 7.08999 3.76467 7.29999 3.40467L7.57001 2.95467C4.81001 3.60467 2.73999 6.08467 2.73999 9.04467C2.74999 9.44467 2.41 9.78467 2 9.78467Z" fill="#223039"/>
</svg>
