<svg width="24" height="25" viewBox="0 0 24 25" fill="none" xmlns="http://www.w3.org/2000/svg">
<path d="M15 12.9846H8C7.59 12.9846 7.25 12.6446 7.25 12.2346C7.25 11.8246 7.59 11.4846 8 11.4846H15C15.41 11.4846 15.75 11.8246 15.75 12.2346C15.75 12.6446 15.41 12.9846 15 12.9846Z" fill="#223039"/>
<path d="M12.38 16.9846H8C7.59 16.9846 7.25 16.6446 7.25 16.2346C7.25 15.8246 7.59 15.4846 8 15.4846H12.38C12.79 15.4846 13.13 15.8246 13.13 16.2346C13.13 16.6446 12.79 16.9846 12.38 16.9846Z" fill="#223039"/>
<path d="M14 6.78467H10C9.04 6.78467 7.25 6.78467 7.25 4.03467C7.25 1.28467 9.04 1.28467 10 1.28467H14C14.96 1.28467 16.75 1.28467 16.75 4.03467C16.75 4.99467 16.75 6.78467 14 6.78467ZM10 2.78467C9.01 2.78467 8.75 2.78467 8.75 4.03467C8.75 5.28467 9.01 5.28467 10 5.28467H14C15.25 5.28467 15.25 5.02467 15.25 4.03467C15.25 2.78467 14.99 2.78467 14 2.78467H10Z" fill="#223039"/>
<path d="M15 22.7846H9C3.38 22.7846 2.25 20.2046 2.25 16.0346V10.0346C2.25 5.4746 3.9 3.5246 7.96 3.3146C8.36 3.2946 8.73 3.6046 8.75 4.0246C8.77 4.4446 8.45 4.7846 8.04 4.8046C5.2 4.9646 3.75 5.8146 3.75 10.0346V16.0346C3.75 19.7346 4.48 21.2846 9 21.2846H15C19.52 21.2846 20.25 19.7346 20.25 16.0346V10.0346C20.25 5.8146 18.8 4.9646 15.96 4.8046C15.55 4.7846 15.23 4.4246 15.25 4.0146C15.27 3.6046 15.63 3.2846 16.04 3.3046C20.1 3.5246 21.75 5.4746 21.75 10.0246V16.0246C21.75 20.2046 20.62 22.7846 15 22.7846Z" fill="#223039"/>
</svg>
