<svg width="24" height="25" viewBox="0 0 24 25" fill="none" xmlns="http://www.w3.org/2000/svg">
<path d="M7.26849 21.4114H2.60412C2.39702 21.4114 2.22913 21.2435 2.22913 21.0364V19.0805C2.22913 18.335 2.83562 17.7285 3.58109 17.7285H6.29153C7.037 17.7285 7.6435 18.335 7.6435 19.0805V21.0364C7.6435 21.2435 7.4756 21.4114 7.26849 21.4114ZM2.97913 20.6614H6.89349V19.0805C6.89349 18.7486 6.62346 18.4785 6.29153 18.4785H3.58109C3.24917 18.4785 2.97913 18.7486 2.97913 19.0805V20.6614Z" fill="#223039"/>
<path d="M3.63767 18.4785C3.43056 18.4785 3.26267 18.3106 3.26267 18.1035V8.38611C3.26267 8.17901 3.43056 8.01112 3.63767 8.01112C3.84477 8.01112 4.01267 8.17901 4.01267 8.38611V18.1035C4.01267 18.3106 3.84477 18.4785 3.63767 18.4785ZM6.23497 18.4785C6.02787 18.4785 5.85997 18.3106 5.85997 18.1035V8.38611C5.85997 8.17901 6.02787 8.01112 6.23497 8.01112C6.44208 8.01112 6.60997 8.17901 6.60997 8.38611V18.1035C6.60997 18.3106 6.44208 18.4785 6.23497 18.4785ZM21.3959 21.4114H16.7315C16.5244 21.4114 16.3565 21.2436 16.3565 21.0364V19.0805C16.3565 18.335 16.963 17.7285 17.7085 17.7285H20.4189C21.1644 17.7285 21.7709 18.335 21.7709 19.0805V21.0364C21.7709 21.2436 21.603 21.4114 21.3959 21.4114ZM17.1065 20.6614H21.0209V19.0805C21.0209 18.7486 20.7508 18.4785 20.4189 18.4785H17.7085C17.3765 18.4785 17.1065 18.7486 17.1065 19.0805V20.6614ZM6.0178 6.88837C5.89857 6.88837 5.78137 6.83166 5.70864 6.72604C5.59117 6.55547 5.6342 6.32197 5.80477 6.20449C6.22099 5.91783 6.46948 5.44543 6.46948 4.94082C6.46948 4.09548 5.78168 3.40773 4.93628 3.40773C4.09093 3.40773 3.40318 4.09548 3.40318 4.94082C3.40318 5.44532 3.65165 5.91773 4.06786 6.20455C4.23839 6.32207 4.28138 6.55558 4.16385 6.72611C4.04633 6.89664 3.8128 6.93963 3.64228 6.8221C3.02295 6.39529 2.6532 5.692 2.6532 4.94081C2.6532 3.68191 3.67738 2.65771 4.93629 2.65771C6.19526 2.65771 7.2195 3.6819 7.2195 4.94081C7.2195 5.69221 6.84967 6.3955 6.23021 6.82216C6.16523 6.8669 6.09112 6.88837 6.0178 6.88837Z" fill="#223039"/>
<path d="M7.41868 8.76111H2.45395C2.24684 8.76111 2.07895 8.59321 2.07895 8.38611V6.5133C2.07895 6.3062 2.24684 6.13831 2.45395 6.13831H7.41868C7.62579 6.13831 7.79368 6.3062 7.79368 6.5133V8.38611C7.79368 8.59321 7.62577 8.76111 7.41868 8.76111ZM2.82894 8.01111H7.04367V6.8883H2.82894V8.01111ZM17.765 18.4785C17.5579 18.4785 17.39 18.3106 17.39 18.1035V8.38611C17.39 8.17901 17.5579 8.01111 17.765 8.01111C17.9721 8.01111 18.14 8.17901 18.14 8.38611V18.1035C18.14 18.3106 17.9721 18.4785 17.765 18.4785ZM20.3623 18.4785C20.1552 18.4785 19.9873 18.3106 19.9873 18.1035V8.38611C19.9873 8.17901 20.1552 8.01111 20.3623 8.01111C20.5695 8.01111 20.7373 8.17901 20.7373 8.38611V18.1035C20.7373 18.3106 20.5694 18.4785 20.3623 18.4785ZM20.1452 6.88837C20.0259 6.88837 19.9087 6.83166 19.836 6.72604C19.7185 6.55547 19.7616 6.32197 19.9321 6.20449C20.3484 5.91783 20.5968 5.44543 20.5968 4.94082C20.5968 4.09548 19.909 3.40773 19.0636 3.40773C18.2183 3.40773 17.5305 4.09548 17.5305 4.94082C17.5305 5.44532 17.779 5.91773 18.1952 6.20455C18.3658 6.32207 18.4087 6.55558 18.2912 6.72611C18.1737 6.89664 17.9402 6.93963 17.7696 6.8221C17.1503 6.39531 16.7805 5.692 16.7805 4.94081C16.7805 3.68191 17.8047 2.65771 19.0636 2.65771C20.3226 2.65771 21.3468 3.6819 21.3468 4.94081C21.3468 5.69221 20.977 6.3955 20.3576 6.82216C20.2926 6.8669 20.2185 6.88837 20.1452 6.88837Z" fill="#223039"/>
<path d="M21.546 8.76123H16.5813C16.3742 8.76123 16.2063 8.59334 16.2063 8.38623V6.51343C16.2063 6.30632 16.3742 6.13843 16.5813 6.13843H21.546C21.7531 6.13843 21.921 6.30632 21.921 6.51343V8.38623C21.9211 8.59334 21.7532 8.76123 21.546 8.76123ZM16.9563 8.01123H21.171V6.88842H16.9563V8.01123ZM12.4602 10.8513C10.1288 10.8513 7.87462 10.5173 6.11291 9.91084C5.91708 9.84344 5.81298 9.63004 5.88038 9.43421C5.94779 9.23838 6.16118 9.13425 6.35702 9.20169C8.04222 9.78179 10.2097 10.1013 12.4602 10.1013C14.33 10.1013 16.1309 9.88427 17.6682 9.47372C17.8682 9.42028 18.0738 9.53916 18.1273 9.73926C18.1807 9.93936 18.0618 10.1449 17.8617 10.1983C16.2622 10.6255 14.3944 10.8513 12.4602 10.8513Z" fill="#223039"/>
<path d="M12.4602 12.3173C10.1288 12.3173 7.87462 11.9834 6.11291 11.3769C5.91708 11.3095 5.81298 11.0961 5.88038 10.9003C5.94779 10.7044 6.16118 10.6003 6.35702 10.6678C8.04222 11.2479 10.2097 11.5673 12.4602 11.5673C14.33 11.5673 16.1309 11.3503 17.6682 10.9398C17.8682 10.8863 18.0738 11.0052 18.1273 11.2053C18.1807 11.4054 18.0618 11.6109 17.8617 11.6644C16.2622 12.0916 14.3944 12.3173 12.4602 12.3173ZM12.4602 15.125C10.1288 15.125 7.87461 14.791 6.11291 14.1845C5.91708 14.1171 5.81298 13.9037 5.88038 13.7079C5.94779 13.5121 6.16118 13.408 6.35702 13.4754C8.04222 14.0555 10.2097 14.375 12.4602 14.375C14.33 14.375 16.1309 14.1579 17.6682 13.7474C17.8683 13.694 18.0738 13.8128 18.1273 14.0129C18.1807 14.213 18.0618 14.4186 17.8617 14.472C16.2622 14.8992 14.3944 15.125 12.4602 15.125Z" fill="#223039"/>
<path d="M12.4602 16.591C10.1288 16.591 7.87461 16.257 6.11291 15.6506C5.91707 15.5832 5.81297 15.3698 5.88038 15.1739C5.94779 14.9781 6.16118 14.874 6.35702 14.9414C8.04221 15.5215 10.2097 15.841 12.4602 15.841C14.33 15.841 16.1309 15.624 17.6682 15.2134C17.8682 15.16 18.0738 15.2789 18.1273 15.479C18.1807 15.6791 18.0618 15.8846 17.8617 15.9381C16.2622 16.3652 14.3944 16.591 12.4602 16.591ZM22.5469 21.4115H1.45312C1.24601 21.4115 1.07812 21.2436 1.07812 21.0365C1.07812 20.8294 1.24602 20.6615 1.45312 20.6615H22.5469C22.754 20.6615 22.9219 20.8294 22.9219 21.0365C22.9219 21.2436 22.754 21.4115 22.5469 21.4115Z" fill="#223039"/>
</svg>
