<svg width="24" height="25" viewBox="0 0 24 25" fill="none" xmlns="http://www.w3.org/2000/svg">
<path d="M3.93 16.6648C3.74 16.6648 3.55 16.5948 3.4 16.4448C3.11 16.1548 3.11 15.6748 3.4 15.3848L15.35 3.43479C15.64 3.14479 16.12 3.14479 16.41 3.43479C16.7 3.72479 16.7 4.20479 16.41 4.49479L4.46 16.4548C4.32 16.5948 4.12 16.6648 3.93 16.6648Z" fill="#223039"/>
<path d="M11.1 19.0647C10.91 19.0647 10.72 18.9947 10.57 18.8447C10.28 18.5547 10.28 18.0747 10.57 17.7847L11.77 16.5847C12.06 16.2947 12.54 16.2947 12.83 16.5847C13.12 16.8747 13.12 17.3547 12.83 17.6447L11.63 18.8447C11.49 18.9847 11.3 19.0647 11.1 19.0647Z" fill="#223039"/>
<path d="M13.79 16.3746C13.6 16.3746 13.41 16.3046 13.26 16.1546C12.97 15.8646 12.97 15.3846 13.26 15.0946L15.65 12.7046C15.94 12.4146 16.42 12.4146 16.71 12.7046C17 12.9946 17 13.4746 16.71 13.7646L14.32 16.1546C14.18 16.2946 13.98 16.3746 13.79 16.3746Z" fill="#223039"/>
<path d="M11.1 22.7846C10.12 22.7846 9.14001 22.1846 7.95001 20.9946L3.04001 16.0846C0.650006 13.6946 0.660006 12.1546 3.07001 9.74458L9.71001 3.10458C12.12 0.694582 13.66 0.684582 16.05 3.07458L20.96 7.98458C23.35 10.3746 23.34 11.9146 20.93 14.3246L14.29 20.9646C13.08 22.1746 12.09 22.7846 11.1 22.7846ZM12.9 2.78458C12.38 2.78458 11.72 3.21458 10.77 4.16458L4.13001 10.8046C3.18001 11.7546 2.75001 12.4146 2.75001 12.9246C2.75001 13.4446 3.15001 14.0746 4.10001 15.0246L9.01001 19.9346C9.96001 20.8846 10.58 21.2846 11.1 21.2846C11.1 21.2846 11.1 21.2846 11.11 21.2846C11.63 21.2846 12.28 20.8546 13.23 19.9046L19.87 13.2646C20.82 12.3146 21.25 11.6546 21.25 11.1446C21.25 10.6246 20.85 9.99458 19.9 9.04458L14.99 4.13458C14.05 3.18458 13.42 2.78458 12.9 2.78458Z" fill="#223039"/>
<path d="M22 22.7847H2C1.59 22.7847 1.25 22.4447 1.25 22.0347C1.25 21.6247 1.59 21.2847 2 21.2847H22C22.41 21.2847 22.75 21.6247 22.75 22.0347C22.75 22.4447 22.41 22.7847 22 22.7847Z" fill="#223039"/>
</svg>
