<svg width="24" height="25" viewBox="0 0 24 25" fill="none" xmlns="http://www.w3.org/2000/svg">
<path d="M22.125 17.6597H21.375V11.2847C21.375 10.9863 21.2565 10.7002 21.0455 10.4892C20.8345 10.2782 20.5484 10.1597 20.25 10.1597H16.5V3.78467C16.5 3.4863 16.3815 3.20015 16.1705 2.98917C15.9595 2.77819 15.6734 2.65967 15.375 2.65967H8.625C8.32663 2.65967 8.04048 2.77819 7.82951 2.98917C7.61853 3.20015 7.5 3.4863 7.5 3.78467V10.1597H3.75C3.45163 10.1597 3.16549 10.2782 2.95451 10.4892C2.74353 10.7002 2.625 10.9863 2.625 11.2847V17.6597H1.875C0.416027 17.6392 0.415352 19.93 1.875 19.9097H2.625V20.2847C2.625 20.583 2.74353 20.8692 2.95451 21.0802C3.16549 21.2911 3.45163 21.4097 3.75 21.4097H5.25C5.54837 21.4097 5.83452 21.2911 6.0455 21.0802C6.25648 20.8692 6.375 20.583 6.375 20.2847V19.9097H10.125V20.2847C10.125 20.583 10.2435 20.8692 10.4545 21.0802C10.6655 21.2911 10.9516 21.4097 11.25 21.4097H12.75C13.0484 21.4097 13.3345 21.2911 13.5455 21.0802C13.7565 20.8692 13.875 20.583 13.875 20.2847V19.9097H17.625V20.2847C17.625 20.583 17.7435 20.8692 17.9545 21.0802C18.1655 21.2911 18.4516 21.4097 18.75 21.4097H20.25C20.5484 21.4097 20.8345 21.2911 21.0455 21.0802C21.2565 20.8692 21.375 20.583 21.375 20.2847V19.9097H22.125C22.4234 19.9097 22.7095 19.7911 22.9205 19.5802C23.1315 19.3692 23.25 19.083 23.25 18.7847C23.25 18.4863 23.1315 18.2002 22.9205 17.9892C22.7095 17.7782 22.4234 17.6597 22.125 17.6597ZM20.25 10.9097C20.3495 10.9097 20.4448 10.9492 20.5152 11.0195C20.5855 11.0898 20.625 11.1852 20.625 11.2847V17.6597H13.125V11.2847C13.125 11.1852 13.1645 11.0898 13.2348 11.0195C13.3052 10.9492 13.4005 10.9097 13.5 10.9097H15.375V13.5347C15.3756 13.5969 15.3917 13.658 15.4217 13.7126C15.4516 13.7672 15.4946 13.8135 15.5468 13.8474C15.599 13.8813 15.6588 13.9018 15.7208 13.9071C15.7828 13.9123 15.8452 13.9021 15.9024 13.8775L16.875 13.4453L17.8477 13.8775C17.9048 13.9021 17.9672 13.9123 18.0292 13.9071C18.0912 13.9018 18.151 13.8813 18.2032 13.8474C18.2554 13.8135 18.2984 13.7672 18.3284 13.7126C18.3583 13.658 18.3744 13.5969 18.375 13.5347V10.9097H20.25ZM12.375 17.6597H11.625V11.2847C11.6237 11.1566 11.6004 11.0298 11.5561 10.9097H12.4439C12.3996 11.0298 12.3763 11.1566 12.375 11.2847V17.6597ZM17.625 10.9097V12.9575L17.0274 12.692C16.9794 12.6707 16.9275 12.6597 16.875 12.6597C16.8225 12.6597 16.7706 12.6707 16.7227 12.692L16.125 12.9575V10.9097H17.625ZM12.75 3.40967V5.45751L12.1524 5.19201C12.1044 5.17074 12.0525 5.15975 12 5.15975C11.9475 5.15975 11.8956 5.17074 11.8477 5.19201L11.25 5.45751V3.40967H12.75ZM8.25 3.78467C8.25 3.68521 8.28951 3.58983 8.35984 3.5195C8.43016 3.44918 8.52555 3.40967 8.625 3.40967H10.5V6.03467C10.5006 6.09692 10.5167 6.15805 10.5466 6.21261C10.5766 6.26718 10.6196 6.31348 10.6718 6.34741C10.724 6.38134 10.7838 6.40184 10.8458 6.40708C10.9078 6.41232 10.9702 6.40214 11.0274 6.37746L12 5.94531L12.9727 6.37746C13.0298 6.40212 13.0922 6.41227 13.1542 6.40702C13.2162 6.40176 13.276 6.38126 13.3282 6.34734C13.3804 6.31341 13.4234 6.26712 13.4533 6.21257C13.4833 6.15802 13.4993 6.09691 13.5 6.03467V3.40967H15.375C15.4745 3.40967 15.5698 3.44918 15.6402 3.5195C15.7105 3.58983 15.75 3.68521 15.75 3.78467V10.1597H8.25V3.78467ZM7.875 10.9097V12.9575L7.27736 12.692C7.22939 12.6707 7.1775 12.6597 7.12502 12.6597C7.07254 12.6597 7.02065 12.6707 6.97268 12.692L6.375 12.9575V10.9097H7.875ZM3.375 11.2847C3.375 11.1852 3.41451 11.0898 3.48484 11.0195C3.55516 10.9492 3.65055 10.9097 3.75 10.9097H5.625V13.5347C5.62567 13.5969 5.64171 13.658 5.67169 13.7126C5.70167 13.7671 5.74467 13.8134 5.79685 13.8473C5.84904 13.8813 5.90881 13.9018 5.97083 13.907C6.03285 13.9123 6.09521 13.9021 6.15236 13.8775L7.125 13.4453L8.09768 13.8775C8.15483 13.9021 8.21719 13.9123 8.27921 13.907C8.34123 13.9018 8.40099 13.8813 8.45318 13.8473C8.50536 13.8134 8.54836 13.7671 8.57833 13.7126C8.60831 13.658 8.62434 13.5969 8.625 13.5347V10.9097H10.5C10.5995 10.9097 10.6948 10.9492 10.7652 11.0195C10.8355 11.0898 10.875 11.1852 10.875 11.2847V17.6597H3.375V11.2847ZM5.625 20.2847C5.625 20.3841 5.58549 20.4795 5.51517 20.5498C5.44484 20.6202 5.34946 20.6597 5.25 20.6597H3.75C3.65055 20.6597 3.55516 20.6202 3.48484 20.5498C3.41451 20.4795 3.375 20.3841 3.375 20.2847V19.9097H5.625V20.2847ZM13.125 20.2847C13.125 20.3841 13.0855 20.4795 13.0152 20.5498C12.9448 20.6202 12.8495 20.6597 12.75 20.6597H11.25C11.1505 20.6597 11.0552 20.6202 10.9848 20.5498C10.9145 20.4795 10.875 20.3841 10.875 20.2847V19.9097H13.125V20.2847ZM20.625 20.2847C20.625 20.3841 20.5855 20.4795 20.5152 20.5498C20.4448 20.6202 20.3495 20.6597 20.25 20.6597H18.75C18.6505 20.6597 18.5552 20.6202 18.4848 20.5498C18.4145 20.4795 18.375 20.3841 18.375 20.2847V19.9097H20.625V20.2847ZM22.125 19.1597H1.875C1.77555 19.1597 1.68016 19.1202 1.60984 19.0498C1.53951 18.9795 1.5 18.8841 1.5 18.7847C1.5 18.6852 1.53951 18.5898 1.60984 18.5195C1.68016 18.4492 1.77555 18.4097 1.875 18.4097H22.125C22.2245 18.4097 22.3198 18.4492 22.3902 18.5195C22.4605 18.5898 22.5 18.6852 22.5 18.7847C22.5 18.8841 22.4605 18.9795 22.3902 19.0498C22.3198 19.1202 22.2245 19.1597 22.125 19.1597ZM8.25 15.4097H6C5.90055 15.4097 5.80516 15.3702 5.73484 15.2998C5.66451 15.2295 5.625 15.1341 5.625 15.0347C5.625 14.9352 5.66451 14.8398 5.73484 14.7695C5.80516 14.6992 5.90055 14.6597 6 14.6597H8.25C8.34946 14.6597 8.44484 14.6992 8.51517 14.7695C8.58549 14.8398 8.625 14.9352 8.625 15.0347C8.625 15.1341 8.58549 15.2295 8.51517 15.2998C8.44484 15.3702 8.34946 15.4097 8.25 15.4097ZM8.25 16.5347H6C5.90055 16.5347 5.80516 16.4952 5.73484 16.4248C5.66451 16.3545 5.625 16.2591 5.625 16.1597C5.625 16.0602 5.66451 15.9648 5.73484 15.8945C5.80516 15.8242 5.90055 15.7847 6 15.7847H8.25C8.34946 15.7847 8.44484 15.8242 8.51517 15.8945C8.58549 15.9648 8.625 16.0602 8.625 16.1597C8.625 16.2591 8.58549 16.3545 8.51517 16.4248C8.44484 16.4952 8.34946 16.5347 8.25 16.5347ZM18 15.4097H15.75C15.6505 15.4097 15.5552 15.3702 15.4848 15.2998C15.4145 15.2295 15.375 15.1341 15.375 15.0347C15.375 14.9352 15.4145 14.8398 15.4848 14.7695C15.5552 14.6992 15.6505 14.6597 15.75 14.6597H18C18.0995 14.6597 18.1948 14.6992 18.2652 14.7695C18.3355 14.8398 18.375 14.9352 18.375 15.0347C18.375 15.1341 18.3355 15.2295 18.2652 15.2998C18.1948 15.3702 18.0995 15.4097 18 15.4097ZM18 16.5347H15.75C15.6505 16.5347 15.5552 16.4952 15.4848 16.4248C15.4145 16.3545 15.375 16.2591 15.375 16.1597C15.375 16.0602 15.4145 15.9648 15.4848 15.8945C15.5552 15.8242 15.6505 15.7847 15.75 15.7847H18C18.0995 15.7847 18.1948 15.8242 18.2652 15.8945C18.3355 15.9648 18.375 16.0602 18.375 16.1597C18.375 16.2591 18.3355 16.3545 18.2652 16.4248C18.1948 16.4952 18.0995 16.5347 18 16.5347ZM10.5 7.53467C10.5 7.43521 10.5395 7.33983 10.6098 7.2695C10.6802 7.19918 10.7755 7.15967 10.875 7.15967H13.125C13.2245 7.15967 13.3198 7.19918 13.3902 7.2695C13.4605 7.33983 13.5 7.43521 13.5 7.53467C13.5 7.63412 13.4605 7.72951 13.3902 7.79983C13.3198 7.87016 13.2245 7.90967 13.125 7.90967H10.875C10.7755 7.90967 10.6802 7.87016 10.6098 7.79983C10.5395 7.72951 10.5 7.63412 10.5 7.53467ZM10.5 8.65967C10.5 8.56021 10.5395 8.46483 10.6098 8.3945C10.6802 8.32418 10.7755 8.28467 10.875 8.28467H13.125C13.2245 8.28467 13.3198 8.32418 13.3902 8.3945C13.4605 8.46483 13.5 8.56021 13.5 8.65967C13.5 8.75912 13.4605 8.85451 13.3902 8.92483C13.3198 8.99516 13.2245 9.03467 13.125 9.03467H10.875C10.7755 9.03467 10.6802 8.99516 10.6098 8.92483C10.5395 8.85451 10.5 8.75912 10.5 8.65967Z" fill="#223039"/>
</svg>
