<svg width="24" height="25" viewBox="0 0 24 25" fill="none" xmlns="http://www.w3.org/2000/svg">
<path d="M12 13.3348C11.87 13.3348 11.74 13.3048 11.62 13.2348L2.78999 8.12477C2.43999 7.91477 2.30999 7.45477 2.51999 7.09477C2.72999 6.73477 3.18999 6.61477 3.54999 6.82477L12 11.7148L20.4 6.85477C20.76 6.64477 21.22 6.77477 21.43 7.12477C21.64 7.48477 21.51 7.94477 21.16 8.15477L12.39 13.2348C12.26 13.2948 12.13 13.3348 12 13.3348Z" fill="#223039"/>
<path d="M12 22.3947C11.59 22.3947 11.25 22.0547 11.25 21.6447V12.5747C11.25 12.1647 11.59 11.8247 12 11.8247C12.41 11.8247 12.75 12.1647 12.75 12.5747V21.6447C12.75 22.0547 12.41 22.3947 12 22.3947Z" fill="#223039"/>
<path d="M12 22.7847C11.12 22.7847 10.25 22.5947 9.56002 22.2147L4.22001 19.2447C2.77001 18.4447 1.64001 16.5147 1.64001 14.8547V9.20467C1.64001 7.54467 2.77001 5.62467 4.22001 4.81467L9.56002 1.85467C10.93 1.09467 13.07 1.09467 14.44 1.85467L19.78 4.82467C21.23 5.62467 22.36 7.55467 22.36 9.21467V14.8647C22.36 16.5247 21.23 18.4447 19.78 19.2547L14.44 22.2147C13.75 22.5947 12.88 22.7847 12 22.7847ZM12 2.78467C11.37 2.78467 10.75 2.91467 10.29 3.16467L4.95001 6.13467C3.99001 6.66467 3.14001 8.10467 3.14001 9.20467V14.8547C3.14001 15.9547 3.99001 17.3947 4.95001 17.9347L10.29 20.9047C11.2 21.4147 12.8 21.4147 13.71 20.9047L19.05 17.9347C20.01 17.3947 20.86 15.9647 20.86 14.8547V9.20467C20.86 8.10467 20.01 6.66467 19.05 6.12467L13.71 3.15467C13.25 2.91467 12.63 2.78467 12 2.78467Z" fill="#223039"/>
</svg>
