<svg width="24" height="25" viewBox="0 0 24 25" fill="none" xmlns="http://www.w3.org/2000/svg">
<path d="M22.1257 17.6597H21.3757V11.2847C21.3757 10.9863 21.2572 10.7002 21.0462 10.4892C20.8353 10.2782 20.5491 10.1597 20.2507 10.1597H16.5007V3.78467C16.5007 3.4863 16.3822 3.20015 16.1712 2.98917C15.9603 2.77819 15.6741 2.65967 15.3757 2.65967H8.62573C8.32737 2.65967 8.04122 2.77819 7.83024 2.98917C7.61926 3.20015 7.50073 3.4863 7.50073 3.78467V10.1597H3.75073C3.45237 10.1597 3.16622 10.2782 2.95524 10.4892C2.74426 10.7002 2.62573 10.9863 2.62573 11.2847V17.6597H1.87573C0.416759 17.6392 0.416084 19.93 1.87573 19.9097H2.62573V20.2847C2.62573 20.583 2.74426 20.8692 2.95524 21.0802C3.16622 21.2911 3.45237 21.4097 3.75073 21.4097H5.25073C5.5491 21.4097 5.83525 21.2911 6.04623 21.0802C6.25721 20.8692 6.37573 20.583 6.37573 20.2847V19.9097H10.1257V20.2847C10.1257 20.583 10.2443 20.8692 10.4552 21.0802C10.6662 21.2911 10.9524 21.4097 11.2507 21.4097H12.7507C13.0491 21.4097 13.3353 21.2911 13.5462 21.0802C13.7572 20.8692 13.8757 20.583 13.8757 20.2847V19.9097H17.6257V20.2847C17.6257 20.583 17.7443 20.8692 17.9552 21.0802C18.1662 21.2911 18.4524 21.4097 18.7507 21.4097H20.2507C20.5491 21.4097 20.8353 21.2911 21.0462 21.0802C21.2572 20.8692 21.3757 20.583 21.3757 20.2847V19.9097H22.1257C22.4241 19.9097 22.7103 19.7911 22.9212 19.5802C23.1322 19.3692 23.2507 19.083 23.2507 18.7847C23.2507 18.4863 23.1322 18.2002 22.9212 17.9892C22.7103 17.7782 22.4241 17.6597 22.1257 17.6597ZM20.2507 10.9097C20.3502 10.9097 20.4456 10.9492 20.5159 11.0195C20.5862 11.0898 20.6257 11.1852 20.6257 11.2847V17.6597H13.1257V11.2847C13.1257 11.1852 13.1652 11.0898 13.2356 11.0195C13.3059 10.9492 13.4013 10.9097 13.5007 10.9097H15.3757V13.5347C15.3764 13.5969 15.3924 13.658 15.4224 13.7126C15.4524 13.7672 15.4954 13.8135 15.5476 13.8474C15.5997 13.8813 15.6595 13.9018 15.7215 13.9071C15.7836 13.9123 15.8459 13.9021 15.9031 13.8775L16.8757 13.4453L17.8484 13.8775C17.9056 13.9021 17.9679 13.9123 18.03 13.9071C18.092 13.9018 18.1517 13.8813 18.2039 13.8474C18.2561 13.8135 18.2991 13.7672 18.3291 13.7126C18.3591 13.658 18.3751 13.5969 18.3757 13.5347V10.9097H20.2507ZM12.3757 17.6597H11.6257V11.2847C11.6245 11.1566 11.6012 11.0298 11.5568 10.9097H12.4446C12.4003 11.0298 12.377 11.1566 12.3757 11.2847V17.6597ZM17.6257 10.9097V12.9575L17.0281 12.692C16.9801 12.6707 16.9282 12.6597 16.8758 12.6597C16.8233 12.6597 16.7714 12.6707 16.7234 12.692L16.1257 12.9575V10.9097H17.6257ZM12.7507 3.40967V5.45751L12.1531 5.19201C12.1051 5.17074 12.0532 5.15975 12.0008 5.15975C11.9483 5.15975 11.8964 5.17074 11.8484 5.19201L11.2507 5.45751V3.40967H12.7507ZM8.25073 3.78467C8.25073 3.68521 8.29024 3.58983 8.36057 3.5195C8.4309 3.44918 8.52628 3.40967 8.62573 3.40967H10.5007V6.03467C10.5014 6.09692 10.5174 6.15805 10.5474 6.21261C10.5773 6.26718 10.6203 6.31348 10.6725 6.34741C10.7247 6.38134 10.7845 6.40184 10.8465 6.40708C10.9086 6.41232 10.9709 6.40214 11.0281 6.37746L12.0007 5.94531L12.9734 6.37746C13.0306 6.40212 13.0929 6.41227 13.1549 6.40702C13.217 6.40176 13.2767 6.38126 13.3289 6.34734C13.3811 6.31341 13.4241 6.26712 13.4541 6.21257C13.484 6.15802 13.5001 6.09691 13.5007 6.03467V3.40967H15.3757C15.4752 3.40967 15.5706 3.44918 15.6409 3.5195C15.7112 3.58983 15.7507 3.68521 15.7507 3.78467V10.1597H8.25073V3.78467ZM7.87573 10.9097V12.9575L7.2781 12.692C7.23012 12.6707 7.17823 12.6597 7.12575 12.6597C7.07328 12.6597 7.02138 12.6707 6.97341 12.692L6.37573 12.9575V10.9097H7.87573ZM3.37573 11.2847C3.37573 11.1852 3.41524 11.0898 3.48557 11.0195C3.5559 10.9492 3.65128 10.9097 3.75073 10.9097H5.62573V13.5347C5.6264 13.5969 5.64244 13.658 5.67242 13.7126C5.7024 13.7671 5.7454 13.8134 5.79759 13.8473C5.84978 13.8813 5.90954 13.9018 5.97156 13.907C6.03358 13.9123 6.09594 13.9021 6.1531 13.8775L7.12573 13.4453L8.09841 13.8775C8.15556 13.9021 8.21792 13.9123 8.27994 13.907C8.34196 13.9018 8.40172 13.8813 8.45391 13.8473C8.50609 13.8134 8.54909 13.7671 8.57907 13.7126C8.60904 13.658 8.62507 13.5969 8.62573 13.5347V10.9097H10.5007C10.6002 10.9097 10.6956 10.9492 10.7659 11.0195C10.8362 11.0898 10.8757 11.1852 10.8757 11.2847V17.6597H3.37573V11.2847ZM5.62573 20.2847C5.62573 20.3841 5.58623 20.4795 5.5159 20.5498C5.44557 20.6202 5.35019 20.6597 5.25073 20.6597H3.75073C3.65128 20.6597 3.5559 20.6202 3.48557 20.5498C3.41524 20.4795 3.37573 20.3841 3.37573 20.2847V19.9097H5.62573V20.2847ZM13.1257 20.2847C13.1257 20.3841 13.0862 20.4795 13.0159 20.5498C12.9456 20.6202 12.8502 20.6597 12.7507 20.6597H11.2507C11.1513 20.6597 11.0559 20.6202 10.9856 20.5498C10.9152 20.4795 10.8757 20.3841 10.8757 20.2847V19.9097H13.1257V20.2847ZM20.6257 20.2847C20.6257 20.3841 20.5862 20.4795 20.5159 20.5498C20.4456 20.6202 20.3502 20.6597 20.2507 20.6597H18.7507C18.6513 20.6597 18.5559 20.6202 18.4856 20.5498C18.4152 20.4795 18.3757 20.3841 18.3757 20.2847V19.9097H20.6257V20.2847ZM22.1257 19.1597H1.87573C1.77628 19.1597 1.6809 19.1202 1.61057 19.0498C1.54024 18.9795 1.50073 18.8841 1.50073 18.7847C1.50073 18.6852 1.54024 18.5898 1.61057 18.5195C1.6809 18.4492 1.77628 18.4097 1.87573 18.4097H22.1257C22.2252 18.4097 22.3206 18.4492 22.3909 18.5195C22.4612 18.5898 22.5007 18.6852 22.5007 18.7847C22.5007 18.8841 22.4612 18.9795 22.3909 19.0498C22.3206 19.1202 22.2252 19.1597 22.1257 19.1597ZM8.25073 15.4097H6.00073C5.90128 15.4097 5.8059 15.3702 5.73557 15.2998C5.66524 15.2295 5.62573 15.1341 5.62573 15.0347C5.62573 14.9352 5.66524 14.8398 5.73557 14.7695C5.8059 14.6992 5.90128 14.6597 6.00073 14.6597H8.25073C8.35019 14.6597 8.44557 14.6992 8.5159 14.7695C8.58623 14.8398 8.62573 14.9352 8.62573 15.0347C8.62573 15.1341 8.58623 15.2295 8.5159 15.2998C8.44557 15.3702 8.35019 15.4097 8.25073 15.4097ZM8.25073 16.5347H6.00073C5.90128 16.5347 5.8059 16.4952 5.73557 16.4248C5.66524 16.3545 5.62573 16.2591 5.62573 16.1597C5.62573 16.0602 5.66524 15.9648 5.73557 15.8945C5.8059 15.8242 5.90128 15.7847 6.00073 15.7847H8.25073C8.35019 15.7847 8.44557 15.8242 8.5159 15.8945C8.58623 15.9648 8.62573 16.0602 8.62573 16.1597C8.62573 16.2591 8.58623 16.3545 8.5159 16.4248C8.44557 16.4952 8.35019 16.5347 8.25073 16.5347ZM18.0007 15.4097H15.7507C15.6513 15.4097 15.5559 15.3702 15.4856 15.2998C15.4152 15.2295 15.3757 15.1341 15.3757 15.0347C15.3757 14.9352 15.4152 14.8398 15.4856 14.7695C15.5559 14.6992 15.6513 14.6597 15.7507 14.6597H18.0007C18.1002 14.6597 18.1956 14.6992 18.2659 14.7695C18.3362 14.8398 18.3757 14.9352 18.3757 15.0347C18.3757 15.1341 18.3362 15.2295 18.2659 15.2998C18.1956 15.3702 18.1002 15.4097 18.0007 15.4097ZM18.0007 16.5347H15.7507C15.6513 16.5347 15.5559 16.4952 15.4856 16.4248C15.4152 16.3545 15.3757 16.2591 15.3757 16.1597C15.3757 16.0602 15.4152 15.9648 15.4856 15.8945C15.5559 15.8242 15.6513 15.7847 15.7507 15.7847H18.0007C18.1002 15.7847 18.1956 15.8242 18.2659 15.8945C18.3362 15.9648 18.3757 16.0602 18.3757 16.1597C18.3757 16.2591 18.3362 16.3545 18.2659 16.4248C18.1956 16.4952 18.1002 16.5347 18.0007 16.5347ZM10.5007 7.53467C10.5007 7.43521 10.5402 7.33983 10.6106 7.2695C10.6809 7.19918 10.7763 7.15967 10.8757 7.15967H13.1257C13.2252 7.15967 13.3206 7.19918 13.3909 7.2695C13.4612 7.33983 13.5007 7.43521 13.5007 7.53467C13.5007 7.63412 13.4612 7.72951 13.3909 7.79983C13.3206 7.87016 13.2252 7.90967 13.1257 7.90967H10.8757C10.7763 7.90967 10.6809 7.87016 10.6106 7.79983C10.5402 7.72951 10.5007 7.63412 10.5007 7.53467ZM10.5007 8.65967C10.5007 8.56021 10.5402 8.46483 10.6106 8.3945C10.6809 8.32418 10.7763 8.28467 10.8757 8.28467H13.1257C13.2252 8.28467 13.3206 8.32418 13.3909 8.3945C13.4612 8.46483 13.5007 8.56021 13.5007 8.65967C13.5007 8.75912 13.4612 8.85451 13.3909 8.92483C13.3206 8.99516 13.2252 9.03467 13.1257 9.03467H10.8757C10.7763 9.03467 10.6809 8.99516 10.6106 8.92483C10.5402 8.85451 10.5007 8.75912 10.5007 8.65967Z" fill="#223039"/>
</svg>
